<?xml version="1.0" standalone="no"?>
<!DOCTYPE svg PUBLIC "-//W3C//DTD SVG 20010904//EN"
 "http://www.w3.org/TR/2001/REC-SVG-20010904/DTD/svg10.dtd">
<svg version="1.0" xmlns="http://www.w3.org/2000/svg"
 width="1280.000000pt" height="1280.000000pt" viewBox="0 0 1280.000000 1280.000000"
 preserveAspectRatio="xMidYMid meet">
<metadata>
Created by potrace 1.15, written by Peter Selinger 2001-2017
</metadata>
<g transform="translate(0.000000,1280.000000) scale(0.100000,-0.100000)"
fill="#000000" stroke="none">
<path d="M2206 12419 c-299 -32 -638 -152 -891 -317 -487 -316 -810 -805 -917
-1385 l-23 -122 0 -4195 0 -4195 23 -122 c79 -431 275 -807 576 -1109 302
-301 678 -497 1109 -576 l122 -23 4195 0 4195 0 122 23 c431 79 807 275 1109
576 301 302 497 678 576 1109 l23 122 0 4195 0 4195 -23 122 c-79 431 -275
807 -576 1109 -300 299 -670 493 -1103 576 l-118 23 -4160 1 c-2288 1 -4196
-2 -4239 -7z m8244 -1039 c52 -5 130 -18 172 -29 411 -106 709 -451 758 -876
14 -124 14 -8025 0 -8150 -27 -240 -124 -440 -294 -611 -169 -168 -367 -264
-606 -294 -118 -14 -8042 -14 -8160 0 -246 30 -440 127 -615 305 -136 138
-221 297 -271 505 -18 72 -19 261 -22 4085 -2 2614 1 4048 7 4120 24 267 118
473 296 650 168 169 381 270 620 294 115 12 7998 13 8115 1z"/>
<path d="M6347 10804 c-9 -9 -9 -223 0 -422 l6 -152 47 0 48 0 7 203 c3 111 5
240 3 287 l-3 85 -50 3 c-28 2 -54 0 -58 -4z"/>
<path d="M5924 10503 c4 -43 13 -125 19 -183 l12 -105 30 -3 c56 -4 57 -1 40
173 -8 87 -15 166 -15 177 0 15 -8 18 -46 18 l-47 0 7 -77z"/>
<path d="M6790 10558 c0 -13 -7 -90 -15 -173 -8 -82 -15 -155 -15 -161 0 -16
61 -27 74 -14 10 10 26 119 42 293 l7 77 -47 0 c-41 0 -46 -2 -46 -22z"/>
<path d="M5520 10513 c-14 -3 -28 -9 -31 -15 -6 -9 66 -346 76 -356 11 -11 75
10 75 24 0 17 -57 306 -66 337 -5 17 -9 18 -54 10z"/>
<path d="M7226 10503 c-9 -31 -66 -320 -66 -337 0 -14 64 -35 75 -24 10 10 82
347 76 356 -3 5 -23 12 -43 16 -30 5 -37 3 -42 -11z"/>
<path d="M5091 10395 c-19 -9 -31 -20 -29 -27 3 -7 29 -84 57 -170 29 -87 56
-160 61 -163 4 -3 22 0 40 6 29 11 31 15 26 43 -12 59 -101 320 -111 323 -5 1
-25 -4 -44 -12z"/>
<path d="M7652 10393 c-13 -24 -102 -312 -102 -328 0 -14 57 -38 70 -30 5 3
32 76 61 163 28 86 54 163 57 170 2 7 -11 18 -32 27 -44 19 -43 19 -54 -2z"/>
<path d="M4680 10237 c-15 -8 -24 -20 -22 -30 4 -21 130 -297 144 -314 8 -10
17 -9 42 4 17 8 32 17 34 18 1 1 -30 77 -69 169 -75 174 -79 179 -129 153z"/>
<path d="M7991 10085 c-39 -92 -70 -169 -69 -170 2 -1 17 -10 34 -18 25 -13
34 -14 42 -4 9 11 125 259 143 304 10 26 -5 40 -48 49 l-30 6 -72 -167z"/>
<path d="M4193 10214 c-24 -14 -43 -27 -43 -30 0 -6 268 -463 282 -481 8 -10
19 -8 48 7 21 11 41 23 44 28 6 10 -265 494 -279 499 -5 1 -29 -9 -52 -23z"/>
<path d="M8543 10228 c-45 -70 -271 -484 -267 -490 3 -5 23 -17 44 -28 29 -15
40 -17 48 -7 14 18 282 475 282 481 0 6 -83 56 -93 56 -3 0 -9 -6 -14 -12z"/>

<path d="M3926 9799 c-14 -11 -26 -24 -26 -29 0 -17 210 -290 222 -290 17 1
61 38 56 48 -11 27 -205 291 -214 292 -6 0 -23 -9 -38 -21z"/>
<path d="M8725 9678 c-55 -78 -102 -145 -103 -150 -5 -10 39 -47 56 -48 12 0
222 273 222 290 0 11 -50 50 -64 50 -6 -1 -56 -64 -111 -142z"/>
<path d="M3588 9527 c-16 -13 -28 -27 -28 -33 0 -11 234 -267 248 -272 4 -1
20 10 35 26 l26 27 -119 135 c-65 74 -122 136 -127 137 -4 1 -20 -8 -35 -20z"/>
<path d="M9052 9413 l-121 -138 26 -27 c15 -16 31 -27 35 -26 15 5 248 261
248 273 0 10 -52 55 -63 55 -2 0 -58 -62 -125 -137z"/>
<path d="M3271 9209 c-27 -37 -42 -17 134 -173 l119 -106 28 27 c16 15 27 31
26 35 -5 15 -261 248 -273 248 -6 0 -22 -14 -34 -31z"/>
<path d="M9354 9120 c-71 -66 -130 -123 -132 -128 -1 -4 10 -20 26 -35 l28
-27 119 106 c176 156 161 136 134 173 -12 17 -28 31 -34 31 -6 0 -69 -54 -141
-120z"/>
<path d="M3001 8874 c-12 -15 -21 -32 -21 -38 1 -9 265 -203 292 -214 10 -5
47 39 48 56 0 12 -273 222 -290 222 -5 0 -18 -12 -29 -26z"/>
<path d="M9621 8795 c-78 -58 -141 -111 -141 -117 1 -17 38 -61 48 -56 27 11
291 205 292 214 0 14 -39 64 -50 64 -5 0 -72 -47 -149 -105z"/>
<path d="M2584 8604 c-18 -31 -23 -49 -16 -56 20 -20 486 -277 494 -272 5 3
17 23 28 44 15 29 17 40 7 48 -18 14 -475 282 -481 282 -3 0 -17 -21 -32 -46z"/>
<path d="M9970 8527 c-113 -67 -223 -132 -243 -144 l-38 -23 21 -39 c11 -22
23 -42 28 -45 8 -5 474 252 494 272 7 7 2 25 -16 56 -15 25 -30 46 -34 46 -4
-1 -99 -56 -212 -123z"/>
<path d="M2571 8136 c-6 -7 -14 -26 -17 -43 l-6 -30 167 -72 c92 -39 169 -70
170 -69 1 2 10 17 18 34 13 25 14 34 4 42 -11 9 -254 123 -304 143 -14 5 -25
4 -32 -5z"/>
<path d="M10060 8079 c-85 -39 -160 -75 -167 -81 -10 -8 -9 -17 4 -42 8 -17
17 -32 18 -34 1 -1 78 30 170 69 l167 72 -6 31 c-13 62 -19 61 -186 -15z"/>
<path d="M2405 7706 c-9 -20 -13 -41 -10 -46 6 -9 266 -95 323 -106 26 -5 31
-3 41 26 6 18 9 36 6 40 -3 5 -76 32 -163 61 -86 28 -163 54 -170 57 -7 2 -19
-11 -27 -32z"/>
<path d="M10206 7684 c-88 -29 -163 -57 -168 -62 -5 -5 -3 -23 3 -41 10 -30
15 -32 41 -27 57 11 317 97 323 106 7 11 -21 80 -32 79 -4 0 -80 -25 -167 -55z"/>
<path d="M2302 7311 c-5 -3 -12 -23 -16 -43 -5 -30 -3 -37 11 -42 31 -9 320
-66 337 -66 14 0 35 64 24 75 -10 10 -347 82 -356 76z"/>
<path d="M10316 7278 c-93 -21 -171 -40 -174 -42 -2 -3 -1 -21 2 -41 5 -24 12
-35 24 -35 23 0 341 66 347 71 8 9 -7 78 -19 82 -6 2 -87 -14 -180 -35z"/>
<path d="M2220 6836 c0 -41 2 -46 23 -46 12 0 90 -7 172 -15 83 -8 155 -15
161 -15 16 0 27 61 14 74 -10 10 -119 26 -292 42 l-78 7 0 -47z"/>
<path d="M10360 6863 c-69 -8 -132 -18 -140 -23 -13 -7 -18 -66 -6 -78 2 -1
77 4 167 12 89 9 171 16 181 16 15 0 18 8 18 45 l0 45 -47 -1 c-27 -1 -104 -8
-173 -16z"/>
<path d="M1994 6446 c-3 -7 -4 -33 -2 -57 l3 -44 85 -3 c47 -2 176 0 288 3
l202 7 0 48 0 47 -152 6 c-260 12 -418 9 -424 -7z"/>
<path d="M10333 6453 l-103 -4 0 -48 0 -49 203 -7 c111 -3 240 -5 287 -3 l85
3 0 55 0 55 -185 0 c-102 1 -231 -1 -287 -2z"/>
<path d="M2460 6030 c-36 -4 -104 -11 -152 -15 l-88 -7 0 -45 0 -46 78 7 c173
16 282 32 292 42 6 6 7 24 4 42 -7 36 -10 36 -134 22z"/>
<path d="M10206 6008 c-3 -18 -2 -36 4 -42 10 -10 119 -26 293 -42 l77 -7 0
47 c0 41 -2 46 -22 46 -13 0 -90 7 -173 15 -82 8 -155 15 -161 15 -6 0 -14
-14 -18 -32z"/>
<path d="M2460 5609 c-200 -42 -182 -34 -174 -77 4 -20 11 -40 16 -43 9 -6
346 66 356 76 2 2 1 20 -2 40 -8 43 -10 43 -196 4z"/>
<path d="M10144 5605 c-3 -20 -4 -38 -2 -40 10 -10 347 -82 356 -76 5 3 12 23
16 43 5 30 3 37 -11 42 -31 9 -320 66 -337 66 -9 0 -18 -13 -22 -35z"/>
<path d="M2561 5200 c-84 -27 -158 -53 -163 -58 -13 -13 18 -86 34 -80 7 3 84
29 170 57 87 29 160 56 163 61 9 15 -17 70 -33 70 -10 -1 -86 -23 -171 -50z"/>
<path d="M10041 5220 c-6 -18 -9 -36 -6 -40 3 -5 76 -32 163 -61 86 -28 163
-54 170 -57 13 -5 46 63 37 78 -6 9 -266 95 -323 106 -26 5 -31 3 -41 -26z"/>
<path d="M2712 4808 l-164 -71 6 -31 c13 -62 19 -61 186 15 85 39 160 75 167
81 9 7 8 17 -4 44 -9 19 -19 34 -22 33 -3 0 -80 -32 -169 -71z"/>
<path d="M9898 4846 c-13 -27 -14 -37 -5 -44 7 -6 82 -42 167 -81 167 -76 173
-77 186 -15 l6 31 -155 66 c-86 37 -162 69 -169 72 -9 4 -20 -7 -30 -29z"/>
<path d="M2816 4395 c-131 -73 -243 -138 -248 -143 -7 -7 -2 -25 16 -56 15
-25 29 -46 32 -46 6 0 463 268 481 282 10 8 8 19 -7 48 -11 21 -23 41 -28 44
-5 3 -115 -55 -246 -129z"/>
<path d="M9732 4517 c-5 -6 -17 -26 -25 -43 -13 -25 -14 -34 -4 -42 18 -14
475 -282 481 -282 3 0 17 21 32 46 23 38 25 47 13 58 -11 10 -376 217 -465
264 -17 9 -24 9 -32 -1z"/>
<path d="M3123 4077 c-78 -56 -142 -107 -143 -113 0 -14 39 -64 50 -64 17 0
290 210 290 222 -1 16 -35 58 -47 57 -4 0 -72 -46 -150 -102z"/>
<path d="M9498 4155 c-10 -13 -18 -29 -18 -34 0 -12 275 -221 290 -221 11 0
50 50 50 64 -1 11 -273 209 -294 213 -6 2 -19 -8 -28 -22z"/>
<path d="M3405 3764 c-176 -156 -161 -136 -134 -173 12 -17 28 -31 34 -31 12
0 268 233 273 248 1 4 -10 20 -26 35 l-28 27 -119 -106z"/>
<path d="M9244 3839 l-28 -29 24 -24 c104 -101 245 -226 255 -226 9 0 55 52
55 63 0 3 -187 171 -246 220 l-31 26 -29 -30z"/>
<path d="M3682 3448 c-67 -73 -122 -137 -122 -143 0 -6 14 -22 31 -34 37 -27
17 -42 173 134 l106 119 -27 28 c-15 15 -30 28 -33 28 -3 0 -61 -59 -128 -132z"/>
<path d="M8957 3552 l-27 -28 106 -119 c156 -176 136 -161 173 -134 17 12 31
28 31 34 0 12 -233 268 -248 273 -4 1 -20 -10 -35 -26z"/>
<path d="M4005 3179 c-58 -77 -105 -144 -105 -149 0 -11 50 -50 64 -50 9 1
203 265 214 292 5 10 -39 47 -56 48 -6 0 -59 -63 -117 -141z"/>
<path d="M8642 3300 c-13 -11 -22 -23 -20 -28 11 -27 205 -291 214 -292 14 0
64 39 64 50 0 17 -210 290 -222 290 -7 -1 -24 -9 -36 -20z"/>
<path d="M4432 3097 c-14 -18 -282 -475 -282 -481 0 -3 21 -17 46 -32 31 -18
49 -23 56 -16 20 20 277 486 272 494 -3 5 -23 17 -44 28 -29 15 -40 17 -48 7z"/>
<path d="M8315 3086 c-23 -13 -39 -29 -37 -37 5 -19 252 -460 268 -478 11 -12
20 -10 58 13 25 15 46 29 46 32 0 8 -271 467 -284 481 -8 10 -20 7 -51 -11z"/>
<path d="M4802 2907 c-9 -11 -125 -259 -143 -304 -10 -26 5 -40 48 -49 l30 -6
72 167 c39 92 70 169 69 170 -2 1 -17 10 -34 18 -25 13 -34 14 -42 4z"/>
<path d="M7955 2903 c-16 -9 -31 -17 -33 -18 -1 -1 30 -78 69 -170 l72 -167
30 6 c43 9 58 23 48 49 -22 57 -134 293 -145 304 -8 9 -18 8 -41 -4z"/>
<path d="M5175 2760 c-6 -10 -115 -330 -115 -338 0 -8 72 -32 80 -27 9 6 95
266 106 323 5 26 3 31 -27 41 -39 13 -36 13 -44 1z"/>
<path d="M7576 2758 c-24 -9 -27 -14 -22 -40 11 -57 97 -317 106 -323 11 -7
80 21 79 32 -2 27 -116 337 -124 339 -5 1 -23 -2 -39 -8z"/>
<path d="M5540 2564 c-12 -55 -30 -134 -40 -176 -9 -42 -14 -81 -11 -86 10
-16 78 -24 83 -10 12 31 71 348 66 353 -3 3 -21 8 -41 12 l-35 5 -22 -98z"/>
<path d="M7178 2653 c-23 -6 -23 -9 12 -187 41 -203 35 -188 78 -180 20 4 40
11 43 16 3 5 -2 44 -11 86 -10 42 -28 121 -40 175 -23 103 -25 105 -82 90z"/>
<path d="M5963 2588 c-8 -13 -25 -138 -39 -290 l-7 -78 47 0 c38 0 46 3 46 18
0 10 7 92 16 181 8 90 14 164 12 166 -2 1 -17 6 -35 9 -21 5 -34 3 -40 -6z"/>
<path d="M6783 2593 c-27 -5 -26 9 -8 -178 8 -82 15 -160 15 -172 0 -21 5 -23
46 -23 l47 0 -7 78 c-14 150 -31 277 -39 290 -8 12 -14 13 -54 5z"/>
<path d="M6345 2368 c-3 -112 -5 -241 -3 -288 l3 -85 55 0 55 0 3 85 c2 47 0
176 -3 288 l-7 202 -48 0 -48 0 -7 -202z"/>
</g>
</svg>
