<?xml version="1.0" standalone="no"?>
<!DOCTYPE svg PUBLIC "-//W3C//DTD SVG 20010904//EN"
 "http://www.w3.org/TR/2001/REC-SVG-20010904/DTD/svg10.dtd">
<svg version="1.0" xmlns="http://www.w3.org/2000/svg"
 width="1000.000000pt" height="829.000000pt" viewBox="0 0 1000.000000 829.000000"
 preserveAspectRatio="xMidYMid meet">

<g transform="translate(0.000000,829.000000) scale(0.100000,-0.100000)"
fill="#000000" stroke="none">
<path d="M0 7910 c0 -289 3 -380 12 -380 9 0 9 -3 0 -12 -9 -9 -12 -107 -11
-382 0 -204 3 -364 6 -356 12 32 47 60 75 60 43 0 65 -16 78 -55 10 -29 9 -39
-6 -64 -35 -59 -120 -56 -142 6 -8 21 -11 -39 -11 -230 -1 -184 2 -263 11
-277 9 -15 9 -24 0 -42 -9 -16 -12 -62 -10 -146 l3 -123 145 146 c80 79 148
145 151 145 4 0 1 -17 -6 -37 -7 -21 -11 -40 -8 -43 2 -2 30 23 61 57 31 34
68 67 81 73 22 11 23 11 17 -13 -3 -14 -9 -33 -13 -43 -4 -10 15 8 43 40 27
32 72 81 101 110 41 40 55 62 66 105 17 65 26 55 34 -37 5 -61 2 -75 -26 -139
-36 -82 -38 -92 -14 -70 17 15 18 12 20 -40 3 -59 -4 -79 -49 -133 -21 -26
-28 -45 -28 -77 0 -66 -13 -87 -126 -208 -58 -62 -121 -136 -140 -163 -40 -60
-72 -84 -141 -107 -28 -9 -66 -28 -84 -41 -18 -13 -46 -24 -61 -24 l-28 0 0
-763 0 -763 85 42 c111 54 196 76 326 82 174 8 317 -30 456 -121 261 -171 401
-487 349 -787 -29 -166 -104 -308 -231 -436 -165 -167 -352 -248 -570 -246
-127 0 -228 23 -333 74 -37 18 -70 35 -74 36 -5 2 -8 -566 -8 -1262 l0 -1266
5000 0 5000 0 0 1268 0 1268 -51 38 c-135 104 -258 323 -289 519 -16 100 -8
249 20 347 43 152 151 315 265 401 l55 41 0 757 0 757 -39 -4 c-94 -9 -196
106 -176 198 4 16 19 46 34 68 16 21 32 49 36 63 11 35 57 98 104 144 l41 39
0 128 0 128 -24 0 c-30 0 -49 22 -44 52 2 18 10 24 36 26 l32 3 0 633 0 633
-52 -17 c-55 -18 -61 -26 -72 -102 -4 -27 -11 -48 -16 -48 -4 0 -28 22 -53 50
l-45 49 -66 -6 c-79 -7 -81 -2 -30 69 l36 49 -32 60 c-17 33 -30 62 -28 64 2
2 34 -3 72 -12 l68 -15 47 46 c26 25 50 46 54 46 4 0 7 -17 7 -37 0 -88 9
-106 61 -136 l49 -27 0 375 0 375 -610 0 -609 0 35 -73 c40 -84 64 -186 64
-273 0 -34 7 -79 16 -100 21 -50 14 -113 -18 -162 -13 -20 -37 -73 -52 -117
-55 -156 -89 -210 -215 -333 -136 -133 -221 -189 -351 -233 -81 -27 -112 -33
-210 -36 -64 -1 -129 -8 -146 -15 -25 -9 -37 -8 -64 5 -18 10 -39 17 -45 17
-7 0 -18 6 -24 14 -7 8 -44 24 -84 36 -127 39 -177 71 -312 202 -70 69 -142
148 -161 180 -19 31 -54 73 -77 92 l-42 35 -6 163 c-12 305 13 468 85 563 l27
35 -3600 0 -3601 0 0 -380z m6960 311 c0 -21 -26 -36 -36 -20 -9 15 3 39 21
39 8 0 15 -9 15 -19z m-3840 -20 c15 -28 -21 -71 -47 -55 -23 14 -28 41 -13
59 17 21 47 19 60 -4z m1350 -20 c0 -24 -25 -45 -45 -37 -15 5 -21 37 -8 49 3
4 17 7 30 7 16 0 23 -6 23 -19z m1055 -32 c0 -7 -8 -15 -17 -17 -18 -3 -25 18
-11 32 10 10 28 1 28 -15z m569 -28 c9 -14 -4 -41 -19 -41 -18 0 -28 17 -21
35 6 17 32 20 40 6z m-3486 -24 c4 -20 -25 -34 -39 -20 -14 14 1 45 20 41 9
-2 17 -11 19 -21z m1377 -12 c0 -13 -8 -21 -22 -23 -17 -3 -23 2 -23 16 0 10
3 22 7 26 13 13 38 1 38 -19z m5553 -32 c-5 -26 -38 -29 -38 -4 0 15 6 21 21
21 14 0 19 -5 17 -17z m-6140 -55 c31 -31 3 -76 -39 -63 -33 11 -18 75 16 75
6 0 16 -5 23 -12z m-2316 -25 c39 -35 7 -98 -48 -91 -18 2 -34 13 -43 29 -13
24 -13 29 2 53 20 30 61 35 89 9z m633 -38 l50 -54 78 45 c43 26 80 44 82 42
3 -3 -9 -44 -25 -93 -17 -49 -30 -90 -30 -92 0 -2 27 -33 60 -68 33 -35 60
-70 60 -76 0 -8 -19 -9 -67 -3 -131 15 -118 21 -190 -94 -36 -56 -69 -100 -74
-96 -5 3 -9 36 -9 73 0 38 -3 89 -6 113 l-6 46 -69 27 c-38 15 -69 31 -69 36
0 5 33 25 73 45 l73 37 -4 83 c-5 103 2 106 73 29z m1047 38 c22 -20 23 -41 1
-65 -31 -35 -73 -16 -73 34 0 42 40 60 72 31z m1348 -43 l55 -60 53 16 c29 9
56 14 58 11 3 -3 -6 -31 -21 -62 l-26 -57 41 -41 c22 -23 40 -45 40 -50 0 -5
-27 -7 -61 -5 l-61 3 -20 -50 c-11 -27 -23 -54 -27 -58 -5 -5 -20 20 -34 55
-27 68 -26 68 -130 83 -32 5 -37 9 -26 21 6 8 34 27 61 42 41 23 48 31 44 52
-12 58 -18 160 -10 160 4 0 33 -27 64 -60z m2800 25 c26 -32 -13 -81 -47 -59
-35 22 -23 74 17 74 10 0 23 -7 30 -15z m-2152 -48 c6 -5 12 -24 12 -42 0 -18
7 -38 16 -46 8 -7 68 -76 133 -153 65 -78 149 -174 185 -213 65 -70 68 -72 91
-57 28 18 71 10 86 -18 13 -25 7 -26 280 64 169 56 218 76 225 92 13 30 77 35
96 7 8 -11 43 -31 78 -44 36 -14 114 -48 174 -76 99 -47 113 -51 138 -40 38
16 78 -9 78 -49 0 -38 -13 -53 -50 -61 -31 -6 -36 -14 -95 -146 -54 -121 -61
-142 -49 -156 29 -33 5 -99 -37 -99 -53 0 -79 43 -55 91 14 28 12 35 -60 192
-116 250 -142 295 -172 295 -14 0 -34 9 -43 21 l-18 22 -238 -78 c-176 -57
-243 -83 -256 -100 -32 -40 -107 -20 -107 29 0 11 -36 56 -81 101 -59 60 -304
342 -324 375 -1 1 -13 -1 -26 -6 -52 -20 -104 31 -79 77 19 37 63 45 98 18z
m-4339 -43 c31 -39 5 -84 -49 -84 -35 0 -50 17 -50 57 0 55 63 73 99 27z
m4928 -8 c-9 -23 -37 -20 -37 3 0 21 20 33 34 20 5 -4 6 -15 3 -23z m1101 22
c17 -17 15 -53 -3 -68 -20 -17 -62 -5 -70 20 -14 44 41 80 73 48z m-908 -80
c0 -4 14 -8 30 -8 34 0 39 -14 11 -30 -17 -8 -18 -15 -10 -42 13 -48 12 -51
-20 -27 -24 18 -32 19 -51 9 -22 -12 -23 -11 -17 17 5 25 2 32 -19 43 -33 18
-30 30 6 30 24 0 31 5 36 27 7 25 8 25 20 8 8 -11 14 -22 14 -27z m3870 -13
c10 -12 10 -18 0 -30 -20 -24 -50 -19 -50 8 0 39 26 50 50 22z m-6840 -84 c0
-11 -5 -23 -11 -27 -15 -9 -33 12 -26 30 9 23 37 20 37 -3z m533 -43 c30 -24
82 -66 116 -95 l61 -52 125 64 c68 36 131 65 140 65 26 0 17 -39 -35 -151 -27
-59 -50 -112 -50 -117 0 -6 45 -49 101 -97 55 -48 97 -91 92 -96 -10 -10 -206
-49 -245 -49 -31 0 -48 -28 -108 -175 -34 -83 -65 -135 -80 -135 -12 0 -43 86
-75 211 l-27 106 -127 11 c-108 10 -236 34 -249 47 -2 2 -1 9 3 15 8 12 225
159 272 183 29 16 31 18 22 54 -11 50 -11 253 0 253 5 0 34 -19 64 -42z m-125
-16 c4 -28 -24 -40 -45 -19 -14 13 -14 19 -3 32 18 22 44 15 48 -13z m1594
-59 c22 -20 23 -56 2 -77 -20 -21 -43 -20 -66 1 -25 22 -23 59 4 77 28 20 37
20 60 -1z m-3744 -15 c-2 -13 -10 -23 -18 -23 -8 0 -16 10 -18 23 -3 17 2 22
18 22 16 0 21 -5 18 -22z m1942 -57 c0 -11 -5 -23 -11 -27 -15 -9 -33 12 -26
30 9 23 37 20 37 -3z m3855 -41 c0 -18 -6 -26 -23 -28 -24 -4 -38 18 -28 44 3
9 15 14 28 12 17 -2 23 -10 23 -28z m-6171 -109 c23 -25 13 -59 -20 -67 -30
-8 -54 11 -54 42 0 22 22 43 46 44 6 0 19 -9 28 -19z m2144 -63 c7 -7 12 -24
12 -38 0 -31 -17 -50 -45 -50 -43 0 -60 47 -28 82 19 21 44 23 61 6z m6586
-14 c20 -8 21 -57 2 -74 -26 -21 -61 -8 -64 23 -5 45 21 67 62 51z m-6914 -51
c0 -8 12 -13 30 -13 35 0 38 -10 10 -35 -12 -11 -20 -31 -20 -52 0 -38 -2 -39
-35 -17 -18 12 -28 13 -44 5 -33 -18 -41 -13 -34 19 4 24 0 36 -16 54 -20 21
-20 24 -6 30 9 3 25 6 35 6 10 0 26 12 35 27 17 25 18 26 31 8 8 -10 14 -25
14 -32z m2008 -35 c17 -17 15 -35 -5 -42 -21 -9 -46 16 -37 37 7 20 25 22 42
5z m892 -28 c0 -24 -26 -38 -42 -22 -16 16 -2 42 22 42 13 0 20 -7 20 -20z
m-4298 -37 c39 -35 7 -98 -48 -91 -18 2 -34 13 -43 29 -13 24 -13 29 2 53 20
30 61 35 89 9z m5930 -19 c9 -18 9 -30 1 -42 -14 -24 -63 -22 -79 3 -12 18
-11 24 2 43 21 31 61 29 76 -4z m-6539 -18 c7 -17 -18 -40 -33 -31 -5 3 -10
15 -10 26 0 23 35 27 43 5z m3785 -76 l46 0 -33 -34 -32 -33 14 -57 c8 -31 13
-56 10 -56 -3 0 -23 16 -46 35 -25 22 -44 31 -51 26 -6 -5 -21 -12 -34 -16
-22 -6 -23 -5 -16 30 6 35 4 40 -32 72 l-39 33 47 -6 47 -6 12 47 12 48 25
-42 c23 -39 27 -41 70 -41z m-2320 -8 c3 -16 -2 -22 -17 -22 -24 0 -35 15 -27
36 9 23 40 13 44 -14z m3550 16 c19 -19 14 -56 -8 -68 -46 -25 -88 23 -54 61
20 22 44 25 62 7z m4369 -34 c7 -19 -20 -49 -36 -40 -12 8 -15 39 -4 49 12 12
33 7 40 -9z m-5127 -23 c0 -11 -5 -23 -11 -27 -15 -9 -33 12 -26 30 9 23 37
20 37 -3z m454 -2 c30 -44 -28 -93 -70 -58 -14 12 -19 60 -7 72 15 15 62 6 77
-14z m1016 1 c13 -25 5 -56 -16 -64 -24 -9 -54 12 -54 37 0 46 50 64 70 27z
m668 8 c21 -21 14 -57 -13 -70 -22 -10 -29 -9 -47 10 -19 18 -20 25 -10 47 13
27 49 34 70 13z m-4034 -14 c21 -21 20 -30 -6 -48 -15 -11 -26 -12 -40 -5 -23
12 -23 45 0 58 23 14 28 14 46 -5z m3012 5 c9 -15 -11 -33 -30 -26 -9 4 -13
13 -10 22 7 17 30 20 40 4z m-898 -27 c4 -28 -24 -40 -45 -19 -14 13 -14 19
-3 32 18 22 44 15 48 -13z m707 -38 c0 -10 -8 -20 -17 -22 -18 -3 -26 27 -11
42 12 11 28 0 28 -20z m-191 -30 c9 -8 16 -22 16 -29 0 -17 -27 -45 -44 -45
-19 0 -36 22 -36 45 0 41 36 58 64 29z m4560 -63 c10 -16 -5 -41 -24 -41 -20
0 -30 17 -22 38 5 14 38 16 46 3z m-4944 -23 c23 -25 24 -32 10 -59 -12 -22
-59 -26 -78 -7 -17 17 -15 54 4 72 21 22 39 20 64 -6z m-3275 -19 c0 -7 -8
-15 -17 -17 -18 -3 -25 18 -11 32 10 10 28 1 28 -15z m2174 -3 c8 -10 7 -34
-6 -94 -16 -75 -16 -86 -1 -149 9 -37 14 -83 11 -101 -4 -26 0 -39 20 -60 14
-15 45 -68 70 -117 58 -117 117 -189 217 -264 61 -46 89 -61 114 -61 22 0 40
-8 57 -26 34 -36 65 -51 139 -63 36 -7 85 -19 109 -28 34 -12 51 -14 75 -5 17
6 47 14 66 17 19 4 52 16 74 27 35 18 40 18 54 4 13 -13 13 -22 4 -53 -17 -58
-105 -185 -165 -239 -88 -80 -294 -184 -364 -184 -13 0 -34 -7 -48 -16 -17
-11 -34 -13 -62 -8 -21 5 -44 7 -52 5 -35 -7 -193 23 -263 50 -75 29 -200 105
-245 148 -13 12 -23 31 -23 42 0 31 -37 77 -79 98 -30 16 -44 34 -74 98 -90
192 -102 421 -28 559 12 21 21 50 21 64 0 46 79 171 159 250 102 101 189 143
220 106z m4962 -53 c8 -41 14 -137 14 -239 l0 -172 34 -22 34 -22 86 59 c100
68 235 194 229 214 -8 24 -56 21 -113 -5 -30 -14 -55 -21 -55 -17 0 13 101 53
148 59 37 4 42 2 42 -15 0 -32 -56 -109 -112 -154 -29 -23 -87 -64 -128 -92
-41 -27 -77 -52 -80 -54 -3 -2 6 -13 20 -23 30 -23 19 -26 -15 -4 -22 14 -26
14 -63 -11 -35 -23 -41 -32 -44 -70 -3 -41 -1 -44 41 -71 29 -18 55 -27 77
-26 22 2 41 -5 62 -23 32 -27 73 -33 90 -12 13 15 -7 62 -38 89 -11 9 -20 20
-20 24 0 17 73 -62 86 -93 22 -51 19 -55 -40 -52 -42 2 -59 -2 -80 -19 -39
-30 -96 -4 -96 44 0 17 -12 31 -40 49 -22 14 -41 25 -44 25 -2 0 -10 -24 -16
-52 -15 -64 -50 -136 -79 -162 -21 -19 -22 -19 -36 0 -8 10 -19 35 -25 54 -12
43 -13 157 -1 164 4 3 8 -32 8 -77 -1 -88 13 -130 41 -125 22 4 57 77 73 152
l12 59 -28 23 -28 22 -99 -49 c-54 -27 -98 -46 -98 -41 0 4 15 13 33 20 17 7
59 27 91 46 l60 34 -109 78 c-59 44 -133 100 -164 125 -32 26 -67 50 -79 53
-12 4 -22 14 -22 23 0 8 -9 28 -20 44 -25 35 -63 119 -57 125 3 3 20 -2 38
-10 29 -12 30 -15 12 -15 -15 -1 -23 -7 -23 -18 0 -25 42 -83 61 -83 20 0 39
-20 39 -41 0 -20 67 -78 185 -163 l80 -57 3 53 c2 29 8 58 14 63 7 7 9 4 5
-10 -3 -11 -7 -41 -8 -67 -3 -41 1 -50 25 -69 l29 -23 36 20 c32 17 37 24 42
69 4 29 2 56 -4 63 -16 21 -170 129 -244 173 -37 21 -62 39 -56 39 18 0 123
-64 209 -128 44 -32 85 -62 93 -66 12 -8 13 21 8 185 -6 204 -14 262 -34 238
-22 -27 -44 -126 -50 -219 -3 -52 -9 -102 -14 -110 -7 -13 -8 -13 -9 0 0 68
22 245 35 276 20 49 43 84 54 84 5 0 15 -30 22 -67z m-4043 35 c17 -17 15 -48
-5 -70 -20 -22 -31 -23 -55 -1 -22 20 -23 41 -1 65 19 21 44 23 61 6z m2457
-38 c0 -20 -6 -26 -27 -28 -24 -3 -28 0 -28 21 0 30 9 39 35 35 14 -2 20 -10
20 -28z m-5420 -10 c0 -18 -6 -26 -23 -28 -24 -4 -38 18 -28 44 3 9 15 14 28
12 17 -2 23 -10 23 -28z m3401 -1 c10 -17 -23 -46 -37 -32 -7 7 -9 19 -6 27 7
18 33 21 43 5z m-676 -35 c11 -12 10 -18 -3 -32 -15 -15 -19 -15 -32 -1 -17
17 -11 49 10 49 7 0 18 -7 25 -16z m990 -10 c0 -8 -9 -14 -20 -14 -22 0 -28
26 -7 33 16 6 27 -1 27 -19z m1191 -54 c34 0 37 -13 9 -33 -17 -12 -18 -18
-10 -48 15 -51 13 -53 -21 -25 -24 20 -35 24 -49 16 -26 -14 -28 -13 -22 16 4
20 -2 31 -24 50 l-29 23 38 -6 c32 -5 37 -3 37 14 0 30 13 37 29 14 8 -13 24
-21 42 -21z m2549 19 c0 -6 -4 -7 -10 -4 -5 3 -10 11 -10 16 0 6 5 7 10 4 6
-3 10 -11 10 -16z m-4582 -41 c29 -29 7 -78 -34 -78 -42 0 -63 59 -30 82 17
12 51 9 64 -4z m355 -12 c8 -20 -8 -38 -29 -34 -22 4 -31 37 -13 48 15 10 36
3 42 -14z m-3323 -1 c0 -8 -6 -15 -14 -15 -17 0 -28 14 -19 24 12 12 33 6 33
-9z m1540 -9 c0 -8 -5 -18 -11 -22 -14 -8 -33 11 -25 25 10 16 36 13 36 -3z
m5124 -1 c11 -8 15 -15 10 -15 -6 0 -19 7 -30 15 -10 8 -14 14 -9 14 6 0 19
-6 29 -14z m-2234 -15 c27 -27 25 -56 -4 -76 -35 -22 -80 -1 -84 41 -6 51 50
73 88 35z m3445 -30 c0 -16 -6 -26 -18 -28 -19 -4 -32 20 -23 44 9 25 41 13
41 -16z m-6747 8 c32 -32 0 -98 -46 -98 -53 0 -79 54 -45 92 18 20 73 24 91 6z
m2720 -23 c10 -21 17 -24 37 -19 28 7 33 -7 9 -27 -12 -10 -14 -23 -10 -51 7
-42 -2 -48 -29 -18 -13 15 -22 17 -36 10 -27 -15 -32 -12 -25 15 5 19 1 28
-19 41 -33 22 -32 32 5 26 25 -3 30 0 36 22 8 33 18 33 32 1z m-4017 5 c22
-12 27 -68 7 -88 -22 -22 -64 -14 -76 13 -16 35 -15 42 8 65 23 23 33 24 61
10z m7427 -26 c27 -19 28 -40 3 -54 -44 -23 -68 1 -46 47 12 27 14 27 43 7z
m-7220 -66 c18 -18 15 -42 -7 -62 -27 -24 -61 -6 -61 33 0 15 3 31 7 34 11 11
48 8 61 -5z m1637 -54 c0 -10 -8 -20 -18 -22 -22 -4 -35 27 -16 39 20 12 34 5
34 -17z m3054 -3 c8 -14 7 -22 -4 -31 -17 -14 -35 -5 -35 19 0 34 24 42 39 12z
m-4513 -2 c10 -17 -13 -36 -27 -22 -12 12 -4 33 11 33 5 0 12 -5 16 -11z
m2197 -29 c3 -13 14 -20 28 -20 21 0 21 -1 6 -18 -10 -10 -17 -28 -17 -40 0
-24 -10 -28 -27 -11 -8 8 -17 8 -33 -1 -21 -11 -22 -10 -18 14 3 15 0 31 -8
37 -21 17 -17 29 10 29 13 0 26 7 30 15 8 21 23 19 29 -5z m647 -30 c35 0 38
-10 11 -34 -16 -15 -18 -23 -9 -47 14 -40 3 -47 -27 -19 -20 18 -28 21 -37 12
-22 -22 -38 -15 -28 12 8 21 4 28 -23 50 l-32 25 36 -6 c35 -5 37 -4 44 28 l7
33 15 -27 c10 -20 21 -27 43 -27z m2769 36 c17 -20 2 -46 -25 -46 -29 0 -41
24 -24 45 16 19 34 19 49 1z m-519 -25 c0 -26 -17 -36 -35 -21 -18 15 -8 40
16 40 12 0 19 -7 19 -19z m-5832 -7 c42 -29 16 -104 -37 -104 -24 0 -51 32
-51 61 0 27 30 59 55 59 6 0 21 -7 33 -16z m606 -23 c10 -16 -5 -41 -25 -41
-19 0 -27 29 -12 43 9 10 31 9 37 -2z m4358 -38 c35 -31 12 -103 -34 -103 -23
0 -68 43 -68 65 0 22 37 55 62 55 12 0 30 -7 40 -17z m-4547 -34 c0 -7 -8 -15
-17 -17 -18 -3 -25 18 -11 32 10 10 28 1 28 -15z m1465 -44 c0 -8 11 -17 25
-21 24 -6 25 -8 10 -23 -8 -10 -15 -27 -15 -39 0 -23 -14 -29 -26 -11 -3 6
-17 8 -31 4 -22 -5 -25 -3 -20 14 3 11 -1 25 -9 32 -21 17 -17 29 10 29 16 0
27 7 31 20 7 22 25 18 25 -5z m5390 -10 c-13 -14 -28 -25 -33 -25 -6 0 0 11
13 25 13 14 28 25 33 25 6 0 0 -11 -13 -25z m-3260 -40 c0 -15 -35 -30 -50
-20 -14 9 -12 42 3 48 17 6 47 -11 47 -28z m-3235 -40 c0 -25 -40 -33 -49 -10
-9 24 2 37 27 33 14 -2 22 -10 22 -23z m5089 3 c15 -24 -4 -53 -34 -53 -35 0
-48 29 -25 55 21 24 43 23 59 -2z m-280 -46 c88 -41 174 -124 214 -205 166
-336 -142 -716 -503 -622 -170 45 -293 179 -326 357 -30 164 54 350 199 442
80 50 148 67 253 63 82 -3 106 -8 163 -35z m1639 -9 l42 6 -30 -14 c-16 -8
-40 -14 -52 -15 -19 0 -23 5 -23 28 0 38 14 51 18 17 3 -26 6 -27 45 -22z
m-6661 20 c26 -23 23 -61 -6 -74 -50 -23 -90 36 -50 75 20 20 33 20 56 -1z
m7913 -23 c0 -8 -10 -16 -22 -18 -22 -3 -32 16 -16 32 12 11 38 2 38 -14z
m-2215 -72 l13 -56 58 -7 c33 -4 61 -10 64 -14 2 -4 -18 -24 -45 -44 -28 -21
-50 -41 -50 -45 0 -4 11 -40 24 -80 13 -39 21 -74 18 -76 -2 -3 -36 26 -75 64
l-71 68 -55 -49 c-50 -44 -71 -58 -71 -44 0 3 14 37 32 76 l32 72 -34 29 c-19
15 -38 28 -42 28 -4 0 -8 4 -8 9 0 5 26 12 58 16 l58 6 33 66 c38 72 42 71 61
-19z m1945 52 c4 -6 1 -17 -5 -26 -10 -11 -16 -12 -26 -3 -11 9 -11 15 -3 25
14 17 25 18 34 4z m-4112 -52 c7 -20 -12 -48 -32 -48 -23 0 -35 28 -20 46 14
17 46 18 52 2z m2467 -2 c0 -20 -19 -31 -32 -18 -6 6 -7 15 -4 21 10 16 36 13
36 -3z m-5507 -2 c9 -10 -4 -34 -18 -34 -17 0 -28 17 -20 30 7 11 28 13 38 4z
m425 -26 c-6 -18 -28 -21 -28 -4 0 9 7 16 16 16 9 0 14 -5 12 -12z m-1359 -52
c32 -33 34 -34 67 -20 30 13 34 13 34 -2 0 -8 -5 -24 -11 -36 -9 -17 -6 -25
15 -47 34 -35 33 -44 -5 -39 -28 4 -33 1 -49 -36 l-17 -41 -19 38 c-15 31 -23
37 -48 37 -17 0 -38 5 -46 10 -15 9 -10 15 43 51 6 5 6 24 -2 52 -20 80 -13
85 38 33z m665 8 c30 -30 13 -74 -29 -74 -27 0 -45 18 -45 45 0 42 44 59 74
29z m3636 -49 c33 -34 33 -34 68 -19 19 8 37 13 39 11 2 -2 -3 -20 -12 -40
-15 -35 -14 -36 15 -57 36 -25 30 -44 -11 -35 -30 7 -34 2 -54 -60 -5 -17 -9
-14 -28 20 -20 35 -28 41 -67 45 l-44 5 36 27 36 27 -13 56 c-7 30 -10 55 -6
55 4 0 22 -16 41 -35z m3838 -3 c3 -26 -1 -34 -20 -41 -29 -11 -48 -4 -58 23
-12 34 6 58 43 54 28 -3 32 -7 35 -36z m-1518 13 c0 -16 -27 -32 -37 -22 -3 4
-3 13 0 22 8 20 37 20 37 0z m1760 -9 c6 -8 10 -25 8 -38 -2 -18 -10 -24 -35
-26 -27 -3 -35 1 -44 22 -9 20 -9 29 1 41 16 19 54 19 70 1z m-6540 -46 c15
-28 -22 -65 -50 -50 -27 15 -32 27 -20 50 14 26 56 26 70 0z m5997 -9 c14 -29
4 -55 -28 -71 -28 -15 -69 11 -69 45 0 55 73 74 97 26z m-6967 -26 c0 -32 -45
-49 -56 -20 -10 24 14 47 37 34 10 -5 19 -11 19 -14z m3042 -24 c44 -43 17
-131 -41 -131 -43 0 -60 9 -76 40 -41 79 54 153 117 91z m-3244 -23 c34 -34
-14 -102 -56 -79 -28 15 -35 40 -17 67 17 26 53 32 73 12z m-1070 -59 c4 -30
-22 -46 -44 -28 -17 14 -18 31 -2 47 19 19 43 9 46 -19z m7747 -6 c4 -21 7
-45 8 -53 1 -8 21 -19 46 -25 25 -6 46 -16 48 -22 2 -6 -15 -18 -38 -27 l-41
-17 7 -61 7 -61 -28 22 c-73 56 -68 54 -124 30 -28 -12 -53 -19 -56 -16 -3 3
6 28 20 55 l25 50 -49 63 c-28 34 -48 64 -46 67 3 2 35 -6 72 -18 l68 -23 30
36 c17 19 34 36 38 36 4 1 10 -16 13 -36z m-6900 -8 c0 -22 -31 -33 -48 -16
-7 7 -6 15 3 26 17 21 45 15 45 -10z m385 -75 c16 -29 3 -59 -27 -66 -31 -8
-57 6 -61 33 -7 46 67 73 88 33z m5798 -42 c7 -7 12 -24 12 -38 0 -31 -17 -50
-45 -50 -29 0 -45 19 -45 52 0 40 50 64 78 36z m-6108 -77 c0 -11 -5 -23 -11
-27 -15 -9 -33 12 -26 30 9 23 37 20 37 -3z m4186 -66 c22 -33 -2 -70 -46 -70
-29 0 -36 5 -44 27 -20 56 57 92 90 43z m1823 -19 c8 -10 6 -19 -9 -39 -21
-26 -24 -53 -14 -106 6 -27 10 -31 41 -31 40 0 100 -23 128 -50 21 -19 21 -19
53 3 17 12 32 30 32 39 0 9 11 25 25 36 22 17 29 18 72 7 38 -9 49 -17 51 -35
5 -33 -8 -40 -80 -44 -74 -4 -123 -28 -112 -55 3 -9 10 -27 15 -41 6 -17 33
-38 83 -64 95 -49 195 -125 225 -170 28 -43 30 -99 5 -128 -27 -29 -119 -74
-195 -94 -84 -23 -250 -23 -342 0 -150 36 -311 123 -412 222 -73 70 -137 161
-133 186 7 48 148 95 313 105 82 5 105 10 126 28 15 12 40 27 56 34 31 12 31
13 26 79 -3 37 -9 74 -13 82 -19 35 33 68 59 36z m1508 -78 l-6 -93 69 -45
c38 -25 70 -48 70 -52 0 -3 -40 -19 -89 -34 l-88 -28 -22 -66 c-31 -95 -36
-101 -65 -66 -13 16 -34 50 -46 76 l-22 47 -89 -5 c-58 -3 -89 -1 -89 6 0 5
24 41 53 78 l53 68 -22 55 c-12 31 -25 69 -28 84 -6 26 -5 28 16 22 13 -3 52
-18 87 -32 41 -17 68 -23 75 -17 28 21 139 94 144 94 3 0 2 -42 -1 -92z m449
77 c8 -20 -13 -45 -37 -45 -23 0 -32 15 -24 40 8 24 53 28 61 5z m-6800 -26
c8 -14 -21 -43 -35 -35 -19 12 -13 46 8 46 11 0 23 -5 27 -11z m844 -9 c0 -11
-7 -20 -15 -20 -15 0 -21 21 -8 33 12 13 23 7 23 -13z m-1445 -10 c20 -22 14
-67 -11 -77 -28 -11 -64 14 -64 45 0 51 42 69 75 32z m-288 -66 c12 -19 11
-24 -6 -45 -16 -21 -22 -22 -45 -11 -17 8 -26 19 -26 35 0 48 50 62 77 21z
m3541 14 c30 -30 -4 -77 -41 -57 -29 17 -15 69 18 69 6 0 16 -5 23 -12z m-982
-29 c10 -17 -23 -46 -37 -32 -7 7 -9 19 -6 27 7 18 33 21 43 5z m542 -53 c35
15 39 9 20 -31 -10 -22 -8 -29 15 -53 36 -37 34 -46 -7 -38 -33 6 -35 5 -48
-36 l-15 -43 -18 35 c-22 43 -31 50 -72 50 -41 0 -42 9 -3 35 22 14 29 26 26
40 -3 11 -8 38 -12 59 l-7 40 44 -36 c42 -34 45 -35 77 -22z m-4333 14 c5 -23
12 -30 31 -30 29 0 31 -11 4 -35 -12 -11 -20 -31 -20 -49 l0 -30 -22 21 c-20
20 -23 21 -50 7 l-29 -15 6 34 c5 24 2 37 -9 46 -24 20 -19 31 14 31 23 0 33
6 42 25 15 33 25 32 33 -5z m2895 -25 c0 -8 -4 -15 -10 -15 -5 0 -10 7 -10 15
0 8 5 15 10 15 6 0 10 -7 10 -15z m-2047 -11 c9 -10 -4 -34 -19 -34 -8 0 -14
6 -14 13 0 22 19 35 33 21z m2617 -19 c18 -21 5 -47 -22 -43 -26 3 -37 36 -16
49 18 12 24 11 38 -6z m4275 -16 c0 -7 -8 -15 -17 -17 -18 -3 -25 18 -11 32
10 10 28 1 28 -15z m-4651 -21 c15 -24 -3 -52 -37 -56 -33 -4 -53 28 -37 59
14 25 58 23 74 -3z m-2004 -17 c0 -11 -5 -23 -11 -27 -15 -9 -33 12 -26 30 9
23 37 20 37 -3z m4220 4 c0 -8 -7 -15 -15 -15 -8 0 -15 7 -15 15 0 8 7 15 15
15 8 0 15 -7 15 -15z m-4590 -31 c0 -17 -22 -14 -28 4 -2 7 3 12 12 12 9 0 16
-7 16 -16z m2596 -25 c10 -17 -13 -36 -27 -22 -12 12 -4 33 11 33 5 0 12 -5
16 -11z m-3676 -119 c0 -80 4 -120 11 -120 16 0 242 -90 254 -101 5 -6 2 -9
-10 -10 -11 0 -87 -8 -170 -18 l-150 -17 3 -95 c3 -104 -4 -179 -18 -179 -5 0
-37 56 -71 124 l-63 124 -66 -19 c-36 -10 -78 -23 -93 -28 -15 -6 -27 -7 -27
-3 0 4 24 48 54 98 l53 92 -18 28 c-23 37 -81 183 -77 193 2 5 53 -16 113 -45
l110 -53 75 75 c41 40 78 74 82 74 5 0 8 -54 8 -120z m1764 93 c13 -32 -21
-46 -44 -18 -10 12 -10 18 0 29 13 17 36 11 44 -11z m1080 1 c9 -8 16 -22 16
-29 0 -17 -27 -45 -44 -45 -7 0 -21 9 -31 20 -17 18 -17 21 -1 45 19 29 38 32
60 9z m-613 -54 c28 -16 25 -65 -5 -85 -36 -24 -66 -5 -66 40 0 46 31 66 71
45z m3144 0 c4 -6 1 -18 -6 -26 -11 -13 -14 -13 -27 0 -8 8 -11 19 -8 25 9 14
33 14 41 1z m2972 -40 c4 -23 -13 -44 -31 -37 -9 4 -16 18 -16 32 0 22 4 26
22 23 13 -2 24 -10 25 -18z m-6812 0 c10 -16 -16 -43 -28 -31 -11 11 -2 41 12
41 5 0 13 -5 16 -10z m3514 -8 c12 -22 -11 -62 -34 -62 -8 0 -21 10 -29 22
-20 28 -4 58 29 58 13 0 29 -8 34 -18z m-3698 -2 c40 -22 11 -78 -35 -66 -29
7 -40 31 -26 57 12 21 32 24 61 9z m7877 -22 c-2 -13 -10 -23 -18 -23 -8 0
-16 10 -18 23 -3 17 2 22 18 22 16 0 21 -5 18 -22z m-3478 -28 c17 -33 -4 -62
-43 -58 -25 2 -33 8 -35 26 -6 37 5 52 37 52 20 0 34 -7 41 -20z m-1400 -35
c26 -32 -13 -81 -47 -59 -24 15 -27 38 -8 58 20 20 39 20 55 1z m3690 -26
c100 -23 117 -39 20 -20 -62 12 -144 39 -123 40 6 1 53 -8 103 -20z m-1812
-25 c4 -27 -26 -40 -46 -20 -21 20 -8 48 20 44 14 -2 24 -11 26 -24z m-3539
-9 c67 -31 62 -43 -5 -13 -69 30 -147 29 -214 -4 -28 -14 -49 -20 -47 -14 1 6
23 21 47 34 62 31 147 30 219 -3z m4071 0 c0 -8 -7 -15 -15 -15 -8 0 -15 7
-15 15 0 8 7 15 15 15 8 0 15 -7 15 -15z m-4075 -39 c61 -28 112 -83 121 -132
4 -20 4 -64 2 -97 l-6 -62 20 40 c15 32 18 53 13 105 -6 71 10 67 21 -6 11
-74 -10 -119 -95 -204 -61 -63 -86 -81 -122 -90 -34 -9 -67 -31 -138 -96 -51
-46 -115 -100 -142 -119 -26 -20 -51 -45 -54 -55 -4 -13 -15 -20 -31 -20 -19
0 -24 5 -24 24 0 26 24 51 40 41 9 -5 226 168 258 208 12 14 9 17 -25 23 -46
8 -70 20 -100 47 l-23 20 -33 -24 c-75 -54 -307 -254 -307 -264 0 -5 -8 -15
-18 -21 -21 -13 -62 -1 -62 19 0 22 47 60 65 53 16 -6 147 98 282 226 l53 49
-11 50 c-6 27 -9 74 -7 103 2 37 0 52 -8 48 -6 -4 -69 -47 -142 -95 -93 -63
-132 -94 -134 -110 -4 -32 -63 -38 -73 -7 -8 26 11 50 39 48 12 -1 48 19 82
45 34 26 108 76 164 112 57 36 111 78 120 93 43 70 178 94 275 48z m465 4 c0
-13 -7 -20 -18 -20 -24 0 -32 8 -25 26 8 22 43 17 43 -6z m2882 -22 c-15 -15
-26 -4 -18 18 5 13 9 15 18 6 9 -9 9 -15 0 -24z m2165 -57 c253 -69 503 -148
503 -160 0 -5 -69 13 -152 39 -84 26 -255 76 -380 111 -126 35 -228 68 -228
72 0 5 8 6 18 3 9 -3 117 -32 239 -65z m-6939 16 c4 -20 -25 -34 -40 -19 -15
15 -1 44 19 40 10 -2 19 -11 21 -21z m4059 -18 c76 -37 123 -115 123 -206 0
-58 -66 -180 -86 -160 -4 3 2 18 13 34 48 71 57 156 23 222 -32 65 -70 86
-183 106 -21 3 -35 10 -32 16 11 17 97 10 142 -12z m-1332 -19 c0 -18 -6 -26
-23 -28 -13 -2 -25 3 -28 12 -10 26 4 48 28 44 17 -2 23 -10 23 -28z m-2565
-1 c0 -5 -7 -9 -15 -9 -15 0 -20 12 -9 23 8 8 24 -1 24 -14z m204 -18 c3 -5
-1 -11 -9 -15 -15 -6 -29 7 -18 18 9 9 21 8 27 -3z m6406 -13 c10 -6 1 -7 -30
-3 -25 3 -49 11 -55 17 -12 13 62 1 85 -14z m1208 -21 c-4 -33 -52 -31 -56 2
-2 13 2 27 9 32 20 12 51 -9 47 -34z m-4638 4 c0 -27 -19 -36 -37 -18 -18 18
-9 37 18 37 12 0 19 -7 19 -19z m1030 -33 c20 -45 27 -93 11 -84 -5 4 -16 25
-24 49 -8 23 -18 50 -22 60 -4 10 -3 17 4 17 7 0 21 -19 31 -42z m2564 11 c94
-28 120 -38 113 -45 -7 -7 -178 44 -191 57 -15 13 -1 11 78 -12z m-7300 -5
c21 -21 20 -41 -3 -54 -28 -15 -39 -13 -51 10 -8 14 -8 26 0 40 13 24 33 26
54 4z m4179 -25 c35 -9 52 -29 24 -29 -29 0 -117 31 -117 41 0 11 10 10 93
-12z m2990 -45 c239 -62 427 -121 427 -134 0 -9 -28 -2 -265 61 -223 60 -405
118 -405 130 0 7 8 8 18 4 9 -3 110 -31 225 -61z m-6061 -40 c-79 -52 -146
-93 -149 -90 -6 6 264 186 280 186 7 0 -53 -43 -131 -96z m3229 31 c43 -28 69
-78 69 -134 0 -55 -16 -52 -24 5 -9 65 -34 101 -88 127 -26 12 -47 26 -48 31
0 13 52 -3 91 -29z m-3686 -35 c0 -8 -8 -16 -17 -18 -13 -2 -18 3 -18 18 0 15
5 20 18 18 9 -2 17 -10 17 -18z m4011 -5 c10 -41 -31 -111 -82 -141 -24 -14
-49 -24 -56 -21 -8 2 0 11 17 19 54 29 87 72 92 122 6 50 19 60 29 21z m1199
-10 c0 -37 -28 -46 -45 -15 -9 16 -8 25 1 36 20 24 44 13 44 -21z m2031 20 c7
-18 -13 -45 -33 -45 -19 0 -28 27 -13 45 16 19 39 19 46 0z m-4596 -51 l17
-49 56 -9 c31 -5 57 -13 57 -17 0 -4 -20 -25 -44 -46 l-45 -40 6 -56 c7 -68
-1 -71 -59 -25 l-40 31 -54 -26 c-53 -26 -54 -27 -54 -6 0 12 5 39 12 61 11
38 11 39 -31 82 -48 49 -44 56 37 56 46 0 48 1 75 51 15 28 33 49 39 47 7 -3
19 -26 28 -54z m1595 20 c66 -141 -18 -312 -167 -339 -51 -10 -129 11 -179 47
-22 16 -38 32 -36 35 3 3 34 -9 68 -26 106 -53 211 -33 266 51 40 60 44 118
17 241 -8 39 11 33 31 -9z m264 -4 c21 -38 24 -40 72 -40 27 0 49 -3 49 -6 0
-3 -14 -24 -31 -45 -28 -35 -30 -42 -20 -71 6 -17 11 -39 11 -50 0 -18 -2 -18
-41 2 -44 23 -67 20 -94 -10 -28 -31 -35 -24 -35 29 0 45 -2 50 -41 77 l-42
29 29 12 c16 7 39 12 51 13 17 0 25 11 38 50 9 28 20 50 24 50 4 0 17 -18 30
-40z m-919 -8 c60 -29 120 -98 119 -135 0 -21 -1 -21 -17 3 -63 96 -158 146
-263 138 -88 -6 -153 -59 -219 -178 -15 -26 -22 -3 -11 32 26 78 119 153 208
167 67 11 119 4 183 -27z m535 -63 c-11 -50 -60 -105 -109 -124 -50 -19 -149
-16 -170 5 -8 8 5 10 50 5 39 -5 75 -3 97 4 47 16 94 71 102 118 4 21 9 45 12
53 9 25 25 -30 18 -61z m-4417 29 c29 -29 -4 -76 -42 -62 -16 6 -22 54 -9 67
10 11 38 8 51 -5z m2137 -88 c0 -18 -6 -26 -23 -28 -27 -4 -40 22 -22 44 19
22 45 13 45 -16z m3600 0 c0 -16 -6 -26 -19 -28 -25 -5 -39 12 -31 38 10 31
50 24 50 -10z m-1848 -22 c29 -10 62 -28 75 -39 l23 -20 -25 4 c-14 3 -56 17
-95 31 -116 42 -205 32 -253 -29 -27 -34 -36 -32 -17 5 39 75 164 96 292 48z
m-3183 -70 c-32 -23 -103 -77 -157 -121 -54 -43 -101 -77 -103 -74 -11 10 285
237 309 237 6 0 -16 -19 -49 -42z m7146 2 c0 -24 -26 -38 -42 -22 -16 16 -2
42 22 42 13 0 20 -7 20 -20z m-3901 -11 c48 -17 37 -29 -26 -29 -104 0 -173
-53 -229 -174 -27 -58 -36 -145 -21 -198 4 -16 3 -28 -2 -28 -5 0 -14 22 -21
50 -35 146 75 337 220 381 36 10 43 10 79 -2z m-5129 -19 c17 -5 -5 -8 -66 -9
-50 -1 -107 -4 -125 -7 -19 -4 -31 -3 -27 1 19 21 169 31 218 15z m2112 -134
c-150 -146 -243 -229 -250 -222 -2 2 18 24 45 47 26 24 98 91 158 149 112 108
182 170 191 170 3 0 -62 -65 -144 -144z m-618 118 c17 -17 20 -33 8 -50 -21
-31 -72 -18 -72 19 0 43 35 60 64 31z m3237 -29 c-16 -45 -31 -59 -31 -30 0
21 28 75 39 75 5 0 1 -20 -8 -45z m-4996 15 c4 -6 -9 -10 -32 -9 -30 0 -34 2
-18 9 27 12 43 12 50 0z m9470 -20 c0 -16 -6 -26 -19 -28 -24 -5 -37 17 -25
41 14 26 44 17 44 -13z m-6816 -38 c-24 -20 -102 -91 -174 -158 -159 -148
-210 -192 -204 -178 9 22 410 386 418 378 2 -2 -15 -21 -40 -42z m2737 33
c-11 -8 -26 -15 -33 -15 -18 0 -84 -60 -94 -87 -5 -13 -13 -23 -19 -23 -12 0
14 67 36 91 22 24 74 49 104 48 24 0 24 0 6 -14z m2362 -12 c-3 -29 -32 -43
-50 -25 -18 18 1 52 28 52 22 0 25 -4 22 -27z m-7475 11 c69 -12 37 -19 -91
-20 -102 -1 -147 -7 -226 -28 -55 -14 -101 -24 -104 -22 -5 6 150 53 210 65
53 11 160 13 211 5z m206 -20 c2 -2 -7 -4 -22 -4 -14 0 -29 5 -32 10 -6 10 42
4 54 -6z m5011 7 c0 -5 -9 -12 -19 -16 -27 -8 -100 -90 -117 -130 -20 -48 -17
-141 5 -190 10 -22 34 -54 54 -72 47 -41 98 -49 176 -27 34 9 64 15 67 12 12
-12 -56 -42 -104 -46 -176 -15 -294 176 -210 343 24 48 62 91 103 116 33 21
45 23 45 10z m90 -26 c0 -29 30 -75 60 -90 37 -19 101 -19 147 0 41 17 43 18
43 7 0 -15 -77 -52 -109 -52 -43 0 -91 22 -123 57 -30 31 -49 93 -29 93 6 0
11 -7 11 -15z m-5114 -15 c86 -29 87 -30 82 -36 -5 -5 -146 41 -156 51 -10 10
16 5 74 -15z m5030 -18 c-66 -127 6 -255 157 -277 66 -10 59 -25 -11 -25 -78
0 -129 35 -161 111 -28 63 -26 159 3 203 23 36 32 27 12 -12z m444 -7 c-7 -8
-22 -15 -33 -15 -20 0 -20 0 -1 15 27 20 51 20 34 0z m-5170 -50 c13 -14 21
-27 18 -30 -2 -3 -17 9 -33 25 -16 17 -24 30 -19 30 6 0 21 -11 34 -25z m-76
-39 c71 -51 166 -148 190 -194 21 -40 7 -43 -17 -3 -24 40 -147 163 -202 201
-43 29 -53 40 -39 40 4 0 34 -20 68 -44z m1287 18 c11 -14 10 -18 -6 -30 -10
-8 -22 -14 -26 -14 -14 0 -29 28 -23 44 8 21 38 21 55 0z m1854 -8 c23 -34 5
-66 -36 -66 -21 0 -32 6 -40 24 -25 55 43 93 76 42z m4469 -9 c13 -21 -15 -53
-38 -44 -19 8 -21 38 -4 55 15 15 28 11 42 -11z m-5980 -22 c-9 -14 -26 -31
-38 -37 -14 -7 -10 1 13 26 41 42 48 45 25 11z m2138 8 c24 -22 24 -77 -2
-103 -62 -62 -155 25 -104 98 19 27 78 30 106 5z m4378 2 c19 -23 8 -50 -20
-50 -16 0 -26 6 -28 18 -4 18 14 47 28 47 4 0 13 -7 20 -15z m-5494 -6 c10
-17 -23 -46 -37 -32 -7 7 -9 19 -6 27 7 18 33 21 43 5z m1898 -27 c-4 -18 -10
-32 -15 -32 -12 0 -11 13 1 46 14 35 22 26 14 -14z m-4349 -66 c77 -116 151
-286 124 -286 -5 0 -9 6 -9 13 0 27 -80 189 -134 271 -31 48 -56 89 -56 92 0
15 25 -15 75 -90z m569 68 c23 -9 20 -51 -4 -59 -11 -3 -24 -3 -30 0 -14 8
-13 38 2 53 14 14 12 14 32 6z m1690 -20 c21 -20 20 -63 -1 -86 -35 -39 -103
-11 -103 43 0 36 24 59 60 59 16 0 36 -7 44 -16z m4171 -84 c33 -27 63 -50 68
-50 15 0 52 23 64 39 6 9 22 16 35 17 13 1 31 5 41 9 24 10 22 -15 -3 -66 -45
-86 -46 -81 31 -138 38 -29 69 -56 69 -60 0 -9 -81 -21 -143 -21 -38 0 -38 0
-76 -84 -22 -46 -44 -87 -50 -90 -6 -4 -18 21 -31 66 -35 119 -31 114 -97 122
-102 12 -183 28 -183 36 0 5 46 31 103 58 l102 49 -3 82 c-2 44 0 81 5 81 5 0
35 -22 68 -50z m-955 10 c0 -24 -26 -38 -42 -22 -16 16 -2 42 22 42 13 0 20
-7 20 -20z m3181 -43 c-17 -23 -45 -62 -61 -86 -34 -51 -41 -35 -9 18 28 46
92 122 98 116 2 -3 -10 -24 -28 -48z m-3691 24 c0 -11 -55 -37 -97 -46 -55
-11 -38 12 25 33 67 24 72 25 72 13z m2710 -25 c0 -8 10 -18 22 -22 20 -6 20
-8 5 -19 -9 -7 -17 -22 -17 -35 0 -19 -2 -20 -15 -10 -8 7 -24 10 -35 7 -17
-4 -20 -2 -15 14 4 11 1 26 -5 34 -10 12 -9 15 8 15 11 0 22 7 26 15 7 19 26
20 26 1z m-4486 -32 c8 -21 -11 -44 -35 -44 -13 0 -19 7 -19 23 0 13 3 27 7
30 12 13 41 7 47 -9z m2946 -19 c15 -19 4 -52 -21 -60 -22 -7 -49 10 -49 31 0
16 28 44 44 44 8 0 19 -7 26 -15z m895 -25 c0 -18 -6 -26 -23 -28 -13 -2 -25
3 -28 12 -10 26 4 48 28 44 17 -2 23 -10 23 -28z m-1288 -16 c9 -23 -25 -48
-43 -33 -10 8 -11 16 -3 30 12 23 37 25 46 3z m-5668 -109 c5 -19 6 -35 2 -35
-7 0 -52 128 -50 146 1 13 36 -68 48 -111z m4036 71 c20 -29 11 -71 -18 -91
-29 -20 -53 -19 -77 5 -26 26 -25 51 1 84 27 34 72 35 94 2z m-3201 -32 c27
-26 20 -62 -16 -84 -41 -25 -43 -25 -69 1 -14 14 -18 27 -13 42 16 53 66 74
98 41z m7027 -55 c9 -17 8 -25 -4 -37 -29 -28 -73 12 -47 43 17 21 37 19 51
-6z m568 -49 c-16 -49 -23 -102 -26 -212 -3 -82 -10 -148 -14 -148 -14 0 -10
249 5 305 16 61 45 130 51 124 2 -3 -5 -34 -16 -69z m-6855 34 c19 -18 21 -55
4 -72 -7 -7 -24 -12 -38 -12 -33 0 -50 17 -50 52 0 43 53 64 84 32z m4337 -64
c24 -13 26 -66 2 -92 -18 -20 -63 -24 -81 -6 -19 19 -14 66 8 88 22 22 42 25
71 10z m237 -7 c-2 -10 -10 -18 -18 -18 -8 0 -16 8 -18 18 -2 12 3 17 18 17
15 0 20 -5 18 -17z m-2588 -43 c36 -12 95 -37 131 -56 67 -36 179 -127 179
-146 0 -6 27 -39 60 -74 33 -34 60 -69 60 -77 0 -7 13 -40 30 -73 54 -109 78
-284 58 -427 l-9 -69 43 -44 c48 -50 78 -99 78 -129 0 -76 -104 -103 -266 -69
-90 18 -335 92 -348 105 -15 14 -6 12 113 -26 134 -42 232 -67 237 -62 2 2 24
39 49 83 108 188 116 357 30 601 -41 117 -50 132 -100 183 -30 31 -55 60 -55
66 0 15 -164 131 -225 160 -90 42 -171 57 -305 57 -123 -1 -127 -1 -229 -42
-232 -92 -363 -212 -442 -404 l-29 -71 27 -23 c39 -32 239 -167 351 -237 51
-32 91 -61 88 -63 -11 -12 -336 202 -471 310 -178 141 -213 278 -77 303 20 4
73 3 117 -3 l80 -10 37 31 c20 17 37 34 37 37 1 9 -191 61 -361 99 -207 45
-327 38 -359 -23 -75 -139 307 -497 876 -819 253 -144 393 -213 574 -284 96
-37 170 -69 164 -71 -10 -4 -237 77 -327 116 -113 50 -519 277 -686 386 l-96
62 4 -66 c6 -111 30 -201 78 -298 39 -78 52 -96 87 -115 23 -13 51 -39 64 -58
37 -58 53 -70 178 -132 66 -32 131 -66 145 -74 18 -10 41 -13 80 -9 30 3 105
9 165 14 148 13 255 48 348 113 22 16 25 23 16 34 -16 19 -12 18 83 -17 119
-44 367 -105 480 -119 147 -17 243 6 270 65 18 41 1 109 -41 163 -39 49 -160
157 -349 311 -56 46 -101 86 -98 88 8 8 282 -212 375 -302 102 -98 143 -166
144 -239 0 -52 -33 -80 -110 -96 -111 -24 -357 14 -596 90 l-121 39 -29 -25
c-83 -69 -208 -112 -372 -126 -205 -18 -250 -16 -277 8 -13 12 -34 25 -48 29
-62 19 -184 89 -218 126 -20 22 -52 55 -71 72 -110 103 -119 116 -151 199 -25
63 -35 114 -46 213 -8 72 -14 130 -14 131 0 0 -21 16 -47 34 -75 53 -199 156
-304 251 -114 105 -159 177 -159 256 0 75 37 113 125 127 80 13 465 -63 585
-117 l55 -24 40 30 c68 50 193 107 283 130 119 31 317 29 412 -3z m3713 9 c5
-9 7 -28 3 -42 -7 -31 -48 -46 -71 -27 -18 15 -20 61 -3 78 17 17 58 11 71 -9z
m-7236 -66 c-2 -16 -4 -5 -4 22 0 28 2 40 4 28 2 -13 2 -35 0 -50z m3328 37
c3 -6 -6 -11 -22 -12 -72 -3 -93 -2 -93 5 0 4 16 7 35 5 19 -1 37 1 41 5 11
10 32 9 39 -3z m869 1 c10 -16 -5 -41 -24 -41 -23 0 -34 16 -26 35 6 16 42 20
50 6z m-3144 -21 c0 -5 -2 -10 -4 -10 -3 0 -8 5 -11 10 -3 6 -1 10 4 10 6 0
11 -4 11 -10z m2090 0 c0 -5 -12 -10 -26 -10 -14 0 -23 4 -19 10 3 6 15 10 26
10 10 0 19 -4 19 -10z m-2210 -4 c0 -3 -4 -8 -10 -11 -5 -3 -10 -1 -10 4 0 6
5 11 10 11 6 0 10 -2 10 -4z m80 -11 c-7 -8 -22 -14 -34 -14 -20 1 -20 2 -1 6
11 3 24 9 30 14 15 14 19 10 5 -6z m2537 -10 c88 -27 164 -76 205 -132 41 -54
27 -51 -31 7 -54 54 -168 116 -234 127 -20 3 -40 10 -43 14 -9 15 21 10 103
-16z m1811 0 c7 -15 20 -25 32 -25 24 0 26 -13 5 -30 -8 -7 -15 -26 -15 -42 0
-30 0 -30 -25 -14 -19 12 -30 14 -44 6 -29 -15 -31 -13 -25 18 4 19 1 32 -10
41 -24 20 -19 31 13 31 21 0 32 6 36 20 9 27 19 25 33 -5z m-669 -15 c8 -24
16 -30 40 -30 38 0 39 -12 5 -39 -21 -17 -25 -25 -19 -51 7 -34 0 -37 -34 -14
-18 13 -28 14 -47 5 -35 -16 -37 -15 -30 22 5 26 2 38 -14 52 -28 26 -25 35
13 35 26 0 37 6 47 25 17 33 26 32 39 -5z m-2294 -4 c55 -14 111 -30 125 -36
23 -10 22 -10 -10 -6 -19 3 -78 14 -130 25 -52 12 -125 21 -162 21 -39 0 -68
4 -68 10 0 19 143 11 245 -14z m590 -15 c-97 -46 -174 -107 -246 -196 -56 -70
-81 -73 -33 -4 50 73 150 156 236 199 46 22 92 40 103 40 11 0 -16 -18 -60
-39z m-1910 -21 l29 -19 -28 -10 c-15 -6 -32 -11 -37 -11 -5 0 -14 -10 -19
-22 -10 -23 -10 -23 -7 1 1 19 10 27 37 34 l35 9 -28 20 c-15 11 -27 27 -26
36 0 15 1 15 7 -1 4 -10 21 -26 37 -37z m791 39 c9 -15 -11 -33 -30 -26 -9 4
-13 13 -10 22 7 17 30 20 40 4z m246 -31 c-46 -46 51 -183 257 -362 50 -44 89
-82 86 -84 -9 -10 -118 84 -222 191 -103 108 -153 180 -153 225 0 22 28 57 38
47 3 -3 0 -11 -6 -17z m-1185 -16 c-24 -26 -22 -30 16 -35 27 -3 26 -4 -11 -5
-32 -2 -41 1 -35 11 27 43 38 56 42 52 2 -3 -3 -13 -12 -23z m2133 13 c-7 -8
-22 -15 -34 -15 -12 0 -28 -6 -35 -12 -11 -11 -13 -10 -9 2 3 8 18 16 34 18
16 2 33 8 39 13 15 15 19 10 5 -6z m-2830 -36 c16 -28 4 -55 -30 -69 -55 -23
-93 5 -74 57 19 54 78 61 104 12z m2030 12 c0 -5 -10 -11 -22 -13 -34 -4 -35
-47 -4 -97 30 -47 35 -71 10 -50 -25 21 -55 88 -52 117 4 31 68 72 68 43z
m344 -1 c14 -5 26 -14 26 -20 0 -6 -12 -4 -30 5 -44 23 -42 33 4 15z m1032
-42 c35 -23 62 -44 59 -46 -5 -5 -82 39 -115 67 -42 35 -11 23 56 -21z m459
-13 c0 -25 -4 -30 -25 -30 -16 0 -26 6 -28 18 -6 30 6 49 30 45 18 -2 23 -9
23 -33z m1500 15 c11 -18 -6 -50 -26 -50 -22 0 -34 22 -25 45 6 17 42 20 51 5z
m1022 -30 c15 0 17 -16 3 -25 -5 -3 -10 -15 -10 -26 0 -20 -15 -26 -24 -10 -3
5 -15 7 -26 4 -15 -4 -20 0 -20 15 0 11 -3 27 -6 36 -4 11 0 16 14 16 11 0 23
8 27 18 6 15 8 15 18 -5 5 -13 16 -23 24 -23z m-3290 8 c13 -16 26 -22 47 -20
16 2 32 0 37 -5 19 -19 -69 -8 -90 11 -13 12 -30 17 -51 14 -30 -4 -42 6 -17
15 28 12 57 6 74 -15z m-427 -8 c-14 -10 -27 -17 -29 -15 -8 8 22 35 38 35 12
0 10 -5 -9 -20z m-1890 -5 c0 -12 -19 -12 -23 0 -4 9 -1 12 9 8 7 -3 14 -7 14
-8z m1290 -10 c-7 -9 -15 -13 -18 -10 -3 2 1 11 8 20 7 9 15 13 18 10 3 -2 -1
-11 -8 -20z m135 8 c-73 -38 -81 -69 -40 -142 30 -52 31 -60 5 -36 -10 9 -27
37 -36 61 -21 55 -7 95 39 118 42 20 71 20 32 -1z m378 -72 c-26 -27 -70 -85
-96 -130 -52 -88 -83 -111 -43 -33 32 64 89 139 134 179 56 50 59 39 5 -16z
m1005 11 c6 -18 -15 -14 -22 4 -4 10 -1 14 6 12 6 -2 14 -10 16 -16z m-907
-35 c-16 -16 -26 0 -10 19 9 11 15 12 17 4 2 -6 -1 -17 -7 -23z m892 -17 c45
-50 73 -108 64 -133 -3 -6 -10 2 -16 18 -20 52 -35 76 -74 121 -21 24 -34 44
-29 44 6 0 31 -23 55 -50z m86 -15 c17 -20 31 -43 30 -53 0 -15 -2 -15 -12 2
-7 11 -25 34 -41 53 -15 18 -24 33 -18 33 5 0 24 -16 41 -35z m-3895 -7 c-8
-45 -35 -130 -40 -125 -6 6 30 157 38 157 4 0 5 -15 2 -32z m7641 -3 c32 -25
33 -25 69 -9 45 22 52 15 30 -27 -16 -33 -16 -33 12 -56 16 -13 32 -23 37 -23
4 0 7 -4 7 -9 0 -6 -21 -11 -47 -13 -46 -3 -49 -5 -67 -45 -11 -24 -23 -43
-26 -43 -4 0 -13 20 -20 45 -12 43 -14 44 -59 50 -88 12 -90 15 -31 45 54 27
55 29 54 69 0 23 1 41 3 41 3 0 19 -11 38 -25z m-4799 -17 c-42 -52 -85 -130
-92 -165 -3 -18 -11 -33 -16 -33 -13 0 0 56 24 103 18 36 94 127 106 127 2 0
-7 -15 -22 -32z m-476 -21 c0 -6 -9 -2 -20 8 -11 10 -20 23 -20 28 0 6 9 2 20
-8 11 -10 20 -23 20 -28z m4551 27 c9 -11 10 -20 3 -32 -15 -23 -29 -25 -48
-7 -12 12 -13 21 -6 36 13 23 33 25 51 3z m-956 -34 c0 -29 -32 -41 -41 -16
-9 24 4 48 23 44 12 -2 18 -12 18 -28z m-3304 -63 c-10 -26 -35 -40 -26 -14
19 54 28 71 32 56 2 -8 -1 -28 -6 -42z m206 35 c-9 -10 -32 -53 -52 -96 -40
-87 -57 -98 -26 -16 24 63 67 130 83 130 6 0 5 -7 -5 -18z m38 -52 c-25 -35
-50 -82 -56 -106 -13 -51 -34 -61 -24 -11 10 44 27 75 75 136 58 73 62 57 5
-19z m1903 38 c2 -20 -2 -28 -19 -33 -32 -10 -55 16 -39 44 16 32 54 24 58
-11z m-3759 -133 l1 -61 58 -27 c31 -15 68 -36 82 -47 22 -17 23 -21 10 -34
-9 -9 -47 -26 -85 -38 l-70 -23 -13 -70 c-7 -38 -15 -80 -18 -93 l-5 -23 -29
21 c-16 11 -46 43 -67 70 l-38 50 -97 -7 c-54 -3 -98 -3 -98 1 0 14 23 51 66
107 24 31 39 60 35 65 -16 17 -83 155 -78 160 2 3 46 -5 96 -16 l91 -22 73 67
72 67 7 -43 c3 -24 7 -71 7 -104z m465 129 c19 -18 19 -20 6 -45 -18 -32 -80
-19 -80 17 0 17 28 44 45 44 7 0 21 -7 29 -16z m1092 -132 c-5 -5 -33 15 -89
65 -65 57 -50 56 22 -2 39 -32 69 -60 67 -63z m549 100 c-11 -2 -24 -8 -29
-12 -5 -5 -22 -6 -39 -3 -22 5 -33 1 -43 -12 -8 -10 -16 -16 -20 -13 -3 3 5
16 18 27 15 15 30 20 48 16 14 -3 31 -1 39 4 8 5 21 6 30 3 13 -5 13 -7 -4
-10z m626 -33 c6 -12 9 -29 6 -39 -2 -10 4 -25 14 -34 12 -10 19 -28 18 -48
l-1 -33 -9 31 c-5 17 -16 37 -24 44 -8 7 -15 25 -15 40 0 15 -10 40 -22 55
l-21 28 21 -12 c12 -6 27 -21 33 -32z m146 -5 c-2 -14 0 -27 4 -30 5 -3 9 -13
9 -22 0 -14 -3 -13 -14 4 -16 23 -19 87 -4 77 6 -3 8 -16 5 -29z m1295 -22
c120 -119 -37 -316 -180 -225 -81 51 -83 213 -4 245 80 32 139 26 184 -20z
m-5313 -70 c-22 -46 -55 -90 -106 -140 -41 -41 -77 -71 -80 -68 -3 3 25 39 63
79 38 41 87 106 109 145 49 86 59 75 14 -16z m4723 71 c39 -35 8 -113 -45
-113 -58 0 -89 69 -50 112 20 22 70 23 95 1z m3871 -183 c16 -25 57 -73 91
-107 33 -35 55 -63 49 -63 -36 0 -218 244 -238 320 -3 14 10 -4 31 -40 20 -36
50 -85 67 -110z m-1818 140 c35 -39 -3 -91 -55 -75 -28 9 -37 51 -15 75 10 11
26 20 35 20 9 0 25 -9 35 -20z m-4925 -20 c0 -11 -7 -20 -15 -20 -15 0 -21 21
-8 33 12 13 23 7 23 -13z m1110 -20 c-16 -31 -23 -19 -9 16 6 16 13 24 16 17
2 -7 -1 -22 -7 -33z m1122 -42 c6 -189 -10 -285 -52 -323 -25 -23 -25 -18 2
41 19 42 23 71 26 207 4 165 20 215 24 75z m-1344 -14 c75 -48 192 -121 259
-162 68 -41 121 -77 119 -79 -12 -12 -266 137 -432 252 -87 61 -103 75 -88 75
3 0 67 -39 142 -86z m5864 41 c15 -25 24 -45 20 -45 -4 0 -19 20 -34 45 -15
25 -24 45 -20 45 4 0 19 -20 34 -45z m-4066 4 c10 -17 -23 -46 -37 -32 -7 7
-9 19 -6 27 7 18 33 21 43 5z m1086 -14 c9 -21 8 -28 -7 -45 -35 -39 -93 -1
-74 48 12 33 65 31 81 -3z m-2518 -12 c8 -22 28 -56 45 -77 11 -14 11 -16 -2
-16 -9 0 -19 10 -23 23 -4 12 -15 33 -25 46 -11 13 -19 28 -19 32 0 16 18 9
24 -8z m-149 -104 c103 -68 257 -159 347 -205 27 -14 48 -28 45 -31 -17 -16
-466 252 -508 303 -18 22 -16 22 116 -67z m972 17 c-10 -26 -22 -18 -23 15 -1
27 0 29 14 16 8 -9 12 -23 9 -31z m93 -41 c0 -87 -32 -187 -77 -236 -44 -48
-65 -52 -29 -4 52 68 79 144 84 232 5 96 22 102 22 8z m-221 -55 c1 -81 -9
-128 -34 -167 -26 -38 -27 -21 -4 32 18 40 21 68 21 154 0 66 3 96 8 81 4 -14
8 -59 9 -100z m-1585 84 c19 -18 19 -20 6 -45 -6 -11 -21 -19 -35 -19 -20 0
-45 24 -45 44 0 10 32 36 45 36 7 0 21 -7 29 -16z m4954 -52 c-3 -32 -6 -37
-28 -37 -17 0 -29 9 -39 29 -13 27 -12 31 9 48 34 27 62 8 58 -40z m1626 -37
c31 -21 28 -32 -5 -15 -30 17 -109 90 -109 103 0 5 20 -8 43 -30 24 -22 56
-48 71 -58z m-6088 2 c1 -57 8 -87 33 -146 34 -81 35 -85 22 -76 -16 9 -69
158 -72 200 -4 57 0 95 9 95 4 0 7 -33 8 -73z m73 -127 c14 -43 14 -57 2 -44
-17 17 -41 118 -40 168 l1 51 13 -70 c8 -38 18 -86 24 -105z m2077 149 c9 -16
-12 -33 -31 -25 -14 5 -15 9 -5 21 15 18 26 19 36 4z m-2017 -219 c24 -63 24
-63 12 -55 -26 16 -71 221 -54 247 5 8 10 -16 14 -62 4 -41 16 -100 28 -130z
m473 128 c62 -29 105 -54 95 -56 -17 -4 -168 65 -202 91 -34 27 -9 19 107 -35z
m596 -8 c-3 -29 -15 -64 -29 -85 -37 -54 -41 -41 -9 28 17 34 30 72 30 85 0
12 3 22 6 22 4 0 4 -22 2 -50z m-1045 20 c-3 -11 -7 -20 -9 -20 -2 0 -4 9 -4
20 0 11 4 20 9 20 5 0 7 -9 4 -20z m-2435 -22 c7 -7 12 -24 12 -38 0 -34 -17
-50 -52 -50 -27 0 -48 23 -48 54 0 37 61 61 88 34z m1032 -2 c0 -8 -5 -18 -11
-22 -14 -8 -33 11 -25 25 10 16 36 13 36 -3z m5528 -13 c5 -17 -26 -29 -40
-15 -6 6 -7 15 -3 22 9 14 37 9 43 -7z m-7407 -17 c-37 -45 -206 -81 -318 -67
-95 11 -83 17 26 13 105 -5 200 13 256 48 36 22 52 25 36 6z m3629 -18 c0 -11
-7 -10 -31 2 -28 16 -23 32 6 18 14 -6 25 -15 25 -20z m605 -14 c-23 -36 -30
-23 -9 18 10 18 19 27 22 20 2 -7 -4 -24 -13 -38z m499 -32 c97 -79 136 -132
136 -183 0 -21 -4 -40 -9 -43 -5 -3 -9 13 -9 35 -1 52 -33 102 -108 165 -85
72 -121 107 -103 97 9 -4 51 -36 93 -71z m-589 22 c-23 -36 -29 -24 -8 17 9
18 18 28 21 21 2 -7 -4 -24 -13 -38z m-255 15 c0 -4 -7 -6 -15 -3 -8 4 -15 10
-15 15 0 4 7 6 15 3 8 -4 15 -10 15 -15z m931 -56 c82 -69 133 -126 149 -168
14 -36 13 -42 -10 -65 -26 -26 -49 -26 -25 0 43 48 7 114 -125 226 -84 71
-108 96 -77 78 6 -4 46 -36 88 -71z m-1531 53 c0 -8 9 -35 20 -60 10 -25 15
-46 11 -46 -9 0 -26 36 -40 88 -6 19 -6 32 0 32 5 0 9 -6 9 -14z m90 -26 c6
-10 7 -25 4 -33 -3 -8 2 -17 10 -20 9 -4 16 -13 16 -22 0 -12 -4 -11 -20 5
-11 11 -20 31 -20 45 0 14 -7 28 -15 31 -8 4 -15 10 -15 15 0 14 30 -2 40 -21z
m619 -25 c9 -10 -29 -5 -54 7 -40 18 -29 30 12 13 20 -9 39 -18 42 -20z m4039
-1 c38 -26 27 -75 -20 -93 -22 -8 -31 -6 -52 10 -31 24 -33 52 -6 79 24 24 48
25 78 4z m-3648 -30 c-18 -21 -24 -10 -9 18 8 14 14 18 17 10 2 -7 -2 -19 -8
-28z m1675 11 c0 -13 -8 -21 -22 -23 -17 -3 -23 2 -23 16 0 10 3 22 7 26 13
13 38 1 38 -19z m899 -29 l36 -28 54 28 c30 16 58 25 62 21 4 -4 -2 -28 -14
-52 -12 -25 -22 -50 -22 -55 0 -5 26 -29 57 -52 l56 -43 -29 -6 c-16 -4 -51
-7 -77 -8 -47 -1 -48 -2 -67 -48 -40 -96 -48 -97 -75 -11 l-20 63 -80 12 c-44
6 -86 12 -92 12 -30 2 -8 21 65 55 l77 37 -3 66 c-4 75 -10 74 72 9z m-4784 3
c0 -12 -7 -19 -20 -19 -22 0 -29 35 -7 43 18 6 27 -2 27 -24z m-2250 11 c-14
-4 -47 -8 -75 -8 l-50 1 40 7 c22 4 56 7 75 8 31 0 32 -1 10 -8z m3310 -37
c11 -25 18 -48 16 -51 -5 -5 -46 72 -46 88 0 21 10 9 30 -37z m768 -19 c200
-80 424 -154 561 -186 56 -13 101 -26 101 -30 0 -4 -15 -5 -32 -2 -100 17
-146 26 -176 36 -25 7 -37 7 -48 -3 -13 -11 -19 -10 -32 7 -10 12 -53 33 -97
48 -92 32 -435 175 -449 187 -19 17 6 9 172 -57z m-2679 25 c13 -24 13 -29 -2
-53 -22 -34 -69 -36 -91 -4 -21 30 -20 44 5 69 27 27 69 22 88 -12z m5105 -5
c41 -41 -4 -121 -54 -94 -29 15 -27 74 2 94 28 20 33 20 52 0z m-1200 -31 c9
-22 -13 -45 -38 -41 -26 4 -33 38 -11 54 20 15 41 9 49 -13z m3681 -2 c7 -12
-12 -24 -25 -16 -11 7 -4 25 10 25 5 0 11 -4 15 -9z m-5538 -16 c9 -24 -1 -27
-15 -5 -8 13 -8 20 -2 20 6 0 13 -7 17 -15z m248 3 c21 -9 35 -28 20 -28 -12
0 -55 24 -55 32 0 11 4 10 35 -4z m180 -39 c15 -15 -11 -11 -50 8 -19 9 -35
20 -35 24 0 9 70 -18 85 -32z m-455 -4 c7 -8 10 -18 7 -22 -8 -7 -35 14 -48
39 -9 17 -8 18 9 9 10 -5 25 -17 32 -26z m5118 23 c17 -17 15 -63 -2 -78 -43
-35 -99 28 -61 70 20 23 45 26 63 8z m358 -9 c10 -17 -13 -36 -27 -22 -12 12
-4 33 11 33 5 0 12 -5 16 -11z m368 -12 c30 -22 -2 -65 -39 -51 -15 6 -21 45
-8 57 10 11 27 8 47 -6z m-5750 -36 c23 -16 58 -36 77 -44 21 -9 27 -16 16
-16 -22 -1 -83 30 -122 63 -41 35 -23 32 29 -3z m230 -22 c68 -43 52 -45 -25
-4 -39 21 -56 35 -43 35 11 0 42 -14 68 -31z m1386 -42 c0 -23 -26 -51 -63
-68 -46 -21 -190 -27 -217 -9 -10 7 7 8 55 4 75 -7 148 7 178 33 10 10 17 31
17 52 1 34 2 35 15 17 8 -11 15 -24 15 -29z m-1472 -79 c100 -42 150 -68 131
-68 -9 0 -183 71 -224 92 -59 30 -125 72 -125 80 0 4 23 -6 50 -23 28 -17 103
-53 168 -81z m1812 108 c0 -3 -4 -8 -10 -11 -5 -3 -10 -1 -10 4 0 6 5 11 10
11 6 0 10 -2 10 -4z m441 -20 c13 -28 -10 -71 -43 -82 -28 -9 -62 26 -53 55
17 53 77 70 96 27z m-2210 -6 c13 -10 19 -19 13 -20 -7 0 -22 9 -35 20 -13 10
-19 19 -13 20 7 0 22 -9 35 -20z m-141 -11 c0 -4 -7 -6 -15 -3 -8 4 -15 10
-15 15 0 4 7 6 15 3 8 -4 15 -10 15 -15z m545 11 c-3 -5 -17 -10 -31 -10 -14
0 -22 4 -19 10 3 6 17 10 31 10 14 0 22 -4 19 -10z m95 -6 c0 -16 -176 -64
-237 -64 -43 0 -22 9 58 24 41 8 92 21 114 29 44 16 65 20 65 11z m-443 -78
c11 -12 -34 -1 -102 25 -30 11 -55 24 -55 28 0 9 145 -40 157 -53z m513 59 c0
-10 -89 -55 -150 -75 -76 -25 -273 -40 -284 -21 -5 8 15 11 69 11 98 0 216 24
285 59 53 27 80 36 80 26z m-1813 -104 l-7 -88 71 -48 c39 -25 67 -50 63 -55
-7 -6 -108 -41 -159 -55 -6 -1 -20 -34 -33 -73 -12 -38 -29 -75 -36 -81 -15
-13 -26 0 -70 88 l-28 54 -83 -7 c-54 -4 -86 -2 -90 4 -4 6 18 41 48 79 38 46
52 72 47 82 -12 21 -53 150 -49 154 2 2 42 -12 89 -30 l85 -33 30 23 c58 43
108 75 118 75 6 0 8 -31 4 -89z m671 77 c17 -17 15 -63 -3 -78 -12 -10 -21
-10 -40 -2 -42 19 -30 92 15 92 9 0 21 -5 28 -12z m4557 -13 c14 -13 25 -31
25 -40 0 -21 -54 -75 -75 -75 -23 0 -65 45 -65 70 0 27 43 70 70 70 12 0 32
-11 45 -25z m-4838 -19 c-4 -9 -11 -16 -17 -16 -17 0 -24 31 -9 41 18 11 34
-5 26 -25z m1043 20 c0 -2 -7 -6 -15 -10 -8 -3 -15 -1 -15 4 0 6 7 10 15 10 8
0 15 -2 15 -4z m-3022 -43 c5 -10 7 -24 5 -30 -6 -18 -42 -16 -49 2 -15 38 26
63 44 28z m-993 -100 l47 -108 73 0 c40 0 77 -3 80 -7 4 -4 -18 -35 -48 -69
l-56 -61 28 -57 c57 -113 51 -122 -49 -71 -33 17 -61 30 -63 30 -2 0 -30 -33
-63 -72 l-59 -73 -7 50 c-3 28 -7 73 -7 100 l-1 51 -86 42 c-54 27 -83 47 -77
53 5 5 47 18 94 30 l85 21 13 76 c18 110 33 172 42 172 4 0 28 -48 54 -107z
m1603 31 c2 -32 -8 -86 -27 -154 -26 -92 -28 -108 -16 -126 15 -24 52 -22 92
3 12 8 28 13 35 10 7 -2 21 3 31 12 18 15 17 16 -20 33 -33 15 -34 17 -8 11
17 -3 39 -10 49 -16 19 -9 19 -11 -7 -31 -15 -12 -27 -29 -27 -38 0 -26 -19
-32 -61 -18 -52 18 -64 5 -44 -43 8 -20 15 -44 14 -54 0 -12 -3 -10 -8 7 -25
81 -65 113 -91 73 -11 -17 -11 -17 -6 0 4 14 -1 17 -32 19 l-37 1 37 4 c49 5
66 32 42 68 -13 20 -25 25 -63 27 -43 1 -44 2 -8 5 20 2 37 8 37 13 0 5 -38
48 -84 96 -47 49 -84 90 -82 91 12 12 206 -203 206 -228 0 -5 3 -9 8 -9 11 0
54 157 60 223 6 71 -9 74 -46 11 -16 -26 -21 -31 -16 -14 10 36 44 82 58 77 6
-2 12 -26 14 -53z m7338 22 c15 -12 17 -18 8 -33 -14 -23 -43 -23 -57 -1 -8
12 -7 21 2 32 16 20 22 20 47 2z m-4480 -77 c10 -17 -23 -46 -37 -32 -7 7 -9
19 -6 27 7 18 33 21 43 5z m2204 -15 c9 -22 15 -25 40 -22 20 3 30 0 30 -8 0
-21 32 -46 51 -41 25 7 24 1 -6 -35 -27 -33 -30 -49 -14 -80 14 -26 6 -33 -21
-18 -31 17 -64 5 -80 -27 l-14 -28 -4 25 c-6 40 -22 52 -56 46 -24 -5 -28 -4
-18 6 7 7 12 22 12 35 l0 23 -157 0 c-134 0 -161 -3 -180 -18 -12 -9 -47 -70
-78 -135 -53 -112 -54 -119 -39 -142 12 -18 13 -28 4 -44 -13 -24 -52 -28 -70
-6 -7 8 -23 12 -38 10 -15 -2 -72 -9 -126 -16 -85 -10 -103 -16 -123 -37 -17
-18 -29 -23 -50 -19 -40 8 -192 -79 -193 -111 0 -29 -37 -45 -65 -27 -14 8
-36 10 -75 4 -30 -4 -77 -8 -103 -8 -33 -1 -49 -6 -53 -16 -9 -22 -51 -19 -59
4 -6 20 -20 25 -98 36 -26 4 -46 10 -43 12 3 3 37 0 76 -7 52 -9 75 -9 83 -1
11 11 11 305 0 326 -4 7 -2 7 5 0 6 -6 14 -81 19 -175 l8 -165 50 1 c28 0 76
4 108 8 44 6 57 11 57 25 0 35 51 56 77 30 14 -14 180 78 186 103 7 23 35 34
56 21 12 -7 36 -7 81 3 36 7 96 16 133 20 55 5 74 12 95 33 33 32 154 278 141
286 -15 10 -10 34 11 45 15 8 23 6 38 -10 18 -19 29 -20 168 -18 149 3 149 3
147 26 -2 14 4 25 15 29 30 11 52 35 52 60 0 30 8 29 20 -3z m870 11 c0 -8 -4
-15 -10 -15 -5 0 -10 7 -10 15 0 8 5 15 10 15 6 0 10 -7 10 -15z m-6142 -102
c13 -18 22 -33 19 -33 -10 0 -75 95 -81 120 -4 15 2 10 15 -15 12 -22 33 -55
47 -72z m137 77 c4 -6 1 -18 -6 -26 -12 -14 -14 -14 -26 2 -7 9 -10 21 -7 25
7 12 31 11 39 -1z m2493 -142 l20 -53 56 -9 c31 -5 56 -12 56 -16 0 -4 -20
-26 -44 -48 l-44 -41 5 -63 6 -62 -29 18 c-16 10 -39 28 -52 39 l-23 21 -52
-27 c-61 -31 -67 -24 -46 50 l12 44 -42 43 c-41 42 -42 43 -19 50 13 3 41 6
63 6 38 0 42 3 67 50 16 28 32 50 37 50 5 0 18 -24 29 -52z m3899 11 c16 -16
5 -39 -18 -39 -12 0 -19 7 -19 18 0 31 17 41 37 21z m-6564 -6 c-7 -2 -19 -2
-25 0 -7 3 -2 5 12 5 14 0 19 -2 13 -5z m4212 -14 c8 -13 -23 -49 -42 -49 -17
0 -27 25 -19 45 6 17 52 20 61 4z m3759 -23 c9 -13 7 -20 -9 -32 -10 -8 -24
-13 -30 -11 -15 5 -18 36 -4 53 14 17 29 14 43 -10z m-7874 -21 c14 -19 14
-19 -2 -6 -10 7 -18 18 -18 24 0 6 1 8 3 6 1 -2 9 -13 17 -24z m-257 -5 c-4
-16 -9 -18 -25 -9 -17 9 -18 13 -7 20 24 15 37 10 32 -11z m4018 10 c25 -14
25 -62 -1 -85 -26 -23 -68 -13 -80 20 -9 23 -15 25 -67 25 -106 0 -193 -12
-193 -26 0 -16 -37 -37 -50 -29 -5 3 -43 -45 -84 -106 l-75 -112 19 -28 c15
-20 32 -29 67 -34 27 -4 43 -9 37 -12 -6 -2 -29 0 -51 5 -37 8 -40 7 -55 -18
-20 -36 -61 -43 -93 -18 -25 19 -33 60 -17 84 11 16 50 35 67 32 22 -5 158
200 156 236 -3 48 40 76 68 43 8 -11 39 -13 137 -9 106 4 130 8 145 23 21 21
41 24 70 9z m-3946 -30 c3 -5 43 -11 88 -12 l82 -2 -90 -5 c-94 -6 -171 7
-123 20 34 10 36 10 43 -1z m1906 -26 c17 -21 0 -49 -31 -49 -31 0 -48 28 -31
49 8 9 21 16 31 16 10 0 23 -7 31 -16z m5151 -21 c37 -33 10 -93 -43 -93 -28
0 -59 31 -59 59 0 44 67 66 102 34z m-6722 -88 c6 3 10 1 10 -4 0 -30 -49 2
-100 64 -14 16 -1 8 28 -18 29 -26 57 -45 62 -42z m-110 57 c0 -5 -7 -17 -15
-28 -14 -18 -14 -17 -4 9 12 27 19 34 19 19z m-93 -34 c-3 -8 -6 -5 -6 6 -1
11 2 17 5 13 3 -3 4 -12 1 -19z m7507 -99 l1 -62 78 -30 c91 -35 87 -41 -41
-52 l-82 -7 6 -63 c4 -36 2 -70 -4 -81 -8 -15 -15 -7 -46 54 -20 40 -40 72
-45 72 -5 0 -28 -7 -51 -15 -24 -8 -45 -13 -48 -11 -2 3 10 28 27 55 l30 50
-29 66 c-34 75 -28 80 51 40 50 -26 50 -26 77 -6 15 10 36 28 46 40 11 12 21
19 24 17 2 -3 5 -33 6 -67z m-7474 21 c-12 -22 -31 -23 -38 -2 -2 7 2 10 12 6
10 -4 18 0 22 10 4 9 9 15 11 12 3 -2 -1 -14 -7 -26z m818 -48 c4 -28 -24 -41
-44 -20 -20 20 -7 50 20 46 13 -2 22 -12 24 -26z m4288 -27 c8 -20 -13 -45
-37 -45 -13 0 -19 7 -19 23 0 13 3 27 7 30 12 13 44 7 49 -8z m1125 -83 c73
-8 130 -32 159 -66 6 -8 54 -38 106 -67 127 -70 200 -138 243 -225 19 -38 38
-77 43 -86 7 -14 4 -18 -10 -18 -13 0 -24 11 -32 33 -39 105 -91 157 -283 284
l-162 107 -87 11 c-48 6 -91 8 -95 4 -5 -4 -53 -3 -108 3 -114 12 -220 -2
-241 -30 -10 -13 -30 -17 -91 -18 -81 -1 -125 -17 -116 -41 3 -7 -5 -17 -19
-22 -13 -5 -30 -17 -38 -27 -14 -16 -13 -16 10 -5 14 6 -9 -20 -50 -59 -41
-38 -79 -70 -84 -70 -19 0 -81 -85 -91 -124 -6 -25 -17 -42 -27 -44 -28 -5 4
80 56 146 66 86 258 270 286 275 256 50 308 56 430 52 69 -3 159 -9 201 -13z
m-5791 -44 c11 -12 20 -32 20 -45 0 -32 -43 -73 -75 -73 -30 0 -75 41 -75 68
0 11 9 31 21 46 27 34 79 36 109 4z m1085 -13 c0 -13 -8 -21 -22 -23 -17 -3
-23 2 -23 16 0 10 3 22 7 26 13 13 38 1 38 -19z m-330 -14 c0 -29 -14 -36 -38
-18 -24 17 -12 49 17 45 15 -2 21 -10 21 -27z m2382 23 c-3 -3 -12 -4 -19 -1
-8 3 -5 6 6 6 11 1 17 -2 13 -5z m-2849 -40 c3 -22 -21 -39 -39 -28 -11 6 -12
38 -2 48 13 13 38 1 41 -20z m4605 4 c7 -21 -12 -48 -34 -48 -25 0 -35 25 -19
45 15 18 47 20 53 3z m552 2 c3 -6 -4 -10 -17 -10 -13 0 -34 -7 -46 -16 -26
-18 -29 -8 -5 18 17 19 58 24 68 8z m-4079 -31 c10 -17 -23 -46 -37 -32 -7 7
-9 19 -6 27 7 18 33 21 43 5z m4449 -9 c-3 -5 -13 -10 -20 -10 -22 0 -48 -46
-40 -70 3 -11 2 -20 -4 -20 -30 0 -12 90 21 103 23 9 49 7 43 -3z m-6501 -22
c14 -24 -3 -52 -34 -56 -41 -6 -60 46 -26 71 17 11 48 4 60 -15z m6702 -73
c53 -31 74 -76 53 -114 -18 -32 -63 -40 -90 -15 -12 11 -38 18 -68 19 -60 2
-145 42 -150 70 -3 18 -1 18 25 -5 l27 -25 -22 31 c-13 18 -21 41 -19 55 4 22
5 21 20 -13 19 -43 40 -56 105 -65 35 -5 55 -15 80 -40 37 -36 54 -41 73 -18
33 40 -16 90 -148 150 -45 21 -79 41 -77 46 6 9 130 -40 191 -76z m-4238 59
c27 -19 28 -45 2 -69 -17 -15 -24 -16 -45 -7 -30 14 -35 65 -7 81 23 14 24 14
50 -5z m564 -11 c38 -34 8 -113 -42 -113 -26 0 -70 43 -70 67 0 10 7 29 16 41
18 27 69 30 96 5z m3186 8 c10 -6 4 -10 -19 -15 -39 -8 -69 -32 -69 -57 0 -10
-5 -21 -12 -25 -15 -9 -3 53 14 74 22 26 64 38 86 23z m-7588 -21 c26 -26 25
-58 -2 -87 -29 -31 -81 -31 -102 -1 -21 30 -20 50 5 82 25 32 70 35 99 6z
m1018 8 c16 -16 15 -63 -2 -77 -9 -8 -21 -8 -40 -1 -43 16 -32 90 14 90 9 0
21 -5 28 -12z m5076 -19 c19 -15 26 -30 26 -54 0 -36 -36 -75 -70 -75 -34 0
-70 39 -70 75 0 36 36 75 70 75 10 0 29 -9 44 -21z m1169 -8 c16 -16 1 -24
-21 -12 -12 6 -32 11 -47 11 -17 0 -24 4 -19 11 8 13 72 5 87 -10z m383 -14
c16 -18 44 -62 63 -99 26 -52 31 -70 22 -85 -9 -16 -10 -15 -11 11 0 26 -10
46 -75 149 -43 67 -121 37 -118 -45 1 -22 -5 -54 -14 -71 -9 -19 -13 -44 -10
-69 5 -36 4 -38 -24 -38 -28 0 -29 2 -29 45 0 46 26 125 40 125 9 0 1 -32 -19
-83 -20 -52 -10 -53 15 -2 15 31 24 68 24 98 0 92 80 130 136 64z m-7232 -3
c8 -21 -11 -44 -34 -44 -22 0 -30 19 -18 43 11 22 44 22 52 1z m8352 1 c8 -19
-13 -45 -36 -45 -20 0 -32 23 -24 45 8 20 53 19 60 0z m650 -30 c-9 -24 -50
-15 -54 12 -2 14 3 23 15 25 24 6 47 -16 39 -37z m-2182 29 c10 -4 16 -18 16
-40 0 -29 -10 -44 -60 -94 -33 -33 -60 -53 -60 -46 0 7 25 36 55 63 61 56 71
89 30 99 -36 9 -67 -15 -116 -92 -51 -79 -66 -68 -17 12 53 89 99 118 152 98z
m-4766 -26 c30 -30 1 -98 -41 -98 -45 0 -76 67 -45 98 16 16 70 16 86 0z
m4597 -84 c-20 -32 -41 -76 -47 -96 -13 -43 -32 -52 -22 -10 11 47 40 106 69
140 40 48 40 33 0 -34z m394 15 c-13 -26 -23 -18 -14 10 3 12 11 19 16 16 5
-4 5 -14 -2 -26z m2099 -66 c4 -28 -34 -42 -55 -20 -23 23 -9 49 24 45 20 -2
29 -9 31 -25z m-2510 -58 c-1 -14 -8 -25 -15 -25 -14 0 -16 10 -7 34 10 25 24
19 22 -9z m-118 -4 c0 -6 -4 -13 -10 -16 -5 -3 -10 1 -10 9 0 9 5 16 10 16 6
0 10 -4 10 -9z m180 -6 c-7 -8 -17 -15 -22 -15 -6 0 -5 7 2 15 7 8 17 15 22
15 6 0 5 -7 -2 -15z m600 -5 c0 -5 -5 -10 -11 -10 -5 0 -7 5 -4 10 3 6 8 10
11 10 2 0 4 -4 4 -10z m-5868 -287 c23 -20 23 -57 1 -74 -15 -11 -16 -11 -5 1
27 31 11 72 -33 83 -19 4 -19 5 -1 6 11 0 28 -6 38 -16z m-69 -8 c-3 -9 -8
-14 -10 -11 -3 3 -2 9 2 15 9 16 15 13 8 -4z m-1760 -114 c22 -61 43 -108 47
-104 4 4 24 56 45 116 21 59 42 107 47 107 11 0 9 -5 -42 -149 -23 -64 -44
-107 -53 -109 -15 -3 -17 0 -67 143 -15 44 -31 88 -36 99 -5 13 -3 17 6 14 8
-2 32 -55 53 -117z m517 89 c0 -23 4 -30 20 -30 11 0 20 -4 20 -10 0 -5 -10
-10 -21 -10 -20 0 -21 -4 -17 -71 3 -55 8 -74 23 -85 10 -8 16 -16 13 -19 -11
-11 -40 8 -49 32 -12 33 -12 223 1 223 6 0 10 -13 10 -30z m515 16 c24 -11 33
-20 29 -30 -5 -14 -9 -14 -34 -1 -36 18 -61 19 -84 2 -28 -21 -9 -45 49 -62
87 -25 108 -74 54 -127 -29 -29 -33 -30 -90 -25 -68 6 -72 8 -64 29 5 13 12
14 40 5 50 -15 100 1 100 33 0 17 -8 28 -24 35 -68 28 -106 52 -109 68 -13 70
53 106 133 73z m105 -16 c0 -25 4 -30 25 -30 16 0 25 -6 25 -15 0 -9 -9 -15
-25 -15 -25 0 -26 -1 -23 -62 3 -54 6 -64 26 -73 12 -5 22 -13 22 -18 0 -17
-31 -18 -55 -3 -24 16 -25 20 -25 131 0 96 3 115 15 115 10 0 15 -10 15 -30z
m482 -30 l3 -61 35 30 c19 17 44 30 55 31 16 0 12 -7 -20 -40 l-39 -40 42 -60
c40 -57 41 -60 20 -60 -16 0 -32 14 -53 45 -16 25 -33 45 -37 45 -5 0 -8 -20
-8 -45 0 -38 -3 -45 -20 -45 -19 0 -20 7 -20 130 0 122 1 130 20 130 16 0 19
-8 22 -60z m193 28 c1 -20 -2 -24 -11 -17 -8 7 -14 6 -17 -3 -3 -7 -6 2 -6 20
-1 27 3 33 17 30 11 -2 17 -13 17 -30z m-44 -35 c13 -16 12 -17 -3 -4 -17 13
-22 21 -14 21 2 0 10 -8 17 -17z m-1502 -19 c12 -15 21 -40 21 -55 0 -29 0
-29 -65 -29 -72 0 -83 -12 -44 -51 17 -17 30 -20 65 -16 24 2 44 1 44 -3 0
-22 -85 -27 -111 -7 -24 18 -39 52 -39 87 0 86 83 133 129 74z m191 16 c17
-11 10 -13 -40 -10 -47 2 -75 -28 -75 -80 0 -55 26 -80 82 -80 27 0 42 -4 38
-10 -9 -15 -78 -12 -102 5 -50 35 -50 135 0 170 24 17 74 20 97 5z m271 -19
c23 -23 29 -38 29 -71 0 -53 -42 -100 -90 -100 -48 0 -90 47 -90 100 0 53 42
100 90 100 22 0 41 -9 61 -29z m79 13 c0 -14 2 -14 22 0 24 17 38 20 38 9 0
-5 -14 -16 -30 -25 -29 -17 -30 -19 -30 -93 0 -43 -4 -75 -10 -75 -6 0 -10 40
-10 100 0 60 4 100 10 100 6 0 10 -7 10 -16z m545 -9 c20 -19 25 -34 25 -75 0
-63 -30 -100 -82 -100 -67 0 -107 62 -87 135 18 66 97 88 144 40z m184 16 c19
-12 3 -33 -20 -26 -30 10 -56 -3 -69 -35 -23 -55 18 -111 69 -95 23 7 39 -14
20 -26 -35 -22 -100 -1 -118 38 -23 51 -7 122 33 141 26 13 67 14 85 3z m5360
-94 c8 -26 17 -47 21 -47 4 0 13 21 21 47 8 25 20 48 26 50 8 3 4 -21 -11 -64
-13 -38 -29 -68 -36 -68 -7 0 -23 30 -36 68 -15 43 -19 67 -11 64 6 -2 18 -25
26 -50z m638 38 c2 -6 -9 -11 -23 -10 -39 0 -42 -23 -5 -36 34 -12 49 -43 31
-64 -13 -16 -38 -19 -64 -9 -27 10 -18 22 17 20 38 -1 43 19 8 37 -36 18 -48
42 -31 62 14 17 61 17 67 0z m333 -20 c0 -35 16 -47 26 -20 4 8 13 15 22 15
13 0 13 -3 -2 -19 -16 -18 -16 -21 -1 -50 19 -38 8 -40 -22 -3 l-22 27 -1 -27
c0 -16 -4 -28 -10 -28 -6 0 -10 30 -10 70 0 40 4 70 10 70 6 0 10 -16 10 -35z
m580 32 c0 -4 -34 -104 -45 -136 -3 -8 -8 -11 -11 -8 -8 7 38 147 48 147 4 0
8 -2 8 -3z m98 -9 c21 -21 13 -45 -25 -77 l-38 -30 43 -1 c23 0 42 -4 42 -10
0 -5 -22 -10 -50 -10 -62 0 -65 15 -14 63 42 40 39 62 -8 53 -26 -5 -29 -4
-18 9 15 18 51 20 68 3z m109 0 c14 -23 12 -106 -2 -118 -33 -27 -86 8 -70 46
4 11 7 27 6 37 -5 38 47 64 66 35z m125 -40 c2 -29 2 -61 0 -70 -5 -22 -22
-24 -22 -3 0 10 -10 15 -30 15 -16 0 -30 3 -30 6 0 16 56 104 67 104 6 0 13
-22 15 -52z m116 40 c21 -21 13 -45 -25 -77 l-38 -30 43 -1 c23 0 42 -4 42
-10 0 -5 -22 -10 -50 -10 -62 0 -65 15 -14 63 42 40 39 62 -8 53 -26 -5 -29
-4 -18 9 15 18 51 20 68 3z m110 0 c21 -21 13 -45 -25 -77 l-38 -30 43 -1 c23
0 42 -4 42 -10 0 -5 -22 -10 -50 -10 -62 0 -65 15 -14 63 42 40 39 62 -8 53
-26 -5 -29 -4 -18 9 15 18 51 20 68 3z m110 0 c21 -21 13 -45 -25 -77 l-38
-30 43 -1 c23 0 42 -4 42 -10 0 -5 -22 -10 -50 -10 -62 0 -65 15 -14 63 42 40
39 62 -8 53 -26 -5 -29 -4 -18 9 15 18 51 20 68 3z m104 -5 c39 -35 8 -122
-44 -123 -10 0 -18 5 -18 10 0 6 9 10 20 10 10 0 24 9 31 21 9 18 8 20 -9 15
-38 -12 -68 44 -40 72 17 17 38 15 60 -5z m118 -2 c-5 -11 -15 -23 -20 -26 -6
-4 -1 -14 12 -25 20 -15 21 -21 10 -44 -11 -26 -34 -32 -66 -20 -28 11 -17 24
14 18 22 -5 31 -2 36 11 6 16 -3 28 -31 39 -6 2 -5 9 3 17 18 19 15 29 -8 29
-11 0 -20 5 -20 10 0 6 18 10 40 10 37 0 40 -2 30 -19z m-2100 -26 c9 -10 9
-15 1 -15 -15 0 -14 -57 2 -63 6 -2 9 -7 6 -11 -15 -17 -37 8 -41 47 -7 58 5
74 32 42z m360 0 c9 -10 9 -15 1 -15 -15 0 -14 -57 2 -63 6 -2 9 -7 6 -11 -15
-17 -37 8 -41 47 -7 58 5 74 32 42z m-532 -7 c23 -23 13 -38 -24 -38 -46 0
-41 -23 7 -30 27 -4 30 -7 16 -13 -28 -11 -44 -9 -61 9 -32 31 -14 84 29 84
12 0 26 -5 33 -12z m109 5 c14 -6 10 -9 -17 -13 -29 -4 -35 -9 -35 -30 0 -21
6 -26 35 -30 27 -4 31 -7 17 -13 -10 -4 -25 -7 -32 -7 -20 0 -45 28 -45 50 0
22 25 50 45 50 7 0 22 -3 32 -7z m177 -9 c21 -20 20 -43 -1 -66 -20 -22 -46
-23 -67 -2 -31 30 -9 84 34 84 10 0 26 -7 34 -16z m86 6 c0 -4 -7 -10 -15 -14
-9 -3 -15 -19 -15 -41 0 -19 -4 -35 -10 -35 -5 0 -10 22 -10 49 0 45 2 49 25
49 14 0 25 -4 25 -8z m274 -6 c21 -20 20 -43 -1 -66 -20 -22 -46 -23 -67 -2
-31 30 -9 84 34 84 10 0 26 -7 34 -16z m121 7 c3 -5 -9 -11 -27 -13 -28 -2
-33 -7 -33 -28 0 -21 5 -26 33 -28 36 -4 34 -22 -3 -22 -28 0 -55 24 -55 50 0
37 67 69 85 41z m250 0 c3 -5 -9 -11 -27 -13 -28 -2 -33 -7 -33 -28 0 -21 5
-26 33 -28 36 -4 34 -22 -3 -22 -28 0 -55 24 -55 50 0 37 67 69 85 41z m99 -7
c31 -30 9 -84 -34 -84 -24 0 -50 26 -50 50 0 24 26 50 50 50 10 0 26 -7 34
-16z m113 4 c7 -5 14 -5 18 2 10 16 42 12 49 -6 10 -25 7 -84 -4 -84 -5 0 -10
18 -10 41 0 33 -3 40 -17 37 -13 -2 -19 -14 -21 -41 -4 -50 -22 -47 -22 4 0
36 -2 40 -22 37 -19 -2 -24 -10 -26 -40 -5 -55 -22 -46 -22 10 0 48 0 49 33
49 17 0 37 -4 44 -9z m-327 -78 c0 -5 -4 -10 -10 -10 -5 0 -10 5 -10 10 0 6 5
10 10 10 6 0 10 -4 10 -10z"/>
<path d="M5886 7476 c-14 -22 -12 -27 21 -82 44 -73 142 -270 172 -346 13 -32
29 -58 36 -58 8 0 28 37 45 83 18 45 45 110 60 144 26 56 27 65 15 98 -11 33
-21 41 -86 69 -41 18 -96 44 -124 58 -27 14 -67 33 -87 41 -35 15 -37 15 -52
-7z"/>
<path d="M3057 7653 c-2 -5 -3 -65 -2 -135 l2 -127 -36 -24 c-20 -13 -80 -49
-133 -81 -53 -32 -102 -63 -108 -70 -11 -15 48 -26 245 -47 55 -6 103 -16 106
-21 4 -5 21 -66 39 -133 18 -68 38 -132 44 -141 11 -15 14 -14 27 7 8 13 28
53 43 89 16 36 40 88 54 117 28 58 14 52 200 85 43 7 71 17 70 24 -2 6 -40 43
-85 83 -58 51 -83 80 -83 95 0 13 22 68 50 122 58 117 54 133 -23 91 -29 -16
-82 -45 -119 -64 l-67 -36 -36 27 c-19 15 -65 54 -103 86 -68 60 -77 66 -85
53z"/>
<path d="M3705 6751 c-19 -8 -18 -9 4 -12 14 -2 26 -10 29 -16 5 -18 -27 -28
-41 -13 -10 10 -7 12 11 7 12 -3 20 -1 16 4 -12 20 -77 -1 -123 -39 -60 -51
-143 -153 -136 -169 2 -8 -4 -28 -15 -46 -11 -17 -20 -44 -20 -59 0 -18 -5
-28 -15 -28 -8 0 -15 -6 -15 -14 0 -7 -9 -25 -21 -40 -16 -20 -17 -24 -4 -20
14 6 14 3 3 -22 -7 -16 -17 -32 -23 -36 -18 -13 -11 -254 9 -328 25 -91 72
-187 103 -207 50 -34 92 -80 99 -109 9 -39 32 -64 59 -64 25 0 69 -29 45 -30
-21 0 63 -47 145 -81 87 -34 139 -46 256 -59 86 -8 96 -7 178 19 92 30 241
100 282 133 l24 19 -35 -16 c-34 -15 -35 -15 -10 2 14 10 45 36 69 58 32 28
43 34 38 20 -4 -12 7 -4 28 20 39 43 105 167 105 196 0 17 -4 16 -46 -6 -26
-14 -54 -25 -63 -25 -9 0 -27 -9 -41 -20 -25 -20 -110 -29 -110 -12 0 5 12 7
28 5 27 -5 89 13 80 23 -3 2 -17 0 -31 -7 -20 -9 -32 -8 -58 5 -39 20 -40 20
-33 2 5 -13 2 -13 -20 -3 -14 7 -26 15 -26 20 0 4 -9 7 -19 7 -47 0 -145 40
-173 70 -18 20 -34 30 -44 26 -29 -11 -137 57 -217 135 -43 43 -71 66 -62 52
9 -14 14 -27 12 -29 -6 -6 -106 143 -108 159 -1 7 -3 29 -4 49 -3 46 -29 90
-50 81 -13 -5 -15 4 -11 61 5 69 1 81 -14 44 -8 -21 -9 -20 -9 9 -1 17 -4 39
-8 49 -3 10 -2 15 3 12 5 -4 9 26 10 70 0 43 4 96 8 120 9 45 3 50 -39 33z
m-237 -326 c-6 -14 -13 -23 -16 -21 -7 7 9 46 18 46 5 0 4 -11 -2 -25z m159
-53 c-3 -32 -3 -48 0 -37 6 25 23 44 23 26 0 -17 -19 -50 -41 -75 -15 -15 -22
-17 -31 -8 -9 9 -8 12 5 12 11 0 17 8 17 21 0 12 5 39 12 60 13 45 10 50 -20
42 -18 -4 -22 -13 -23 -47 -1 -40 -1 -40 -10 -11 -17 57 14 105 54 83 16 -8
18 -18 14 -66z m168 -53 c11 -17 -1 -21 -15 -4 -8 9 -8 15 -2 15 6 0 14 -5 17
-11z m5 -50 c0 -5 -4 -9 -10 -9 -5 0 -10 7 -10 16 0 8 5 12 10 9 6 -3 10 -10
10 -16z m-350 -118 c13 -26 13 -41 -1 -18 -7 13 -17 16 -32 11 -19 -6 -20 -5
-8 10 18 21 28 20 41 -3z m33 -109 c-7 -7 -13 -22 -13 -31 0 -10 -6 -24 -14
-30 -32 -26 -66 20 -66 89 0 59 18 48 22 -12 3 -45 6 -53 23 -53 16 0 21 8 23
38 2 20 7 37 13 37 5 0 10 15 10 33 1 27 3 26 9 -13 5 -32 3 -48 -7 -58z m295
36 c23 -23 31 -27 26 -14 -5 14 -4 17 5 12 7 -5 10 -14 7 -22 -3 -8 5 -24 19
-36 22 -22 29 -42 26 -80 -1 -19 -50 -79 -51 -62 0 6 9 19 20 29 12 11 20 30
19 49 l-1 31 -8 -34 c-9 -39 -24 -51 -62 -51 -45 0 -89 57 -87 113 0 13 8 1
20 -31 22 -55 47 -77 79 -67 30 9 41 37 30 75 -11 37 -47 80 -67 80 -7 0 -13
5 -13 11 0 6 -9 9 -20 6 -20 -5 -26 3 -13 16 14 15 38 6 71 -25z m-58 -23 c-7
-9 -15 -13 -17 -11 -7 7 7 26 19 26 6 0 6 -6 -2 -15z m-240 -94 c-13 -25 -42
-27 -61 -4 -13 15 -12 15 9 2 21 -13 25 -12 38 5 8 11 15 29 15 40 2 20 2 20
6 -1 2 -12 -1 -31 -7 -42z m516 -8 c-9 -22 41 -73 71 -73 25 0 30 19 11 39
-11 10 -10 11 4 6 23 -9 31 -35 16 -52 -14 -17 -54 -10 -80 14 -10 9 -18 12
-18 7 0 -15 42 -37 85 -45 l40 -6 -42 -2 c-34 -1 -49 5 -75 29 -18 16 -28 30
-21 30 9 0 8 7 -2 27 -14 27 -12 43 7 43 5 0 7 -7 4 -17z m70 -11 c-4 -3 -14
2 -24 12 -16 18 -16 18 6 6 13 -6 21 -14 18 -18z m-590 -143 c8 -16 14 -38 13
-51 0 -17 -4 -13 -15 17 -8 22 -19 44 -24 49 -18 18 -21 -2 -5 -33 8 -17 12
-31 7 -31 -11 0 -32 45 -32 69 0 41 29 31 56 -20z m774 33 c0 -5 12 -14 26
-21 29 -13 27 -38 -2 -33 -51 7 -70 22 -61 46 7 16 37 23 37 8z m-564 -54 c9
-30 -29 -62 -57 -48 -10 6 -19 16 -19 22 0 9 3 9 12 0 7 -7 21 -12 31 -12 16
0 18 6 15 30 -5 35 7 40 18 8z m1034 12 c0 -5 -2 -10 -4 -10 -3 0 -8 5 -11 10
-3 6 -1 10 4 10 6 0 11 -4 11 -10z m-35 -90 c-9 -18 -19 -30 -21 -27 -3 3 2
19 11 37 9 18 19 30 21 27 3 -3 -2 -19 -11 -37z m-227 -6 c12 -8 22 -20 22
-25 0 -6 -12 -1 -26 10 -15 12 -34 21 -43 20 -9 0 -4 -5 12 -11 27 -10 42 -40
35 -74 -3 -19 -73 -63 -100 -64 -26 0 -78 49 -77 73 0 21 1 21 9 2 6 -14 9
-15 9 -4 2 32 26 66 56 76 46 15 78 15 103 -3z m127 -28 c0 -11 -7 -21 -15
-24 -12 -4 -13 -2 -2 9 17 18 15 32 -3 25 -8 -3 -15 -1 -15 5 0 6 8 9 18 7 9
-2 17 -12 17 -22z m57 -28 c-7 -7 -12 -8 -12 -2 0 14 12 26 19 19 2 -3 -1 -11
-7 -17z m-498 -9 c14 -11 26 -28 26 -37 -1 -13 -6 -10 -21 11 -21 27 -62 37
-74 17 -3 -5 -12 -10 -18 -10 -16 1 32 40 48 40 7 0 24 -9 39 -21z m-204 -50
c26 -15 29 -18 10 -13 -35 9 -78 33 -60 33 8 0 31 -9 50 -20z m-50 -5 l25 -15
-25 6 c-68 18 -71 17 -96 -5 -27 -26 -33 -17 -7 12 20 22 69 23 103 2z m120
-61 c26 -34 25 -47 -6 -72 -16 -13 -21 -21 -13 -22 8 0 3 -5 -10 -10 -36 -14
-114 5 -167 42 -46 31 -49 36 -35 57 6 10 11 9 22 -4 20 -25 109 -64 145 -64
62 0 72 66 14 90 -16 7 -30 16 -30 21 0 15 60 -13 80 -38z m50 -31 c0 -9 -5
-24 -10 -32 -7 -11 -10 -5 -10 23 0 23 4 36 10 32 6 -3 10 -14 10 -23z m210
-32 c0 -23 -29 -40 -67 -39 -25 1 -24 2 11 13 22 7 42 18 44 26 5 13 -2 12
-68 -5 -24 -6 -24 -6 -6 9 11 9 35 16 53 16 26 0 33 -4 33 -20z"/>
<path d="M4226 5822 c-2 -4 -1 -14 5 -22 7 -12 9 -10 9 8 0 23 -5 28 -14 14z"/>
<path d="M4255 5800 c3 -5 14 -10 23 -10 15 0 15 2 2 10 -20 13 -33 13 -25 0z"/>
<path d="M4330 5658 c-27 -41 -30 -57 -14 -73 9 -8 25 -14 37 -14 20 1 21 2 2
6 -44 11 -33 19 19 15 48 -4 55 -2 66 17 6 12 8 31 5 43 -6 18 -13 20 -51 15
-24 -2 -45 0 -46 4 -2 5 -10 -1 -18 -13z"/>
<path d="M3789 5486 c14 -16 71 -51 71 -43 0 3 -19 17 -42 32 -25 16 -37 21
-29 11z"/>
<path d="M8740 6250 l0 -41 31 22 c32 22 32 24 -13 50 -16 9 -18 5 -18 -31z"/>
<path d="M8686 6164 l-28 -16 22 -15 c12 -8 23 -13 24 -12 5 6 17 59 14 59 -2
-1 -16 -8 -32 -16z"/>
<path d="M6381 6010 c-103 -37 -179 -103 -231 -201 -37 -70 -38 -89 -6 -89 17
0 38 15 67 50 59 70 103 96 135 81 26 -11 95 -6 126 11 10 5 27 26 38 48 27
53 61 74 106 67 77 -13 86 16 12 38 -72 21 -180 19 -247 -5z m67 -75 c-17 -38
-72 -45 -118 -16 -21 14 -10 20 56 30 32 5 62 9 66 10 4 0 2 -10 -4 -24z
m-183 -42 c-8 -36 -44 -93 -56 -93 -6 0 -2 12 9 28 11 15 23 38 27 52 7 22 6
23 -8 12 -8 -7 -18 -24 -21 -37 -4 -14 -11 -25 -17 -25 -15 0 -1 41 24 68 29
32 51 29 42 -5z"/>
<path d="M6375 5930 l-30 -7 27 -7 c30 -9 58 -2 58 12 0 10 -13 10 -55 2z"/>
<path d="M6672 5963 c-18 -13 -28 -14 -48 -4 -33 15 -77 -7 -93 -48 -7 -16
-24 -40 -38 -53 -22 -21 -34 -23 -115 -23 l-90 0 -35 -40 c-19 -22 -46 -52
-60 -67 -16 -18 -35 -28 -53 -28 -26 0 -29 -4 -36 -45 -8 -56 -1 -77 23 -68
29 10 54 35 75 76 l19 38 45 -40 c101 -89 174 -70 174 45 0 38 26 71 62 78
108 20 118 28 133 100 5 26 9 28 46 24 37 -3 40 -2 48 27 12 45 -14 58 -57 28z"/>
<path d="M6740 5915 c0 -35 0 -35 -42 -33 -41 3 -42 2 -52 -38 -17 -64 -30
-74 -96 -74 -72 0 -92 -19 -96 -91 -4 -87 -50 -114 -133 -78 -27 11 -57 29
-67 40 -24 27 -37 24 -59 -13 -23 -40 -44 -57 -69 -58 -16 0 -18 -5 -13 -35 3
-20 17 -60 30 -89 19 -42 31 -54 53 -59 27 -5 74 9 74 23 0 3 16 25 36 48 32
38 40 42 80 42 30 0 46 5 50 15 4 9 19 15 36 15 22 0 33 7 46 30 15 27 21 29
47 23 46 -11 74 -7 97 13 28 26 58 92 58 132 0 29 3 32 31 32 35 0 119 46 119
65 0 19 -99 125 -116 125 -9 0 -14 -12 -14 -35z m50 -69 c0 -18 -27 -46 -45
-46 -22 0 -25 15 -9 38 17 25 54 30 54 8z m-161 -142 c2 -2 -1 -15 -7 -30 -10
-20 -18 -25 -39 -22 -33 4 -41 29 -17 52 14 15 47 14 63 0z m-317 -165 c19
-10 18 -12 -16 -36 -40 -26 -139 -49 -133 -29 6 19 88 76 108 76 11 0 29 -5
41 -11z"/>
<path d="M6750 5835 c-7 -8 -8 -15 -2 -15 5 0 15 7 22 15 7 8 8 15 2 15 -5 0
-15 -7 -22 -15z"/>
<path d="M6570 5685 c-10 -12 -9 -16 3 -21 20 -7 37 3 37 22 0 18 -24 18 -40
-1z"/>
<path d="M6219 5510 c-23 -18 -23 -19 -4 -19 11 0 36 8 55 19 l35 19 -31 1
c-18 0 -42 -9 -55 -20z"/>
<path d="M6816 5760 c-63 -35 -70 -42 -92 -96 -31 -77 -62 -104 -120 -104 -44
0 -137 -42 -164 -75 -7 -9 -23 -12 -45 -8 -31 5 -39 1 -90 -51 -44 -44 -62
-56 -87 -56 -29 0 -30 -1 -15 -18 16 -18 19 -17 84 14 38 18 80 46 96 63 17
20 37 31 53 31 40 0 143 29 193 55 56 28 92 65 121 125 31 62 77 109 117 116
34 6 38 11 25 31 -5 8 -28 -1 -76 -27z"/>
<path d="M6873 5739 c-46 -9 -58 -22 -99 -100 -44 -83 -83 -120 -161 -149 -65
-24 -159 -50 -183 -50 -9 0 -26 -13 -37 -28 -12 -16 -48 -40 -87 -56 -36 -16
-66 -32 -66 -36 0 -10 42 -41 87 -64 31 -15 33 -15 67 7 21 15 63 29 108 36
98 16 129 36 172 113 46 83 70 105 169 153 l82 40 -3 54 c-5 79 -11 88 -49 80z
m7 -73 c0 -24 -50 -76 -73 -75 -21 0 -21 1 -2 8 11 5 29 18 39 30 16 18 17 21
3 21 -9 0 -23 -10 -31 -22 -12 -16 -16 -18 -16 -7 0 19 28 45 55 52 11 2 21 5
23 6 1 0 2 -5 2 -13z m-359 -272 c-72 -22 -103 -65 -48 -64 32 1 65 22 88 56
13 20 19 24 19 12 0 -22 -55 -76 -83 -80 -33 -5 -67 3 -67 16 0 19 31 57 54
66 11 5 35 9 51 8 27 0 25 -1 -14 -14z"/>
<path d="M6833 5540 c-72 -33 -86 -45 -112 -87 -85 -139 -105 -154 -215 -172
-74 -12 -125 -36 -109 -52 27 -27 223 -21 223 6 0 22 50 75 86 90 19 8 34 20
34 28 0 24 48 60 97 72 45 11 48 15 66 65 31 90 25 94 -70 50z"/>
<path d="M6791 5385 c-16 -14 -33 -35 -36 -46 -4 -11 -24 -27 -45 -35 -35 -14
-78 -59 -67 -70 8 -8 57 18 51 27 -3 5 1 6 9 3 24 -9 157 109 157 140 0 15
-41 3 -69 -19z"/>
<path d="M7313 5933 c-30 -48 -35 -52 -85 -60 l-53 -9 31 -16 c56 -30 58 -40
25 -107 -17 -33 -31 -64 -31 -68 0 -4 15 6 33 23 17 16 42 38 55 49 l23 19 60
-60 c66 -64 68 -62 33 39 l-13 37 44 33 c24 17 44 35 45 40 0 4 -15 7 -32 7
-65 0 -75 8 -90 68 l-14 56 -31 -51z"/>
<path d="M7695 5114 c-58 -30 -125 -114 -125 -157 0 -19 69 -82 120 -108 68
-35 172 -34 227 3 40 26 41 28 37 75 -6 57 -22 110 -35 119 -6 3 -28 -8 -50
-25 -48 -39 -51 -27 -4 19 27 26 32 36 23 47 -35 43 -136 57 -193 27z m20 -99
c14 -13 25 -33 25 -43 0 -28 -38 -72 -61 -72 -23 0 -61 18 -71 34 -25 37 14
106 59 106 13 0 35 -11 48 -25z"/>
<path d="M7643 5010 c-31 -13 -32 -65 -2 -80 50 -28 95 18 65 65 -18 27 -28
29 -63 15z"/>
<path d="M7368 5035 c-84 -17 -158 -49 -158 -69 0 -23 110 -146 182 -204 82
-65 193 -124 288 -154 64 -20 95 -23 210 -22 137 1 235 19 320 58 34 16 34 16
5 11 -16 -3 -87 -8 -156 -12 -99 -4 -143 -2 -203 11 -42 10 -74 21 -71 26 3 5
22 4 43 -2 41 -12 220 -16 350 -8 76 5 83 7 89 28 8 32 -14 77 -56 115 -33 30
-213 147 -226 147 -3 0 -5 -22 -5 -50 0 -48 -1 -50 -47 -77 -62 -36 -171 -44
-240 -18 -50 20 -108 66 -133 108 -17 27 -17 31 1 78 l19 49 -73 -1 c-39 0
-102 -7 -139 -14z m77 -222 c39 -23 106 -56 150 -74 89 -37 90 -37 83 -44 -15
-16 -190 58 -278 118 -68 47 -180 138 -180 148 0 4 35 -18 78 -50 42 -32 109
-76 147 -98z"/>
<path d="M9176 5275 l-58 -44 -52 21 c-28 11 -61 24 -72 28 -12 5 -24 6 -27 3
-3 -3 5 -36 19 -75 21 -58 23 -72 12 -86 -7 -9 -30 -38 -50 -63 -44 -53 -46
-59 -15 -59 16 0 18 3 8 9 -11 7 -9 10 9 16 12 4 27 2 33 -4 6 -6 29 -11 52
-11 39 0 41 -2 74 -65 19 -36 40 -65 47 -65 6 0 19 25 29 55 23 74 38 89 119
115 l69 23 -24 18 c-13 11 -43 31 -66 47 l-43 27 7 55 c14 114 11 117 -71 55z
m54 -232 c-1 -5 -12 -21 -26 -38 -23 -27 -24 -27 -14 -5 20 40 41 62 40 43z"/>
<path d="M350 4915 c-30 -31 -62 -60 -70 -65 -11 -6 -45 4 -104 31 -49 22 -91
38 -92 36 -2 -2 12 -41 31 -88 20 -46 33 -93 31 -104 -3 -11 -23 -49 -45 -85
-21 -36 -38 -66 -37 -67 1 -1 37 9 79 22 93 30 97 30 98 8 0 -10 24 -65 54
-123 l54 -105 0 85 c0 47 -4 104 -8 128 -6 30 -5 45 3 48 6 2 76 12 155 22
l143 18 -93 36 c-52 20 -104 39 -116 43 -21 6 -23 12 -25 111 l-3 105 -55 -56z"/>
<path d="M2940 4679 c0 -5 5 -7 10 -4 6 3 10 8 10 11 0 2 -4 4 -10 4 -5 0 -10
-5 -10 -11z"/>
<path d="M3010 4683 c52 -6 62 -23 13 -23 l-41 0 14 -52 c7 -29 27 -80 43
-113 34 -68 107 -158 122 -149 16 10 48 81 55 121 18 117 -77 225 -196 221
-40 -1 -41 -2 -10 -5z m134 -59 c10 -25 1 -27 -19 -4 -15 17 -16 20 -3 20 9 0
19 -7 22 -16z m56 -122 c0 -30 -8 -59 -21 -81 -26 -43 -35 -34 -15 14 9 21 16
57 16 82 0 27 4 42 10 38 6 -3 10 -27 10 -53z"/>
<path d="M2882 4655 c-12 -9 -34 -36 -48 -61 -24 -40 -26 -53 -22 -118 6 -97
10 -102 62 -71 65 38 75 30 26 -20 -51 -52 -47 -64 27 -89 53 -18 110 -20 148
-6 l27 10 -50 56 c-62 70 -107 159 -124 247 -7 37 -15 67 -18 67 -3 0 -15 -7
-28 -15z m-9 -142 c2 -29 1 -53 -3 -53 -11 0 -22 98 -14 112 9 15 11 7 17 -59z
m187 -183 c0 -5 -10 -10 -22 -10 -19 0 -20 2 -8 10 19 13 30 13 30 0z"/>
<path d="M2944 4613 c3 -26 19 -75 35 -108 32 -69 113 -175 119 -157 2 7 -10
28 -27 48 -50 57 -85 134 -106 237 -10 49 -28 32 -21 -20z"/>
<path d="M3110 4330 c0 -5 7 -10 16 -10 8 0 12 5 9 10 -3 6 -10 10 -16 10 -5
0 -9 -4 -9 -10z"/>
<path d="M3708 3120 c-33 -26 -36 -56 -9 -108 25 -48 121 -143 121 -119 0 30
41 126 76 179 19 28 32 53 30 56 -3 3 -47 7 -98 9 -85 5 -96 3 -120 -17z"/>
<path d="M5255 2391 c-9 -27 -34 -74 -55 -105 -22 -32 -40 -59 -40 -61 0 -3
40 -5 89 -5 80 0 91 2 115 25 30 28 32 44 10 86 -17 34 -82 109 -94 109 -5 0
-16 -22 -25 -49z"/>
<path d="M6293 2850 c-34 -15 -44 -26 -54 -58 -17 -57 -4 -109 36 -149 27 -27
40 -33 78 -33 63 0 108 32 124 91 34 119 -69 202 -184 149z m67 -25 c15 -18 5
-35 -20 -35 -10 0 -22 5 -25 10 -7 11 12 40 25 40 4 0 13 -7 20 -15z m110 -74
c0 -30 -16 -59 -26 -48 -4 4 -9 33 -11 65 l-4 57 20 -24 c12 -13 21 -35 21
-50z m-168 2 c21 -19 23 -46 4 -62 -19 -16 -45 -3 -52 25 -12 49 13 69 48 37z
m94 -22 c-10 -16 -36 -13 -36 3 0 17 21 27 34 16 4 -5 5 -13 2 -19z m2 -73
c-3 -7 -13 -13 -23 -13 -10 0 -20 6 -22 13 -3 7 5 12 22 12 17 0 25 -5 23 -12z"/>
<path d="M3022 1978 l-52 -41 -76 28 c-41 15 -77 25 -80 23 -2 -3 7 -37 21
-77 l26 -71 -50 -62 c-28 -34 -48 -64 -44 -67 3 -4 8 0 10 7 6 15 63 16 63 1
0 -6 17 -9 42 -7 l42 3 36 -64 c19 -35 40 -64 45 -64 8 1 55 104 55 121 0 3
-7 -2 -17 -9 -15 -13 -15 -12 -5 7 6 11 19 27 29 35 16 13 17 12 5 -2 -10 -13
3 -11 68 10 44 14 80 28 80 31 0 3 -29 24 -64 46 l-63 42 8 67 c13 101 3 106
-79 43z"/>
<path d="M2808 1713 c7 -3 16 -2 19 1 4 3 -2 6 -13 5 -11 0 -14 -3 -6 -6z"/>
<path d="M2066 1625 c-3 -9 0 -15 9 -15 16 0 20 16 6 24 -5 3 -11 -1 -15 -9z"/>
<path d="M7182 1810 c-6 -11 -23 -22 -37 -26 -20 -5 -23 -9 -14 -20 8 -10 8
-18 1 -27 -7 -8 -7 -18 -2 -27 5 -8 7 -17 4 -21 -2 -4 5 -10 16 -14 11 -3 25
-15 30 -26 10 -18 12 -18 35 -3 15 10 34 14 49 10 20 -5 23 -3 19 18 -3 13 2
36 9 51 14 25 13 29 -14 56 -16 16 -37 29 -47 29 -9 0 -21 4 -27 10 -6 6 -14
3 -22 -10z m63 -54 c18 -27 11 -52 -17 -67 -42 -23 -90 45 -56 79 20 20 56 14
73 -12z"/>
<path d="M9387 1408 l-37 -37 -52 24 c-29 13 -54 23 -55 21 -2 -2 6 -26 18
-54 l21 -51 -26 -47 c-21 -38 -23 -45 -8 -39 9 4 32 9 49 12 32 5 34 4 60 -55
16 -34 30 -61 33 -62 3 0 4 31 2 69 l-4 69 81 8 c45 3 81 9 81 13 0 3 -26 15
-57 27 l-58 20 -5 60 -5 59 -38 -37z"/>
<path d="M8275 961 c36 -15 81 -23 70 -13 -5 5 -28 12 -50 16 -25 3 -33 3 -20
-3z"/>
<path d="M2150 500 c0 -5 5 -10 10 -10 6 0 10 5 10 10 0 6 -4 10 -10 10 -5 0
-10 -4 -10 -10z"/>
<path d="M536 418 c-28 -39 -21 -48 39 -48 59 0 67 9 45 51 -15 27 -64 25 -84
-3z"/>
<path d="M986 424 c-50 -50 -21 -144 44 -144 48 0 80 50 66 104 -13 53 -75 75
-110 40z"/>
<path d="M1616 408 c-32 -46 -8 -118 39 -118 28 0 55 34 55 70 0 36 -27 70
-55 70 -13 0 -31 -10 -39 -22z"/>
<path d="M8972 373 c4 -21 33 -25 33 -3 0 8 -8 16 -18 18 -14 3 -18 -1 -15
-15z"/>
<path d="M8964 325 c-8 -21 10 -39 30 -32 22 9 20 24 -4 37 -16 9 -22 8 -26
-5z"/>
<path d="M9097 350 c-18 -29 -18 -30 2 -30 17 0 21 6 21 30 0 17 -1 30 -3 30
-1 0 -11 -13 -20 -30z"/>
<path d="M9534 375 c-7 -18 3 -35 21 -35 18 0 26 15 19 34 -8 20 -33 21 -40 1z"/>
<path d="M7375 340 c-4 -6 5 -10 19 -10 14 0 26 5 26 10 0 6 -9 10 -19 10 -11
0 -23 -4 -26 -10z"/>
<path d="M7654 336 c-10 -26 4 -48 28 -44 17 2 23 10 23 28 0 18 -6 26 -23 28
-13 2 -25 -3 -28 -12z"/>
<path d="M8014 336 c-10 -26 4 -48 28 -44 17 2 23 10 23 28 0 18 -6 26 -23 28
-13 2 -25 -3 -28 -12z"/>
<path d="M8484 336 c-10 -26 4 -48 28 -44 17 2 23 10 23 28 0 18 -6 26 -23 28
-13 2 -25 -3 -28 -12z"/>
<path d="M7218 8265 c-15 -13 -23 -25 -17 -27 7 -2 -3 -33 -24 -76 -20 -40
-34 -79 -31 -86 3 -8 -4 -31 -15 -52 -16 -29 -21 -57 -21 -115 0 -88 8 -141
21 -133 5 3 10 -18 11 -45 0 -28 1 -57 2 -63 1 -7 -4 -12 -10 -11 -17 3 -26
-59 -13 -95 6 -17 26 -43 45 -57 19 -14 52 -53 74 -85 22 -33 46 -59 53 -57 7
1 12 -6 12 -15 0 -9 13 -26 28 -38 15 -12 27 -28 27 -36 0 -8 5 -14 10 -14 6
0 30 -19 53 -42 24 -24 56 -50 71 -58 15 -8 43 -29 63 -47 19 -18 40 -33 46
-34 31 -3 72 4 75 12 5 12 52 11 52 -1 0 -5 -8 -10 -17 -10 -10 0 2 -9 26 -20
24 -11 49 -20 56 -20 7 0 22 -16 34 -35 24 -41 37 -43 109 -13 43 18 57 20 72
10 14 -9 20 -8 24 1 5 9 7 9 12 0 4 -8 13 -7 35 5 23 13 31 14 37 5 11 -18
117 9 207 53 77 37 238 151 231 163 -3 4 11 23 30 42 20 19 56 62 81 97 43 59
68 78 43 33 -6 -12 -8 -21 -5 -21 8 0 67 122 61 128 -3 3 -6 0 -6 -6 0 -7 -4
-12 -10 -12 -6 0 -5 10 2 25 7 16 14 21 18 14 5 -6 11 0 18 18 5 15 13 37 18
48 6 16 3 15 -14 -5 -24 -28 -28 -23 -10 15 6 14 17 24 24 21 7 -3 18 7 24 22
6 15 20 43 31 62 21 40 24 76 8 117 -6 15 -15 48 -20 73 -8 44 -8 44 -4 -10 3
-30 8 -76 11 -102 4 -26 3 -55 -2 -65 -5 -13 -10 -1 -16 42 -18 143 -21 195
-9 195 14 0 14 71 0 125 -19 76 -51 155 -60 149 -5 -3 -13 6 -19 20 -5 14 -12
26 -15 26 -2 0 0 -12 5 -26 13 -33 13 -41 -1 -27 -6 6 -18 9 -25 6 -10 -3 -14
2 -14 18 0 19 2 21 10 9 8 -12 10 -11 10 8 l0 22 -334 0 c-298 0 -335 -2 -347
-17 -17 -20 -71 -43 -102 -43 -12 0 -40 9 -60 19 -26 13 -34 15 -26 5 6 -8 9
-17 6 -21 -7 -6 -46 36 -47 50 0 13 -358 8 -380 -5 -16 -10 -24 -10 -41 0 -16
10 -24 10 -35 1 -10 -8 -14 -8 -14 0 0 20 -62 12 -87 -11 -23 -22 -33 -12 -11
10 21 21 4 12 -24 -13z m182 -17 c0 -13 -32 -6 -37 9 -3 7 3 9 16 6 12 -3 21
-10 21 -15z m1050 -207 c11 -23 16 -42 10 -46 -11 -7 -2 -34 18 -54 41 -41
-47 -195 -118 -207 -8 -2 -27 -6 -42 -10 -19 -4 -38 0 -64 16 -36 23 -36 24
-31 74 12 113 28 210 38 228 13 23 34 24 24 1 -4 -10 -10 -27 -12 -38 -5 -20
-5 -20 10 0 21 27 31 14 14 -18 -10 -20 -17 -23 -25 -15 -9 9 -12 7 -12 -9 0
-12 4 -23 10 -25 6 -2 5 -27 -2 -68 -18 -105 0 -140 60 -119 28 10 76 60 100
106 27 51 9 135 -37 178 -19 16 -27 17 -52 8 -23 -9 -29 -9 -29 2 0 31 57 33
95 3 27 -21 28 -21 16 0 -14 25 -14 32 -1 32 5 0 19 -18 30 -39z m380 -13 c0
-36 -4 -35 -14 5 -4 16 -2 27 4 27 5 0 10 -14 10 -32z m-1289 -23 c-40 -46
-59 -84 -67 -134 -8 -49 -24 -55 -24 -8 1 42 29 104 68 145 41 43 62 41 23 -3z
m-367 -37 c-9 -75 -23 -95 -24 -35 0 44 13 87 26 87 2 0 2 -24 -2 -52z m513
32 c20 -12 35 -30 38 -47 3 -15 10 -42 15 -59 6 -17 10 -58 10 -92 0 -56 -3
-64 -32 -91 -27 -26 -41 -31 -81 -31 -52 0 -78 10 -116 44 l-24 21 12 -22 c19
-36 76 -66 121 -61 40 4 53 -5 24 -16 -49 -19 -120 10 -152 63 -25 40 -28 148
-6 198 19 44 31 28 15 -19 -34 -97 25 -188 124 -188 22 0 43 8 56 21 19 19 20
28 14 127 -5 72 -12 113 -22 124 -23 25 -66 31 -107 14 -40 -17 -48 -6 -14 18
31 22 86 20 125 -4z m1050 12 c23 -15 45 -84 38 -121 -9 -48 -43 -106 -70
-121 -18 -10 -27 -9 -46 1 l-24 14 32 3 c59 6 90 62 84 147 -5 58 -58 86 -83
45 -13 -20 -28 -27 -28 -12 0 5 9 18 20 30 21 22 55 28 77 14z m-759 -24 c21
-21 14 -66 -13 -84 -21 -14 -30 -14 -55 -4 -38 16 -40 32 -1 17 15 -5 35 -7
45 -4 24 9 20 52 -6 70 -22 15 -22 16 -2 16 11 1 25 -4 32 -11z m668 -74 c-3
-9 -6 -29 -6 -45 0 -16 -4 -29 -10 -29 -11 0 -14 49 -4 74 3 9 11 16 16 16 6
0 7 -7 4 -16z m-874 -106 c-10 -22 -11 -21 -11 12 -1 26 2 31 11 22 8 -8 8
-17 0 -34z m-522 15 c0 -3 -7 -14 -16 -24 -15 -17 -14 -18 12 -16 27 2 32 -4
66 -73 20 -41 37 -84 37 -94 1 -23 -26 -56 -46 -56 -20 0 -15 17 7 23 11 3 20
14 20 25 0 24 -57 152 -68 152 -35 0 -41 -64 -12 -129 25 -54 19 -66 -9 -20
-12 19 -24 33 -28 31 -11 -5 -21 36 -22 92 -1 38 4 55 21 73 21 22 38 30 38
16z m1237 -230 c-21 -22 -32 -11 -17 17 9 16 15 19 23 11 8 -8 7 -16 -6 -28z
m-1231 -18 c18 -20 33 -25 71 -25 35 0 44 -3 35 -12 -27 -27 -109 -2 -132 42
-15 28 -2 25 26 -5z m859 -7 c7 -7 -2 -9 -30 -4 -22 3 -48 6 -57 6 -10 0 -18
5 -18 11 0 14 90 3 105 -13z m-76 -13 c30 -3 62 -12 72 -21 12 -11 19 -12 24
-4 13 22 23 -10 14 -44 -9 -31 -66 -92 -77 -82 -3 3 7 17 21 30 15 14 27 28
27 32 0 4 -12 -4 -27 -18 -61 -58 -129 -64 -179 -14 -30 30 -49 87 -24 71 6
-3 10 -12 10 -20 0 -19 58 -65 83 -65 34 0 108 41 119 66 17 36 -10 50 -106
58 -69 5 -83 3 -93 -11 -12 -15 -13 -15 -13 0 0 23 30 38 65 32 17 -3 54 -7
84 -10z m-167 -43 c-4 -41 0 -52 23 -80 16 -19 45 -37 73 -46 l47 -15 -43 0
c-37 -1 -49 4 -77 32 -39 39 -50 72 -41 122 10 52 24 42 18 -13z m549 -4 c-12
-9 -29 -14 -38 -11 -14 5 -13 8 5 14 11 4 26 18 33 31 12 22 13 22 17 3 3 -11
-5 -26 -17 -37z m-880 -4 c16 -8 27 -19 24 -24 -3 -5 4 -14 15 -20 11 -6 18
-15 15 -21 -11 -16 -25 -10 -44 22 -10 17 -21 30 -25 30 -18 -2 -24 0 -30 14
-3 8 -2 23 2 33 6 16 7 16 10 -1 2 -9 17 -24 33 -33z m1067 -36 c2 -20 -7 -38
-39 -73 -38 -41 -79 -59 -79 -35 0 6 8 10 17 10 42 0 105 96 74 114 -11 7 -47
-33 -61 -68 -12 -33 -25 -28 -16 7 16 67 98 102 104 45z m132 -8 c0 -5 -4 -10
-10 -10 -5 0 -10 5 -10 10 0 6 5 10 10 10 6 0 10 -4 10 -10z m-1218 -107 c30
-27 20 -36 -16 -14 -77 48 -87 15 -18 -58 54 -58 95 -71 100 -33 2 13 -4 32
-14 43 -9 10 -12 19 -6 19 15 0 42 -40 42 -62 0 -28 -37 -48 -69 -37 -37 13
-86 65 -105 111 -14 33 -14 38 -1 52 17 17 55 8 87 -21z m752 -59 c28 -11 9
-20 -34 -16 -29 3 -38 7 -29 13 16 10 41 11 63 3z m-864 -34 c0 -5 -4 -10 -10
-10 -5 0 -10 5 -10 10 0 6 5 10 10 10 6 0 10 -4 10 -10z m820 5 c0 -9 -64 -39
-140 -65 -103 -36 -105 -56 -8 -65 83 -8 143 11 187 59 24 25 24 26 6 46 -10
11 -13 20 -8 20 20 0 35 -30 30 -57 -5 -26 -4 -26 9 -9 22 31 28 10 8 -26 -11
-19 -38 -42 -64 -55 -52 -26 -147 -43 -136 -25 4 7 17 12 28 12 36 0 95 22
124 46 27 22 25 22 -21 -4 -45 -24 -59 -27 -142 -26 -166 2 -167 57 -1 108 45
14 90 30 98 36 16 10 30 13 30 5z m320 -39 c0 -3 -4 -8 -10 -11 -5 -3 -10 -1
-10 4 0 6 5 11 10 11 6 0 10 -2 10 -4z"/>
<path d="M8440 7842 c0 -6 -14 -28 -32 -49 -29 -34 -29 -35 -4 -13 31 28 50
59 42 68 -3 3 -6 0 -6 -6z"/>
<path d="M7860 8285 c0 -10 60 -35 85 -35 25 0 85 25 85 35 0 3 -38 5 -85 5
-47 0 -85 -2 -85 -5z"/>
<path d="M8579 7243 c-13 -16 -12 -17 4 -4 16 13 21 21 13 21 -2 0 -10 -8 -17
-17z"/>
<path d="M7690 7045 c19 -7 44 -13 55 -13 13 0 7 5 -15 13 -19 7 -44 13 -55
13 -13 0 -7 -5 15 -13z"/>
<path d="M647 6403 c-5 -12 -25 -37 -46 -55 -20 -18 -48 -49 -61 -68 -12 -19
-46 -59 -74 -87 -56 -59 -84 -71 -60 -25 7 15 14 36 14 47 0 14 -20 -1 -72
-58 -67 -71 -98 -92 -98 -67 0 6 4 10 9 10 5 0 11 13 13 29 4 25 -12 13 -118
-92 -107 -106 -148 -157 -126 -157 4 0 32 27 64 60 53 56 87 77 75 48 -22 -60
-17 -61 35 -6 39 42 68 63 108 78 75 28 80 26 37 -16 -34 -34 -48 -64 -29 -64
5 0 17 10 28 21 10 12 45 39 76 60 31 21 59 47 63 58 3 11 12 25 20 31 13 11
15 5 15 -38 0 -39 -6 -57 -25 -80 -22 -26 -79 -162 -68 -162 10 0 50 24 71 43
21 19 22 19 22 2 0 -28 -44 -97 -78 -122 -36 -27 -78 -83 -62 -83 14 0 147
127 163 155 6 11 14 46 18 77 5 43 16 69 43 106 28 39 36 59 36 92 0 41 -1 42
-18 27 -10 -10 -21 -17 -25 -17 -7 0 12 65 42 139 14 33 21 70 19 95 -3 34 -4
37 -11 19z"/>
<path d="M479 6092 c-32 -33 -146 -124 -177 -141 -22 -12 -23 -11 -17 11 4 12
13 36 21 52 18 38 19 37 -16 24 -17 -5 -45 -28 -63 -50 -52 -66 -75 -88 -91
-88 -13 0 -13 4 0 36 8 20 13 38 11 40 -3 3 -24 -18 -47 -46 -23 -28 -55 -57
-71 -66 -22 -11 -29 -22 -29 -44 0 -34 9 -36 50 -15 27 14 44 5 20 -10 -5 -3
-10 -11 -10 -16 0 -5 12 -2 26 8 28 18 184 45 184 31 0 -4 -23 -24 -50 -44
-27 -20 -50 -41 -50 -48 0 -14 89 -9 108 6 9 8 12 5 12 -10 0 -11 -19 -35 -45
-56 -25 -21 -48 -49 -51 -64 -4 -15 -13 -38 -21 -51 -15 -24 -15 -24 16 -18
30 6 31 5 20 -14 -22 -41 50 12 83 61 17 25 47 62 67 84 29 31 32 37 14 32
-42 -13 -32 12 31 75 34 35 71 77 81 93 l19 28 -42 -21 c-23 -11 -49 -21 -58
-21 -15 0 -15 2 -2 23 9 12 22 47 31 77 9 31 28 66 41 79 22 21 44 76 34 86
-2 3 -15 -8 -29 -23z"/>
<path d="M9957 5841 c-46 -51 -71 -90 -63 -98 3 -3 14 1 24 10 10 9 33 22 50
28 24 8 32 17 32 35 0 13 -5 24 -10 24 -7 0 -7 6 0 20 16 30 6 24 -33 -19z"/>
<path d="M105 5775 c-22 -13 -48 -29 -58 -35 -16 -10 -17 -8 -11 15 6 23 4 26
-12 23 -15 -2 -19 -12 -19 -42 0 -34 4 -41 34 -57 51 -27 54 -33 57 -97 3 -52
1 -61 -21 -80 -14 -12 -25 -26 -25 -32 0 -5 -11 -12 -25 -16 -27 -7 -33 -22
-12 -30 18 -7 52 9 108 49 40 29 44 35 30 44 -15 10 -15 12 1 30 10 11 21 34
24 51 6 31 23 52 69 88 19 14 16 15 -42 11 l-62 -5 13 31 c7 18 27 42 46 55
l33 22 -44 0 c-29 0 -58 -9 -84 -25z"/>
<path d="M9952 5760 c-12 -5 -30 -23 -40 -40 -9 -16 -29 -34 -43 -39 -14 -5
-36 -25 -49 -46 -44 -72 -12 -167 72 -211 45 -24 108 -16 108 13 0 15 -20 14
-63 -3 -8 -3 -35 15 -68 45 l-53 49 12 39 c6 21 14 49 18 61 3 13 18 29 32 35
15 7 39 20 55 31 15 10 36 16 47 13 17 -4 20 0 20 29 0 36 -8 40 -48 24z"/>
<path d="M9945 5680 c-4 -6 -23 -18 -43 -28 -30 -14 -38 -25 -50 -71 l-15 -54
44 -38 c48 -42 56 -44 92 -28 20 9 25 19 25 50 1 22 -3 37 -8 34 -4 -3 -11 2
-14 11 -4 12 -2 15 9 10 12 -4 15 3 15 35 0 35 -2 39 -18 30 -22 -11 -48 2
-37 19 4 6 18 10 31 7 18 -3 24 0 24 14 0 13 -7 19 -24 19 -14 0 -28 -5 -31
-10z m-42 -82 c-4 -7 -8 -17 -8 -22 0 -5 -6 -11 -12 -13 -7 -3 -13 -2 -13 2 0
14 21 45 31 45 6 0 7 -5 2 -12z m33 -106 c-10 -10 -29 15 -21 28 6 9 10 8 17
-4 6 -10 7 -20 4 -24z"/>
<path d="M0 5606 c0 -54 4 -75 14 -79 8 -3 16 2 19 14 3 10 10 19 16 19 20 0
12 -19 -19 -47 -17 -14 -30 -30 -30 -35 0 -17 26 -7 51 20 22 23 26 36 26 84
0 57 -1 58 -38 78 l-39 20 0 -74z"/>
<path d="M290 3975 c-85 -18 -136 -37 -221 -81 l-69 -36 0 -159 c0 -103 4
-160 11 -165 7 -4 8 -21 4 -48 -4 -22 -9 -157 -11 -298 -3 -236 -2 -257 14
-261 15 -4 15 -5 1 -6 -12 -1 -17 -11 -17 -41 l-1 -39 47 4 c34 4 42 3 27 -4
-11 -5 -32 -10 -47 -10 -25 -1 -28 -5 -28 -34 0 -18 9 -50 20 -72 11 -22 20
-44 20 -51 0 -6 11 -16 25 -22 13 -6 31 -25 40 -42 9 -17 23 -30 34 -30 11 0
46 -29 80 -67 l61 -68 114 -3 c176 -6 327 40 470 142 210 150 337 388 338 634
1 86 -2 100 -27 147 -24 44 -37 56 -86 77 -38 17 -61 34 -70 53 -25 51 -39 43
-39 -24 0 -43 -4 -62 -15 -69 -13 -7 -13 -14 -4 -40 6 -18 8 -47 5 -65 -4 -18
-6 -49 -6 -69 1 -27 -5 -40 -22 -52 -28 -20 -52 -20 -68 -1 -7 8 -25 15 -40
15 -34 0 -46 14 -65 78 -9 28 -20 54 -25 57 -6 3 -20 -6 -32 -20 -15 -16 -38
-28 -63 -32 -50 -7 -59 -14 -85 -68 -22 -45 -69 -73 -102 -60 -8 3 -31 -2 -53
-10 -36 -16 -40 -16 -64 3 -14 10 -31 38 -38 62 -15 51 -105 144 -133 137 -26
-7 -50 11 -50 38 0 16 13 35 39 56 22 17 37 37 35 43 -10 26 22 38 65 25 30
-9 47 -9 64 -1 12 6 44 13 70 15 35 3 56 12 76 31 17 16 39 26 57 26 24 0 32
6 46 40 18 44 57 62 90 41 16 -10 18 -8 18 13 0 13 9 34 19 48 11 14 27 42 36
64 9 23 30 48 50 62 19 12 35 29 35 37 0 21 -49 49 -144 80 -99 34 -280 43
-386 20z m314 -70 c-9 -14 -20 -25 -26 -25 -11 0 23 49 35 50 4 0 0 -11 -9
-25z m-65 -14 c-13 -11 -26 -17 -29 -14 -3 2 6 13 19 24 13 11 26 17 29 15 3
-3 -6 -14 -19 -25z m111 -10 c-13 -26 -81 -81 -98 -81 -8 0 9 18 36 40 28 21
53 44 57 50 11 18 16 11 5 -9z m120 10 c0 -17 -82 -110 -114 -130 -47 -29 -58
-26 -16 4 19 14 55 50 80 80 47 58 50 60 50 46z m-550 -65 c0 -75 -12 -92 -68
-102 -20 -3 -49 -15 -64 -25 -27 -19 -28 -19 -47 0 -23 23 -36 80 -27 117 7
25 10 26 53 20 41 -5 49 -3 80 24 18 17 43 30 53 30 18 0 20 -7 20 -64z m481
37 c-12 -23 -61 -69 -61 -58 0 8 60 75 67 75 2 0 -1 -8 -6 -17z m-161 -18 c-7
-9 -15 -13 -17 -11 -7 7 7 26 19 26 6 0 6 -6 -2 -15z m60 -80 c-7 -9 -15 -13
-17 -11 -7 7 7 26 19 26 6 0 6 -6 -2 -15z m85 -24 c-3 -6 -11 -11 -17 -11 -6
0 -6 6 2 15 14 17 26 13 15 -4z m421 -446 c-11 -8 -25 -15 -30 -15 -6 0 -2 7
8 15 11 8 25 15 30 15 6 0 2 -7 -8 -15z m29 -25 c-21 -23 -103 -65 -112 -57
-3 3 10 13 28 21 19 8 45 24 59 35 32 26 49 27 25 1z m19 -41 c-33 -35 -93
-74 -100 -66 -3 3 7 12 23 20 15 9 43 31 62 51 19 20 37 33 40 31 2 -3 -9 -19
-25 -36z m-9 -66 c-22 -19 -56 -46 -76 -58 -38 -25 -109 -48 -109 -36 0 4 19
12 43 18 24 7 68 33 102 62 69 57 100 68 40 14z m-513 -48 c22 -25 48 -45 59
-45 28 0 41 -42 44 -135 2 -44 6 -101 10 -127 6 -37 2 -62 -15 -111 -33 -93
-69 -141 -107 -145 -38 -4 -83 23 -83 50 0 10 -8 30 -17 44 -9 14 -19 42 -22
62 -5 32 -10 37 -36 40 -17 2 -39 12 -50 22 -11 10 -41 21 -67 24 -38 6 -48
11 -48 27 0 10 -5 19 -10 19 -6 0 -22 11 -35 25 -19 18 -25 35 -25 67 0 38 -4
46 -30 61 -63 37 -42 114 27 101 20 -4 39 -2 48 6 12 10 22 9 51 -5 35 -16 36
-16 72 9 30 20 45 24 77 19 32 -4 44 -1 59 16 29 32 54 26 98 -24z m408 40 c0
-8 -52 -26 -58 -20 -3 2 6 9 19 14 28 11 39 13 39 6z m95 -71 c-44 -37 -105
-78 -110 -73 -5 6 117 98 130 98 6 0 -3 -11 -20 -25z m-25 -99 c-38 -41 -215
-118 -195 -85 3 5 13 10 22 10 22 0 111 46 152 80 43 34 54 31 21 -5z m-145
-5 c-28 -12 -37 -12 -30 0 3 6 16 10 28 9 21 0 21 -1 2 -9z m-113 -27 c24 -22
23 -67 -4 -114 -23 -42 -38 -48 -58 -24 -9 11 -11 33 -6 77 4 34 10 66 12 70
8 13 36 9 56 -9z m238 -33 c0 -10 -98 -70 -114 -70 -7 0 99 75 112 79 1 1 2
-3 2 -9z m-160 -90 c-19 -13 -30 -13 -30 0 0 6 10 10 23 10 18 0 19 -2 7 -10z
m100 1 c0 -9 -112 -62 -119 -55 -5 5 -8 4 59 36 65 32 60 30 60 19z m-930 -31
c-8 -5 -33 -9 -55 -8 l-40 1 40 7 c65 12 73 12 55 0z m-2 -37 c-10 -2 -26 -2
-35 0 -10 3 -2 5 17 5 19 0 27 -2 18 -5z m898 -2 c-6 -9 -66 -33 -66 -26 0 6
52 34 63 35 5 0 6 -4 3 -9z m-116 -41 c0 -5 -5 -10 -11 -10 -5 0 -7 5 -4 10 3
6 8 10 11 10 2 0 4 -4 4 -10z m20 -50 c-8 -6 -22 -10 -30 -9 -9 0 -5 6 10 14
27 14 44 10 20 -5z m-585 -59 c-12 -11 -113 -27 -103 -16 4 5 25 11 45 15 56
11 68 11 58 1z m50 -31 c-11 -5 -29 -9 -40 -9 -17 -1 -17 1 -5 9 8 5 26 9 40
9 23 0 23 -1 5 -9z m-98 -16 c-3 -3 -12 -4 -19 -1 -8 3 -5 6 6 6 11 1 17 -2
13 -5z m180 -8 c-10 -8 -52 -19 -94 -25 -127 -19 -100 -2 42 26 70 14 72 14
52 -1z m-7 -35 c0 -15 -60 -31 -109 -30 l-46 1 58 9 c32 5 65 13 75 18 21 13
22 13 22 2z m65 -30 c-12 -11 -75 -25 -75 -17 0 3 15 10 33 15 43 12 53 13 42
2z m-138 -17 c-3 -3 -12 -4 -19 -1 -8 3 -5 6 6 6 11 1 17 -2 13 -5z"/>
<path d="M152 3844 c-39 -33 -45 -35 -74 -25 -48 17 -63 -2 -47 -63 13 -53 25
-65 42 -42 7 9 36 20 66 25 29 5 57 15 62 22 8 13 5 107 -4 115 -2 2 -22 -12
-45 -32z"/>
<path d="M537 3118 c-21 -15 -37 -19 -64 -15 -27 5 -42 1 -61 -13 -27 -22 -82
-26 -100 -8 -8 8 -15 8 -26 -1 -10 -9 -29 -11 -55 -6 -35 6 -40 4 -46 -16 -6
-19 -1 -29 29 -54 30 -25 36 -37 36 -67 0 -35 26 -78 48 -78 4 0 12 -10 17
-22 8 -18 20 -24 52 -26 28 -2 47 -10 56 -22 8 -11 31 -23 53 -28 36 -7 39
-11 45 -47 7 -48 43 -127 64 -145 24 -20 64 15 100 86 28 55 30 67 31 184 3
147 -8 195 -47 216 -16 8 -41 30 -56 49 -32 41 -38 42 -76 13z"/>
<path d="M806 2928 c-3 -13 -6 -42 -6 -66 0 -53 17 -53 44 2 15 30 16 43 7 62
-13 30 -37 31 -45 2z"/>
<path d="M835 3860 c-4 -11 -20 -27 -36 -36 -18 -9 -37 -31 -46 -52 -8 -20
-24 -47 -34 -61 -10 -13 -19 -39 -19 -57 0 -37 -13 -43 -42 -17 -26 23 -64 4
-73 -36 -8 -37 -27 -53 -58 -49 -15 1 -36 -8 -56 -25 -18 -15 -45 -30 -59 -33
-15 -3 -51 -13 -80 -21 -40 -12 -56 -13 -64 -5 -17 17 -48 15 -48 -3 0 -8 -18
-27 -40 -42 -52 -33 -52 -66 -2 -71 45 -4 113 -72 142 -140 25 -57 51 -73 90
-52 13 7 37 9 56 5 29 -5 38 -2 59 21 14 15 25 32 25 39 0 7 9 24 21 39 15 19
30 26 56 26 26 0 42 8 64 31 27 29 30 30 52 16 13 -8 29 -34 36 -58 17 -58 28
-69 63 -69 16 0 31 -6 34 -15 8 -20 33 -19 55 1 15 13 16 21 8 37 -8 14 -8 26
0 44 14 31 14 66 -1 98 -10 23 -9 28 11 41 19 14 21 22 16 55 -14 84 28 108
67 39 19 -32 33 -43 73 -56 28 -9 56 -24 64 -33 11 -14 12 -13 6 9 -15 54 -55
143 -86 196 -42 69 -141 178 -202 222 -43 31 -46 31 -52 12z"/>
<path d="M9930 3799 c-90 -75 -102 -118 -34 -119 28 0 46 -23 53 -67 4 -21 15
-42 29 -51 l22 -14 0 151 c0 83 -2 151 -4 151 -3 0 -32 -23 -66 -51z"/>
<path d="M9793 3638 c-119 -197 -155 -411 -103 -606 12 -45 26 -85 31 -88 15
-9 21 41 11 94 -9 49 -8 52 19 78 25 24 29 34 28 88 0 34 0 75 1 91 1 17 -2
47 -6 67 -6 34 -4 39 21 48 14 5 54 10 88 10 83 0 111 15 115 61 3 31 -2 41
-30 64 -25 21 -34 38 -38 69 -5 38 -8 41 -37 44 -17 2 -37 10 -43 18 -19 21
-23 18 -57 -38z"/>
<path d="M9985 3422 c-5 -6 -48 -13 -95 -16 -103 -8 -119 -19 -95 -67 15 -28
16 -38 5 -67 -7 -20 -9 -52 -5 -81 6 -44 4 -50 -24 -79 -30 -30 -31 -32 -20
-79 9 -40 9 -55 -5 -86 -15 -36 -14 -41 4 -77 22 -43 35 -50 91 -50 21 0 39
-4 39 -9 0 -20 33 -41 64 -41 17 0 37 -5 44 -12 9 -9 12 -3 12 29 l0 42 -42 4
-43 4 43 1 c33 2 42 6 42 20 0 15 -10 17 -100 14 -55 -2 -100 0 -100 5 0 4 25
6 56 5 74 -5 144 6 144 22 0 9 -16 12 -57 9 -66 -3 -61 2 10 12 35 5 47 11 47
23 0 15 -13 17 -107 16 l-108 -1 102 6 c56 3 104 9 107 12 11 11 2 451 -9 441z
m-87 -369 c-15 -2 -42 -2 -60 0 -18 2 -6 4 27 4 33 0 48 -2 33 -4z m57 -43
c-3 -5 -23 -9 -43 -9 l-37 2 35 7 c52 11 52 11 45 0z m-128 -86 c-3 -3 -12 -4
-19 -1 -8 3 -5 6 6 6 11 1 17 -2 13 -5z m156 -131 c-7 -2 -19 -2 -25 0 -7 3
-2 5 12 5 14 0 19 -2 13 -5z"/>
<path d="M9790 2795 c0 -3 14 -27 31 -55 28 -46 153 -170 171 -170 14 0 9 157
-4 167 -7 6 -31 13 -53 16 -24 4 -45 14 -54 27 -10 14 -24 20 -52 20 -22 0
-39 -2 -39 -5z"/>
<path d="M1 2644 l-1 -82 69 -36 c72 -38 151 -69 158 -62 2 2 -15 26 -37 55
-28 35 -48 51 -64 51 -16 0 -27 9 -35 28 -6 15 -24 34 -39 43 -16 9 -33 30
-39 50 -10 31 -11 26 -12 -47z"/>
</g>
</svg>
