<?xml version="1.0" encoding="utf-8"?>
<!-- Svg Vector Icons : http://www.onlinewebfonts.com/icon -->
<!DOCTYPE svg PUBLIC "-//W3C//DTD SVG 1.1//EN" "http://www.w3.org/Graphics/SVG/1.1/DTD/svg11.dtd">
<svg version="1.1" xmlns="http://www.w3.org/2000/svg" xmlns:xlink="http://www.w3.org/1999/xlink" x="0px" y="0px" viewBox="0 0 1000 1000" enable-background="new 0 0 1000 1000" xml:space="preserve">
<metadata> Svg Vector Icons : http://www.onlinewebfonts.com/icon </metadata>
<g><g transform="translate(0.000000,511.000000) scale(0.100000,-0.100000)"><path d="M107.6,2660.1v-204h4896.2H9900v204v204H5003.8H107.6V2660.1z"/><path d="M747.7,2073.6c-295.8-63.8-482-232.1-568.7-517.7c-43.3-145.4-51-221.9-40.8-441.2c10.2-242.3,20.4-280.5,109.6-461.6C332,482.3,395.8,403.3,719.7,79.4c438.6-436.1,510-548.3,510-803.3c0-267.8-76.5-364.7-290.7-364.7c-91.8,0-132.6,15.3-198.9,74c-76.5,68.8-81.6,81.6-91.8,306l-10.2,232.1H367.8H100l15.3-260.1c17.9-316.2,66.3-464.1,201.5-619.7c125-142.8,239.7-204,453.9-242.3c278-51,584,15.3,759.9,168.3c316.2,267.8,364.7,923.1,102,1359.2c-30.6,51-224.4,265.2-431,474.3c-209.1,214.2-397.8,431-431,494.7c-112.2,224.4-91.8,545.7,43.4,632.4c99.5,66.3,280.5,51,362.1-28.1c53.6-56.1,66.3-94.4,74-244.8l10.2-178.5h270.3h267.8l-12.7,224.4c-28,489.6-280.5,749.7-759.9,782.9C933.9,2091.4,808.9,2086.3,747.7,2073.6z"/><path d="M2045.7,1793.1v-255h306h306V-17.5v-1555.6h280.5h280.5V-17.5v1555.6H3512h293.3v255v255h-879.8h-879.8V1793.1z"/><path d="M4101.1,321.7c-150.5-951.2-283.1-1767.2-288.2-1810.6l-15.3-84.2h257.5h255l15.3,71.4c7.7,38.3,25.5,150.5,40.8,247.4c12.7,99.5,30.6,216.8,38.3,262.7l15.3,84.1l349.4-7.6l349.4-7.6l48.4-323.9l51-326.4h288.2c285.6,0,288.2,0,275.4,58.6c-7.6,30.6-132.6,813.5-280.5,1739.2c-147.9,925.7-275.4,1713.7-283.1,1754.5l-15.3,68.9h-413.1h-413.1L4101.1,321.7z M4904.4,502.7c68.8-461.6,124.9-859.4,124.9-882.3c0-40.8-30.6-45.9-267.8-45.9c-147.9,0-267.8,7.6-267.8,20.4c0,10.2,58.6,397.8,127.5,864.5c71.4,466.7,127.5,861.9,127.5,877.2c0,17.8,5.1,25.5,15.3,17.8C4771.8,1346.8,4833,961.7,4904.4,502.7z"/><path d="M6151.4,237.5v-1810.6h280.5h280.5v739.5V-94h140.3c173.4,0,300.9-51,362.1-142.8c40.8-61.2,48.4-150.5,61.2-660.5c7.7-321.3,23-606.9,35.7-629.9c15.3-40.8,56.1-45.9,308.5-45.9h290.7l-28,71.4c-15.3,38.3-35.7,344.3-45.9,680.9c-20.4,642.6-33.1,703.8-155.5,861.9c-30.6,38.3-89.3,86.7-132.6,109.7l-73.9,38.2l99.4,74c63.8,45.9,127.5,127.5,173.4,221.9c74,145.3,74,155.5,74,594.2c0,443.7,0,446.3-76.5,599.3c-89.3,181.1-244.8,298.4-446.3,341.7c-71.4,15.3-359.6,28.1-637.5,28.1h-510V237.5z M7120.4,1504.9c119.9-58.7,153-176,153-522.8c0-469.2-68.8-566.1-405.5-566.1h-155.5v561v561h173.4C6980.1,1538.1,7084.7,1522.7,7120.4,1504.9z"/><path d="M8140.4,1793.1v-255h293.3H8727V-17.5v-1555.6h293.3h293.3V-17.5v1555.6h293.3H9900v255v255h-879.8h-879.8V1793.1z"/><path d="M107.6-2440.1v-204h4896.2H9900v204v204H5003.8H107.6V-2440.1z"/></g></g>
</svg>