<svg width="500" height="500" viewBox="0 0 500 500" fill="none" xmlns="http://www.w3.org/2000/svg">
<mask id="mask0" mask-type="alpha" maskUnits="userSpaceOnUse" x="0" y="0" width="500" height="500">
<path d="M500 250C500 388.071 388.071 500 250 500C111.929 500 0 388.071 0 250C0 111.929 111.929 0 250 0C388.071 0 500 111.929 500 250Z" fill="#F4C88C"/>
</mask>
<g mask="url(#mask0)">
<path d="M500 250C500 388.071 388.071 500 250 500C111.929 500 0 388.071 0 250C0 111.929 111.929 0 250 0C388.071 0 500 111.929 500 250Z" fill="#F4C88C"/>
<mask id="mask1" mask-type="alpha" maskUnits="userSpaceOnUse" x="0" y="0" width="500" height="500">
<circle cx="250" cy="250" r="250" fill="#8EA8A4"/>
</mask>
<g mask="url(#mask1)">
<circle cx="441" cy="113" r="191" fill="#A5C6B1"/>
</g>
<mask id="mask2" mask-type="alpha" maskUnits="userSpaceOnUse" x="-37" y="353" width="553" height="170">
<rect x="-37" y="353" width="553" height="170" fill="#CC883E"/>
</mask>
<g mask="url(#mask2)">
<path d="M500 250C500 388.071 388.071 500 250 500C111.929 500 0 388.071 0 250C0 111.929 111.929 1.52588e-05 250 1.52588e-05C388.071 1.52588e-05 500 111.929 500 250Z" fill="#CC883E"/>
</g>
<mask id="mask3" mask-type="alpha" maskUnits="userSpaceOnUse" x="-115" y="-131" width="723" height="723">
<circle cx="246.453" cy="230.453" r="319" transform="rotate(-171.754 246.453 230.453)" fill="#8EA8A4"/>
</mask>
<g mask="url(#mask3)">
<circle cx="34.912" cy="497.879" r="248.5" transform="rotate(-171.754 34.912 497.879)" stroke="#5E6464" stroke-width="3"/>
<circle cx="29.0889" cy="510.171" r="298.5" transform="rotate(-171.754 29.0889 510.171)" stroke="#5E6464" stroke-width="3"/>
<circle cx="37.7416" cy="489.371" r="198.5" transform="rotate(-171.754 37.7416 489.371)" stroke="#5E6464" stroke-width="3"/>
</g>
</g>
</svg>
