<?xml version="1.0" encoding="utf-8"?>
<!-- Generator: Adobe Illustrator 25.3.1, SVG Export Plug-In . SVG Version: 6.00 Build 0)  -->
<svg version="1.1" xmlns="http://www.w3.org/2000/svg" xmlns:xlink="http://www.w3.org/1999/xlink" x="0px" y="0px"
	 viewBox="0 0 1160 772" style="enable-background:new 0 0 1160 772;" xml:space="preserve">
<style type="text/css">
	.st0{display:none;}
	.st1{display:inline;fill:#BA656D;}
	.st2{display:inline;opacity:0.17;fill:url(#SVGID_1_);}
	.st3{display:none;opacity:0.12;}
	.st4{display:inline;}
	.st5{fill:#F2F2F2;}
	.st6{fill:#113542;}
	.st7{opacity:0.13;}
	.st8{display:none;fill:#113542;}
	.st9{display:none;fill:#F7D77F;}
	.st10{display:none;fill:#8FC5B8;}
	.st11{fill:#F7D77F;}
</style>
<g id="Background" class="st0">
	<rect y="0" class="st1" width="1160" height="772"/>
	<radialGradient id="SVGID_1_" cx="407.8864" cy="358.9875" r="328.7203" gradientUnits="userSpaceOnUse">
		<stop  offset="0" style="stop-color:#FFFFFF"/>
		<stop  offset="0.3757" style="stop-color:#9A9A9A"/>
		<stop  offset="0.8075" style="stop-color:#2C2C2C"/>
		<stop  offset="1" style="stop-color:#000000"/>
	</radialGradient>
	<circle class="st2" cx="407.9" cy="359" r="328.7"/>
</g>
<g id="object">
	<ellipse class="st3" cx="539.9" cy="651.3" rx="187.4" ry="23.1"/>
	<g class="st0">
		<g class="st4">
			<g>
				<circle class="st5" cx="539.9" cy="348" r="216.4"/>
				<g>
					<g>
						<path class="st6" d="M538.6,562.6L538.6,562.6c-1.4,0-2.5-1.1-2.5-2.4V548c0-1.3,1.1-2.4,2.4-2.4h0c1.3,0,2.4,1.1,2.4,2.4
							v12.2C541,561.5,539.9,562.6,538.6,562.6z"/>
					</g>
					<g>
						<path class="st6" d="M538.6,146.9L538.6,146.9c-1.4,0-2.5-1.1-2.5-2.4v-12.2c0-1.3,1.1-2.4,2.4-2.4h0c1.3,0,2.4,1.1,2.4,2.4
							v12.2C541,145.8,539.9,146.9,538.6,146.9z"/>
					</g>
				</g>
				<g>
					<g>
						<path class="st6" d="M756.3,347.6L756.3,347.6c0,1.4-1.1,2.5-2.4,2.5l-12.2,0c-1.3,0-2.4-1.1-2.4-2.4l0,0
							c0-1.3,1.1-2.4,2.4-2.4l12.2,0C755.2,345.2,756.3,346.3,756.3,347.6z"/>
					</g>
					<g>
						<path class="st6" d="M340.6,348.3L340.6,348.3c0,1.4-1.1,2.5-2.4,2.5l-12.2,0c-1.3,0-2.4-1.1-2.4-2.4l0,0
							c0-1.3,1.1-2.4,2.4-2.4l12.2,0C339.5,345.8,340.5,346.9,340.6,348.3z"/>
					</g>
				</g>
				<g>
					<g>
						<path class="st6" d="M698.8,496.6L698.8,496.6c-1,1-2.5,1-3.5,0l-8.6-8.7c-0.9-1-0.9-2.5,0-3.4l0,0c1-0.9,2.5-0.9,3.4,0
							l8.6,8.7C699.7,494.1,699.7,495.6,698.8,496.6z"/>
					</g>
					<g>
						<path class="st6" d="M405.3,202.1L405.3,202.1c-1,1-2.5,1-3.5,0l-8.6-8.7c-0.9-1-0.9-2.5,0-3.4l0,0c1-0.9,2.5-0.9,3.4,0
							l8.6,8.7C406.3,199.6,406.3,201.1,405.3,202.1z"/>
					</g>
				</g>
				<g>
					<g>
						<path class="st6" d="M692.3,193.9L692.3,193.9c1,1,1,2.5,0.1,3.5l-8.5,8.7c-0.9,1-2.5,1-3.4,0l0,0c-1-0.9-1-2.5,0-3.4l8.5-8.7
							C689.8,192.9,691.3,192.9,692.3,193.9z"/>
					</g>
					<g>
						<path class="st6" d="M401.7,491.2L401.7,491.2c1,1,1,2.5,0.1,3.5l-8.6,8.7c-0.9,1-2.5,1-3.4,0l0,0c-1-0.9-1-2.5,0-3.4l8.6-8.7
							C399.2,490.3,400.8,490.3,401.7,491.2z"/>
					</g>
				</g>
			</g>
			<g>
				<path class="st6" d="M539.9,568.5c-59.1,0-114.8-23-156.6-64.9c-41.8-41.8-64.9-97.4-64.9-156.6s23-114.8,64.9-156.6
					c41.8-41.8,97.4-64.9,156.6-64.9s114.8,23,156.6,64.9c41.8,41.8,64.9,97.4,64.9,156.6s-23,114.8-64.9,156.6
					C654.6,545.5,599,568.5,539.9,568.5z M539.9,135.7c-116.6,0-211.4,94.8-211.4,211.4c0,116.6,94.8,211.4,211.4,211.4
					c116.6,0,211.4-94.8,211.4-211.4C751.3,230.5,656.5,135.7,539.9,135.7z"/>
			</g>
			<g class="st7">
				<g>
					<path class="st6" d="M539.9,563c-57.7,0-111.9-22.5-152.7-63.2s-63.2-95-63.2-152.7s22.5-111.9,63.2-152.7s95-63.2,152.7-63.2
						s111.9,22.5,152.7,63.2c40.8,40.8,63.2,95,63.2,152.7S733.4,459,692.6,499.8C651.8,540.6,597.6,563,539.9,563z M539.9,140.9
						c-113.7,0-206.2,92.5-206.2,206.2c0,113.7,92.5,206.2,206.2,206.2c113.7,0,206.2-92.5,206.2-206.2
						C746.1,233.4,653.6,140.9,539.9,140.9z"/>
					<path d="M539.9,563.5c-57.8,0-112.2-22.5-153-63.4c-40.9-40.9-63.4-95.2-63.4-153c0-57.8,22.5-112.2,63.4-153
						c40.9-40.9,95.2-63.4,153-63.4c57.8,0,112.2,22.5,153,63.4c40.9,40.9,63.4,95.2,63.4,153c0,57.8-22.5,112.2-63.4,153
						C652,541,597.7,563.5,539.9,563.5z M539.9,131.7c-57.5,0-111.6,22.4-152.3,63.1c-40.7,40.7-63.1,94.8-63.1,152.3
						c0,57.5,22.4,111.6,63.1,152.3c40.7,40.7,94.8,63.1,152.3,63.1s111.6-22.4,152.3-63.1c40.7-40.7,63.1-94.8,63.1-152.3
						s-22.4-111.6-63.1-152.3C651.5,154.1,597.4,131.7,539.9,131.7z M539.9,553.8c-114,0-206.7-92.7-206.7-206.7
						c0-114,92.7-206.7,206.7-206.7s206.7,92.7,206.7,206.7C746.6,461.1,653.8,553.8,539.9,553.8z M539.9,141.4
						c-113.4,0-205.7,92.3-205.7,205.7c0,113.4,92.3,205.7,205.7,205.7s205.7-92.3,205.7-205.7C745.6,233.7,653.3,141.4,539.9,141.4
						z"/>
				</g>
			</g>
		</g>
		<g class="st4">
			<path class="st8" d="M538.5,348.7L538.5,348.7c-2.1,0-3.8-1.6-3.8-3.7v-84.3c0-2,1.7-3.7,3.7-3.7h0.1c2.1,0,3.7,1.6,3.7,3.7V345
				C542.2,347.1,540.5,348.7,538.5,348.7z"/>
			<path class="st9" d="M538.5,352.5L538.5,352.5c-0.6,0-1-1.6-1-3.7v-84.3c0-2,0.4-3.7,1-3.7h0c0.5,0,1,1.6,1,3.7v84.3
				C539.5,350.8,539,352.5,538.5,352.5z"/>
			<path class="st8" d="M537.6,351L537.6,351c1.4-1.7,4.5-1.4,6.9,0.6l101,83.9c2.4,2,3.3,5,1.9,6.6l0,0.1c-1.4,1.6-4.4,1.3-6.9-0.7
				l-101-83.9C537.1,355.6,536.3,352.6,537.6,351z"/>
			<path class="st10" d="M543.1,355l1-0.1c0.3-0.4-0.9-1.1,1.3,0.8l95,79.3c2.2,1.8,3.7,3.7,3.4,4.1l0,0c-0.3,0.4-2.4-0.7-4.6-2.6
				l-94.9-78.1C542,356.6,542.7,355.5,543.1,355z"/>
		</g>
	</g>
	<g>
		
			<ellipse transform="matrix(0.1602 -0.9871 0.9871 0.1602 107.9915 824.3622)" class="st6" cx="538.5" cy="348.7" rx="10.8" ry="10.8"/>
		<circle class="st11" cx="538.5" cy="348.7" r="6.9"/>
	</g>
</g>
</svg>
