<?xml version="1.0" standalone="no"?>
<!DOCTYPE svg PUBLIC "-//W3C//DTD SVG 20010904//EN"
 "http://www.w3.org/TR/2001/REC-SVG-20010904/DTD/svg10.dtd">
<svg version="1.0" xmlns="http://www.w3.org/2000/svg"
 width="3000.000000pt" height="3000.000000pt" viewBox="0 0 3000.000000 3000.000000"
 preserveAspectRatio="xMidYMid meet">

<g transform="translate(0.000000,3000.000000) scale(0.100000,-0.100000)"
fill="#000000" stroke="none">
<path d="M14560 29254 c-1210 -55 -2060 -175 -3095 -439 -2823 -719 -5369
-2302 -7281 -4526 -1962 -2283 -3149 -5115 -3393 -8099 -38 -464 -45 -649 -45
-1195 0 -546 7 -731 45 -1195 194 -2372 986 -4660 2304 -6660 398 -603 871
-1210 1379 -1770 193 -212 704 -723 916 -916 1302 -1182 2750 -2089 4360
-2729 3189 -1268 6765 -1339 10005 -198 2344 825 4444 2262 6076 4158 1355
1574 2354 3431 2913 5415 798 2831 703 5860 -271 8625 -475 1348 -1157 2627
-2023 3790 -409 550 -836 1042 -1355 1560 -316 317 -514 501 -809 754 -1682
1441 -3671 2470 -5813 3005 -883 221 -1727 348 -2698 406 -175 11 -1065 21
-1215 14z m370 -487 l0 -364 -232 -7 c-287 -8 -549 -22 -818 -45 -113 -10
-208 -15 -211 -12 -8 7 -84 720 -78 725 6 5 378 34 584 46 275 16 284 16 528
18 l227 2 0 -363z m995 338 c253 -17 535 -41 540 -47 4 -4 -71 -718 -76 -722
-2 -2 -101 4 -219 14 -271 23 -533 38 -817 46 l-223 7 0 365 0 365 283 -6
c155 -4 386 -13 512 -22z m-2415 -52 c0 -5 15 -154 34 -333 19 -179 36 -341
38 -360 l3 -35 -105 -12 c-351 -42 -733 -101 -1049 -163 -85 -16 -155 -28
-156 -27 -1 1 -36 162 -77 357 -66 314 -73 356 -59 362 53 24 714 135 1056
178 278 34 297 36 308 39 4 0 7 -2 7 -6z m3304 -33 c370 -47 1086 -169 1109
-189 7 -7 -135 -696 -146 -707 -2 -3 -87 11 -188 30 -333 64 -691 119 -1018
157 l-103 12 5 41 c3 23 20 186 38 364 30 287 36 322 51 322 10 0 123 -13 252
-30z m-4764 -207 c0 -7 129 -620 145 -689 4 -19 -4 -23 -98 -43 -294 -65 -805
-201 -1085 -290 -51 -16 -94 -26 -96 -22 -8 14 -227 693 -224 696 5 5 462 141
603 179 120 33 491 124 645 159 74 17 110 20 110 10z m6101 -29 c370 -83 1174
-306 1202 -333 7 -7 -203 -675 -216 -687 -3 -3 -78 17 -168 45 -337 102 -830
233 -1025 271 -34 7 -67 16 -74 20 -10 6 3 83 59 346 40 187 74 345 76 352 6
17 16 16 146 -14z m-7422 -694 c62 -193 112 -352 110 -354 -2 -2 -69 -25 -149
-51 -267 -88 -677 -246 -1006 -388 l-80 -35 -149 334 c-95 214 -145 338 -139
344 14 14 370 162 624 260 176 68 651 238 670 239 3 1 56 -157 119 -349z
m8893 274 c230 -79 525 -191 771 -293 303 -125 347 -145 347 -155 0 -11 -279
-639 -289 -649 -4 -4 -113 37 -242 92 -249 105 -662 262 -870 330 l-127 42 33
102 c131 412 191 587 201 587 7 0 86 -25 176 -56z m-4202 -99 c1255 -22 2654
-273 3902 -701 905 -310 1825 -743 2638 -1242 1798 -1104 3317 -2626 4417
-4427 211 -346 364 -625 567 -1035 687 -1383 1118 -2856 1290 -4410 55 -496
76 -894 76 -1470 0 -712 -37 -1248 -130 -1905 -273 -1910 -971 -3754 -2037
-5378 -688 -1049 -1522 -1997 -2478 -2817 -1971 -1689 -4399 -2767 -6960
-3089 -618 -78 -925 -96 -1685 -96 -687 0 -832 6 -1325 55 -2148 214 -4173
933 -5985 2125 -1391 914 -2619 2108 -3583 3482 -783 1115 -1404 2380 -1806
3676 -268 861 -449 1764 -536 2667 -78 813 -76 1787 5 2605 187 1872 754 3642
1693 5285 1023 1790 2496 3357 4227 4495 493 325 875 544 1418 814 1568 778
3220 1223 5002 1347 230 16 810 33 940 27 36 -1 193 -5 350 -8z m-6041 -687
c79 -178 145 -329 148 -335 3 -8 -30 -28 -89 -55 -150 -68 -730 -360 -888
-448 -79 -44 -145 -80 -146 -80 -5 0 -364 628 -364 636 0 10 255 150 533 294
194 100 635 310 652 310 6 0 75 -145 154 -322z m11996 42 c268 -136 575 -301
618 -332 17 -12 5 -36 -158 -318 -97 -168 -179 -308 -183 -311 -4 -4 -74 32
-157 78 -154 86 -732 378 -887 449 l-87 39 125 280 c69 154 136 304 149 332
l24 52 133 -61 c73 -34 264 -128 423 -208z m-13331 -742 c97 -169 176 -311
176 -316 0 -4 -91 -64 -202 -132 -184 -112 -591 -381 -776 -511 -40 -29 -74
-50 -75 -48 -41 52 -427 589 -427 593 0 9 247 181 475 332 179 119 323 209
590 371 28 17 53 28 56 24 3 -3 86 -144 183 -313z m14259 230 c349 -210 997
-644 997 -668 0 -5 -394 -554 -415 -578 -2 -2 -72 45 -157 104 -208 147 -531
358 -732 479 -91 55 -165 105 -163 111 4 22 350 614 359 614 5 0 55 -28 111
-62z m-15399 -1006 c109 -150 196 -276 194 -281 -2 -5 -82 -69 -178 -142 -270
-204 -802 -642 -825 -679 -3 -6 -10 -10 -14 -10 -5 0 -102 105 -217 233 -115
127 -226 250 -246 273 l-38 41 138 120 c263 229 571 478 830 671 l124 92 17
-22 c10 -13 106 -146 215 -296z m16579 211 c346 -261 967 -776 967 -802 0 -8
-468 -531 -476 -531 -2 0 -59 48 -127 108 -235 206 -571 478 -794 642 -57 41
-102 80 -100 85 4 18 411 575 420 575 4 0 54 -35 110 -77z m-17708 -1108 l244
-270 -97 -89 c-155 -143 -521 -507 -685 -681 -83 -88 -154 -160 -158 -160 -4
0 -129 110 -278 244 l-271 243 82 91 c234 257 890 901 911 894 5 -1 118 -124
252 -272z m19143 -130 c215 -211 572 -583 580 -605 3 -9 -513 -475 -526 -475
-6 0 -79 74 -165 165 -163 173 -528 537 -683 681 l-92 84 241 267 241 266 80
-71 c44 -40 190 -180 324 -312z m-20164 -889 c146 -132 266 -245 266 -252 0
-6 -7 -18 -17 -25 -59 -50 -504 -590 -698 -849 -59 -80 -109 -146 -111 -148
-2 -3 -502 357 -581 418 -21 16 -21 17 84 156 278 366 763 950 783 942 4 -2
128 -111 274 -242z m20933 74 c267 -307 743 -909 743 -939 0 -15 -571 -424
-579 -415 -5 5 -50 65 -101 134 -180 241 -475 603 -652 801 l-76 86 266 240
c246 222 268 240 283 224 9 -9 61 -68 116 -131z m-21860 -1181 c153 -111 286
-209 297 -219 18 -17 15 -22 -90 -171 -147 -209 -358 -532 -479 -733 -55 -91
-105 -165 -111 -163 -6 1 -151 83 -322 182 l-311 179 31 56 c54 95 257 418
361 575 104 157 339 495 343 495 2 0 128 -91 281 -201z m22760 29 c227 -324
623 -944 623 -976 0 -8 -594 -352 -608 -352 -4 0 -57 80 -117 178 -129 212
-335 526 -469 717 -54 76 -100 144 -103 151 -4 10 549 423 568 424 3 0 51 -64
106 -142z m-23532 -1328 c154 -89 283 -164 286 -168 4 -4 -32 -74 -78 -157
-86 -154 -380 -735 -447 -883 -30 -67 -40 -82 -54 -77 -120 46 -652 291 -652
301 0 45 530 1094 592 1172 8 9 17 8 42 -7 17 -11 157 -92 311 -181z m24313
83 c148 -263 457 -877 535 -1065 l15 -36 -316 -141 c-175 -78 -322 -141 -327
-141 -6 0 -30 44 -54 98 -68 150 -351 710 -441 871 -44 80 -77 147 -74 150 8
9 598 350 606 350 4 1 29 -38 56 -86z m-24958 -1297 c179 -80 326 -149 327
-153 2 -5 -41 -114 -96 -243 -105 -249 -264 -669 -326 -860 -21 -63 -41 -119
-45 -123 -6 -6 -685 206 -699 219 -13 12 231 674 380 1032 96 231 116 272 127
272 4 0 154 -65 332 -144z m25634 -91 c152 -364 416 -1078 402 -1092 -6 -7
-647 -213 -661 -213 -7 0 -37 71 -75 183 -83 244 -212 582 -315 826 -46 109
-86 205 -87 211 -4 14 633 303 644 292 4 -4 45 -98 92 -207z m-26134 -1263
c179 -57 327 -106 329 -108 2 -2 -19 -79 -47 -171 -82 -270 -145 -500 -212
-778 -34 -143 -67 -276 -71 -296 l-9 -37 -83 18 c-45 10 -206 44 -357 75 -151
32 -276 59 -278 60 -12 9 153 670 250 995 102 346 107 362 131 354 12 -4 168
-54 347 -112z m26628 -107 c129 -425 308 -1133 291 -1149 -4 -4 -663 -146
-679 -146 -4 0 -18 44 -30 98 -70 312 -206 819 -294 1097 -14 43 -24 81 -22
83 5 4 670 221 673 219 0 -1 28 -92 61 -202z m-27003 -1285 c187 -40 342 -74
344 -75 2 -2 -15 -102 -38 -222 -67 -356 -110 -635 -152 -985 -11 -96 -12 -98
-38 -98 -14 0 -174 16 -355 35 -180 19 -332 35 -337 35 -14 0 -11 44 21 294
35 283 86 597 141 884 35 180 44 212 58 208 9 -2 169 -37 356 -76z m27359
-155 c52 -276 103 -593 136 -858 38 -306 38 -311 20 -314 -37 -6 -683 -73
-685 -71 -1 2 -7 50 -14 108 -35 305 -99 722 -161 1039 -16 85 -27 157 -25
159 3 3 157 37 342 77 231 49 340 68 344 61 4 -6 23 -96 43 -201z m-27569
-1271 c187 -20 341 -37 343 -38 1 -2 -2 -47 -8 -102 -21 -207 -40 -511 -52
-831 l-12 -333 -364 0 -365 0 6 308 c4 169 11 372 17 452 18 268 41 555 45
568 6 17 7 17 390 -24z m27769 -194 c30 -371 36 -501 43 -817 l6 -313 -350 0
-350 0 -7 233 c-8 287 -22 548 -46 822 -9 116 -16 212 -14 214 7 7 689 78 695
72 4 -3 14 -98 23 -211z m-27486 -1647 c11 -313 31 -633 51 -835 4 -46 7 -84
6 -86 -1 -1 -163 -19 -361 -40 -245 -26 -361 -35 -365 -28 -17 30 -58 669 -66
1024 l-6 302 364 0 365 0 12 -337z m27529 35 c-8 -350 -52 -1026 -68 -1043 -6
-6 -683 66 -690 74 -4 3 2 101 11 216 23 265 38 528 46 813 l7 222 350 0 350
0 -6 -282z m-27448 -1155 c30 -279 105 -760 165 -1068 13 -66 23 -121 22 -122
-4 -4 -709 -153 -712 -150 -6 6 -79 394 -114 612 -40 242 -100 690 -100 744
l0 28 213 22 c116 12 264 28 327 36 63 7 131 13 151 14 l35 1 13 -117z m27040
66 c230 -24 325 -37 328 -46 14 -36 -90 -747 -169 -1156 -35 -181 -45 -218
-58 -214 -8 2 -162 35 -340 72 -179 38 -326 70 -328 71 -2 1 13 84 32 185 65
338 124 719 157 1017 12 106 14 113 33 109 12 -3 167 -20 345 -38z m-26810
-1441 c64 -290 187 -754 277 -1044 19 -61 34 -116 34 -122 0 -11 -678 -237
-687 -229 -6 7 -72 221 -138 448 -102 355 -231 888 -217 900 8 8 656 147 688
148 18 1 23 -11 43 -101z m26576 17 c171 -36 315 -67 321 -69 14 -6 -3 -89
-92 -446 -115 -463 -250 -914 -271 -906 -7 3 -154 51 -326 107 -171 56 -315
104 -319 108 -4 3 4 42 18 86 88 278 224 784 294 1098 20 91 24 98 44 93 11
-3 161 -34 331 -71z m-26185 -1410 c66 -202 223 -617 326 -863 52 -122 94
-226 94 -230 0 -4 -147 -72 -326 -151 -221 -98 -328 -141 -335 -134 -43 43
-518 1279 -498 1297 12 11 685 222 690 217 4 -3 26 -64 49 -136z m25800 20
c177 -57 324 -106 326 -108 18 -18 -395 -1102 -483 -1271 l-18 -34 -315 140
c-173 77 -316 141 -318 142 -1 2 38 98 87 214 108 253 237 590 321 840 35 100
66 182 70 182 4 0 152 -47 330 -105z m-25093 -1705 c89 -179 198 -390 243
-470 44 -79 77 -147 72 -151 -5 -5 -504 -293 -613 -355 -22 -12 -609 1135
-609 1189 0 7 147 79 328 159 l327 146 44 -96 c25 -53 118 -243 208 -422z
m24563 364 c168 -74 309 -139 314 -144 11 -11 -109 -272 -279 -605 -114 -224
-283 -538 -309 -577 -11 -15 -44 2 -306 153 -162 94 -298 173 -301 177 -4 4
31 75 78 157 90 162 372 718 444 878 24 53 46 97 49 97 3 0 143 -61 310 -136z
m-24013 -1361 c127 -208 344 -538 481 -733 45 -63 78 -118 74 -121 -19 -18
-563 -409 -571 -412 -32 -8 -749 1088 -726 1111 12 13 600 351 611 352 6 0 65
-89 131 -197z m23327 16 c163 -94 296 -174 296 -178 0 -27 -394 -640 -603
-938 l-120 -173 -31 23 c-17 13 -145 105 -283 206 l-253 182 55 77 c113 158
433 644 530 805 55 91 103 166 106 167 4 0 140 -77 303 -171z m-22613 -1066
c193 -259 426 -547 632 -781 55 -63 96 -117 91 -121 -5 -4 -121 -109 -259
-232 -137 -124 -255 -228 -261 -232 -19 -11 -361 388 -645 753 -145 186 -240
313 -243 324 -1 4 573 426 580 426 1 0 48 -62 105 -137z m21867 -87 l272 -198
-30 -41 c-180 -247 -500 -644 -728 -905 l-125 -143 -36 34 c-20 18 -128 116
-241 217 -113 101 -213 191 -224 201 -18 16 -14 21 90 140 206 234 469 559
648 801 50 67 84 104 90 99 6 -4 134 -97 284 -205z m-20614 -1352 c160 -160
331 -327 379 -371 l88 -81 -237 -264 c-131 -144 -241 -263 -245 -263 -35 0
-1007 972 -988 989 2 2 123 110 268 241 l264 237 90 -99 c50 -54 221 -229 381
-389z m19709 227 c131 -118 236 -217 235 -222 -8 -21 -331 -359 -545 -569
-275 -271 -429 -413 -441 -408 -5 1 -111 117 -237 256 l-228 253 94 87 c149
136 599 585 726 724 114 124 117 126 138 110 12 -9 128 -113 258 -231z
m-19088 -816 c208 -185 500 -424 762 -622 l172 -130 -207 -286 c-114 -158
-211 -286 -216 -287 -30 -1 -624 471 -949 754 -122 106 -136 121 -125 137 42
58 465 515 473 511 6 -3 46 -38 90 -77z m18044 -180 c127 -141 231 -259 231
-264 0 -33 -1068 -900 -1084 -880 -111 145 -405 564 -399 569 4 4 64 49 133
100 245 184 671 531 825 673 33 31 61 56 62 57 1 0 105 -115 232 -255z
m-16886 -732 c207 -146 530 -357 731 -478 91 -55 165 -105 163 -111 -1 -6 -80
-146 -175 -311 l-174 -301 -97 58 c-247 145 -659 413 -918 597 l-112 80 207
286 c114 157 211 286 215 287 4 0 76 -48 160 -107z m15780 -195 c103 -141 187
-260 187 -265 -2 -25 -811 -559 -1062 -701 l-56 -32 -35 57 c-86 145 -307 533
-307 541 0 4 91 64 203 132 200 123 589 380 762 503 89 64 90 64 106 43 9 -12
100 -137 202 -278z m-14483 -610 c197 -107 621 -321 780 -393 58 -26 109 -51
113 -55 7 -6 -262 -631 -279 -649 -17 -18 -1184 576 -1184 603 0 8 145 264
297 524 53 90 56 93 76 79 12 -8 101 -57 197 -109z m13199 -184 c94 -163 171
-300 171 -304 0 -28 -1121 -600 -1175 -600 -6 0 -75 142 -153 315 l-141 316
92 41 c155 70 754 373 892 452 72 41 133 74 136 75 4 0 84 -132 178 -295z
m-12001 -393 c252 -107 593 -238 827 -317 94 -31 174 -61 179 -65 7 -6 -196
-655 -210 -669 -8 -7 -372 118 -644 222 -230 88 -646 260 -657 272 -7 7 277
646 287 646 4 0 102 -40 218 -89z m10777 -234 c75 -169 134 -311 130 -316 -22
-37 -1283 -521 -1299 -500 -5 7 -215 663 -213 664 1 1 92 32 202 69 248 85
602 220 845 324 102 44 188 77 192 73 3 -3 68 -144 143 -314z m-9512 -226
c335 -102 828 -233 1023 -271 34 -7 66 -15 73 -19 8 -5 -9 -103 -61 -347 -39
-186 -72 -341 -74 -343 -7 -8 -504 110 -794 190 -196 54 -543 159 -552 168 -4
3 39 148 95 321 116 354 114 350 122 350 3 0 79 -22 168 -49z m8161 -282 c59
-182 105 -333 102 -336 -7 -8 -334 -107 -536 -163 -314 -87 -799 -204 -808
-195 -3 2 -37 156 -77 342 l-72 338 56 13 c460 109 1077 275 1191 321 14 5 28
10 31 10 3 1 54 -148 113 -330z m-6669 -84 c305 -56 504 -86 780 -121 121 -15
221 -28 222 -29 2 -1 -13 -149 -32 -329 -19 -181 -35 -337 -35 -347 0 -26 -21
-25 -307 11 -332 42 -1062 166 -1079 183 -3 3 133 651 142 676 3 10 14 12 37
7 17 -4 140 -27 272 -51z m5205 48 c0 -3 32 -154 70 -335 39 -181 70 -333 70
-337 0 -10 -340 -77 -640 -126 -271 -44 -727 -101 -736 -92 -7 7 -73 605 -74
663 l0 31 113 12 c287 32 885 126 1107 175 78 17 90 18 90 9z m-3850 -228
c280 -22 492 -33 758 -41 l232 -7 0 -350 0 -350 -297 6 c-284 6 -590 23 -898
50 l-140 12 2 25 c11 124 65 640 69 658 4 21 9 23 42 18 20 -3 125 -13 232
-21z m2460 11 c0 -7 16 -163 35 -347 25 -231 32 -334 25 -339 -28 -17 -666
-58 -1027 -66 l-303 -7 0 350 0 350 233 7 c335 9 795 38 1025 65 6 0 12 -5 12
-13z"/>
<path d="M13550 27640 c-26 -50 -25 -104 1 -146 19 -31 25 -34 69 -34 37 0 52
-4 58 -17 13 -24 432 -1398 432 -1415 0 -11 -385 -1111 -446 -1275 l-16 -43
-52 0 c-46 0 -53 -3 -69 -29 -10 -17 -17 -50 -17 -81 0 -31 7 -64 17 -81 l17
-29 182 0 182 0 22 36 c42 67 10 184 -51 184 -16 0 -29 4 -29 9 0 10 339 980
349 999 4 6 77 -216 162 -495 l156 -508 -37 -3 c-31 -3 -39 -9 -53 -38 -22
-44 -22 -104 0 -149 l17 -35 260 0 261 0 18 31 c22 40 22 118 0 158 -16 27
-24 30 -72 33 l-54 3 -230 748 -230 749 203 576 c111 317 212 598 223 625 l19
47 52 0 c50 0 53 2 69 35 23 48 21 106 -4 149 l-21 36 -182 0 -182 0 -17 -35
c-21 -44 -22 -117 -2 -155 13 -25 22 -30 51 -30 25 0 35 -4 32 -12 -3 -7 -76
-218 -163 -468 -87 -250 -161 -458 -164 -462 -4 -5 -257 802 -288 922 -5 17 0
20 31 20 29 0 38 5 51 30 8 16 15 52 15 80 0 28 -7 64 -15 80 l-16 30 -259 0
-260 0 -20 -40z"/>
<path d="M15110 27648 c-25 -41 -26 -115 -2 -157 16 -29 20 -31 80 -31 l62 0
0 -1375 0 -1375 -63 0 c-63 0 -63 0 -80 -35 -9 -20 -17 -53 -17 -75 0 -22 8
-55 17 -75 l17 -35 272 0 272 0 17 27 c28 43 31 103 6 151 l-21 42 -65 0 -65
0 0 1375 0 1375 65 0 c63 0 66 1 85 33 26 41 25 97 0 147 l-20 40 -270 0 -270
0 -20 -32z"/>
<path d="M15908 27649 c-22 -38 -23 -120 -3 -159 15 -29 19 -30 80 -30 l65 0
0 -1375 0 -1375 -63 0 c-59 0 -64 -2 -80 -29 -21 -36 -22 -122 -2 -161 l16
-30 274 0 274 0 16 30 c8 16 15 52 15 80 0 28 -7 64 -15 80 -15 29 -19 30 -80
30 l-65 0 0 1375 0 1375 65 0 c61 0 65 1 80 30 20 39 19 125 -2 161 l-17 29
-271 0 -270 0 -17 -31z"/>
<path d="M9348 26377 l-228 -131 0 -43 c0 -52 30 -105 75 -133 l33 -21 52 31
c29 17 54 29 56 27 3 -2 312 -537 688 -1188 l684 -1184 -54 -30 c-50 -28 -54
-32 -54 -69 0 -50 35 -111 78 -136 l33 -20 232 134 232 134 3 38 c3 51 -32
113 -79 138 l-35 19 -49 -31 c-28 -17 -53 -28 -56 -24 -5 5 -1041 1800 -1366
2364 -2 4 21 21 52 39 51 29 55 33 55 67 -1 59 -72 153 -115 151 -5 0 -112
-59 -237 -132z"/>
<path d="M8797 26058 l-157 -90 0 -39 c0 -84 80 -166 136 -140 15 6 28 10 30
9 3 -4 184 -952 184 -968 0 -6 -162 141 -360 326 -198 185 -360 338 -360 340
0 2 14 10 30 19 23 12 30 22 30 46 0 46 -43 122 -82 143 l-34 18 -222 -128
-222 -128 0 -39 c0 -49 36 -112 78 -134 32 -17 33 -17 77 6 45 24 46 24 67 5
12 -10 256 -237 543 -503 286 -267 522 -486 524 -488 4 -3 237 -1240 254
-1345 5 -36 4 -38 -36 -60 -36 -20 -42 -28 -45 -61 -4 -47 30 -111 75 -138
l33 -21 160 92 c158 91 160 93 160 127 0 46 -42 116 -84 138 -32 17 -36 18
-60 2 -25 -17 -26 -16 -31 5 -17 78 -194 1032 -191 1035 3 4 774 -709 775
-717 1 -3 -13 -13 -29 -22 -23 -13 -30 -24 -30 -48 0 -53 42 -120 90 -145 24
-13 38 -6 245 113 l220 127 3 38 c4 47 -30 111 -75 138 l-33 21 -46 -27 -46
-27 -37 34 c-20 19 -265 248 -546 508 -280 260 -523 485 -539 500 -27 27 -32
46 -147 661 -65 349 -119 642 -119 651 0 9 19 27 43 40 39 22 42 27 41 65 -1
50 -40 115 -82 137 -28 14 -32 13 -185 -76z"/>
<path d="M21116 26070 c-42 -27 -76 -87 -76 -135 0 -38 3 -42 50 -68 28 -16
50 -32 50 -36 0 -6 -1356 -2360 -1365 -2370 -2 -2 -28 11 -57 27 l-53 31 -32
-20 c-44 -28 -74 -79 -76 -130 l-2 -43 234 -134 233 -135 35 18 c40 22 70 75
75 130 3 35 -1 41 -32 61 -19 13 -43 29 -53 36 -17 13 161 328 1289 2275 l65
112 51 -31 51 -32 36 20 c43 23 81 86 81 136 l0 36 -236 136 c-129 75 -236
136 -237 135 -1 0 -15 -9 -31 -19z"/>
<path d="M14640 24004 c-36 -2 -139 -8 -230 -14 -3043 -193 -5794 -1935 -7287
-4615 -591 -1060 -968 -2262 -1087 -3465 -33 -329 -40 -496 -40 -910 0 -414 7
-581 40 -910 119 -1203 496 -2405 1087 -3465 1100 -1974 2888 -3459 5022
-4170 747 -250 1435 -385 2265 -447 215 -16 965 -16 1180 0 830 62 1518 197
2265 447 2134 711 3922 2196 5022 4170 535 959 886 2005 1043 3105 65 455 85
752 85 1270 0 413 -7 569 -41 910 -104 1064 -419 2152 -905 3123 -576 1151
-1408 2180 -2419 2992 -1253 1007 -2734 1654 -4325 1889 -427 63 -741 86
-1225 90 -212 2 -414 2 -450 0z m735 -44 c1120 -51 2139 -281 3150 -712 1361
-580 2566 -1501 3499 -2671 801 -1005 1383 -2193 1690 -3447 366 -1500 335
-3112 -89 -4596 -326 -1138 -880 -2211 -1620 -3134 -831 -1037 -1864 -1867
-3050 -2450 -1779 -875 -3788 -1133 -5750 -739 -871 175 -1783 513 -2565 950
-1944 1086 -3416 2848 -4130 4946 -512 1501 -614 3110 -299 4688 198 989 601
2012 1137 2885 1027 1672 2567 2962 4387 3675 1149 450 2414 660 3640 605z"/>
<path d="M14950 23820 l0 -60 60 0 60 0 0 60 0 60 -60 0 -60 0 0 -60z"/>
<path d="M14070 23831 c-27 -4 -45 -11 -44 -18 1 -7 2 -33 3 -58 1 -43 3 -45
30 -45 16 0 43 3 60 6 26 5 31 11 31 34 0 46 -12 90 -24 88 -6 0 -31 -4 -56
-7z"/>
<path d="M15876 23806 c-10 -50 -7 -84 10 -90 9 -3 36 -6 60 -6 l44 0 2 45 c0
25 1 51 2 58 1 8 -19 14 -56 17 -56 5 -57 5 -62 -24z"/>
<path d="M13158 23688 c-34 -7 -48 -15 -48 -27 1 -20 17 -91 22 -97 3 -2 29 1
60 7 l55 11 -11 56 c-6 30 -16 56 -21 58 -6 1 -31 -3 -57 -8z"/>
<path d="M16784 23636 c-12 -62 -13 -60 59 -71 50 -8 49 -8 62 66 8 43 5 46
-61 54 l-50 7 -10 -56z"/>
<path d="M14560 23669 c-1201 -62 -2365 -367 -3431 -900 -1094 -546 -2063
-1320 -2841 -2265 -999 -1216 -1657 -2705 -1877 -4249 -66 -467 -85 -743 -85
-1255 0 -512 19 -788 85 -1255 238 -1670 971 -3237 2118 -4530 148 -167 519
-538 686 -686 895 -794 1904 -1382 3010 -1754 2710 -912 5696 -435 7971 1273
557 418 1054 892 1499 1427 1004 1210 1671 2715 1894 4272 66 463 85 741 85
1253 0 512 -19 788 -85 1255 -128 898 -409 1796 -820 2616 -546 1094 -1320
2063 -2265 2841 -1559 1281 -3521 1978 -5539 1966 -137 0 -320 -5 -405 -9z
m1160 -143 c389 -36 733 -87 1040 -152 1458 -311 2761 -963 3890 -1950 174
-151 623 -600 774 -774 1145 -1311 1861 -2901 2066 -4590 49 -411 55 -510 55
-1060 0 -550 -6 -649 -55 -1060 -190 -1564 -831 -3073 -1831 -4310 -367 -454
-849 -935 -1309 -1306 -1223 -985 -2736 -1625 -4290 -1814 -411 -49 -510 -55
-1060 -55 -550 0 -649 6 -1060 55 -1554 189 -3067 829 -4290 1814 -247 199
-429 364 -691 625 -274 275 -417 431 -618 681 -1000 1237 -1641 2746 -1831
4310 -49 411 -55 510 -55 1060 0 550 6 649 55 1060 190 1564 831 3073 1831
4310 200 248 343 406 613 676 270 270 428 413 676 613 1346 1089 3006 1746
4720 1871 80 6 165 12 190 14 25 2 261 2 525 1 350 -2 527 -7 655 -19z"/>
<path d="M14906 15250 c-100 -39 -176 -149 -176 -255 0 -144 131 -275 275
-275 107 0 217 76 255 178 84 220 -135 437 -354 352z"/>
<path d="M12260 23448 c-19 -5 -38 -13 -43 -17 -5 -6 17 -96 28 -109 2 -2 28
4 60 13 38 11 55 21 51 30 -2 7 -10 31 -17 54 -13 44 -19 46 -79 29z"/>
<path d="M17681 23417 c-6 -25 -13 -51 -16 -59 -4 -10 7 -17 37 -25 24 -6 50
-14 59 -18 13 -5 19 4 27 38 7 25 14 51 17 59 6 14 1 16 -96 44 -12 3 -19 -6
-28 -39z"/>
<path d="M11398 23118 c-27 -11 -48 -27 -48 -34 0 -7 10 -33 21 -58 l22 -44
51 24 c37 17 50 29 48 41 -4 18 -40 94 -45 92 -1 0 -23 -10 -49 -21z"/>
<path d="M18541 23078 c-12 -28 -20 -52 -19 -53 11 -9 89 -45 98 -45 10 0 50
80 50 100 0 6 -89 50 -103 50 -2 0 -14 -23 -26 -52z"/>
<path d="M10568 22696 c-21 -12 -40 -25 -44 -28 -8 -8 45 -98 58 -98 5 0 29
12 54 26 l44 26 -27 49 c-16 27 -32 49 -38 48 -5 0 -27 -11 -47 -23z"/>
<path d="M19366 22664 c-14 -26 -26 -48 -26 -49 0 -2 22 -17 49 -34 l49 -30
15 22 c8 12 21 36 30 53 l16 31 -48 27 c-27 14 -51 26 -54 26 -3 0 -17 -21
-31 -46z"/>
<path d="M9785 22188 c-22 -16 -39 -35 -37 -41 2 -6 17 -28 33 -49 l31 -38 44
31 c24 16 44 35 44 41 0 12 -59 88 -68 87 -4 0 -25 -14 -47 -31z"/>
<path d="M20145 22167 c-16 -23 -30 -45 -30 -49 0 -6 80 -68 89 -68 6 0 66 83
66 91 0 7 -84 69 -92 69 -2 0 -16 -19 -33 -43z"/>
<path d="M9063 21602 l-43 -37 40 -43 39 -44 46 37 c49 41 49 39 -4 98 -14 15
-27 27 -30 27 -3 0 -25 -17 -48 -38z"/>
<path d="M20867 21592 c-21 -21 -37 -42 -37 -47 0 -6 19 -25 41 -44 l41 -34
41 41 c41 41 41 41 21 63 -10 11 -31 29 -45 40 l-26 18 -36 -37z"/>
<path d="M8406 20948 l-36 -42 37 -38 c20 -21 42 -38 48 -38 5 0 25 19 44 41
l33 41 -38 39 c-21 21 -41 39 -45 39 -4 0 -24 -19 -43 -42z"/>
<path d="M21522 20940 l-44 -39 37 -46 37 -45 27 19 c14 10 34 28 45 40 19 20
18 21 -18 66 -21 25 -38 45 -39 45 -1 -1 -22 -18 -45 -40z"/>
<path d="M7820 20224 c-18 -25 -30 -46 -28 -48 1 -1 22 -17 46 -35 24 -19 47
-30 51 -25 18 23 61 83 61 87 0 7 -82 67 -91 67 -5 0 -22 -21 -39 -46z"/>
<path d="M22107 20225 l-47 -36 30 -45 c17 -24 36 -44 43 -44 7 0 30 15 51 34
l40 33 -29 39 c-16 21 -32 42 -35 47 -4 4 -28 -9 -53 -28z"/>
<path d="M7316 19451 c-14 -27 -26 -51 -26 -54 0 -5 88 -57 95 -57 2 0 17 22
34 49 l30 49 -22 15 c-12 8 -36 21 -53 30 l-31 16 -27 -48z"/>
<path d="M22613 19454 c-24 -14 -43 -30 -43 -36 0 -5 12 -29 26 -54 l26 -44
49 27 c27 16 49 31 49 34 0 12 -52 99 -58 99 -4 -1 -26 -12 -49 -26z"/>
<path d="M6891 18619 c-13 -28 -21 -52 -19 -54 6 -7 101 -46 103 -43 9 10 45
89 45 98 0 10 -80 50 -100 50 -4 0 -17 -23 -29 -51z"/>
<path d="M23024 18627 l-41 -22 23 -50 c26 -55 32 -56 96 -24 l37 19 -21 50
c-23 57 -34 60 -94 27z"/>
<path d="M6561 17768 c-7 -24 -14 -50 -17 -59 -3 -12 6 -19 39 -28 25 -6 51
-13 59 -16 10 -4 17 7 25 37 6 24 14 50 18 59 5 13 -4 19 -38 27 -25 7 -51 14
-59 17 -10 4 -18 -6 -27 -37z"/>
<path d="M23370 17773 c-25 -9 -46 -17 -48 -18 -2 -2 4 -28 13 -60 11 -38 21
-55 30 -51 7 2 32 10 55 17 40 12 41 14 35 47 -9 46 -23 82 -32 81 -5 0 -28
-8 -53 -16z"/>
<path d="M6327 16903 c-3 -5 -9 -32 -12 -59 l-7 -50 56 -10 c62 -12 60 -13 71
59 8 50 8 49 -66 62 -20 4 -39 3 -42 -2z"/>
<path d="M23602 16880 c-18 -4 -35 -10 -38 -12 -2 -3 1 -29 7 -58 l11 -52 52
6 c28 4 54 10 58 14 3 4 2 31 -4 60 -12 57 -16 59 -86 42z"/>
<path d="M6176 15989 c-3 -8 -6 -35 -8 -61 -3 -44 -2 -47 26 -52 50 -10 84 -7
90 10 3 9 6 36 6 60 l0 44 -39 0 c-22 0 -46 3 -55 6 -9 3 -18 0 -20 -7z"/>
<path d="M23758 15973 c-45 -4 -48 -6 -48 -32 0 -16 3 -43 6 -61 l7 -32 55 5
c30 3 56 7 57 9 8 7 -11 111 -20 113 -5 1 -31 0 -57 -2z"/>
<path d="M6120 15010 l0 -60 60 0 60 0 0 60 0 60 -60 0 -60 0 0 -60z"/>
<path d="M23760 14990 l0 -60 60 0 60 0 0 60 0 60 -60 0 -60 0 0 -60z"/>
<path d="M6183 14143 c-20 -4 -21 -8 -16 -61 3 -31 6 -58 7 -58 0 -1 27 1 59
3 54 5 57 7 57 33 0 15 -3 42 -6 59 -6 28 -10 31 -43 30 -20 -1 -46 -4 -58 -6z"/>
<path d="M23716 14114 c-3 -9 -6 -36 -6 -60 l0 -44 45 -1 c25 -1 51 -2 58 -3
8 -1 14 19 17 56 5 56 5 57 -24 62 -50 10 -84 7 -90 -10z"/>
<path d="M6335 13231 c-33 -7 -33 -6 -22 -73 6 -35 13 -48 25 -48 21 1 92 17
98 23 2 2 -1 27 -7 56 -12 55 -18 58 -94 42z"/>
<path d="M23576 13215 c-2 -7 -7 -33 -11 -58 -8 -50 -8 -49 66 -62 43 -8 46
-5 54 61 l7 50 -56 10 c-41 8 -56 7 -60 -1z"/>
<path d="M6590 12343 c-25 -9 -47 -17 -49 -19 -5 -5 20 -104 29 -109 6 -4 97
22 108 30 6 5 -29 115 -36 114 -4 0 -27 -8 -52 -16z"/>
<path d="M23333 12298 c-6 -24 -14 -50 -18 -59 -5 -13 4 -19 38 -27 25 -7 51
-14 59 -17 14 -6 16 -1 44 96 3 12 -6 19 -39 28 -25 6 -51 13 -59 16 -10 4
-17 -7 -25 -37z"/>
<path d="M6912 11475 l-51 -24 21 -50 c11 -28 27 -51 34 -51 7 0 33 10 58 21
l44 22 -23 49 c-13 27 -25 51 -27 53 -2 2 -27 -7 -56 -20z"/>
<path d="M23002 11435 c-12 -25 -22 -50 -22 -56 0 -9 81 -49 100 -49 8 0 54
100 48 105 -3 4 -98 45 -102 45 -1 0 -12 -20 -24 -45z"/>
<path d="M7330 10653 c-25 -14 -47 -28 -49 -30 -5 -3 35 -80 49 -97 9 -9 100
41 100 56 0 8 -49 98 -53 98 -1 0 -22 -12 -47 -27z"/>
<path d="M22581 10611 l-30 -49 22 -15 c12 -8 36 -21 53 -30 l31 -16 27 48
c14 27 26 51 26 54 0 5 -88 57 -95 57 -2 0 -17 -22 -34 -49z"/>
<path d="M7816 9867 l-39 -33 33 -45 c17 -24 37 -43 43 -41 6 2 28 17 49 33
l38 31 -31 44 c-16 24 -35 44 -42 44 -7 0 -30 -15 -51 -33z"/>
<path d="M22082 9845 c-18 -25 -32 -47 -32 -49 0 -6 83 -66 91 -66 9 0 73 90
67 94 -1 1 -22 17 -44 34 -23 18 -44 32 -46 32 -2 0 -19 -20 -36 -45z"/>
<path d="M8400 9152 l-45 -39 39 -47 38 -47 41 38 c23 20 43 39 44 42 1 3 -14
26 -35 49 l-38 44 -44 -40z"/>
<path d="M21501 9129 l-34 -41 42 -41 42 -42 40 44 40 44 -38 39 c-20 21 -42
38 -48 38 -5 0 -25 -19 -44 -41z"/>
<path d="M9045 8489 l-40 -41 44 -39 44 -40 39 38 c21 20 38 42 38 48 0 9 -73
75 -82 75 -2 0 -22 -18 -43 -41z"/>
<path d="M20852 8482 l-44 -38 40 -44 39 -45 47 39 47 38 -38 41 c-20 23 -39
43 -42 44 -3 1 -26 -14 -49 -35z"/>
<path d="M9761 7908 c-17 -23 -31 -45 -31 -49 0 -9 90 -73 94 -67 1 1 17 22
35 46 19 24 30 47 25 51 -23 18 -83 61 -87 61 -3 0 -19 -19 -36 -42z"/>
<path d="M20143 7909 c-24 -17 -43 -35 -43 -42 0 -7 15 -29 33 -51 l33 -38 46
32 c52 36 52 40 1 97 l-28 32 -42 -30z"/>
<path d="M10547 7427 c-8 -12 -21 -36 -30 -53 l-16 -31 48 -27 c27 -14 51 -26
54 -26 5 0 57 88 57 95 0 2 -22 17 -49 34 l-49 30 -15 -22z"/>
<path d="M19362 7404 l-42 -26 27 -49 c16 -27 31 -49 34 -49 10 0 99 51 99 57
0 14 -54 93 -63 93 -7 -1 -31 -12 -55 -26z"/>
<path d="M11350 6974 c-11 -25 -20 -49 -20 -54 0 -8 100 -54 105 -48 7 6 46
101 43 103 -10 9 -89 45 -98 45 -6 0 -20 -21 -30 -46z"/>
<path d="M18555 6994 c-55 -26 -56 -32 -24 -96 l19 -37 50 21 c57 23 60 34 27
94 l-22 41 -50 -23z"/>
<path d="M12212 6647 c-7 -25 -14 -51 -17 -59 -6 -14 -1 -16 96 -44 12 -3 19
6 28 39 6 25 13 51 16 59 4 10 -7 17 -37 25 -24 6 -50 14 -59 18 -13 5 -19 -4
-27 -38z"/>
<path d="M17687 6663 c-32 -10 -47 -19 -43 -28 2 -7 10 -32 17 -55 12 -40 14
-41 47 -35 57 11 84 24 79 39 -3 8 -11 32 -18 55 -13 45 -13 45 -82 24z"/>
<path d="M13107 6423 c-14 -44 -18 -91 -10 -96 5 -3 32 -9 59 -12 l50 -7 10
56 c12 62 13 60 -59 71 -39 6 -46 4 -50 -12z"/>
<path d="M16801 6428 l-43 -10 6 -51 c4 -29 10 -55 14 -59 4 -3 31 -2 60 4
l54 11 -7 45 c-12 79 -9 77 -84 60z"/>
<path d="M14009 6245 c-1 -25 -2 -51 -3 -57 -1 -9 19 -15 56 -18 56 -5 57 -5
62 24 10 50 7 84 -10 90 -9 3 -36 6 -60 6 l-44 0 -1 -45z"/>
<path d="M15871 6283 c-22 -4 -23 -8 -18 -60 3 -30 7 -57 9 -58 2 -2 28 0 58
3 35 5 55 12 54 20 -1 6 -2 32 -2 57 l-2 45 -37 -1 c-21 -1 -49 -4 -62 -6z"/>
<path d="M14930 6180 l0 -60 60 0 60 0 0 60 0 60 -60 0 -60 0 0 -60z"/>
<path d="M4372 21948 c-11 -18 -52 -89 -92 -158 l-72 -125 18 -33 c23 -42 89
-82 138 -82 29 0 39 5 48 25 6 14 15 25 19 25 12 0 651 -744 641 -748 -8 -2
-901 200 -940 213 -11 4 -10 9 2 27 21 30 20 44 -5 79 -26 37 -88 69 -132 69
-34 0 -35 -1 -161 -219 -69 -120 -126 -224 -126 -230 0 -44 93 -111 153 -111
32 0 39 4 57 39 11 22 24 42 30 46 5 3 335 -69 733 -161 l722 -166 445 -519
c244 -286 448 -526 453 -534 5 -10 -1 -30 -17 -58 l-25 -42 20 -32 c28 -43 76
-72 129 -75 l43 -3 88 150 c49 83 88 156 89 163 1 50 -82 112 -150 112 -34 0
-42 -4 -52 -25 -6 -14 -15 -24 -18 -23 -10 4 -702 809 -698 812 1 2 194 -41
428 -95 234 -54 466 -108 517 -119 l91 -21 -16 -29 c-16 -28 -16 -31 1 -63 24
-43 83 -77 135 -77 l40 0 128 221 127 221 -17 33 c-21 38 -74 70 -132 79 -41
6 -42 5 -65 -39 -13 -25 -31 -45 -39 -45 -8 0 -354 77 -769 172 l-754 173
-406 474 c-223 261 -416 488 -427 503 l-22 29 25 44 c24 44 24 45 6 75 -23 40
-92 80 -136 80 -29 0 -39 -6 -55 -32z"/>
<path d="M25547 21845 c-20 -14 -44 -39 -52 -55 -15 -28 -14 -32 15 -83 l29
-53 -952 -549 c-523 -303 -1058 -611 -1188 -686 l-236 -136 -30 51 c-26 45
-33 51 -66 54 -47 4 -111 -30 -139 -75 l-20 -34 88 -152 c48 -84 108 -188 134
-232 43 -75 48 -80 83 -83 47 -4 111 30 138 75 l21 33 -32 54 c-17 30 -27 57
-23 59 45 26 2334 1347 2350 1355 20 11 24 8 53 -43 27 -47 36 -55 61 -55 47
0 121 43 142 82 l18 34 -133 232 -133 232 -45 0 c-32 0 -56 -7 -83 -25z"/>
<path d="M25944 21152 c-21 -16 -45 -40 -53 -54 -12 -24 -11 -31 17 -80 l31
-54 -952 -549 c-523 -303 -1058 -612 -1189 -687 l-237 -136 -31 54 c-28 51
-33 54 -68 54 -49 0 -124 -47 -141 -87 -11 -28 -6 -39 121 -261 l133 -231 39
-1 c49 0 111 34 137 77 l20 32 -31 54 -31 55 113 65 c62 36 597 345 1188 686
l1075 621 33 -55 c29 -47 38 -55 63 -55 45 0 121 44 142 81 l18 32 -112 196
c-169 293 -152 271 -203 271 -31 0 -53 -8 -82 -28z"/>
<path d="M5323 16180 c-30 -18 -33 -24 -33 -70 0 -43 -3 -52 -22 -60 -43 -19
-1459 -450 -1478 -450 -20 0 -1193 410 -1230 430 -16 9 -20 21 -20 60 0 45 -3
51 -30 65 -39 20 -125 19 -161 -2 l-29 -17 0 -183 0 -183 42 -21 c75 -38 178
-8 178 52 0 17 5 29 13 29 16 0 938 -322 934 -326 -6 -6 -921 -284 -934 -284
-8 0 -13 13 -13 33 0 25 -6 36 -29 50 -40 23 -117 22 -158 -3 l-33 -20 0 -255
0 -255 33 -20 c39 -24 104 -26 151 -3 33 15 35 19 38 72 l3 56 714 218 714
218 640 -226 c352 -124 649 -231 659 -236 14 -7 18 -21 18 -59 0 -48 2 -50 40
-70 21 -11 53 -20 70 -20 17 0 49 9 70 20 l40 20 0 185 0 184 -30 16 c-39 20
-125 19 -160 -2 -21 -12 -30 -26 -32 -49 l-3 -32 -502 176 c-277 96 -503 178
-503 181 0 6 985 311 1003 311 4 0 7 -15 7 -33 0 -43 39 -67 110 -67 31 0 64
7 81 17 l29 17 0 258 0 258 -32 20 c-20 12 -51 20 -78 20 -27 0 -58 -8 -77
-20z"/>
<path d="M24518 16034 l-28 -15 0 -274 0 -274 30 -16 c39 -20 125 -19 161 2
27 16 29 21 29 80 l0 63 1375 0 1375 0 0 -65 c0 -61 1 -65 30 -80 39 -20 121
-19 159 3 l31 17 0 270 0 271 -29 17 c-36 21 -122 22 -161 2 -29 -15 -30 -19
-30 -80 l0 -65 -1375 0 -1375 0 0 65 c0 61 -1 65 -30 80 -37 19 -127 19 -162
-1z"/>
<path d="M24530 15241 l-35 -18 -3 -275 -2 -274 35 -17 c45 -22 105 -22 150 0
35 17 35 17 35 80 l0 63 1375 0 1375 0 0 -63 c0 -59 2 -64 29 -80 40 -23 117
-22 159 3 l32 20 0 270 0 270 -40 20 c-50 25 -106 26 -147 0 -32 -19 -33 -22
-33 -85 l0 -65 -1375 0 -1375 0 0 65 0 65 -40 20 c-49 25 -95 25 -140 1z"/>
<path d="M2358 14599 l-38 -19 0 -270 0 -270 33 -20 c41 -25 118 -26 158 -3
27 16 29 21 29 80 l0 63 1375 0 1375 0 0 -63 c0 -63 0 -63 35 -80 46 -22 115
-22 154 1 l31 17 0 272 0 273 -40 20 c-21 11 -53 20 -70 20 -17 0 -49 -9 -70
-20 l-40 -20 0 -65 0 -65 -1375 0 -1375 0 0 64 c0 62 -1 65 -34 85 -42 26 -99
26 -148 0z"/>
<path d="M24523 14443 l-33 -17 0 -276 0 -276 35 -17 c48 -23 112 -22 153 3
30 19 32 23 32 80 l0 60 1375 0 1375 0 0 -63 c0 -63 0 -63 35 -80 49 -23 110
-22 151 4 l34 21 0 268 0 268 -34 21 c-41 26 -102 27 -151 4 -35 -17 -35 -17
-35 -80 l0 -63 -1375 0 -1375 0 0 60 c0 57 -2 61 -32 80 -40 24 -110 25 -155
3z"/>
<path d="M5709 11881 c-25 -15 -51 -42 -58 -58 -10 -26 -9 -34 14 -75 l26 -46
-1146 -982 -1146 -982 35 -62 c20 -34 41 -60 48 -58 7 2 640 224 1407 494 767
270 1402 493 1412 495 13 4 26 -7 46 -41 25 -42 31 -46 66 -46 60 0 147 67
147 112 0 7 -40 81 -88 163 l-88 150 -43 -3 c-54 -4 -104 -34 -129 -76 -20
-33 -20 -34 0 -65 11 -18 18 -34 16 -36 -8 -8 -1962 -695 -1970 -693 -4 2
1265 1087 1557 1330 l33 28 21 -35 c17 -30 26 -35 57 -35 20 0 54 10 76 22 38
21 84 80 75 95 -2 5 -59 104 -126 221 l-123 212 -37 0 c-24 0 -53 -10 -82 -29z"/>
<path d="M23634 10973 c-91 -158 -91 -158 -75 -187 22 -39 97 -86 137 -86 26
0 38 7 55 33 12 17 24 34 25 35 3 4 1594 -1357 1594 -1363 0 -5 -34 7 -1120
395 -465 166 -847 304 -849 306 -3 2 3 20 12 40 16 33 16 37 0 65 -25 43 -95
81 -140 77 -35 -3 -37 -5 -160 -218 l-125 -215 19 -35 c22 -42 85 -80 135 -80
34 0 40 4 64 45 14 25 30 45 34 45 4 0 642 -223 1416 -496 775 -273 1413 -496
1418 -497 9 -2 75 102 75 118 0 7 -2039 1761 -2251 1937 l-33 26 23 46 c27 57
27 61 1 97 -26 37 -88 69 -131 69 -32 0 -36 -4 -124 -157z"/>
<path d="M6538 10457 c-20 -12 -45 -37 -56 -56 l-20 -34 29 -49 c16 -27 29
-52 29 -56 -1 -6 -2344 -1361 -2368 -1370 -4 -1 -21 21 -38 50 -30 53 -31 53
-75 50 -51 -3 -106 -36 -131 -79 l-17 -29 128 -221 c70 -122 134 -230 142
-239 29 -35 141 9 174 70 18 33 18 33 -10 85 -17 31 -25 55 -19 60 15 13 2353
1361 2361 1361 5 0 21 -23 36 -50 26 -47 31 -50 68 -50 77 0 167 80 143 128
-5 11 -65 116 -134 235 l-125 217 -40 -1 c-22 -1 -57 -11 -77 -22z"/>
<path d="M6939 9768 c-19 -12 -45 -36 -58 -55 l-22 -34 32 -55 c17 -30 30 -56
28 -58 -14 -10 -2369 -1366 -2373 -1366 -2 0 -18 24 -34 53 l-30 54 -49 -7
c-56 -7 -100 -34 -125 -77 l-17 -30 136 -236 c136 -237 136 -237 170 -237 46
0 116 42 138 83 18 34 18 34 -11 85 -18 33 -25 55 -19 60 15 14 2354 1362
2362 1362 5 0 20 -23 35 -50 27 -47 30 -50 69 -50 25 0 55 9 75 21 33 20 74
68 74 87 0 5 -60 112 -132 238 l-133 229 -40 2 c-25 1 -53 -6 -76 -19z"/>
<path d="M22852 9618 c-26 -46 -88 -151 -136 -235 l-87 -152 16 -30 c22 -43
85 -81 135 -81 35 0 43 4 58 31 9 17 24 40 33 52 16 20 38 8 1200 -663 651
-376 1185 -684 1187 -685 2 -2 -11 -26 -28 -55 -31 -53 -31 -53 -14 -86 21
-39 98 -84 142 -84 29 0 36 10 166 235 75 129 136 238 136 242 0 15 -53 74
-78 87 -15 7 -46 16 -69 19 l-43 5 -31 -54 c-17 -30 -32 -54 -34 -54 -3 0
-2312 1331 -2352 1356 l-23 14 31 55 c30 54 30 54 12 85 -23 40 -92 80 -137
80 -34 0 -38 -4 -84 -82z"/>
<path d="M7342 9077 c-23 -13 -52 -38 -63 -56 l-20 -33 31 -55 c17 -30 30 -56
28 -57 -17 -12 -2368 -1366 -2372 -1366 -3 0 -17 22 -33 50 -27 48 -29 50 -73
50 -53 0 -111 -34 -135 -80 -15 -29 -14 -31 121 -265 l136 -235 35 0 c46 0
116 42 138 84 l18 34 -31 51 -32 51 23 14 c12 8 546 317 1186 686 1133 654
1165 672 1180 652 9 -11 24 -34 33 -51 15 -27 22 -31 61 -31 50 0 112 38 136
83 13 24 8 36 -121 259 -132 229 -135 233 -169 235 -20 2 -51 -7 -77 -20z"/>
<path d="M8918 7512 c-34 -21 -78 -100 -78 -140 0 -26 7 -35 45 -58 25 -14 45
-33 45 -41 0 -8 -223 -647 -495 -1421 -273 -774 -493 -1411 -491 -1417 2 -5
29 -23 60 -40 l56 -29 24 24 c13 14 454 528 980 1143 527 614 962 1117 967
1117 5 0 27 -11 49 -25 l39 -25 36 21 c43 26 75 84 75 136 l0 39 -147 84 c-80
47 -150 87 -156 89 -19 7 -74 -33 -95 -70 -13 -22 -22 -55 -22 -78 0 -34 5
-43 30 -58 17 -9 30 -20 30 -23 0 -6 -1319 -1552 -1356 -1590 -8 -8 5 41 30
110 339 955 660 1847 666 1853 4 4 23 0 43 -9 34 -16 36 -16 65 5 47 33 74 83
70 132 l-3 42 -213 123 c-118 68 -217 124 -220 123 -4 0 -19 -8 -34 -17z"/>
<path d="M20173 7032 c-151 -86 -152 -87 -153 -122 0 -49 37 -115 80 -139 l36
-20 32 20 32 21 10 -24 c21 -49 689 -1953 686 -1956 -4 -3 -1335 1561 -1349
1585 -4 7 7 20 29 34 34 20 36 25 31 61 -7 49 -48 113 -86 132 -28 15 -32 13
-242 -109 l-214 -123 -3 -41 c-4 -53 29 -113 74 -137 32 -18 34 -18 72 4 22
12 46 22 53 21 10 0 1717 -1981 1940 -2250 l26 -32 61 34 c34 19 62 37 62 41
0 3 -223 639 -495 1413 -272 773 -495 1415 -495 1425 0 10 9 21 19 25 33 10
71 46 71 66 0 41 -42 119 -75 139 -18 11 -36 20 -41 20 -5 0 -78 -40 -161 -88z"/>
<path d="M10349 6685 c-35 -19 -79 -95 -79 -134 0 -27 8 -36 55 -67 l56 -35
-19 -32 c-11 -18 -318 -549 -683 -1182 -364 -632 -664 -1152 -666 -1155 -2 -2
-29 9 -59 25 -52 28 -55 29 -82 13 -44 -26 -81 -87 -82 -134 l0 -41 233 -135
232 -135 35 19 c44 24 80 85 80 135 0 35 -4 40 -50 66 -28 16 -50 32 -50 38 0
9 1346 2346 1361 2363 4 5 31 -5 60 -22 l52 -30 33 20 c44 26 74 79 74 132 l0
43 -220 128 c-121 70 -228 129 -238 131 -9 2 -29 -3 -43 -11z"/>
<path d="M11039 6286 c-38 -26 -79 -99 -79 -140 0 -20 10 -32 48 -56 26 -16
51 -31 56 -33 6 -2 -1333 -2342 -1361 -2376 -2 -3 -28 8 -58 25 -52 27 -57 28
-82 14 -43 -24 -82 -89 -83 -135 l0 -41 231 -133 c235 -136 249 -141 289 -108
32 25 60 85 60 125 0 39 -3 42 -50 68 -27 15 -50 31 -50 36 0 8 1347 2346
1361 2362 4 4 30 -4 58 -19 46 -25 53 -27 81 -15 18 7 42 29 54 49 27 42 39
116 22 130 -6 5 -99 59 -206 121 -107 62 -209 121 -226 131 -30 18 -31 18 -65
-5z"/>
<path d="M13877 5485 c-22 -46 -22 -119 0 -156 15 -25 23 -28 72 -31 l56 -3
277 -1475 c152 -811 277 -1478 277 -1482 1 -5 34 -8 74 -8 l73 0 273 1463
c151 804 278 1472 282 1485 7 19 16 22 62 22 51 0 54 1 70 35 23 49 22 110 -4
151 l-21 34 -178 0 -178 0 -21 -34 c-26 -41 -27 -102 -4 -151 15 -32 20 -35
61 -35 37 0 44 -3 40 -17 -3 -10 -90 -474 -194 -1030 -104 -557 -191 -1013
-194 -1013 -3 0 -88 453 -189 1008 -100 554 -185 1017 -188 1030 -5 20 -2 22
39 22 41 0 46 3 61 35 23 49 22 110 -4 151 l-21 34 -252 0 -252 0 -17 -35z"/>
<path d="M15530 5488 c-25 -42 -26 -119 -3 -159 16 -27 21 -29 80 -29 l63 0 0
-1375 0 -1375 -63 0 c-63 0 -63 0 -80 -35 -9 -20 -17 -53 -17 -75 0 -22 8 -55
17 -75 l17 -35 272 0 272 0 17 27 c28 43 31 103 6 151 l-21 42 -65 0 -65 0 0
1375 0 1375 65 0 c63 0 66 1 85 33 26 41 25 97 0 147 l-20 40 -270 0 -270 0
-20 -32z"/>
</g>
</svg>
