<?xml version="1.0" encoding="utf-8"?>
<!-- Generator: Adobe Illustrator 24.1.2, SVG Export Plug-In . SVG Version: 6.00 Build 0)  -->
<svg version="1.1" id="Layer_2" xmlns="http://www.w3.org/2000/svg" xmlns:xlink="http://www.w3.org/1999/xlink" x="0px" y="0px"
	 viewBox="0 0 1024 1024" style="enable-background:new 0 0 1024 1024;" xml:space="preserve">
<style type="text/css">
	.st0{fill:#EEEEEE;}
	.st1{fill:#111111;}
</style>
<circle class="st0" cx="512" cy="512" r="512"/>
<g>
	<path class="st1" d="M487.19,109.92V59.56h-11.46v-1.63h6.34c1.89,0,3.24-0.39,4.05-1.17c0.81-0.78,1.21-1.78,1.21-3v-3.97h2.02
		v60.13H487.19z"/>
	<path class="st1" d="M508.49,109.92V99.24c0-3.05,0.83-5.53,2.49-7.43c1.66-1.9,3.82-3.53,6.47-4.88c2.65-1.36,5.46-2.71,8.43-4.07
		c4.58-2.1,8.45-4.49,11.6-7.17c3.15-2.68,4.72-6.19,4.72-10.53v-1.42c0-4.27-1.3-7.44-3.91-9.51c-2.61-2.07-6.7-3.1-12.27-3.1
		c-4.68,0-8.5,0.93-11.46,2.8c-2.97,1.87-4.45,4.87-4.45,9v5.39h-2.16v-4.98c0-4.75,1.6-8.26,4.79-10.53
		c3.19-2.27,7.62-3.41,13.28-3.41c6.29,0,10.92,1.26,13.89,3.76c2.97,2.51,4.45,6.17,4.45,10.99c0,4.68-1.48,8.58-4.45,11.7
		c-2.97,3.12-7.15,5.87-12.54,8.24c-3.06,1.29-5.82,2.59-8.29,3.92c-2.47,1.32-4.45,2.85-5.93,4.58c-1.48,1.73-2.23,3.95-2.23,6.66
		v9.05h34.25v1.63H508.49z"/>
</g>
<g>
	<path class="st1" d="M943.46,538.73c-6.02,0-10.7-1.27-14.03-3.82s-4.99-6.19-4.99-10.94v-4.68h2.16v4.68
		c0,4.54,1.44,7.85,4.32,9.92c2.88,2.07,7.06,3.17,12.54,3.31c11.24-0.2,16.86-4.61,16.86-13.23v-2.65c0-4.27-1.42-7.68-4.25-10.22
		c-2.83-2.54-7.04-3.82-12.61-3.82h-8.63v-1.63h8.63c4.85,0,8.72-1.2,11.6-3.61c2.88-2.41,4.32-5.38,4.32-8.9v-1.93
		c0-3.8-1.24-6.78-3.71-8.95c-2.47-2.17-6.54-3.25-12.2-3.25c-5.66,0-9.76,1.08-12.27,3.25c-2.52,2.17-3.78,5.16-3.78,8.95v3.05
		h-2.16v-3.15c0-4.21,1.53-7.54,4.58-10.02c3.06-2.47,7.6-3.71,13.62-3.71c6.02,0,10.56,1.24,13.62,3.71
		c3.05,2.48,4.58,5.82,4.58,10.02v1.83c0,3.53-1.28,6.51-3.84,8.95c-2.56,2.44-6,3.97-10.32,4.58c3.59,0.34,6.49,1.25,8.7,2.75
		c2.2,1.49,3.8,3.29,4.79,5.39c0.99,2.1,1.48,4.34,1.48,6.71v2.65c0,4.88-1.71,8.56-5.13,11.04
		C953.93,537.49,949.3,538.73,943.46,538.73z"/>
</g>
<g>
	<path class="st1" d="M81.48,538.83c-5.84,0-10.34-1.13-13.48-3.41c-3.15-2.27-4.72-5.78-4.72-10.53v-0.71h2.16v1.12
		c0,4.07,1.42,7.07,4.25,9c2.83,1.93,6.76,2.9,11.8,2.9c5.39,0,9.64-1.19,12.74-3.56c3.1-2.37,4.65-5.36,4.65-8.95V507.8
		c-2.16,1.9-4.74,3.51-7.75,4.83c-3.01,1.32-6.81,1.98-11.39,1.98c-5.48,0-9.98-1.1-13.48-3.31c-3.51-2.2-5.26-6.19-5.26-11.95
		v-4.78c0-3.66,0.58-6.63,1.75-8.9c1.17-2.27,2.72-3.98,4.65-5.14c1.93-1.15,4.11-1.93,6.54-2.34s4.85-0.61,7.28-0.61
		c1.8,0,3.82,0.14,6.07,0.41c2.25,0.27,4.43,0.9,6.54,1.88c2.11,0.98,3.86,2.56,5.26,4.73c1.39,2.17,2.09,5.19,2.09,9.05v30.62
		c0,4.48-1.84,8.02-5.53,10.63C91.95,537.53,87.23,538.83,81.48,538.83z M79.73,512.99c3.69,0,6.85-0.51,9.51-1.53
		c2.65-1.02,4.81-2.19,6.47-3.51c1.66-1.32,2.76-2.42,3.3-3.31v-10.68c0-1.56-0.18-3.19-0.54-4.88c-0.36-1.69-1.13-3.29-2.29-4.78
		c-1.17-1.49-2.95-2.71-5.33-3.66c-2.38-0.95-5.6-1.42-9.64-1.42c-5.84,0-10.32,1.24-13.42,3.71c-3.1,2.48-4.65,6.36-4.65,11.65
		v3.26c0,2.71,0.43,5.22,1.28,7.53c0.85,2.31,2.49,4.16,4.92,5.54C71.77,512.3,75.23,512.99,79.73,512.99z"/>
</g>
<g>
	<path class="st1" d="M512.14,969.83c-1.8,0-3.82-0.12-6.07-0.36c-2.25-0.24-4.43-0.83-6.54-1.78c-2.11-0.95-3.87-2.53-5.26-4.73
		c-1.4-2.2-2.09-5.27-2.09-9.21v-30.62c0-4.48,1.84-8.02,5.53-10.63c3.69-2.61,8.4-3.92,14.16-3.92c5.84,0,10.34,1.14,13.49,3.41
		c3.15,2.27,4.72,5.78,4.72,10.53v0.71h-2.16v-1.12c0-4.07-1.42-7.07-4.25-9c-2.83-1.93-6.77-2.9-11.8-2.9
		c-5.39,0-9.64,1.19-12.74,3.56c-3.1,2.38-4.65,5.36-4.65,8.95v16.89c2.16-1.97,4.74-3.59,7.75-4.88c3.01-1.29,6.81-1.93,11.4-1.93
		c3.69,0,6.95,0.44,9.78,1.32c2.83,0.88,5.03,2.43,6.61,4.63c1.57,2.2,2.36,5.31,2.36,9.31v4.78c0,3.66-0.59,6.63-1.75,8.9
		c-1.17,2.27-2.72,3.99-4.65,5.14c-1.93,1.15-4.11,1.93-6.54,2.34C516.99,969.63,514.56,969.83,512.14,969.83z M512.14,968.21
		c5.57,0,9.98-1.24,13.22-3.71c3.24-2.47,4.85-6.36,4.85-11.65v-3.26c0-2.71-0.43-5.22-1.28-7.53c-0.86-2.3-2.47-4.15-4.85-5.54
		c-2.38-1.39-5.87-2.08-10.45-2.08c-3.6,0-6.86,0.58-9.78,1.73c-2.92,1.15-5.24,2.54-6.94,4.17c-1.71,1.63-2.56,3.22-2.56,4.78v8.34
		c0,1.49,0.18,3.1,0.54,4.83c0.36,1.73,1.12,3.34,2.29,4.83c1.17,1.49,2.94,2.71,5.33,3.66
		C504.87,967.73,508.09,968.21,512.14,968.21z"/>
</g>
<circle class="st1" cx="729" cy="137" r="8"/>
<circle class="st1" cx="891" cy="293" r="8"/>
<circle class="st1" cx="295" cy="137" r="8"/>
<circle class="st1" cx="133" cy="293" r="8"/>
<circle class="st1" cx="729" cy="888" r="8"/>
<circle class="st1" cx="891" cy="731" r="8"/>
<circle class="st1" cx="133" cy="731" r="8"/>
<circle class="st1" cx="294" cy="889" r="8"/>
<g>
</g>
<g>
</g>
<g>
</g>
<g>
</g>
<g>
</g>
<g>
</g>
<g>
</g>
<g>
</g>
<g>
</g>
<g>
</g>
<g>
</g>
<g>
</g>
<g>
</g>
<g>
</g>
<g>
</g>
</svg>
