<?xml version="1.0" encoding="UTF-8" standalone="no"?>
<!-- Created with Inkscape (http://www.inkscape.org/) -->

<svg
   xmlns:dc="http://purl.org/dc/elements/1.1/"
   xmlns:cc="http://creativecommons.org/ns#"
   xmlns:rdf="http://www.w3.org/1999/02/22-rdf-syntax-ns#"
   xmlns:svg="http://www.w3.org/2000/svg"
   xmlns="http://www.w3.org/2000/svg"
   xmlns:sodipodi="http://sodipodi.sourceforge.net/DTD/sodipodi-0.dtd"
   xmlns:inkscape="http://www.inkscape.org/namespaces/inkscape"
   width="200"
   height="200"
   id="svg8030"
   version="1.1"
   inkscape:version="0.48.4 r9939"
   sodipodi:docname="New document 3">
  <defs
     id="defs8032" />
  <sodipodi:namedview
     id="base"
     pagecolor="#ffffff"
     bordercolor="#666666"
     borderopacity="1.0"
     inkscape:pageopacity="0.0"
     inkscape:pageshadow="2"
     inkscape:zoom="1.4"
     inkscape:cx="-65.219878"
     inkscape:cy="166.41905"
     inkscape:document-units="px"
     inkscape:current-layer="layer1"
     showgrid="false"
     inkscape:showpageshadow="false"
     inkscape:window-width="1366"
     inkscape:window-height="705"
     inkscape:window-x="-8"
     inkscape:window-y="-8"
     inkscape:window-maximized="1" />
  <metadata
     id="metadata8035">
    <rdf:RDF>
      <cc:Work
         rdf:about="">
        <dc:format>image/svg+xml</dc:format>
        <dc:type
           rdf:resource="http://purl.org/dc/dcmitype/StillImage" />
        <dc:title></dc:title>
      </cc:Work>
    </rdf:RDF>
  </metadata>
  <g
     inkscape:label="Layer 1"
     inkscape:groupmode="layer"
     id="layer1"
     transform="translate(0,-852.36218)">
    <g
       id="g8305"
       transform="matrix(0.32142857,0,0,0.32142857,506.68798,962.31289)">
      <path
         id="rect6781-1"
         d="m -1267.0072,-330.95777 0,7.55014 c 0.5853,-0.003 1.1696,-0.006 1.7556,-0.006 0.586,0 1.1703,0.003 1.7555,0.006 l 0,-7.55014 -3.5111,0 z m -27.8576,1.45881 -3.4892,0.3686 0.7871,7.48454 c 1.1612,-0.12764 2.324,-0.24835 3.4892,-0.36236 l -0.7871,-7.49078 z m 59.2265,0 -0.7873,7.49078 c 1.1653,0.11401 2.3282,0.23472 3.4893,0.36236 l 0.7872,-7.48454 -3.4892,-0.3686 z m -90.2706,4.7325 -3.4329,0.72784 1.5587,7.32522 c 1.1418,-0.24873 2.2862,-0.48937 3.433,-0.72472 l -1.5588,-7.32834 z m 121.3145,0 -1.5587,7.32834 c 1.1469,0.23535 2.2911,0.47599 3.4329,0.72472 l 1.5589,-7.32522 -3.4331,-0.72784 z m -151.6932,7.94997 -3.3391,1.08395 2.3084,7.10657 c 1.111,-0.36816 2.2226,-0.73193 3.3393,-1.08707 l -2.3086,-7.10345 z m 182.0719,0 -2.3084,7.10345 c 1.1168,0.35514 2.2283,0.71891 3.3393,1.08707 l 2.3084,-7.10657 -3.3393,-1.08395 z m -211.4538,11.07999 -3.2051,1.42756 3.0426,6.83167 c 1.0651,-0.48265 2.1331,-0.95734 3.205,-1.42756 l -3.0425,-6.83167 z m 240.8358,0 -3.0425,6.83167 c 1.0719,0.47022 2.1399,0.94491 3.205,1.42756 l 3.0426,-6.83167 -3.2051,-1.42756 z m -268.8996,14.09442 -3.0395,1.75244 3.7517,6.50055 c 1.0086,-0.59168 2.0231,-1.17568 3.0394,-1.75557 l -3.7516,-6.49742 z m 296.9636,0 -3.7517,6.49742 c 1.0163,0.57989 2.0309,1.16389 3.0395,1.75557 l 3.7516,-6.50055 -3.0394,-1.75244 z m -323.4,16.94643 -2.8364,2.06166 4.4294,6.09446 c 0.9409,-0.69342 1.8837,-1.38242 2.8333,-2.06479 l -4.4263,-6.09133 z m 349.8364,0 -4.4263,6.09133 c 0.9501,0.68288 1.8948,1.37085 2.8363,2.06479 l 4.4264,-6.09132 -2.8364,-2.0648 z m -374.3549,19.62034 -2.6083,2.34598 5.0542,5.61339 c 0.8637,-0.78764 1.732,-1.57168 2.6054,-2.34908 l -5.0513,-5.61029 z m 398.8734,0 -5.0512,5.61029 c 0.8732,0.7774 1.7415,1.56144 2.6051,2.34908 l 5.0544,-5.61339 -2.6083,-2.34598 z m -421.2083,22.07253 -2.346,2.60834 5.6103,5.05114 c 0.7774,-0.87321 1.5615,-1.74145 2.349,-2.6052 l -5.6133,-5.05428 z m 443.5432,0 -5.6134,5.05428 c 0.7876,0.86375 1.5717,1.73199 2.3491,2.6052 l 5.6102,-5.05114 -2.3459,-2.60834 z m -463.4447,24.29038 -2.0648,2.83639 6.0913,4.42637 c 0.6829,-0.95018 1.3709,-1.89478 2.0648,-2.83639 l -6.0913,-4.42637 z m 483.3461,0 -6.0913,4.42637 c 0.694,0.94161 1.382,1.88621 2.0647,2.83639 l 6.0914,-4.42637 -2.0648,-2.83639 z m -500.6048,26.23339 -1.7525,3.03944 6.4974,3.75163 c 0.5799,-1.01626 1.1639,-2.03088 1.7555,-3.03945 l -6.5004,-3.75162 z m 517.8637,0 -6.5006,3.75162 c 0.5917,1.00857 1.1757,2.02319 1.7556,3.03945 l 6.4973,-3.75163 -1.7523,-3.03944 z m -532.2831,27.89832 -1.4275,3.20501 6.8315,3.04253 c 0.4705,-1.07192 0.945,-2.13985 1.4277,-3.20497 l -6.8317,-3.04257 z m 546.70241,0 -6.83169,3.04257 c 0.48263,1.06512 0.95724,2.13305 1.42759,3.20497 l 6.83159,-3.04253 -1.42749,-3.20501 z m -558.12601,29.24781 -1.0839,3.33928 7.1033,2.30847 c 0.3553,-1.11676 0.7189,-2.22838 1.0871,-3.33929 l -7.1065,-2.30846 z m 569.54952,0 -7.10649,2.30846 c 0.3682,1.11091 0.73191,2.22253 1.08709,3.33929 l 7.10337,-2.30847 -1.08397,-3.33928 z m -577.85552,30.284898 -0.7279,3.432985 7.3284,1.558778 c 0.2353,-1.146852 0.476,-2.291139 0.7246,-3.433023 l -7.3251,-1.55874 z m 586.16163,0 -7.32523,1.55874 c 0.24876,1.141884 0.48929,2.286171 0.72473,3.433023 l 7.32831,-1.558778 -0.72781,-3.432985 z m -591.25353,30.987732 -0.3686,3.489231 7.4908,0.787206 c 0.1141,-1.165224 0.2348,-2.328095 0.3624,-3.489268 l -7.4846,-0.787169 z m 596.3453,0 -7.48463,0.787169 c 0.12771,1.161173 0.24848,2.324044 0.36243,3.489268 l 7.49072,-0.787206 -0.36852,-3.489231 z m -598.1726,31.346945 0,3.511122 7.5501,0 c 0,-0.585282 -0.01,-1.169474 -0.01,-1.755561 0,-0.586087 0,-1.170278 0.01,-1.755561 l -7.5501,0 z m 592.44981,0 c 0.004,0.585283 0.006,1.169474 0.006,1.755561 0,0.586087 -0.002,1.170279 -0.006,1.755561 l 7.55019,0 0,-3.511122 -7.55019,0 z m -583.50031,30.5816297 -7.4908,0.7872063 0.3686,3.4892308 7.4846,-0.7871687 c -0.1276,-1.16117345 -0.2483,-2.32404399 -0.3624,-3.4892684 z m 582.1009,0 c -0.11395,1.16522441 -0.23472,2.32809495 -0.36243,3.4892684 l 7.48463,0.7871687 0.36852,-3.4892308 -7.49072,-0.7872063 z m -577.5307,30.2724063 -7.3284,1.558766 0.7279,3.433022 7.3251,-1.558765 c -0.2486,-1.141884 -0.4893,-2.286171 -0.7246,-3.433023 z m 572.96063,0 c -0.23544,1.146852 -0.47597,2.291139 -0.72473,3.433023 l 7.32523,1.558765 0.72781,-3.433022 -7.32831,-1.558766 z m -565.23573,29.628909 -7.1033,2.308471 1.0839,3.339266 7.1065,-2.308446 c -0.3682,-1.1109 -0.7318,-2.222531 -1.0871,-3.339291 z m 557.51072,0 c -0.35518,1.11676 -0.71889,2.228391 -1.08709,3.339291 l 7.10649,2.308446 1.08397,-3.339266 -7.10337,-2.308471 z m -546.70252,28.648006 -6.8315,3.042542 1.4275,3.205008 6.8317,-3.04258 c -0.4827,-1.06511 -0.9572,-2.133046 -1.4277,-3.20497 z m 535.89431,0 c -0.47035,1.071924 -0.94496,2.13986 -1.42759,3.20497 l 6.83169,3.04258 1.42749,-3.205008 -6.83159,-3.042542 z m -522.13401,27.354794 -6.4974,3.75162 1.7525,3.03945 6.5004,-3.75163 c -0.5916,-1.00857 -1.1756,-2.02319 -1.7555,-3.03944 z m 508.3738,0 c -0.5799,1.01625 -1.1639,2.03087 -1.7556,3.03944 l 6.5006,3.75163 1.7523,-3.03945 -6.4973,-3.75162 z m -491.8335,25.76169 -6.0913,4.42637 2.0648,2.83639 6.0913,-4.42636 c -0.6939,-0.94161 -1.3819,-1.88622 -2.0648,-2.8364 z m 475.293,0 c -0.6827,0.95018 -1.3707,1.89479 -2.0647,2.8364 l 6.0913,4.42636 2.0648,-2.83639 -6.0914,-4.42637 z m -456.1537,23.89368 -5.6103,5.05111 2.346,2.60836 5.6133,-5.05428 c -0.7875,-0.86377 -1.5716,-1.73199 -2.349,-2.60519 z m 437.0146,0 c -0.7774,0.8732 -1.5615,1.74142 -2.3491,2.60519 l 5.6134,5.05428 2.3459,-2.60836 -5.6102,-5.05111 z m -415.4981,21.77262 -5.0542,5.61344 2.6083,2.3459 5.0513,-5.61028 c -0.8734,-0.77737 -1.7417,-1.56141 -2.6054,-2.34906 z m 393.9814,0 c -0.8636,0.78765 -1.7319,1.57169 -2.6051,2.34906 l 5.0512,5.61028 2.6083,-2.3459 -5.0544,-5.61344 z m -370.3158,19.42356 -4.4294,6.09446 2.8364,2.0617 4.4263,-6.09138 c -0.9496,-0.68235 -1.8924,-1.37134 -2.8333,-2.06478 z m 346.6534,0 c -0.9415,0.69397 -1.8862,1.38194 -2.8363,2.06478 l 4.4263,6.09138 2.8364,-2.06484 -4.4264,-6.09132 z m -321.0978,16.8496 -3.7517,6.50055 3.0395,1.7524 3.7516,-6.4974 c -1.0163,-0.5799 -2.0308,-1.16389 -3.0394,-1.75555 z m 295.5392,0 c -1.0086,0.59166 -2.0232,1.17565 -3.0395,1.75555 l 3.7517,6.4974 3.0394,-1.7524 -3.7516,-6.50055 z m -268.3501,14.08816 -3.0426,6.83167 3.2051,1.42756 3.0425,-6.83168 c -1.0719,-0.47022 -2.1399,-0.94489 -3.205,-1.42755 z m 241.1608,0 c -1.0651,0.48266 -2.1331,0.95733 -3.205,1.42755 l 3.0425,6.83168 3.2051,-1.42756 -3.0426,-6.83167 z m -212.6471,11.14869 -2.3084,7.10656 3.3391,1.08397 2.3086,-7.10347 c -1.1167,-0.35511 -2.2283,-0.71887 -3.3393,-1.08706 z m 184.1335,0 c -1.111,0.36819 -2.2225,0.73195 -3.3393,1.08706 l 2.3084,7.10347 3.3393,-1.08397 -2.3084,-7.10656 z m -154.5983,8.08745 -1.5587,7.32523 3.4329,0.72784 1.5588,-7.32833 c -1.1468,-0.2354 -2.2912,-0.47601 -3.433,-0.72474 z m 125.0629,0 c -1.1418,0.24873 -2.286,0.48934 -3.4329,0.72474 l 1.5587,7.32833 3.4331,-0.72784 -1.5589,-7.32523 z m -94.8467,4.9324 -0.7871,7.48455 3.4892,0.3686 0.7871,-7.4908 c -1.1652,-0.11397 -2.328,-0.23467 -3.4892,-0.36235 z m 64.6306,0 c -1.1611,0.12768 -2.324,0.24838 -3.4893,0.36235 l 0.7873,7.4908 3.4892,-0.3686 -0.7872,-7.48455 z m -34.0709,1.76181 0,7.55013 3.5111,0 0,-7.55013 c -0.5852,0.003 -1.1695,0.006 -1.7555,0.006 -0.586,0 -1.1703,-0.002 -1.7556,-0.006 z"
         style="fill:#000000;fill-opacity:1;stroke:none"
         inkscape:connector-curvature="0" />
      <g
         transform="matrix(0.20389238,0,0,0.20389525,-1570.9746,60.391068)"
         id="g6129">
        <rect
           style="fill:#000000;fill-opacity:1;stroke:none"
           id="rect3339"
           width="44.446712"
           height="60.320538"
           x="1478.8633"
           y="-1919.3622" />
        <rect
           y="963.0047"
           x="1478.8633"
           height="60.320538"
           width="44.446712"
           id="rect3341"
           style="fill:#000000;fill-opacity:1;stroke:none" />
        <rect
           style="fill:#000000;fill-opacity:1;stroke:none"
           id="rect3343"
           width="44.446712"
           height="60.320538"
           x="1118.5122"
           y="2486.2673"
           transform="matrix(0.5,-0.8660254,0.8660254,0.5,0,0)" />
        <rect
           transform="matrix(0,-1,1,0,0,0)"
           y="28.069201"
           x="421.75449"
           height="60.320538"
           width="44.446712"
           id="rect3345"
           style="fill:#000000;fill-opacity:1;stroke:none" />
        <rect
           y="-2608.1611"
           x="1047.4586"
           height="60.320538"
           width="44.446712"
           id="rect3347"
           style="fill:#000000;fill-opacity:1;stroke:none"
           transform="matrix(0.8660254,0.5,-0.5,0.8660254,0,0)" />
        <rect
           transform="matrix(0.5,0.8660254,-0.8660254,0.5,0,0)"
           style="fill:#000000;fill-opacity:1;stroke:none"
           id="rect3349"
           width="44.446712"
           height="60.320538"
           x="337.38132"
           y="-2994.2749" />
        <rect
           transform="matrix(0.8660254,-0.5,0.5,0.8660254,0,0)"
           y="1774.3242"
           x="1494.0486"
           height="60.320538"
           width="44.446712"
           id="rect3351"
           style="fill:#000000;fill-opacity:1;stroke:none" />
        <rect
           style="fill:#000000;fill-opacity:1;stroke:none"
           id="rect3355"
           width="44.446712"
           height="60.320538"
           x="421.75449"
           y="2910.4775"
           transform="matrix(0,-1,1,0,0,0)" />
        <rect
           y="-111.42023"
           x="339.73618"
           height="60.320538"
           width="44.446712"
           id="rect3357"
           style="fill:#000000;fill-opacity:1;stroke:none"
           transform="matrix(0.5,0.8660254,-0.8660254,0.5,0,0)" />
        <rect
           transform="matrix(0.8660254,0.5,-0.5,0.8660254,0,0)"
           style="fill:#000000;fill-opacity:1;stroke:none"
           id="rect3359"
           width="44.446712"
           height="60.320538"
           x="1052.042"
           y="273.45325" />
        <rect
           style="fill:#000000;fill-opacity:1;stroke:none"
           id="rect3361"
           width="44.446712"
           height="60.320538"
           x="1503.5715"
           y="-1108.1331"
           transform="matrix(0.8660254,-0.5,0.5,0.8660254,0,0)" />
        <rect
           transform="matrix(0.5,-0.8660254,0.8660254,0.5,0,0)"
           y="-397.32169"
           x="1114.4579"
           height="60.320538"
           width="44.446712"
           id="rect3363"
           style="fill:#000000;fill-opacity:1;stroke:none" />
      </g>
    </g>
  </g>
</svg>
