<svg id="object" xmlns="http://www.w3.org/2000/svg" viewBox="0 0 1160 772"><defs><style>.cls-1{fill:#f2f2f2;}.cls-2{fill:#113542;}.cls-3{opacity:0.13;}.cls-4{fill:#f7d77f;}</style></defs><circle class="cls-1" cx="539.88" cy="347.98" r="216.43"/><rect class="cls-2" x="536.08" y="545.53" width="4.92" height="17.1" rx="2.44"/><rect class="cls-2" x="536.08" y="129.78" width="4.92" height="17.1" rx="2.44"/><path class="cls-2" d="M756.3,347.62v.05a2.44,2.44,0,0,1-2.43,2.44H741.64a2.42,2.42,0,0,1-2.44-2.43v-.05a2.45,2.45,0,0,1,2.43-2.44h12.23A2.42,2.42,0,0,1,756.3,347.62Z"/><rect class="cls-2" x="323.45" y="345.85" width="17.1" height="4.92" rx="2.44" transform="translate(-0.71 0.68) rotate(-0.12)"/><path class="cls-2" d="M698.78,496.59l0,0a2.44,2.44,0,0,1-3.45,0L686.67,488a2.42,2.42,0,0,1,0-3.44l0,0a2.42,2.42,0,0,1,3.44,0l8.64,8.66A2.44,2.44,0,0,1,698.78,496.59Z"/><path class="cls-2" d="M405.34,202.07l0,0a2.44,2.44,0,0,1-3.45,0l-8.63-8.66a2.44,2.44,0,0,1,0-3.45l0,0a2.42,2.42,0,0,1,3.44,0l8.64,8.66A2.44,2.44,0,0,1,405.34,202.07Z"/><path class="cls-2" d="M692.31,193.87l0,0a2.44,2.44,0,0,1,0,3.45l-8.55,8.75a2.44,2.44,0,0,1-3.45,0l0,0a2.43,2.43,0,0,1,0-3.44l8.55-8.75A2.43,2.43,0,0,1,692.31,193.87Z"/><rect class="cls-2" x="387.21" y="494.87" width="17.1" height="4.92" rx="2.44" transform="translate(-236.54 432.77) rotate(-45.66)"/><path class="cls-2" d="M539.88,568.52a221.41,221.41,0,1,1,156.57-64.85A220,220,0,0,1,539.88,568.52Zm0-432.85c-116.59,0-211.43,94.84-211.43,211.42s94.84,211.43,211.43,211.43S751.3,463.68,751.3,347.09,656.46,135.67,539.88,135.67Z"/><g class="cls-3"><path class="cls-2" d="M539.88,563a215.93,215.93,0,1,1,152.69-63.24A214.57,214.57,0,0,1,539.88,563Zm0-422.12c-113.7,0-206.19,92.49-206.19,206.18s92.49,206.19,206.19,206.19,206.18-92.49,206.18-206.19S653.57,140.91,539.88,140.91Z"/><path d="M539.88,563.53a216.44,216.44,0,1,1,153-63.39A215,215,0,0,1,539.88,563.53Zm0-431.88a215.47,215.47,0,1,0,152.33,63.11A214,214,0,0,0,539.88,131.65Zm0,422.13c-114,0-206.69-92.72-206.69-206.69s92.72-206.68,206.69-206.68,206.68,92.72,206.68,206.68S653.84,553.78,539.88,553.78Zm0-412.37c-113.42,0-205.69,92.27-205.69,205.68s92.27,205.69,205.69,205.69,205.68-92.27,205.68-205.69S653.29,141.41,539.88,141.41Z"/></g><circle class="cls-2" cx="538.46" cy="348.72" r="10.78" transform="translate(107.99 824.36) rotate(-80.78)"/><circle class="cls-4" cx="538.46" cy="348.72" r="6.95"/></svg>