<?xml version="1.0" standalone="no"?>
<!DOCTYPE svg PUBLIC "-//W3C//DTD SVG 20010904//EN"
 "http://www.w3.org/TR/2001/REC-SVG-20010904/DTD/svg10.dtd">
<svg version="1.0" xmlns="http://www.w3.org/2000/svg"
 width="746.000000pt" height="747.000000pt" viewBox="0 0 746.000000 747.000000"
 preserveAspectRatio="xMidYMid meet">

<g transform="translate(0.000000,747.000000) scale(0.100000,-0.100000)"
fill="#000000" stroke="none">
<path d="M3700 7443 c-57 -21 -70 -96 -24 -132 15 -12 37 -21 49 -21 38 0 75
37 75 75 0 54 -53 96 -100 78z"/>
<path d="M3340 7348 c0 -16 5 -28 10 -28 13 0 13 20 0 40 -8 12 -10 9 -10 -12z"/>
<path d="M4100 7345 c0 -15 4 -24 10 -20 6 3 10 12 10 20 0 8 -4 17 -10 20 -6
4 -10 -5 -10 -20z"/>
<path d="M2960 7286 c0 -14 5 -26 10 -26 6 0 10 9 10 19 0 11 -4 23 -10 26 -6
4 -10 -5 -10 -19z"/>
<path d="M4477 7303 c-11 -10 -8 -43 3 -43 6 0 10 11 10 25 0 26 -2 29 -13 18z"/>
<path d="M2590 7203 c0 -19 11 -43 21 -43 13 0 11 14 -6 36 -8 10 -15 14 -15
7z"/>
<path d="M4843 7190 c-12 -28 -8 -39 8 -23 6 6 9 19 6 29 -3 17 -5 16 -14 -6z"/>
<path d="M3560 7160 c-12 -17 -48 -48 -81 -71 -44 -30 -59 -46 -59 -64 0 -13
4 -27 10 -30 9 -6 65 21 108 51 l22 16 0 -211 0 -212 33 3 32 3 3 273 2 272
-24 0 c-16 0 -32 -11 -46 -30z"/>
<path d="M3790 7172 c-37 -20 -80 -83 -80 -118 0 -17 7 -23 31 -26 29 -4 33
-1 49 38 22 50 44 64 98 64 55 0 92 -35 92 -88 0 -53 -37 -102 -145 -192 -89
-76 -135 -138 -135 -184 l0 -26 178 2 177 3 3 33 3 32 -130 0 c-73 0 -131 4
-131 9 0 5 42 45 93 90 111 95 142 133 159 194 10 38 9 52 -6 91 -25 66 -64
90 -151 94 -54 2 -78 -1 -105 -16z"/>
<path d="M2230 7063 c0 -5 7 -18 15 -29 15 -18 15 -18 13 5 -3 23 -28 44 -28
24z"/>
<path d="M5196 7054 c-11 -28 -6 -39 9 -20 8 11 15 23 15 28 0 14 -18 9 -24
-8z"/>
<path d="M1854 6937 c-20 -17 -27 -33 -27 -57 0 -39 40 -80 79 -80 35 0 74 42
74 80 0 38 -39 80 -74 80 -14 0 -37 -11 -52 -23z"/>
<path d="M5502 6943 c-21 -8 -43 -61 -36 -88 14 -55 93 -74 132 -32 59 63 -13
154 -96 120z"/>
<path d="M5357 6695 c-21 -25 -58 -57 -83 -71 -36 -21 -44 -31 -44 -55 0 -38
22 -38 83 1 26 17 50 30 52 30 3 0 5 -92 5 -205 l0 -205 35 0 35 0 0 275 0
275 -22 0 c-15 -1 -37 -17 -61 -45z"/>
<path d="M1570 6681 c0 -13 29 -35 37 -28 7 8 -15 37 -28 37 -5 0 -9 -4 -9 -9z"/>
<path d="M2067 6645 c-21 -25 -58 -57 -83 -71 -36 -21 -44 -31 -44 -55 0 -38
22 -38 83 1 26 17 50 30 52 30 3 0 5 -92 5 -205 l0 -205 35 0 35 0 0 275 0
275 -22 0 c-15 -1 -37 -17 -61 -45z"/>
<path d="M2397 6645 c-21 -25 -58 -57 -83 -71 -36 -21 -44 -31 -44 -55 0 -38
19 -38 82 1 26 17 50 30 53 30 3 0 5 -92 5 -205 l0 -205 35 0 35 0 0 275 0
275 -22 0 c-15 -1 -37 -17 -61 -45z"/>
<path d="M5850 6670 c-6 -11 -7 -20 -2 -20 10 0 32 21 32 32 0 16 -19 8 -30
-12z"/>
<path d="M1280 6436 c0 -9 7 -19 15 -23 25 -9 27 2 5 22 -18 17 -20 17 -20 1z"/>
<path d="M6150 6435 c-7 -9 -10 -18 -7 -22 8 -7 37 15 37 28 0 14 -16 11 -30
-6z"/>
<path d="M1010 6172 c0 -10 21 -32 32 -32 16 0 8 19 -12 30 -11 6 -20 7 -20 2z"/>
<path d="M6420 6165 c-7 -9 -10 -18 -7 -22 8 -7 37 15 37 28 0 14 -16 11 -30
-6z"/>
<path d="M772 5868 c3 -7 13 -15 24 -17 16 -3 17 -1 5 13 -16 19 -34 21 -29 4z"/>
<path d="M6650 5865 c-10 -12 -10 -15 3 -15 8 0 20 7 27 15 10 12 10 15 -3 15
-8 0 -20 -7 -27 -15z"/>
<path d="M6819 5601 c-33 -33 -35 -50 -14 -90 24 -48 81 -56 120 -16 40 39 32
96 -16 120 -40 21 -57 19 -90 -14z"/>
<path d="M522 5597 c-45 -48 -16 -127 47 -127 44 0 62 10 76 43 34 80 -64 147
-123 84z"/>
<path d="M6435 5579 c-38 -11 -89 -64 -104 -108 -14 -42 -8 -51 35 -51 24 0
34 5 34 15 0 36 31 74 68 86 31 9 45 8 75 -5 45 -18 62 -51 53 -103 -6 -32
-27 -57 -131 -158 -116 -113 -155 -163 -155 -200 0 -14 22 -15 183 -13 l182 3
0 30 0 30 -130 5 -130 5 55 50 c134 121 188 183 197 227 17 83 -10 143 -80
177 -45 22 -100 26 -152 10z"/>
<path d="M941 5501 c-17 -21 -54 -53 -81 -71 -44 -28 -50 -36 -50 -66 0 -39 6
-38 80 7 l45 28 3 -204 2 -205 35 0 35 0 0 275 c0 264 -1 275 -19 275 -11 0
-33 -18 -50 -39z"/>
<path d="M1204 5526 c-45 -20 -92 -82 -105 -141 -6 -29 -10 -98 -8 -156 5
-122 31 -189 88 -226 40 -27 117 -31 159 -9 77 40 104 108 105 268 0 109 -1
120 -29 175 -23 47 -38 62 -74 81 -50 25 -91 27 -136 8z m124 -78 c32 -35 45
-106 40 -221 -6 -141 -33 -187 -105 -187 -39 0 -79 43 -92 100 -25 106 -6 265
35 307 31 31 92 32 122 1z"/>
<path d="M394 5205 c22 -17 36 -19 36 -6 0 10 -24 21 -43 21 -7 0 -3 -7 7 -15z"/>
<path d="M7033 5213 c-14 -5 -18 -23 -5 -23 5 0 17 7 28 15 14 11 15 14 4 14
-8 0 -21 -3 -27 -6z"/>
<path d="M253 4857 c2 -7 14 -14 26 -15 28 -4 20 13 -9 21 -14 3 -20 1 -17 -6z"/>
<path d="M7178 4862 c-10 -2 -18 -8 -18 -13 0 -13 27 -11 35 2 9 13 4 16 -17
11z"/>
<path d="M152 4489 c5 -17 48 -25 48 -10 0 6 -4 11 -9 11 -5 0 -17 3 -27 7
-12 4 -15 2 -12 -8z"/>
<path d="M7270 4490 c-8 -5 -11 -12 -8 -16 10 -9 38 3 38 16 0 12 -10 13 -30
0z"/>
<path d="M90 4110 c0 -5 12 -10 26 -10 14 0 23 4 19 10 -3 6 -15 10 -26 10
-10 0 -19 -4 -19 -10z"/>
<path d="M7315 4110 c-4 -6 5 -10 19 -10 14 0 26 5 26 10 0 6 -9 10 -19 10
-11 0 -23 -4 -26 -10z"/>
<path d="M469 3967 c-132 -89 -107 -297 40 -337 49 -13 92 -3 137 33 l27 21
-6 -52 c-8 -66 -32 -107 -75 -128 -50 -24 -92 -9 -116 40 -17 35 -21 37 -49
32 -40 -8 -40 -8 -24 -48 53 -126 229 -129 301 -5 57 97 57 303 1 389 -50 75
-166 102 -236 55z m162 -66 c26 -26 29 -36 29 -90 0 -76 -25 -109 -87 -118
-39 -5 -46 -2 -78 30 -29 29 -35 42 -35 76 0 112 101 172 171 102z"/>
<path d="M6795 3978 c-55 -30 -110 -108 -89 -127 5 -5 21 -11 36 -15 22 -5 28
-2 36 23 25 70 100 94 148 46 37 -37 31 -91 -15 -122 -19 -13 -45 -23 -57 -23
-20 0 -24 -5 -24 -30 0 -28 2 -30 41 -30 51 0 75 -13 94 -50 19 -37 19 -54 -1
-95 -19 -41 -73 -69 -114 -60 -31 7 -80 56 -80 81 0 20 -22 27 -53 15 -25 -10
-26 -12 -15 -43 42 -127 206 -158 304 -57 33 34 38 46 42 97 5 66 -13 114 -51
133 -33 17 -33 17 -3 48 57 59 35 161 -44 202 -39 21 -123 25 -155 7z"/>
<path d="M46 3789 c-37 -29 -37 -89 0 -118 35 -28 69 -26 99 4 33 32 33 78 0
110 -30 30 -64 32 -99 4z"/>
<path d="M7343 3802 c-29 -4 -63 -48 -63 -79 0 -34 42 -73 80 -73 67 0 105 84
58 127 -27 24 -45 30 -75 25z"/>
<path d="M90 3350 c0 -5 11 -10 25 -10 14 0 25 5 25 10 0 6 -11 10 -25 10 -14
0 -25 -4 -25 -10z"/>
<path d="M7320 3350 c0 -5 9 -10 20 -10 11 0 20 5 20 10 0 6 -9 10 -20 10 -11
0 -20 -4 -20 -10z"/>
<path d="M168 2983 c-20 -5 -24 -23 -5 -23 17 0 41 17 31 22 -5 2 -17 3 -26 1z"/>
<path d="M7263 2977 c5 -15 37 -22 37 -9 0 5 -9 12 -21 15 -13 3 -19 1 -16 -6z"/>
<path d="M255 2609 c-4 -6 -5 -12 -2 -15 7 -7 37 7 37 17 0 13 -27 11 -35 -2z"/>
<path d="M7160 2611 c0 -10 30 -24 37 -17 3 3 2 9 -2 15 -8 13 -35 15 -35 2z"/>
<path d="M986 2390 c-41 -13 -85 -58 -97 -101 -14 -46 3 -103 37 -126 l25 -16
-35 -29 c-87 -72 -66 -213 40 -263 77 -36 198 -11 238 50 46 70 38 153 -21
210 -30 29 -33 36 -19 41 24 9 46 57 46 100 0 44 -32 99 -69 118 -36 19 -110
27 -145 16z m89 -65 c33 -13 55 -46 55 -81 0 -9 -13 -29 -29 -45 -38 -37 -82
-39 -116 -4 -50 49 -23 123 53 144 1 1 18 -6 37 -14z m41 -249 c38 -38 44 -77
19 -127 -30 -57 -118 -68 -166 -20 -49 50 -35 147 25 171 47 19 87 11 122 -24z"/>
<path d="M6428 2373 c-8 -10 -65 -89 -127 -177 -78 -112 -111 -167 -111 -187
l0 -28 118 -3 117 -3 5 -65 c5 -64 5 -65 35 -65 30 0 30 1 35 65 5 65 5 65 38
68 28 3 32 7 32 33 0 27 -3 29 -35 29 l-35 0 0 175 0 175 -28 0 c-16 0 -36 -8
-44 -17z m2 -218 c0 -79 -3 -107 -13 -111 -8 -3 -44 -4 -81 -2 l-66 3 72 107
c40 59 76 107 81 108 4 0 7 -47 7 -105z"/>
<path d="M397 2259 c-24 -14 -11 -32 14 -19 10 6 19 15 19 20 0 13 -10 12 -33
-1z"/>
<path d="M7025 2261 c-3 -6 3 -15 14 -21 12 -6 22 -6 26 -1 3 6 -3 15 -14 21
-12 6 -22 6 -26 1z"/>
<path d="M553 1990 c-47 -19 -58 -92 -20 -128 49 -46 127 -12 127 55 0 56 -56
94 -107 73z"/>
<path d="M6815 1965 c-16 -15 -25 -36 -25 -55 0 -38 39 -80 74 -80 39 0 79 41
79 80 0 24 -7 40 -27 57 -35 30 -71 29 -101 -2z"/>
<path d="M780 1600 c-8 -5 -12 -12 -9 -15 8 -8 39 5 39 16 0 11 -11 11 -30 -1z"/>
<path d="M6650 1595 c7 -8 19 -15 27 -15 13 0 13 3 3 15 -7 8 -19 15 -27 15
-13 0 -13 -3 -3 -15z"/>
<path d="M1020 1305 c-18 -21 -3 -32 16 -13 10 9 12 18 6 22 -5 3 -15 -1 -22
-9z"/>
<path d="M6410 1308 c0 -9 7 -19 16 -22 25 -10 27 -1 4 19 -17 15 -20 16 -20
3z"/>
<path d="M2000 1155 l0 -35 130 0 130 0 -47 -72 c-58 -90 -98 -184 -118 -277
-23 -111 -22 -121 20 -121 32 0 35 3 40 38 22 135 67 248 146 365 32 49 59 99
59 113 l0 24 -180 0 -180 0 0 -35z"/>
<path d="M5122 1078 c-32 -169 -32 -172 0 -176 16 -2 39 5 56 18 16 12 46 24
68 26 116 14 166 -142 72 -221 -26 -22 -39 -26 -70 -22 -47 6 -67 22 -85 65
-11 28 -18 32 -49 32 -36 0 -36 -1 -30 -32 14 -75 72 -121 159 -126 74 -4 116
14 161 71 27 33 31 48 34 110 3 63 1 77 -20 107 -48 71 -135 100 -212 70 -30
-11 -30 -12 -15 63 l12 57 108 0 109 0 0 35 0 35 -138 0 -139 0 -21 -112z"/>
<path d="M1291 1036 c-8 -9 -11 -19 -7 -23 9 -9 29 13 24 27 -2 8 -8 7 -17 -4z"/>
<path d="M6140 1042 c0 -10 22 -32 32 -32 5 0 3 9 -4 20 -13 20 -28 27 -28 12z"/>
<path d="M1580 790 c-6 -11 -7 -20 -2 -20 10 0 32 21 32 32 0 16 -19 8 -30
-12z"/>
<path d="M5850 790 c11 -20 30 -28 30 -12 0 11 -22 32 -32 32 -5 0 -4 -9 2
-20z"/>
<path d="M3654 781 c-87 -40 -118 -118 -113 -289 4 -106 7 -121 31 -164 37
-61 98 -92 169 -86 146 14 209 198 108 313 -54 61 -158 68 -215 14 l-24 -22 0
34 c0 19 9 52 19 75 43 95 135 113 176 34 13 -25 22 -30 51 -30 34 0 36 1 29
27 -24 96 -130 140 -231 94z m137 -270 c24 -25 29 -37 29 -81 0 -63 -20 -103
-60 -120 -113 -47 -195 133 -96 212 34 28 92 23 127 -11z"/>
<path d="M1855 635 c-50 -49 -14 -128 57 -128 37 0 78 41 78 79 0 35 -42 74
-80 74 -19 0 -40 -9 -55 -25z"/>
<path d="M5482 637 c-40 -43 -25 -107 29 -126 64 -22 124 39 99 100 -23 54
-90 67 -128 26z"/>
<path d="M2236 414 c-4 -9 -4 -19 -2 -21 8 -8 26 8 26 23 0 19 -16 18 -24 -2z"/>
<path d="M5190 416 c0 -15 18 -31 26 -23 7 7 -7 37 -17 37 -5 0 -9 -6 -9 -14z"/>
<path d="M2595 279 c-6 -19 0 -38 9 -28 10 12 16 49 7 49 -5 0 -13 -9 -16 -21z"/>
<path d="M4836 292 c-3 -5 1 -18 9 -28 14 -18 14 -18 15 3 0 23 -15 39 -24 25z"/>
<path d="M2967 193 c-11 -10 -8 -43 3 -43 6 0 10 11 10 25 0 26 -2 29 -13 18z"/>
<path d="M4470 181 c0 -11 5 -23 10 -26 6 -3 10 3 10 14 0 11 -4 23 -10 26 -5
3 -10 -3 -10 -14z"/>
<path d="M3676 159 c-37 -29 -37 -89 0 -118 79 -62 170 43 99 114 -30 30 -64
32 -99 4z"/>
<path d="M3340 114 c0 -14 4 -23 10 -19 6 3 10 15 10 26 0 10 -4 19 -10 19 -5
0 -10 -12 -10 -26z"/>
<path d="M4097 134 c-7 -8 4 -44 14 -44 12 0 12 37 0 44 -4 3 -11 3 -14 0z"/>
</g>
</svg>
