<svg width="1024" height="1024" xmlns="http://www.w3.org/2000/svg" preserveAspectRatio="xMidYMid meet">

 <g>
  <title>background</title>
  <rect fill="none" id="canvas_background" height="402" width="582" y="-1" x="-1"/>
 </g>
 <g>
  <title>Layer 1</title>
  <g id="svg_1" fill="#000000" transform="translate(0,1024) scale(0.10000000149011612,-0.10000000149011612) ">
   <path id="svg_2" d="m4990,9800l0,-390l115,0l115,0l0,390l0,390l-115,0l-115,0l0,-390z"/>
   <path id="svg_3" d="m4568,10133c-21,-2 -38,-9 -38,-15c0,-19 30,-323 36,-355c5,-32 6,-33 56,-33l51,0l-8,83c-4,45 -13,129 -21,187c-7,58 -14,113 -14,123c0,9 -6,16 -12,15c-7,-1 -30,-3 -50,-5z"/>
   <path id="svg_4" d="m5576,10129c-4,-14 -36,-350 -36,-381c0,-15 9,-18 49,-18l48,0l17,148c9,81 19,171 22,200c6,52 6,52 -22,52c-16,0 -39,3 -51,6c-15,4 -24,1 -27,-7z"/>
   <path id="svg_5" d="m4041,10049c-27,-9 -32,-14 -27,-32c3,-12 20,-91 37,-176c42,-211 37,-201 93,-188c28,6 46,16 46,24c0,11 -45,224 -75,361c-6,24 -20,26 -74,11z"/>
   <path id="svg_6" d="m6095,10048c-3,-11 -74,-344 -79,-372c-2,-14 94,-37 99,-23c3,7 20,86 40,177c19,91 37,175 40,187c5,23 1,25 -63,38c-22,5 -33,3 -37,-7z"/>
   <path id="svg_7" d="m3551,9916c-19,-7 -37,-18 -39,-24c-3,-10 101,-351 114,-374c7,-11 94,22 94,35c0,25 -117,371 -126,373c-5,1 -24,-3 -43,-10z"/>
   <path id="svg_8" d="m6598,9902c-21,-55 -108,-333 -108,-347c0,-17 77,-42 89,-29c15,15 124,364 117,372c-4,4 -25,12 -47,18c-39,12 -41,11 -51,-14z"/>
   <path id="svg_9" d="m3053,9723c-18,-9 -33,-20 -33,-25c0,-23 157,-358 167,-358c17,0 83,32 83,40c0,23 -159,355 -171,357c-8,1 -29,-5 -46,-14z"/>
   <path id="svg_10" d="m7021,9573c-41,-92 -76,-174 -78,-183c-5,-20 72,-59 87,-44c11,12 163,355 158,359c-11,10 -69,35 -80,35c-7,0 -46,-75 -87,-167z"/>
   <path id="svg_11" d="m7511,9542c-10,-15 -39,-63 -64,-107c-25,-44 -104,-181 -175,-305c-71,-124 -128,-228 -126,-232c9,-15 186,-110 197,-105c7,3 84,130 172,283c88,153 172,300 188,326l28,48l-43,25c-24,14 -69,41 -100,59l-58,34l-19,-26z"/>
   <path id="svg_12" d="m2635,9544c-11,-9 -40,-26 -65,-39c-25,-12 -55,-31 -67,-41l-22,-19l104,-180c58,-99 142,-245 187,-323c45,-79 87,-146 94,-149c12,-4 189,90 198,106c2,3 -20,47 -49,96c-29,50 -114,197 -190,328c-92,160 -142,237 -153,237c-10,0 -26,-8 -37,-16z"/>
   <path id="svg_13" d="m2152,9200l-42,-30l43,-59c140,-196 190,-261 200,-261c7,0 27,13 45,28l33,27l-116,160c-64,88 -118,161 -119,162c-2,2 -21,-10 -44,-27z"/>
   <path id="svg_14" d="m7897,9070c-65,-88 -117,-164 -117,-168c0,-10 70,-54 80,-50c5,2 59,72 121,157c120,165 120,166 63,201l-31,20l-116,-160z"/>
   <path id="svg_15" d="m1742,8869c-18,-16 -32,-34 -30,-39c5,-14 259,-290 267,-290c4,0 21,15 39,33l32,33l-131,147c-72,81 -134,147 -137,147c-4,0 -22,-14 -40,-31z"/>
   <path id="svg_16" d="m8291,8755c-72,-79 -131,-149 -131,-154c0,-6 16,-22 36,-37l35,-27l23,24c13,13 74,80 135,148l112,124l-32,33c-18,19 -36,34 -40,34c-3,0 -65,-65 -138,-145z"/>
   <path id="svg_17" d="m1366,8494c-17,-21 -25,-39 -20,-44c5,-5 72,-65 149,-134l140,-125l33,32c18,17 31,37 30,43c-4,15 -280,264 -293,263c-5,0 -23,-16 -39,-35z"/>
   <path id="svg_18" d="m8670,8419c-69,-61 -135,-120 -147,-132l-22,-22l33,-40l33,-39l147,132c80,74 146,139 146,146c0,11 -50,66 -61,66c-2,0 -60,-50 -129,-111z"/>
   <path id="svg_19" d="m1045,8094c-20,-26 -25,-41 -19,-51c5,-8 77,-63 159,-124l150,-109l28,32c15,18 26,39 25,47c-2,8 -52,50 -113,94c-60,44 -131,95 -156,113l-47,34l-27,-36z"/>
   <path id="svg_20" d="m8975,8015c-88,-64 -161,-120 -163,-124c-1,-4 12,-23 30,-43l33,-36l155,114c85,62 156,119 157,126c2,7 -10,28 -25,46l-27,33l-160,-116z"/>
   <path id="svg_21" d="m776,7738c-37,-61 -96,-167 -96,-175c0,-4 51,-37 113,-72c62,-36 208,-120 326,-188c118,-68 219,-122 225,-120c17,7 118,189 109,198c-14,13 -648,379 -657,379c-3,0 -12,-10 -20,-22z"/>
   <path id="svg_22" d="m9374,7741c-18,-11 -159,-92 -315,-182c-156,-89 -290,-167 -297,-174c-11,-9 -3,-30 41,-106c30,-52 61,-94 68,-94c18,0 658,368 659,378c0,12 -110,197 -118,197c-4,0 -21,-9 -38,-19z"/>
   <path id="svg_23" d="m515,7180c-11,-24 -15,-44 -9,-49c5,-5 43,-23 84,-41c98,-43 175,-77 228,-102c24,-11 44,-19 46,-17c10,12 36,70 36,82c0,7 -24,24 -52,37c-29,12 -107,47 -172,76c-65,30 -124,54 -131,54c-7,0 -20,-18 -30,-40z"/>
   <path id="svg_24" d="m9525,7164c-66,-30 -144,-66 -173,-79l-53,-24l22,-43c12,-24 22,-44 24,-45c2,-3 355,153 361,160c11,10 -29,87 -45,86c-9,0 -70,-25 -136,-55z"/>
   <path id="svg_25" d="m334,6703c-8,-19 -14,-42 -12,-51c2,-12 55,-33 178,-74c96,-31 180,-57 186,-57c15,-1 48,79 37,89c-4,4 -90,35 -191,68l-183,61l-15,-36z"/>
   <path id="svg_26" d="m9670,6677c-102,-33 -187,-61 -188,-63c-5,-4 19,-77 28,-88c8,-8 356,99 374,115c9,8 -11,86 -23,93c-3,2 -89,-24 -191,-57z"/>
   <path id="svg_27" d="m192,6188c-12,-47 -3,-68 29,-68c9,0 90,-16 178,-35c88,-19 164,-35 169,-35c5,0 14,19 21,43c14,54 7,59 -111,82c-51,9 -129,26 -173,36c-44,10 -85,19 -91,19c-6,0 -16,-19 -22,-42z"/>
   <path id="svg_28" d="m9959,6226c-2,-2 -80,-20 -173,-40c-93,-19 -170,-37 -173,-39c-5,-5 13,-86 21,-94c4,-4 299,55 369,74c18,5 21,22 11,72c-5,23 -12,31 -29,31c-12,0 -24,-2 -26,-4z"/>
   <path id="svg_29" d="m110,5661l0,-49l68,-7c37,-4 92,-10 122,-15c30,-5 89,-12 131,-15l76,-7l6,48c3,27 4,51 1,53c-4,4 -343,40 -381,41c-21,0 -23,-5 -23,-49z"/>
   <path id="svg_30" d="m9860,5690c-91,-10 -166,-18 -167,-19c-5,-2 -3,-56 4,-80c6,-22 9,-23 72,-17c36,4 98,11 136,16c39,5 98,12 133,15c59,7 62,8 62,33c0,15 -3,37 -6,50c-7,26 -4,26 -234,2z"/>
   <path id="svg_31" d="m67,5253c-4,-3 -7,-57 -7,-120l0,-113l385,0l386,0l-3,118l-3,117l-376,3c-206,1 -378,-1 -382,-5z"/>
   <path id="svg_32" d="m9387,5253c-4,-3 -7,-57 -7,-120l0,-113l385,0l386,0l-3,118l-3,117l-376,3c-206,1 -378,-1 -382,-5z"/>
   <path id="svg_33"/>
   <path id="svg_34" d="m9700,4685c-6,-14 -10,-39 -10,-54l0,-27l163,-18c89,-9 178,-20 198,-22c32,-5 37,-2 43,18c3,13 6,37 6,54l0,31l-187,18c-104,9 -191,19 -196,22c-4,2 -12,-8 -17,-22z"/>
   <path id="svg_35" d="m258,4682l-148,-15l0,-48c0,-26 4,-50 9,-53c10,-7 383,34 393,43c4,3 4,25 1,49l-6,42l-51,-1c-28,-1 -117,-9 -198,-17z"/>
   <path id="svg_36" d="m549,4226c-2,-3 -83,-21 -179,-41c-96,-20 -178,-39 -182,-43c-4,-4 -2,-26 4,-50c8,-31 15,-42 30,-42c10,0 91,16 178,35c87,19 166,35 174,35c24,0 27,15 14,64c-11,40 -25,56 -39,42z"/>
   <path id="svg_37" d="m9625,4208c-3,-13 -7,-36 -8,-53l-2,-29l193,-41l194,-42l9,24c5,14 9,37 9,53c0,27 -3,29 -57,40c-82,15 -295,60 -315,66c-12,4 -19,-2 -23,-18z"/>
   <path id="svg_38" d="m505,3699c-98,-33 -181,-62 -183,-64c-6,-6 7,-67 17,-84c7,-11 44,-2 197,48c104,35 190,64 191,65c5,5 -29,96 -35,95c-4,0 -88,-27 -187,-60z"/>
   <path id="svg_39" d="m9504,3742c-3,-9 -10,-27 -15,-40c-5,-13 -9,-27 -9,-32c0,-8 355,-130 378,-130c10,0 38,87 31,95c-5,5 -158,55 -287,95c-84,26 -94,27 -98,12z"/>
   <path id="svg_40" d="m680,3225c-91,-41 -169,-76 -175,-78c-6,-2 0,-24 13,-51c13,-29 28,-46 35,-43c143,62 342,156 344,164c6,18 -25,83 -39,83c-7,0 -87,-34 -178,-75z"/>
   <path id="svg_41" d="m9320,3259c-12,-23 -19,-43 -17,-45c5,-5 358,-164 363,-164c2,0 13,18 24,41c17,32 19,44 9,55c-6,8 -15,14 -20,14c-5,0 -79,32 -164,70c-85,39 -159,70 -165,70c-5,0 -19,-18 -30,-41z"/>
   <path id="svg_42" d="m1100,2964c-129,-75 -274,-158 -322,-185c-48,-28 -90,-54 -93,-60c-7,-10 89,-184 106,-195c5,-3 49,17 97,44c451,258 549,315 559,325c10,10 0,33 -43,110c-30,53 -58,97 -62,97c-4,-1 -113,-62 -242,-136z"/>
   <path id="svg_43" d="m8819,3028c-23,-40 -49,-85 -57,-100c-9,-15 -14,-29 -11,-31c32,-26 656,-376 664,-373c6,2 35,46 65,97l53,93l-23,15c-21,14 -203,121 -526,307c-62,35 -114,64 -117,64c-4,0 -25,-33 -48,-72z"/>
   <path id="svg_44" d="m1265,2414c-33,-24 -102,-75 -152,-112c-51,-37 -93,-70 -93,-75c0,-11 44,-77 52,-77c6,0 302,211 320,229c10,8 -41,81 -56,80c-6,0 -38,-20 -71,-45z"/>
   <path id="svg_45" d="m8836,2425c-15,-19 -25,-39 -22,-44c3,-4 76,-59 162,-121l157,-114l29,34c15,19 28,39 28,45c0,10 -285,220 -313,231c-8,3 -25,-10 -41,-31z"/>
   <path id="svg_46" d="m1483,1948l-142,-130l26,-34c14,-19 31,-34 39,-34c17,0 294,250 294,265c0,14 -52,65 -66,64c-5,0 -73,-59 -151,-131z"/>
   <path id="svg_47" d="m8531,2046l-33,-34l142,-128c78,-71 150,-130 160,-132c19,-3 64,50 58,68c-4,12 -278,260 -288,260c-3,0 -21,-15 -39,-34z"/>
   <path id="svg_48" d="m1918,1678c-30,-35 -90,-101 -132,-148c-42,-47 -76,-88 -76,-91c0,-4 17,-19 37,-35l36,-28l56,60c31,33 92,99 135,147l79,88l-33,34c-19,19 -37,35 -40,35c-3,0 -31,-28 -62,-62z"/>
   <path id="svg_49" d="m8190,1706l-33,-35l104,-116c57,-64 115,-130 129,-146c14,-16 30,-29 35,-29c6,1 25,14 44,30l34,29l-78,88c-121,136 -192,213 -197,213c-2,0 -19,-16 -38,-34z"/>
   <path id="svg_50" d="m2842,1458c-70,-116 -363,-630 -360,-632c17,-14 200,-117 202,-114c11,12 376,648 378,658c3,11 -171,120 -192,120c-4,0 -17,-15 -28,-32z"/>
   <path id="svg_51" d="m7235,1436c-49,-29 -89,-59 -87,-66c2,-10 368,-649 377,-658c4,-4 177,96 192,111c9,9 -11,51 -86,177c-53,91 -139,238 -190,328c-51,89 -98,162 -104,162c-7,-1 -52,-25 -102,-54z"/>
   <path id="svg_52" d="m2240,1285c-58,-80 -109,-153 -115,-161c-8,-12 -2,-22 25,-45c19,-16 37,-29 40,-29c3,0 23,23 44,52c67,89 196,268 196,272c0,4 -75,56 -81,56c-3,0 -52,-65 -109,-145z"/>
   <path id="svg_53" d="m7811,1401c-25,-20 -31,-32 -25,-42c22,-36 216,-299 225,-305c10,-6 79,41 79,55c0,12 -224,314 -235,317c-5,2 -25,-9 -44,-25z"/>
   <path id="svg_54" d="m3167,913c-52,-103 -148,-336 -141,-343c5,-4 26,-15 47,-24l37,-15l14,32c8,18 44,99 80,181c36,82 66,151 66,152c0,4 -77,44 -84,44c-3,0 -12,-12 -19,-27z"/>
   <path id="svg_55" d="m6977,921c-44,-19 -44,-24 8,-138c19,-41 35,-76 35,-78c0,-2 18,-42 39,-89l40,-85l38,15c21,9 42,19 46,23c9,9 -146,364 -159,367c-5,1 -26,-5 -47,-15z"/>
   <path id="svg_56" d="m4990,475l0,-385l115,0l115,0l0,385l0,385l-115,0l-115,0l0,-385z"/>
   <path id="svg_57" d="m3627,753c-9,-15 -117,-353 -117,-366c0,-15 80,-41 90,-30c10,10 120,348 120,366c0,8 -17,19 -39,25c-45,14 -48,14 -54,5z"/>
   <path id="svg_58" d="m6520,745c-19,-7 -35,-17 -34,-21c2,-12 116,-368 120,-372c4,-5 77,19 87,28c5,4 -12,72 -38,151c-81,253 -72,238 -135,214z"/>
   <path id="svg_59" d="m4071,523c-13,-59 -31,-146 -42,-192c-11,-48 -16,-88 -11,-93c5,-5 28,-10 52,-11l43,-2l40,192c22,106 38,195 36,197c-2,2 -25,7 -50,11l-46,7l-22,-109z"/>
   <path id="svg_60" d="m6045,621c-18,-4 -29,-12 -28,-21c8,-62 76,-367 83,-374c5,-5 26,-5 52,0c51,11 51,-6 2,216c-19,86 -34,164 -34,172c0,17 -22,19 -75,7z"/>
   <path id="svg_61" d="m4566,518c-8,-54 -37,-360 -34,-363c2,-2 24,-6 49,-10l47,-7l6,54c4,29 11,89 17,133c5,44 11,112 12,150l2,70l-47,3c-46,3 -47,3 -52,-30z"/>
   <path id="svg_62" d="m5540,528c0,-53 34,-374 40,-381c4,-5 29,-5 55,-2l47,8l-6,51c-3,28 -13,117 -22,199l-17,147l-48,0c-44,0 -49,-2 -49,-22z"/>
  </g>
 </g>
</svg>