<?xml version="1.0" standalone="no"?>
<!DOCTYPE svg PUBLIC "-//W3C//DTD SVG 20010904//EN"
 "http://www.w3.org/TR/2001/REC-SVG-20010904/DTD/svg10.dtd">
<svg version="1.0" xmlns="http://www.w3.org/2000/svg"
 width="1280.000000pt" height="1280.000000pt" viewBox="0 0 1280.000000 1280.000000"
 preserveAspectRatio="xMidYMid meet">
<metadata>
Created by potrace 1.15, written by Peter Selinger 2001-2017
</metadata>
<g transform="translate(0.000000,1280.000000) scale(0.100000,-0.100000)"
fill="#000000" stroke="none">
<path d="M6234 12593 c3 -115 9 -517 12 -895 l7 -688 84 0 85 0 -6 88 c-3 48
-8 377 -11 732 -3 355 -8 718 -11 808 l-7 162 -80 0 -80 0 7 -207z"/>
<path d="M9057 11302 c-218 -394 -413 -745 -432 -779 l-34 -62 69 -40 69 -40
19 32 c18 29 844 1514 850 1527 2 5 -129 80 -139 80 -2 0 -183 -323 -402 -718z"/>
<path d="M3115 11890 c-34 -21 -59 -44 -57 -51 5 -22 915 -1509 923 -1509 12
0 129 72 129 79 0 11 -920 1516 -928 1518 -4 1 -34 -16 -67 -37z"/>
<path d="M6826 11868 c-9 -38 -95 -852 -92 -856 7 -7 148 -23 153 -18 3 3 25
187 49 408 24 222 45 417 48 435 5 36 10 33 -106 48 -44 6 -48 4 -52 -17z"/>
<path d="M5718 11843 c-27 -3 -38 -9 -38 -21 0 -27 111 -846 115 -851 5 -4
145 16 151 22 3 3 -20 193 -51 424 -30 230 -55 422 -55 426 0 7 -53 7 -122 0z"/>
<path d="M7396 11781 c-14 -43 -184 -826 -181 -829 4 -5 149 -42 151 -39 7 7
185 830 182 839 -2 6 -36 19 -76 28 -65 16 -72 16 -76 1z"/>
<path d="M5168 11753 c-32 -8 -58 -19 -58 -23 0 -15 190 -834 195 -838 5 -5
130 19 144 28 6 3 -29 175 -87 428 -109 475 -89 433 -194 405z"/>
<path d="M7955 11659 c-15 -42 -254 -798 -257 -814 -2 -15 10 -23 71 -42 41
-13 75 -22 76 -21 6 8 267 839 264 842 -2 1 -31 10 -64 20 -33 10 -66 21 -72
23 -7 3 -15 -1 -18 -8z"/>
<path d="M4628 11593 c-38 -14 -68 -29 -68 -33 0 -8 290 -803 294 -808 4 -3
137 46 144 53 6 6 -289 815 -297 814 -3 0 -36 -12 -73 -26z"/>
<path d="M8322 11073 l-171 -398 71 -33 c39 -18 74 -29 78 -25 5 6 316 726
337 780 3 8 -17 23 -62 43 -37 16 -70 30 -74 30 -4 0 -85 -179 -179 -397z"/>
<path d="M4100 11378 c-36 -16 -66 -31 -68 -33 -2 -2 366 -776 372 -782 1 -2
35 13 74 32 l72 34 -54 113 c-166 352 -320 668 -325 667 -3 0 -35 -14 -71 -31z"/>
<path d="M9253 10568 l-251 -352 59 -43 c32 -24 63 -43 68 -43 4 0 121 157
259 350 l251 349 -64 46 c-35 25 -65 45 -67 45 -2 -1 -116 -159 -255 -352z"/>
<path d="M3110 10789 c-30 -22 -54 -46 -54 -54 1 -13 511 -685 520 -685 7 0
124 90 124 95 0 7 -521 680 -528 683 -5 1 -32 -16 -62 -39z"/>
<path d="M9672 10248 l-282 -323 57 -53 c31 -29 60 -51 63 -50 4 2 134 148
289 326 l281 322 -41 37 c-49 44 -72 62 -80 63 -3 0 -132 -145 -287 -322z"/>
<path d="M2661 10416 l-53 -53 304 -316 303 -316 58 57 57 56 -73 76 c-40 41
-176 182 -301 313 -126 130 -232 237 -235 237 -4 0 -31 -24 -60 -54z"/>
<path d="M10060 9890 c-173 -159 -316 -295 -318 -302 -1 -7 21 -36 50 -65 l53
-51 315 290 c173 159 315 293 315 297 0 4 -22 33 -50 64 l-50 56 -315 -289z"/>
<path d="M2269 10009 c-30 -35 -48 -64 -43 -69 27 -26 650 -550 654 -550 7 0
103 120 99 124 -5 4 -360 304 -531 449 l-126 107 -53 -61z"/>
<path d="M10540 9593 c-107 -80 -262 -194 -343 -255 l-148 -109 31 -42 c17
-23 38 -52 48 -64 l17 -23 345 255 c190 140 346 259 348 265 5 13 -78 120 -92
119 -6 0 -99 -66 -206 -146z"/>
<path d="M11100 9284 c-415 -244 -758 -448 -763 -453 -7 -7 38 -99 69 -139 3
-5 1504 876 1523 894 11 10 7 23 -25 78 -22 36 -41 66 -44 65 -3 0 -345 -200
-760 -445z"/>
<path d="M1912 9553 c-24 -36 -40 -69 -35 -73 11 -11 713 -470 717 -470 6 0
88 131 84 134 -2 2 -641 421 -703 462 -18 12 -23 8 -63 -53z"/>
<path d="M816 9534 c-21 -36 -34 -70 -29 -74 11 -11 1534 -870 1542 -870 3 0
23 31 43 68 l37 68 -770 435 c-424 239 -773 435 -777 437 -4 1 -25 -28 -46
-64z"/>
<path d="M10990 8600 c-195 -93 -371 -177 -392 -187 l-36 -18 36 -71 37 -71
389 183 c214 101 392 186 394 189 7 6 -59 145 -67 144 -3 0 -166 -77 -361
-169z"/>
<path d="M1374 8595 c-7 -19 -21 -51 -29 -72 -8 -20 -14 -37 -13 -38 2 -1 147
-62 323 -135 176 -73 354 -148 396 -166 l77 -32 31 71 c17 39 28 74 24 78 -10
9 -772 329 -784 329 -6 0 -17 -16 -25 -35z"/>
<path d="M11153 8097 c-215 -73 -395 -135 -398 -139 -6 -5 30 -134 41 -147 7
-8 824 272 824 283 0 7 -9 40 -21 74 -15 44 -26 62 -37 61 -10 0 -193 -60
-409 -132z"/>
<path d="M1161 8025 c-13 -42 -21 -78 -20 -80 10 -8 813 -245 822 -242 10 3
60 147 51 147 -4 0 -804 241 -820 247 -6 2 -20 -29 -33 -72z"/>
<path d="M11300 7589 c-217 -49 -400 -91 -406 -93 -8 -3 -7 -24 5 -75 9 -38
19 -72 22 -75 6 -7 830 173 841 183 4 3 0 39 -9 79 -14 62 -19 72 -37 71 -12
0 -199 -41 -416 -90z"/>
<path d="M1035 7536 c-9 -27 -33 -146 -29 -146 1 0 65 -13 141 -30 410 -88
706 -150 708 -148 3 5 34 153 32 154 -2 2 -143 32 -695 149 -107 23 -155 29
-157 21z"/>
<path d="M11391 7069 c-222 -27 -405 -50 -407 -52 -6 -5 8 -134 15 -146 5 -7
141 5 431 40 233 27 425 51 426 52 1 1 -3 37 -9 80 -8 69 -11 77 -31 76 -11
-1 -203 -23 -425 -50z"/>
<path d="M945 6966 c-2 -6 -6 -41 -9 -79 -5 -50 -3 -68 6 -71 7 -2 112 -13
233 -25 121 -12 309 -31 418 -43 109 -11 199 -19 201 -17 2 2 7 38 11 80 l6
76 -113 12 c-549 59 -750 77 -753 67z"/>
<path d="M11725 6549 c-297 -3 -577 -7 -622 -8 l-83 -1 0 -80 0 -81 518 6
c284 3 685 8 890 11 l372 6 0 79 0 79 -267 -2 c-148 -1 -511 -5 -808 -9z"/>
<path d="M872 6403 l-872 -3 0 -80 0 -80 890 0 890 0 0 85 c0 75 -2 85 -17 83
-10 -2 -411 -4 -891 -5z"/>
<path d="M11005 6050 c-1 -3 -4 -39 -6 -80 l-4 -75 400 -37 c220 -20 414 -37
432 -37 l31 -1 7 75 c4 42 6 77 4 79 -7 7 -860 82 -864 76z"/>
<path d="M1370 5885 l-425 -50 4 -40 c6 -81 16 -120 31 -118 8 1 201 23 428
50 l413 48 -7 65 c-4 36 -9 72 -13 80 -5 13 -60 9 -431 -35z"/>
<path d="M10928 5495 c-15 -74 -15 -75 6 -80 33 -8 820 -165 826 -165 7 0 35
149 29 154 -5 5 -810 166 -830 166 -12 0 -20 -19 -31 -75z"/>
<path d="M1461 5353 c-228 -51 -416 -95 -419 -98 -3 -3 2 -39 12 -81 15 -61
21 -74 34 -70 10 3 190 44 402 91 212 47 393 88 403 91 16 5 17 12 12 47 -4
23 -13 57 -19 77 l-11 36 -414 -93z"/>
<path d="M10811 5049 c-11 -35 -21 -70 -21 -79 0 -11 36 -27 133 -57 542 -169
690 -214 695 -209 3 4 15 38 28 76 l22 70 -142 44 c-77 25 -260 82 -406 127
-146 45 -270 84 -276 86 -7 2 -21 -22 -33 -58z"/>
<path d="M1590 4853 c-223 -75 -406 -137 -407 -138 -2 -1 9 -36 23 -77 l25
-76 407 135 c224 75 409 137 411 139 6 6 -41 154 -48 153 -3 0 -188 -62 -411
-136z"/>
<path d="M10642 4576 l-30 -75 71 -30 c40 -16 191 -79 337 -139 261 -108 392
-162 395 -162 9 0 55 143 49 149 -7 6 -697 296 -778 327 -9 3 -23 -19 -44 -70z"/>
<path d="M1865 4384 c-170 -80 -347 -162 -393 -184 l-82 -39 32 -68 c18 -37
34 -70 35 -72 3 -4 765 348 777 360 8 7 -34 117 -54 140 -3 4 -144 -58 -315
-137z"/>
<path d="M10428 4141 l-38 -70 88 -49 c348 -198 1465 -822 1467 -820 24 31 74
133 68 139 -10 9 -1512 856 -1533 863 -11 4 -26 -15 -52 -63z"/>
<path d="M1625 3659 c-412 -247 -754 -450 -759 -452 -10 -3 64 -137 77 -137 7
0 1505 886 1519 899 7 7 -69 142 -80 140 -4 -1 -344 -203 -757 -450z"/>
<path d="M10161 3731 c-23 -33 -41 -62 -41 -65 0 -2 120 -87 268 -187 147
-100 308 -211 358 -246 l92 -63 42 66 c37 55 41 67 29 78 -21 20 -674 465
-692 472 -11 4 -27 -13 -56 -55z"/>
<path d="M2320 3453 c-179 -135 -333 -251 -344 -258 -18 -13 -16 -17 25 -74
24 -33 48 -61 53 -61 7 0 656 480 690 511 8 7 -79 130 -92 128 -4 0 -153 -111
-332 -246z"/>
<path d="M9872 3355 l-50 -57 325 -289 326 -289 53 57 c29 32 53 60 53 63 -1
8 -633 563 -645 567 -7 2 -34 -21 -62 -52z"/>
<path d="M2640 3030 c-168 -159 -306 -295 -308 -302 -1 -7 21 -36 50 -65 l53
-51 290 274 c160 151 301 286 315 299 l24 25 -54 55 c-30 30 -57 55 -60 55 -3
0 -142 -131 -310 -290z"/>
<path d="M9525 2998 l-55 -53 241 -260 c133 -143 266 -286 296 -318 l55 -58
58 55 57 55 -289 313 c-159 172 -294 315 -299 316 -5 2 -34 -20 -64 -50z"/>
<path d="M3007 2657 l-287 -322 56 -52 c30 -29 58 -53 62 -53 7 0 565 625 570
639 1 5 -24 31 -56 59 l-58 51 -287 -322z"/>
<path d="M9168 2707 c-32 -23 -58 -46 -58 -50 0 -8 325 -452 468 -640 l43 -57
42 30 c23 17 52 38 65 48 l22 17 -255 345 c-140 190 -259 346 -263 347 -4 1
-33 -17 -64 -40z"/>
<path d="M3416 2335 c-135 -189 -247 -349 -248 -355 -2 -6 25 -31 59 -56 l62
-45 35 48 c244 341 464 657 461 663 -2 3 -31 25 -64 48 l-59 42 -246 -345z"/>
<path d="M8753 2431 c-39 -22 -61 -41 -58 -49 7 -19 886 -1494 899 -1509 9
-10 26 -3 79 28 65 39 67 42 54 62 -7 12 -213 356 -457 765 -243 408 -445 742
-449 741 -3 -1 -34 -17 -68 -38z"/>
<path d="M4046 2367 c-58 -100 -826 -1510 -826 -1516 0 -3 31 -22 68 -42 l69
-36 424 775 c233 426 425 778 426 781 2 3 -29 23 -67 43 l-69 38 -25 -43z"/>
<path d="M8335 2208 c-39 -18 -71 -33 -73 -34 -2 -1 354 -778 363 -792 2 -3
137 56 143 63 4 3 -300 669 -347 762 l-16 33 -70 -32z"/>
<path d="M4335 1784 c-92 -217 -166 -396 -164 -398 17 -11 141 -57 145 -54 6
7 334 780 334 788 0 7 -124 60 -139 60 -4 0 -83 -178 -176 -396z"/>
<path d="M7880 2029 c-30 -10 -60 -21 -67 -24 -8 -3 13 -77 68 -237 45 -128
108 -312 141 -408 33 -96 62 -177 64 -179 2 -2 37 9 77 24 l75 27 -58 166
c-32 92 -96 276 -142 409 -46 134 -87 243 -93 242 -5 0 -35 -9 -65 -20z"/>
<path d="M4927 1923 c-205 -674 -224 -738 -213 -744 23 -12 136 -42 141 -38 2
3 59 184 125 402 67 219 123 404 126 412 4 10 -14 19 -64 34 -38 12 -74 21
-79 21 -5 0 -22 -39 -36 -87z"/>
<path d="M7402 1893 c-39 -9 -62 -19 -59 -27 2 -6 46 -191 96 -411 51 -220 94
-405 96 -412 3 -8 23 -6 75 7 40 10 74 21 77 24 4 4 -160 737 -183 819 -6 20
-17 20 -102 0z"/>
<path d="M5410 1881 c0 -11 -145 -785 -155 -828 -5 -19 1 -22 73 -35 75 -14
77 -14 84 6 7 19 158 814 158 829 0 3 -26 11 -57 17 -32 6 -68 14 -80 17 -14
3 -23 0 -23 -6z"/>
<path d="M6918 1811 c-26 -4 -49 -9 -52 -12 -6 -6 98 -846 105 -852 2 -3 39 0
82 6 l77 9 -5 32 c-3 17 -25 195 -50 396 -25 201 -47 380 -50 398 -6 35 -11
36 -107 23z"/>
<path d="M5900 1793 c0 -10 -18 -204 -40 -432 -22 -228 -39 -416 -37 -417 1
-1 36 -4 79 -8 l76 -7 6 38 c11 72 79 824 75 827 -2 2 -39 7 -81 11 -72 6 -78
5 -78 -12z"/>
<path d="M6380 1552 c0 -126 3 -526 7 -890 l6 -662 79 0 78 0 0 258 c0 142 -3
543 -7 890 l-6 632 -79 0 -78 0 0 -228z"/>
</g>
</svg>
