<svg width="239" height="248" viewBox="0 0 239 248" fill="none" xmlns="http://www.w3.org/2000/svg">
<path d="M164.516 11.9999L162.2 50.172C161.97 53.9553 160.405 57.5341 157.783 60.2711L137.759 81.1744L137.962 49.2214C137.985 45.4799 139.32 41.8651 141.732 39.0054L164.516 11.9999Z" fill="black"/>
<path d="M164.516 11.9999L168.509 12.2422L169.24 0.198234L161.459 9.42057L164.516 11.9999ZM162.2 50.172L166.193 50.4143L166.193 50.4143L162.2 50.172ZM157.783 60.2711L154.895 57.5041L154.895 57.5041L157.783 60.2711ZM141.732 39.0054L144.79 41.5848L144.79 41.5848L141.732 39.0054ZM137.962 49.2214L141.962 49.2467L141.962 49.2467L137.962 49.2214ZM149.921 49.7315L146.191 48.2884L146.191 48.2884L149.921 49.7315ZM68.5308 240.82C67.6987 242.867 68.6832 245.2 70.7296 246.032C72.7761 246.864 75.1096 245.88 75.9416 243.833L68.5308 240.82ZM160.524 11.7577L158.207 49.9297L166.193 50.4143L168.509 12.2422L160.524 11.7577ZM154.895 57.5041L134.87 78.4073L140.647 83.9414L160.672 63.0382L154.895 57.5041ZM144.79 41.5848L167.574 14.5793L161.459 9.42057L138.675 36.426L144.79 41.5848ZM133.962 49.196L133.759 81.149L141.759 81.1998L141.962 49.2467L133.962 49.196ZM141.49 82.6174L153.652 51.1745L146.191 48.2884L134.028 79.7313L141.49 82.6174ZM153.652 51.1745L168.247 13.443L160.786 10.5569L146.191 48.2884L153.652 51.1745ZM75.9416 243.833L141.464 82.681L134.053 79.6678L68.5308 240.82L75.9416 243.833ZM138.675 36.426C135.659 40.0007 133.991 44.5192 133.962 49.196L141.962 49.2467C141.979 46.4407 142.98 43.7295 144.79 41.5848L138.675 36.426ZM158.207 49.9297C158.035 52.7672 156.861 55.4513 154.895 57.5041L160.672 63.0382C163.949 59.6169 165.906 55.1433 166.193 50.4143L158.207 49.9297Z" fill="black"/>
</svg>
