<?xml version="1.0"?><svg width="204.6228" height="310.76154" xmlns="http://www.w3.org/2000/svg">
 <title>fork</title>
 <metadata id="metadata57">image/svg+xmlCutleryOct 22, 2009Mois Moshevcutleryknifeforkspoontoolsfood</metadata>

 <g>
  <title>Layer 1</title>
  <g id="layer1">
   <path fill="#000000" fill-rule="nonzero" id="path3642" d="m96.511841,132.996948c0,93.564697 -15.063965,120.348907 -6.530518,158.55838c3.565308,15.964294 22.185913,13.884155 25.286682,0c7.875061,-35.261322 -6.222656,-67.714203 -6.222656,-159.393753c0,-12.551117 10.050476,-12.875336 15.489563,-29.068634c4.856445,-14.458725 -1.99939,-92.325993 -4.208496,-92.325993c-2.520691,0 -1.286804,67.431812 -6.065308,67.431812c-4.820923,0 -2.382813,-66.517323 -5.431763,-67.431812c-3.049011,-0.914525 -0.812744,67.431812 -6.453613,67.431812c-5.697815,0 -1.994568,-67.431812 -5.043518,-67.431812c-3.04895,0 -2.191101,67.431812 -6.841858,67.431812c-5.119995,0 -2.36853,-67.431812 -4.655212,-67.431812c-3.886658,0 -8.438904,73.232372 -6.021545,88.700619c2.417358,15.468239 16.698242,18.399422 16.698242,33.529381z"/>
   <path opacity="0.3" fill="#ffffff" fill-opacity="0.776905" fill-rule="nonzero" id="path3811" d="m152.888824,97.500099a0.4593,0.907983 0 1 1 -0.918594,-0.224724a0.4593,0.907983 0 1 1 0.918594,0.224724z"/>
  </g>
 </g>
</svg>