<svg xmlns="http://www.w3.org/2000/svg" viewBox="0 0 612 792">
  <path fill="red" d="M229.32 545c0 .564.019 1.124.027 1.686h26.348c-.021-.702-.037-1.407-.045-2.111-.01-.58-.018-1.16-.019-1.739-.02-8.752 1.993-17.254 2.233-20.567 6.917-50.522 39.9-72.145 40.603-72.6 2.275 1.966 34.573 28.195 40.717 73.271.232 3.308 2.09 11.883 2.199 20.641.016.581.023 1.163.021 1.746-.002.453-.008.906-.016 1.359h26.287c.01-.562.027-1.121.027-1.686 0-44.438-18.871-75.975-36.902-95.973h.514c-15.414-32.495-18.191-68.848-16.604-104.93 1.518-34.486 2.652-78.986 3.951-113.48.709-18.846-3.809-36.292-16.58-51.511-.774-.922-3.188-3.236-3.849-3.659 0 0-3.071 2.771-3.843 3.69-12.771 15.22-17.288 32.665-16.579 51.51 1.298 34.493 2.433 78.993 3.951 113.48 1.579 35.907-.087 72.666-15.955 104.69-17.903 19.767-36.486 51.129-36.486 96.181z"/>
  <path fill="red" d="M447.33 224.63c-.759.11-1.285.074-1.705.269-1.205.558-2.409 1.141-3.54 1.833-15.479 9.479-28.864 21.331-40.152 35.547-22.653 28.53-33.69 61.319-36.552 97.377-1.523 19.211-4.318 38.32-6.472 57.482-1.089 9.687-2.024 19.39-3.038 29.166 9.51-1.566 16.893 1.918 23.221 7.676 8.662 7.883 10.098 20.648 2.687 29.734-3.39 4.156-8.524 7.114-13.327 9.906-.18.104-.356.203-.53.297a144.912 144.912 0 0 1 6.324 24.246c.563-.206 1.167-.426 1.513-.547 20.106-7.053 32.49-20.742 35.523-42.1 2.582-18.186-7.431-37.465-24.464-47.231-2.907-1.667-3.829-3.229-3.417-6.576 2.615-21.288 5.39-42.569 7.321-63.925 1.789-19.779 7.316-38.067 15.954-56.049 4.029-8.389 15.475-25.107 15.475-25.107v280.14h-101.05v22.549h16.932c-5.077 24.299-17.379 40.557-26.932 49.984v-76.666c1.428-5.992 5.944-14.009 19.416-18.04a48.904 48.904 0 0 0 2.035-.674c-.439-3.59-.921-6.534-1.022-8.118a118.981 118.981 0 0 0-2.787-14.796c-2.343.743-4.286 1.382-5.673 1.884-8.488 3.068-21.69 14.162-24.518 16.448-2.827-2.286-16.029-13.38-24.517-16.448-1.387-.502-3.331-1.141-5.673-1.884a119.13 119.13 0 0 0-2.787 14.796c-.102 1.584-.583 4.528-1.022 8.118.678.236 1.356.471 2.035.674 13.219 3.956 17.815 11.75 19.333 17.702v76.713a100.382 100.382 0 0 1-26.873-49.694h17.039v-22.549h-101.22v-280.14s11.445 16.719 15.475 25.107c8.638 17.981 14.165 36.27 15.954 56.049 1.932 21.355 4.706 42.637 7.321 63.925.412 3.348-.51 4.909-3.417 6.576-17.033 9.767-27.046 29.046-24.464 47.231 3.033 21.357 15.417 35.047 35.523 42.1.33.116.895.321 1.437.52 1.444-8.736 3.564-16.845 6.176-24.344-.102-.057-.202-.112-.306-.172-4.803-2.792-9.938-5.75-13.327-9.906-7.411-9.086-5.976-21.852 2.687-29.734 6.328-5.758 13.711-9.242 23.221-7.676-1.014-9.776-1.949-19.479-3.038-29.166-2.153-19.162-4.948-38.271-6.472-57.482-2.861-36.058-13.898-68.847-36.552-97.377-11.288-14.216-24.673-26.067-40.152-35.547-1.131-.692-2.335-1.275-3.54-1.833-.42-.194-.946-.158-1.705-.269v354.69h82.278c12.65 59.656 66.543 86.531 66.543 86.531s54.168-25.693 66.641-86.531h82.183v-354.69z"/>
</svg>
