<svg width="44" height="44" viewBox="0 0 44 44" fill="none" xmlns="http://www.w3.org/2000/svg" class="IconLogoSquare_logoIcon__zWUEH icon"><path fill-rule="evenodd" clip-rule="evenodd" d="M34.5714 0C39.7787 0 44 4.22132 44 9.42857V34.5714C44 39.7787 39.7787 44 34.5714 44H9.42857C4.22132 44 0 39.7787 0 34.5714V9.42857C0 4.22132 4.22132 0 9.42857 0H34.5714ZM19.9913 15.7143H23.0046V28.8095H19.9913V21.1956L16.5825 26.7517H16.2435L12.8347 21.1956V28.8095H9.82143V15.7143H12.8347L16.413 21.5323L19.9913 15.7143ZM31.3536 20.335V19.4558H34.1786V28.8095H31.3536V27.9303C30.7321 28.6412 29.8093 29.0714 28.5475 29.0714C26.0803 29.0714 24.0463 26.9201 24.0463 24.1327C24.0463 21.3452 26.0803 19.1939 28.5475 19.1939C29.8093 19.1939 30.7321 19.6241 31.3536 20.335ZM26.8713 24.1327C26.8713 25.5357 27.813 26.415 29.1125 26.415C30.4119 26.415 31.3536 25.5357 31.3536 24.1327C31.3536 22.7296 30.4119 21.8503 29.1125 21.8503C27.813 21.8503 26.8713 22.7296 26.8713 24.1327Z" fill="currentColor"></path></svg>