<?xml version="1.0" standalone="no"?>
<!DOCTYPE svg PUBLIC "-//W3C//DTD SVG 20010904//EN"
 "http://www.w3.org/TR/2001/REC-SVG-20010904/DTD/svg10.dtd">
<svg version="1.0" xmlns="http://www.w3.org/2000/svg"
 width="153.000000pt" height="375.000000pt" viewBox="0 0 153.000000 375.000000"
 preserveAspectRatio="xMidYMid meet">

<g transform="translate(0.000000,375.000000) scale(0.100000,-0.100000)"
fill="#000000" stroke="none">
<path d="M729 3717 l-27 -22 -5 -220 c-7 -323 -36 -454 -158 -696 -103 -206
-120 -303 -72 -404 20 -42 11 -54 -42 -55 -38 -1 -134 -40 -187 -77 -23 -15
-52 -44 -65 -64 -24 -37 -25 -37 -58 -23 -26 10 -41 11 -64 3 -84 -29 -58
-139 32 -139 l37 0 0 -50 c0 -88 58 -173 150 -220 14 -7 26 -14 28 -15 2 -2
-8 -14 -22 -28 -71 -71 10 -180 109 -147 46 15 68 49 63 95 -4 32 -2 34 22 29
61 -14 149 -66 179 -106 105 -143 34 -349 -166 -479 -59 -39 -63 -44 -47 -56
10 -7 33 -13 51 -13 31 0 33 -2 33 -37 0 -60 17 -106 55 -150 19 -23 35 -47
35 -55 0 -7 -26 -24 -58 -37 -84 -36 -180 -137 -212 -221 -38 -101 -33 -195
14 -293 44 -91 100 -145 206 -196 68 -32 84 -36 178 -39 149 -6 247 26 339
111 99 91 138 183 131 307 -8 141 -95 264 -233 330 -36 17 -65 33 -65 35 0 2
16 22 35 45 35 42 65 121 65 172 0 25 4 28 31 28 17 0 40 5 51 11 19 10 16 14
-38 50 -174 115 -250 259 -214 407 20 86 106 161 211 186 25 5 26 4 25 -33 -1
-45 16 -69 63 -88 44 -19 84 -9 116 29 33 40 32 73 -5 110 -17 17 -30 32 -28
33 2 1 22 12 44 23 83 42 144 137 144 226 0 35 1 36 35 36 38 0 85 36 85 64 0
59 -66 100 -119 73 -28 -14 -30 -14 -66 30 -63 75 -144 117 -267 138 l-37 6
20 52 c25 63 26 155 3 224 -9 26 -45 104 -79 173 -118 235 -157 413 -159 721
l-1 197 -30 18 c-16 10 -32 20 -35 21 -3 1 -17 -8 -31 -20z m40 -755 c20 3 42
7 50 9 9 3 19 -15 31 -56 19 -67 58 -154 90 -202 l22 -33 -64 0 c-44 0 -76 -6
-103 -20 -37 -19 -40 -19 -58 -3 -13 13 -41 19 -93 21 -41 3 -74 6 -74 8 0 3
12 22 26 43 30 46 80 167 90 216 5 31 8 33 26 24 11 -6 37 -9 57 -7z m-103
-369 c28 -33 36 -37 85 -39 73 -3 85 2 109 42 16 25 29 34 49 34 80 0 126
-108 85 -197 -9 -19 -50 -64 -92 -101 -41 -37 -89 -85 -106 -107 l-31 -40
-122 126 c-132 137 -146 164 -123 233 13 41 62 86 93 86 13 0 35 -15 53 -37z
m507 -375 c49 -15 119 -77 142 -124 19 -41 22 -124 6 -166 -11 -29 -75 -104
-100 -118 -14 -7 -16 -3 -13 29 5 52 -28 90 -84 98 -88 12 -154 -70 -108 -135
19 -27 4 -30 -49 -7 -148 62 -193 233 -92 353 66 79 179 105 298 70z m-373
-403 c17 -21 53 -56 80 -76 l50 -37 -33 -19 c-17 -11 -54 -44 -82 -75 l-50
-55 -55 57 c-30 31 -68 66 -83 76 l-29 20 40 27 c22 14 59 48 83 76 24 28 44
49 45 48 1 -1 16 -20 34 -42z m27 -722 c56 -80 63 -94 63 -141 0 -34 -6 -49
-28 -72 -52 -52 -151 -49 -203 6 -18 20 -24 37 -24 73 0 41 7 56 51 116 28 39
57 87 65 107 l13 37 12 -36 c7 -20 30 -60 51 -90z"/>
</g>
</svg>
