<?xml version="1.0" standalone="no"?>
<!DOCTYPE svg PUBLIC "-//W3C//DTD SVG 20010904//EN"
 "http://www.w3.org/TR/2001/REC-SVG-20010904/DTD/svg10.dtd">
<svg version="1.0" xmlns="http://www.w3.org/2000/svg"
 width="53.000000pt" height="270.000000pt" viewBox="0 0 53.000000 270.000000"
 preserveAspectRatio="xMidYMid meet">

<g transform="translate(0.000000,270.000000) scale(0.100000,-0.100000)"
fill="#000000" stroke="none">
<path d="M246 2679 c-3 -8 -9 -207 -15 -443 -10 -414 -11 -429 -31 -443 -24
-17 -26 -36 -5 -53 8 -7 15 -25 15 -41 0 -38 -35 -56 -78 -41 -21 7 -33 7 -41
-1 -14 -14 -14 -44 -1 -52 6 -4 19 -23 30 -44 18 -36 18 -39 1 -67 -23 -38
-51 -121 -51 -152 0 -45 23 -102 57 -141 36 -43 41 -75 18 -108 -14 -20 -13
-23 15 -46 16 -14 39 -28 50 -32 11 -3 20 -10 20 -15 0 -12 -47 -40 -80 -46
-53 -11 -56 -30 -10 -59 38 -24 41 -29 35 -57 -4 -16 -1 -50 6 -75 12 -44 11
-45 -16 -67 l-27 -22 36 -24 c36 -25 45 -43 26 -55 -13 -8 -13 -55 0 -55 6 0
10 -4 10 -10 0 -5 -7 -10 -15 -10 -51 0 -153 -88 -181 -156 -18 -43 -18 -165
0 -208 20 -49 85 -116 131 -137 57 -26 182 -26 235 1 84 43 140 126 148 218
11 132 -72 245 -211 286 -15 5 -16 9 -5 25 10 16 9 25 -2 46 -14 26 -13 28 19
54 l34 28 -28 21 c-26 20 -27 24 -15 52 7 17 10 50 8 75 -3 25 -1 45 3 45 20
0 33 49 21 75 -10 22 -8 31 22 73 50 68 76 156 76 249 0 120 -40 224 -97 254
-25 13 -29 39 -12 70 13 25 5 49 -27 84 -23 25 -24 29 -9 49 28 38 29 48 5 66
l-22 17 -8 432 c-5 295 -11 436 -18 443 -8 8 -13 8 -16 -3z m59 -1233 c100
-42 98 -178 -4 -289 -24 -26 -41 -54 -41 -68 0 -22 -1 -22 -17 -7 -15 16 -15
22 5 92 26 89 28 129 6 151 -12 12 -19 13 -30 4 -19 -16 -61 -3 -75 22 -15 29
1 63 43 89 39 24 67 25 113 6z m14 -1122 c28 -36 28 -102 0 -138 -15 -19 -29
-26 -56 -26 -56 0 -73 22 -73 96 0 54 3 65 22 78 35 25 83 20 107 -10z"/>
</g>
</svg>
