<?xml version="1.0" standalone="no"?>
<!DOCTYPE svg PUBLIC "-//W3C//DTD SVG 20010904//EN"
 "http://www.w3.org/TR/2001/REC-SVG-20010904/DTD/svg10.dtd">
<svg version="1.0" xmlns="http://www.w3.org/2000/svg"
 width="91.000000pt" height="600.000000pt" viewBox="0 0 91.000000 600.000000"
 preserveAspectRatio="xMidYMid meet">

<g transform="translate(0.000000,600.000000) scale(0.100000,-0.100000)"
fill="#000000" stroke="none">
<path d="M416 5991 c-3 -5 -12 -308 -20 -675 l-15 -665 -31 -73 c-17 -40 -49
-105 -71 -145 -21 -40 -39 -74 -39 -75 0 -2 36 0 80 6 44 5 82 7 85 5 2 -3 -3
-65 -12 -139 -12 -97 -17 -220 -17 -437 l-1 -302 -47 -6 c-27 -4 -48 -9 -48
-12 0 -2 11 -19 25 -38 l26 -33 -61 -38 c-33 -20 -59 -38 -58 -40 2 -1 28 -12
58 -24 325 -128 428 -464 218 -717 -59 -71 -124 -121 -220 -173 l-83 -44 48
-21 c48 -20 48 -21 28 -39 -20 -18 -20 -18 9 -42 l29 -25 -25 -48 c-14 -26
-29 -75 -33 -107 -9 -62 1 -171 18 -218 6 -15 11 -29 11 -31 0 -1 -21 -6 -46
-10 -87 -13 -88 -15 -29 -65 30 -25 54 -48 54 -53 1 -4 -18 -15 -41 -24 l-42
-17 54 -48 54 -48 -42 -36 c-51 -43 -72 -81 -72 -129 0 -27 8 -43 39 -74 l40
-40 -26 -16 c-13 -9 -31 -33 -40 -52 -13 -33 -13 -40 3 -82 10 -25 41 -71 71
-102 l53 -56 -72 -19 -73 -19 0 -55 0 -55 50 -5 50 -5 -37 -23 c-83 -52 -162
-164 -198 -279 -24 -78 -25 -129 -5 -207 20 -78 56 -136 118 -192 158 -143
404 -162 584 -45 183 118 236 322 137 528 -36 75 -141 194 -186 210 -19 6 -14
9 27 13 46 5 50 7 53 34 7 60 -2 71 -83 96 -41 13 -75 26 -75 29 0 3 16 17 35
31 49 35 111 130 124 190 25 117 7 232 -48 301 l-31 38 42 3 c24 2 42 8 42 13
-1 6 -5 24 -9 42 l-6 32 55 -6 c31 -3 56 -2 56 2 0 6 -95 138 -217 301 l-23
31 55 36 c107 72 116 160 26 256 -19 20 -26 34 -18 36 7 3 44 16 82 28 l70 24
-79 36 c-43 21 -82 37 -87 37 -25 0 -13 23 31 56 27 20 47 41 45 44 -3 4 -27
10 -55 14 -83 11 -82 9 -39 94 96 190 93 357 -11 592 -122 278 -120 270 -136
427 -12 113 -15 203 -10 383 3 129 9 259 12 289 l7 53 83 -7 83 -7 -66 139
-67 138 -7 135 c-4 74 -12 371 -19 660 -6 289 -13 535 -16 548 -3 18 -11 22
-39 22 -18 0 -36 -4 -39 -9z m164 -3759 c90 -45 72 -152 -39 -223 l-24 -15 81
-126 c45 -70 82 -129 82 -132 0 -7 -128 37 -171 59 -62 32 -130 89 -154 130
-31 54 -38 106 -24 173 9 46 19 65 54 99 24 23 54 43 67 46 51 10 95 6 128
-11z m-62 -714 c99 -25 162 -130 149 -253 -13 -129 -98 -205 -228 -205 -32 0
-70 5 -86 11 -30 11 -73 47 -73 60 0 5 23 18 50 30 79 34 91 87 27 114 -29 12
-30 14 -12 21 31 11 65 45 65 65 0 24 -36 57 -82 76 -45 18 -47 27 -13 49 64
42 126 52 203 32z"/>
</g>
</svg>
