<svg width="352" height="362" viewBox="0 0 352 362" fill="none" xmlns="http://www.w3.org/2000/svg">
<path d="M141.101 349.274L137.085 311.243C136.687 307.474 137.64 303.685 139.775 300.553L156.074 276.632L161.148 308.18C161.742 311.874 161.023 315.659 159.115 318.878L141.101 349.274Z" fill="black"/>
<path d="M141.101 349.274L137.123 349.694L138.39 361.693L144.542 351.313L141.101 349.274ZM137.085 311.243L141.063 310.823L141.063 310.823L137.085 311.243ZM139.775 300.553L136.469 298.301L136.469 298.301L139.775 300.553ZM159.115 318.878L155.674 316.839L155.674 316.839L159.115 318.878ZM161.148 308.18L165.097 307.545L161.148 308.18ZM149.268 309.651L153.186 310.458L153.186 310.458L149.268 309.651ZM215.802 6.68255C216.248 4.51889 214.856 2.40336 212.692 1.95738C210.529 1.51139 208.413 2.90383 207.967 5.06748L215.802 6.68255ZM184.66 137.951L188.578 138.759L184.66 137.951ZM145.079 348.854L141.063 310.823L133.107 311.663L137.123 349.694L145.079 348.854ZM143.08 302.806L159.38 278.884L152.769 274.379L136.469 298.301L143.08 302.806ZM155.674 316.839L137.66 347.234L144.542 351.313L162.556 320.918L155.674 316.839ZM165.097 307.545L160.024 275.997L152.125 277.267L157.199 308.815L165.097 307.545ZM152.157 275.824L145.351 308.843L153.186 310.458L159.992 277.439L152.157 275.824ZM145.351 308.843L137.183 348.466L145.018 350.081L153.186 310.458L145.351 308.843ZM207.967 5.06748L180.743 137.144L188.578 138.759L215.802 6.68255L207.967 5.06748ZM180.743 137.144L152.157 275.824L159.992 277.439L188.578 138.759L180.743 137.144ZM162.556 320.918C164.941 316.894 165.84 312.162 165.097 307.545L157.199 308.815C157.644 311.586 157.105 314.425 155.674 316.839L162.556 320.918ZM141.063 310.823C140.765 307.996 141.479 305.155 143.08 302.806L136.469 298.301C133.801 302.216 132.61 306.951 133.107 311.663L141.063 310.823Z" fill="black"/>
</svg>
