<svg width="350" height="320" viewBox="0 0 350 320" fill="none" xmlns="http://www.w3.org/2000/svg">
<path d="M339.268 261.394L300.485 252.068C297.051 251.242 293.987 249.303 291.77 246.553L268.558 217.761L304.569 224.777C308.234 225.491 311.534 227.464 313.898 230.355L339.268 261.394Z" fill="black"/>
<path d="M339.268 261.394L338.333 265.283L349.884 268.061L342.365 258.862L339.268 261.394ZM300.485 252.068L299.55 255.957L299.55 255.957L300.485 252.068ZM291.77 246.553L288.656 249.064L288.656 249.064L291.77 246.553ZM313.898 230.355L310.8 232.887L310.8 232.887L313.898 230.355ZM304.569 224.777L303.804 228.703L303.804 228.703L304.569 224.777ZM300.699 237.594L298.598 240.998L298.598 240.998L300.699 237.594ZM7.1005 51.7255C5.22048 50.5654 2.75598 51.149 1.59589 53.029C0.435799 54.9091 1.01942 57.3736 2.89944 58.5337L7.1005 51.7255ZM133.565 134.462L131.464 137.866L131.464 137.866L133.565 134.462ZM340.204 257.505L301.421 248.179L299.55 255.957L338.333 265.283L340.204 257.505ZM294.884 244.043L271.672 215.25L265.444 220.272L288.656 249.064L294.884 244.043ZM310.8 232.887L336.171 263.925L342.365 258.862L316.995 227.824L310.8 232.887ZM305.334 220.851L269.323 213.835L267.793 221.687L303.804 228.703L305.334 220.851ZM266.457 221.165L298.598 240.998L302.799 234.19L270.658 214.357L266.457 221.165ZM298.598 240.998L337.168 264.798L341.369 257.99L302.799 234.19L298.598 240.998ZM2.89944 58.5337L131.464 137.866L135.665 131.058L7.1005 51.7255L2.89944 58.5337ZM131.464 137.866L266.457 221.165L270.658 214.357L135.665 131.058L131.464 137.866ZM316.995 227.824C314.04 224.21 309.915 221.743 305.334 220.851L303.804 228.703C306.553 229.238 309.028 230.719 310.8 232.887L316.995 227.824ZM301.421 248.179C298.845 247.559 296.547 246.105 294.884 244.043L288.656 249.064C291.427 252.501 295.257 254.925 299.55 255.957L301.421 248.179Z" fill="black"/>
</svg>
