<svg width="253" height="241" viewBox="0 0 253 241" fill="none" xmlns="http://www.w3.org/2000/svg">
<g filter="url(#filter0_d)">
<path d="M216.252 223L178.165 199.93C174.922 197.965 172.482 194.912 171.28 191.315L160.322 158.523L193.218 176.043C196.532 177.808 199.119 180.681 200.528 184.161L216.252 223Z" fill="black"/>
<path d="M216.252 223L214.179 226.421L224.477 232.659L219.959 221.499L216.252 223ZM178.165 199.93L176.093 203.351L176.093 203.351L178.165 199.93ZM171.28 191.315L175.074 190.048L175.074 190.048L171.28 191.315ZM200.528 184.161L204.236 182.66L204.236 182.66L200.528 184.161ZM193.218 176.043L195.099 172.513L195.099 172.513L193.218 176.043ZM185.744 187.831L188.766 185.21L188.766 185.21L185.744 187.831ZM34.7572 2.43108C33.3384 0.737745 30.8156 0.515173 29.1222 1.93395C27.4289 3.35272 27.2063 5.87558 28.6251 7.56891L34.7572 2.43108ZM218.324 219.579L180.238 196.508L176.093 203.351L214.179 226.421L218.324 219.579ZM175.074 190.048L164.115 157.255L156.528 159.79L167.486 192.583L175.074 190.048ZM196.82 185.662L212.544 224.501L219.959 221.499L204.236 182.66L196.82 185.662ZM195.099 172.513L162.202 154.992L158.441 162.053L191.338 179.574L195.099 172.513ZM157.3 161.144L182.723 190.452L188.766 185.21L163.343 155.902L157.3 161.144ZM182.723 190.452L213.23 225.621L219.273 220.379L188.766 185.21L182.723 190.452ZM28.6251 7.56891L157.256 161.092L163.388 155.954L34.7572 2.43108L28.6251 7.56891ZM204.236 182.66C202.475 178.31 199.24 174.718 195.099 172.513L191.338 179.574C193.823 180.897 195.764 183.052 196.82 185.662L204.236 182.66ZM180.238 196.508C177.805 195.035 175.975 192.745 175.074 190.048L167.486 192.583C168.988 197.079 172.039 200.895 176.093 203.351L180.238 196.508Z" fill="black"/>
</g>
<defs>
<filter id="filter0_d" x="0.0223389" y="0.561798" width="252.616" height="240.098" filterUnits="userSpaceOnUse" color-interpolation-filters="sRGB">
<feFlood flood-opacity="0" result="BackgroundImageFix"/>
<feColorMatrix in="SourceAlpha" type="matrix" values="0 0 0 0 0 0 0 0 0 0 0 0 0 0 0 0 0 0 127 0"/>
<feOffset dy="4"/>
<feGaussianBlur stdDeviation="2"/>
<feColorMatrix type="matrix" values="0 0 0 0 0 0 0 0 0 0 0 0 0 0 0 0 0 0 0.25 0"/>
<feBlend mode="normal" in2="BackgroundImageFix" result="effect1_dropShadow"/>
<feBlend mode="normal" in="SourceGraphic" in2="effect1_dropShadow" result="shape"/>
</filter>
</defs>
</svg>
