<svg width="67" height="269" viewBox="0 0 67 269" fill="none" xmlns="http://www.w3.org/2000/svg">
<path d="M9.75004 257.826L4.76305 230.541C4.00658 226.402 4.91084 222.131 7.28003 218.654L23.1879 195.308L28.2337 221.572C29.0217 225.673 28.1746 229.921 25.8732 233.406L9.75004 257.826Z" fill="black"/>
<path fill-rule="evenodd" clip-rule="evenodd" d="M63.1804 0.0789582C65.3459 0.51577 66.7473 2.62538 66.3105 4.7909L55.6931 57.4271L27.2664 195.336L32.1619 220.817C33.1469 225.944 32.088 231.253 29.2113 235.61L7.60458 268.335L0.828251 231.26C-0.117339 226.086 1.01298 220.748 3.97447 216.402L19.4318 193.717L47.8527 55.8369L47.8561 55.8203L58.4684 3.20907C58.9052 1.04354 61.0148 -0.357853 63.1804 0.0789582ZM15.2332 214.086L10.5856 220.907C8.80873 223.515 8.13053 226.717 8.69789 229.821L10.1544 237.791L12.4714 227.485L15.2332 214.086ZM18.4413 237.403L22.5352 231.202C24.2612 228.588 24.8966 225.403 24.3056 222.326L23.05 215.791L20.2922 229.17L18.4413 237.403Z" fill="black"/>
</svg>
