<?xml version="1.0" encoding="utf-8"?>
<!-- Generator: Adobe Illustrator 16.0.0, SVG Export Plug-In . SVG Version: 6.00 Build 0)  -->
<!DOCTYPE svg PUBLIC "-//W3C//DTD SVG 1.1//EN" "http://www.w3.org/Graphics/SVG/1.1/DTD/svg11.dtd">
<svg version="1.1" id="Warstwa_1" xmlns="http://www.w3.org/2000/svg" xmlns:xlink="http://www.w3.org/1999/xlink" x="0px" y="0px"
	 width="458.899px" height="458.885px" viewBox="0 0 458.899 458.885" enable-background="new 0 0 458.899 458.885"
	 xml:space="preserve">
<g>
	<path fill-rule="evenodd" clip-rule="evenodd" d="M-165.86,288.325c0.231,117.853-94.779,212.655-214.31,211.898
		c-117.047-0.741-208.971-95.889-209.49-209.628c-0.545-119.487,93.858-214.221,213.468-213.708
		C-258.847,77.391-165.889,173.042-165.86,288.325z M-378.232,489.471c110.378,0.297,200.943-89.389,201.382-199.425
		c0.444-111.311-89.219-201.84-200.185-202.12c-111.449-0.28-201.228,89.288-201.648,201.175
		C-579.094,398.824-488.708,489.175-378.232,489.471z M-294.442,95.235c-6.536-2.437-12.531-4.67-18.909-7.048
		c-0.945,2.762-1.728,5.046-2.629,7.678c6.284,2.337,12.219,4.544,18.308,6.808C-296.581,100.161-295.672,98.068-294.442,95.235z
		 M-460.867,104.118c6.442-2.595,12.296-4.952,18.179-7.322c-1.025-2.827-1.801-4.963-2.768-7.627
		c-6.463,2.584-12.515,5.004-18.773,7.506C-462.984,99.43-462.043,101.514-460.867,104.118z M-401.666,87.684
		c-0.232-2.674-0.45-5.179-0.708-8.147c-6.92,1.152-13.223,2.202-19.92,3.318c0.638,2.915,1.154,5.272,1.735,7.929
		C-414.339,89.764-408.496,88.805-401.666,87.684z M-334.74,82.505c-0.541,2.948-0.997,5.431-1.471,8.015
		c6.539,1.667,12.538,3.196,18.774,4.786c0.785-2.784,1.395-4.946,2.172-7.706C-321.87,85.872-328.036,84.259-334.74,82.505z
		 M-503.75,119.824c-5.446,4.523-10.447,8.678-15.683,13.027c2.206,2.321,3.87,4.071,5.568,5.857
		c5.224-4.334,10.037-8.328,14.953-12.407C-500.477,124.206-501.855,122.361-503.75,119.824z M-529.958,155.008
		c-2.226-1.905-4.051-3.468-6.188-5.296c-4.354,5.481-8.323,10.477-12.607,15.87c2.458,1.732,4.424,3.118,6.64,4.679
		C-538.062,165.177-534.178,160.303-529.958,155.008z M-563.837,208.581c-2.706-1.156-4.915-2.099-7.522-3.213
		c-2.433,6.513-4.669,12.498-7.049,18.866c2.766,0.947,5.04,1.726,7.639,2.616C-568.426,220.674-566.226,214.875-563.837,208.581z
		 M-258.998,124.657c5.324,4.231,10.217,8.12,15.316,12.172c1.807-2.079,3.39-3.9,5.283-6.08
		c-5.452-4.331-10.559-8.388-15.849-12.59C-256.028,120.596-257.382,122.447-258.998,124.657z M-569.973,375.009
		c2.652-1.23,4.926-2.286,7.368-3.42c-2.474-6.236-4.773-12.03-7.177-18.091c-2.643,0.976-4.878,1.8-7.538,2.78
		C-574.823,362.644-572.533,368.481-569.973,375.009z M-424.168,83.255c-6.748,1.875-13.017,3.619-19.539,5.431
		c1.01,2.99,1.784,5.28,2.618,7.75c6.423-1.81,12.384-3.49,18.654-5.256C-423.029,88.459-423.545,86.102-424.168,83.255z
		 M-227.413,152.92c4.371,5.293,8.314,10.069,12.402,15.021c2.275-1.733,4.175-3.18,6.385-4.863
		c-4.478-5.39-8.627-10.385-12.943-15.581C-223.802,149.57-225.472,151.119-227.413,152.92z M-180.031,244.446
		c2.651-0.596,4.847-1.088,7.813-1.755c-1.795-6.589-3.497-12.831-5.315-19.505c-2.916,1.027-5.165,1.82-7.592,2.676
		C-183.403,232.145-181.798,238-180.031,244.446z M-576.16,247.228c1.681-6.486,3.238-12.491,4.89-18.864
		c-2.731-0.756-5.024-1.391-7.792-2.157c-1.708,6.709-3.278,12.873-4.95,19.442C-581.213,246.211-578.99,246.659-576.16,247.228z
		 M-575.795,331.389c-1.126-6.56-2.154-12.546-3.249-18.922c-2.624,0.196-5.009,0.375-8.011,0.6
		c1.16,6.94,2.231,13.352,3.354,20.069C-580.717,332.477-578.492,331.984-575.795,331.389z M-575.4,333.266
		c-2.558,0.544-4.898,1.042-7.952,1.69c1.871,6.688,3.622,12.949,5.431,19.42c2.858-0.907,5.023-1.595,7.626-2.421
		C-571.998,345.72-573.632,339.737-575.4,333.266z M-356.577,79.207c-0.237,2.921-0.438,5.406-0.656,8.096
		c6.613,0.93,12.742,1.793,19.151,2.695c0.52-2.822,0.946-5.142,1.446-7.859C-343.483,81.131-349.659,80.224-356.577,79.207z
		 M-439.736,481.485c-6.348-2.382-12.185-4.573-18.315-6.875c-1.052,2.479-1.989,4.685-3.105,7.312
		c6.503,2.431,12.492,4.668,18.812,7.028C-441.417,486.298-440.669,484.158-439.736,481.485z M-579.31,268.247
		c0.958-6.919,1.803-13.022,2.668-19.277c-2.839-0.56-5.05-0.996-7.826-1.543c-0.962,6.882-1.86,13.305-2.796,19.998
		C-584.207,267.741-581.967,267.973-579.31,268.247z M-527.944,424.621c-4.402-5.32-8.311-10.044-12.386-14.969
		c-2.084,1.562-4.023,3.014-6.399,4.793c4.498,5.378,8.685,10.385,13.003,15.548C-531.503,427.928-529.829,426.372-527.944,424.621z
		 M-192.85,206.002c2.488,6.237,4.794,12.018,7.24,18.148c2.662-1.024,4.877-1.876,7.496-2.883
		c-2.598-6.517-4.963-12.451-7.418-18.609C-188.219,203.886-190.29,204.833-192.85,206.002z M-534.891,148.485
		c2.261,1.957,4.093,3.542,5.24,4.535c4.864-4.58,9.405-8.855,14.176-13.347c-1.583-1.741-3.208-3.529-5.08-5.588
		C-525.407,138.958-529.936,143.507-534.891,148.485z M-294.87,473.396c-6.406,2.552-12.174,4.85-18.164,7.234
		c0.956,2.604,1.736,4.731,2.714,7.396c6.417-2.549,12.48-4.958,18.742-7.446C-292.802,477.909-293.75,475.841-294.87,473.396z
		 M-176.139,309.441c-0.964,6.488-1.874,12.611-2.853,19.202c2.67,0.474,4.991,0.886,7.791,1.383
		c0.985-6.887,1.884-13.173,2.855-19.96C-171.184,309.839-173.271,309.671-176.139,309.441z M-179.436,330.3
		c-1.673,6.597-3.202,12.622-4.793,18.896c2.689,0.804,4.831,1.443,7.483,2.236c1.749-6.673,3.372-12.868,5.096-19.447
		C-174.364,331.397-176.595,330.915-179.436,330.3z M-501.066,459.37c1.687-2.311,3.106-4.255,4.719-6.464
		c-5.115-4.083-10.01-7.99-15.189-12.123c-1.681,1.853-3.309,3.647-5.319,5.863C-511.65,450.84-506.777,454.769-501.066,459.37z
		 M-168.475,264.389c-1.204-6.969-2.308-13.361-3.447-19.959c-3.03,0.721-5.252,1.25-7.735,1.84
		c1.087,6.405,2.127,12.541,3.244,19.127C-173.895,265.078-171.65,264.793-168.475,264.389z M-184.395,372.237
		c2.482-6.692,4.701-12.676,7.061-19.041c-2.89-0.895-5.16-1.597-7.569-2.343c-2.368,6.348-4.538,12.167-6.782,18.181
		C-189.305,370.081-187.225,370.994-184.395,372.237z M-333.31,486.218c0.61,2.76,1.122,5.073,1.724,7.798
		c6.835-1.935,12.982-3.675,19.396-5.491c-0.893-2.816-1.576-4.974-2.359-7.447C-320.845,482.803-326.706,484.408-333.31,486.218z
		 M-333.338,494.347c-0.728-3.065-1.278-5.384-1.838-7.743c-6.674,1.139-12.67,2.161-18.993,3.24
		c0.305,2.753,0.565,5.104,0.866,7.815C-346.467,496.524-340.288,495.5-333.338,494.347z M-513.981,440.851
		c-4.587-5.193-8.712-9.863-13.006-14.727c-1.839,1.709-3.504,3.257-4.802,4.463c4.64,5.005,9.073,9.786,13.749,14.829
		C-516.193,443.338-514.68,441.635-513.981,440.851z M-225.651,422.508c2.106,1.837,3.894,3.394,5.966,5.2
		c4.378-5.511,8.347-10.506,12.574-15.826c-2.453-1.737-4.394-3.11-6.435-4.556C-217.665,412.491-221.469,417.263-225.651,422.508z
		 M-236.528,444.728c-2.015-2.397-3.555-4.228-5.071-6.031c-5.474,4.499-10.188,8.374-15.181,12.478
		c1.509,2.024,2.944,3.951,4.687,6.288C-246.821,453.149-241.869,449.097-236.528,444.728z M-223.651,147.169
		c-4.752-5.112-9.188-9.883-13.815-14.859c-1.772,2.039-3.333,3.835-3.917,4.507c4.689,5.163,8.873,9.769,13.151,14.479
		C-226.577,149.805-224.873,148.271-223.651,147.169z M-225.871,424.585c-5.003,4.597-9.573,8.795-14.426,13.254
		c1.679,1.809,3.29,3.542,4.916,5.293c4.966-4.823,9.559-9.283,14.47-14.053C-222.941,427.239-224.622,425.716-225.871,424.585z
		 M-399.042,497.97c0.209-3.206,0.355-5.435,0.517-7.909c-6.619-0.934-12.739-1.796-19.108-2.692
		c-0.506,2.715-0.916,4.916-1.419,7.622C-412.26,496.001-405.956,496.939-399.042,497.97z M-419.356,486.925
		c-6.398-1.668-12.522-3.265-18.911-4.931c-0.755,2.749-1.348,4.904-2.093,7.617c6.639,1.708,12.805,3.294,19.357,4.979
		C-420.413,491.845-419.935,489.62-419.356,486.925z M-562.683,187.652c-2.728,5.563-5.242,10.691-7.93,16.176
		c2.916,1.211,5.124,2.129,7.517,3.123c2.638-5.356,5.028-10.21,7.554-15.34C-557.874,190.318-559.882,189.205-562.683,187.652z
		 M-292.829,95.968c-1.245,2.851-2.199,5.036-3.268,7.484c5.342,2.614,10.292,5.035,15.467,7.566
		c1.373-2.511,2.522-4.614,3.88-7.098C-282.179,101.235-287.166,98.769-292.829,95.968z M-502.35,118.853
		c1.917,2.535,3.377,4.466,4.917,6.503c4.94-3.333,9.444-6.371,14.252-9.613c-1.475-2.379-2.739-4.42-4.246-6.853
		C-492.53,112.297-497.197,115.412-502.35,118.853z M-168.262,266.228c-3.259,0.46-5.671,0.8-7.936,1.119
		c0.198,4.149,0.373,7.444,0.51,10.742c0.289,6.921,0.95,7.368,8.319,5.194C-167.653,277.841-167.942,272.323-168.262,266.228z
		 M-465.896,97.389c-5.29,2.728-10.179,5.249-15.415,7.949c1.511,2.601,2.72,4.682,4.071,7.01c5.05-2.587,9.812-5.027,14.833-7.601
		C-463.64,102.145-464.669,99.974-465.896,97.389z M-274.375,114.581c4.816,3.145,9.223,6.021,13.955,9.111
		c1.538-2.14,2.958-4.115,4.712-6.554c-4.954-3.242-9.619-6.294-14.508-9.494C-271.658,110.049-272.845,112.029-274.375,114.581z
		 M-399.556,87.5c5.769-0.436,11.157-0.843,16.496-1.246c0-2.773,0-5.151,0-8.021c-6.129,0.442-11.803,0.851-17.674,1.274
		C-400.281,82.584-399.967,84.71-399.556,87.5z M-197.618,179.505c-3.483-5.167-6.664-9.884-10.039-14.892
		c-2.394,1.787-4.314,3.22-6.417,4.789c3.325,4.944,6.415,9.54,9.599,14.274C-202.197,182.29-200.241,181.101-197.618,179.505z
		 M-579.185,310.398c-0.391-5.938-0.745-11.307-1.095-16.624c-2.858,0-5.107,0-7.97,0c0.349,6.019,0.678,11.683,1.031,17.772
		C-584.096,311.101-581.855,310.78-579.185,310.398z M-192.447,370.588c-2.63,5.313-5.085,10.271-7.618,15.385
		c2.412,1.357,4.403,2.479,6.93,3.902c2.683-5.485,5.229-10.689,7.898-16.146C-188.057,372.501-190.123,371.601-192.447,370.588z
		 M-543.052,171.706c-2.431-1.689-4.475-3.108-6.76-4.696c-3.352,5.242-6.25,9.775-9.356,14.633
		c2.576,1.484,4.675,2.694,7.015,4.042C-549.148,181.07-546.28,176.664-543.052,171.706z M-478.896,473.242
		c5.489,2.689,10.611,5.199,16.147,7.91c1.182-2.76,2.114-4.938,3.115-7.275c-5.291-2.61-10.135-5.001-15.371-7.585
		C-476.314,468.63-477.487,470.725-478.896,473.242z M-541.331,408.141c-3.3-4.865-6.414-9.456-9.632-14.202
		c-2.366,1.486-4.297,2.701-6.703,4.213c3.377,5.017,6.566,9.754,9.986,14.834C-545.354,411.211-543.436,409.747-541.331,408.141z
		 M-253.543,458.477c-1.75-2.351-3.174-4.265-4.688-6.299c-4.948,3.313-9.432,6.313-14.282,9.56
		c1.414,2.284,2.669,4.311,4.132,6.673C-263.283,464.996-258.53,461.815-253.543,458.477z M-168.093,308.586
		c0.294-6.185,0.557-11.689,0.828-17.387c-2.981,0-5.21,0-7.914,0c-0.275,5.485-0.537,10.706-0.815,16.276
		C-173.426,307.837-171.201,308.149-168.093,308.586z M-561.908,373.138c-2.717,1.346-4.866,2.41-7.232,3.582
		c2.735,5.304,5.212,10.107,7.885,15.29c2.532-1.459,4.613-2.658,6.917-3.985C-556.906,382.974-559.277,378.312-561.908,373.138z
		 M-194.158,185.542c-2.769,1.649-4.835,2.879-6.938,4.131c2.688,5.203,5.104,9.883,7.612,14.737
		c2.508-1.18,4.691-2.207,7.245-3.407C-188.973,195.668-191.444,190.842-194.158,185.542z M-372.654,491.049c0,2.946,0,5.16,0,7.863
		c6.028-0.391,11.592-0.75,17.555-1.136c-0.417-3.102-0.734-5.468-1.045-7.789C-361.973,490.362-367.243,490.701-372.654,491.049z
		 M-359.001,86.647c0.162-2.432,0.313-4.683,0.506-7.589c-5.892,0-11.366,0-16.825,0c0,2.442,0,4.797,0,7.589
		C-369.814,86.647-364.726,86.647-359.001,86.647z M-212.518,405.856c2.28,1.604,4.22,2.969,6.496,4.57
		c3.286-5.101,6.261-9.72,9.396-14.587c-2.662-1.482-4.739-2.639-6.907-3.847C-206.595,396.718-209.361,400.987-212.518,405.856z
		 M-499.516,460.309c4.957,3.224,9.586,6.233,14.566,9.472c1.479-2.587,2.666-4.664,3.949-6.909
		c-4.731-3.073-9.128-5.929-13.924-9.044C-496.445,455.974-497.834,457.935-499.516,460.309z M-580.174,286.336
		c0-5.545,0-10.87,0-16.503c-2.375-0.136-4.615-0.264-7.383-0.422c-0.261,5.934-0.502,11.412-0.745,16.925
		C-585.227,286.336-582.96,286.336-580.174,286.336z M-397.244,498.086c5.82,0,11.322,0,17.056,0c0-2.151,0-4.368,0-7.113
		c-5.639,0-10.997,0-16.486,0C-396.854,493.214-397.023,495.322-397.244,498.086z M-293.27,472.743
		c1.177,2.507,2.187,4.657,3.351,7.137c5.335-2.741,10.163-5.221,15.364-7.893c-1.409-2.488-2.586-4.567-3.873-6.841
		C-283.574,467.781-288.245,470.172-293.27,472.743z"/>
	<path fill-rule="evenodd" clip-rule="evenodd" fill="#FFFFFF" d="M-294.442,95.235c-1.23,2.833-2.139,4.925-3.23,7.438
		c-6.089-2.264-12.024-4.471-18.308-6.808c0.901-2.632,1.684-4.916,2.629-7.678C-306.973,90.565-300.979,92.799-294.442,95.235z"/>
	<path fill-rule="evenodd" clip-rule="evenodd" fill="#FFFFFF" d="M-460.867,104.118c-1.176-2.604-2.117-4.688-3.362-7.443
		c6.258-2.502,12.31-4.922,18.773-7.506c0.967,2.664,1.743,4.8,2.768,7.627C-448.57,99.166-454.424,101.523-460.867,104.118z"/>
	<path fill-rule="evenodd" clip-rule="evenodd" fill="#FFFFFF" d="M-401.666,87.684c-6.831,1.121-12.674,2.08-18.893,3.101
		c-0.582-2.657-1.098-5.015-1.735-7.929c6.698-1.116,13-2.166,19.92-3.318C-402.116,82.505-401.898,85.01-401.666,87.684z"/>
	<path fill-rule="evenodd" clip-rule="evenodd" fill="#FFFFFF" d="M-334.74,82.505c6.704,1.754,12.87,3.367,19.475,5.095
		c-0.778,2.759-1.388,4.921-2.172,7.706c-6.236-1.59-12.235-3.119-18.774-4.786C-335.737,87.936-335.281,85.453-334.74,82.505z"/>
	<path fill-rule="evenodd" clip-rule="evenodd" fill="#FFFFFF" d="M-503.75,119.824c1.896,2.538,3.273,4.382,4.838,6.478
		c-4.916,4.079-9.729,8.073-14.953,12.407c-1.699-1.787-3.362-3.537-5.568-5.857C-514.197,128.501-509.196,124.347-503.75,119.824z"
		/>
	<path fill-rule="evenodd" clip-rule="evenodd" fill="#FFFFFF" d="M-529.958,155.008c-4.219,5.295-8.103,10.169-12.155,15.252
		c-2.216-1.561-4.182-2.947-6.64-4.679c4.284-5.393,8.252-10.388,12.607-15.87C-534.01,151.541-532.184,153.104-529.958,155.008z"/>
	<path fill-rule="evenodd" clip-rule="evenodd" fill="#FFFFFF" d="M-563.837,208.581c-2.388,6.294-4.589,12.093-6.933,18.27
		c-2.599-0.89-4.873-1.669-7.639-2.616c2.38-6.368,4.616-12.353,7.049-18.866C-568.752,206.482-566.543,207.425-563.837,208.581z"/>
	<path fill-rule="evenodd" clip-rule="evenodd" fill="#FFFFFF" d="M-258.998,124.657c1.616-2.21,2.97-4.062,4.75-6.498
		c5.291,4.203,10.397,8.259,15.849,12.59c-1.894,2.18-3.477,4.001-5.283,6.08C-248.781,132.777-253.674,128.889-258.998,124.657z"/>
	<path fill-rule="evenodd" clip-rule="evenodd" fill="#FFFFFF" d="M-569.973,375.009c-2.56-6.527-4.85-12.365-7.346-18.73
		c2.659-0.98,4.895-1.805,7.538-2.78c2.404,6.061,4.703,11.854,7.177,18.091C-565.047,372.723-567.321,373.778-569.973,375.009z"/>
	<path fill-rule="evenodd" clip-rule="evenodd" fill="#FFFFFF" d="M-424.168,83.255c0.623,2.846,1.139,5.204,1.734,7.924
		c-6.27,1.767-12.231,3.447-18.654,5.256c-0.834-2.469-1.608-4.76-2.618-7.75C-437.185,86.874-430.916,85.131-424.168,83.255z"/>
	<path fill-rule="evenodd" clip-rule="evenodd" fill="#FFFFFF" d="M-227.413,152.92c1.941-1.801,3.611-3.351,5.844-5.423
		c4.315,5.195,8.465,10.19,12.943,15.581c-2.21,1.683-4.11,3.13-6.385,4.863C-219.099,162.99-223.042,158.213-227.413,152.92z"/>
	<path fill-rule="evenodd" clip-rule="evenodd" fill="#FFFFFF" d="M-180.031,244.446c-1.767-6.447-3.372-12.302-5.094-18.584
		c2.427-0.856,4.676-1.649,7.592-2.676c1.819,6.675,3.52,12.916,5.315,19.505C-175.184,243.358-177.38,243.851-180.031,244.446z"/>
	<path fill-rule="evenodd" clip-rule="evenodd" fill="#FFFFFF" d="M-576.16,247.228c-2.83-0.569-5.053-1.016-7.852-1.579
		c1.672-6.569,3.242-12.733,4.95-19.442c2.768,0.766,5.061,1.401,7.792,2.157C-572.922,234.736-574.479,240.742-576.16,247.228z"/>
	<path fill-rule="evenodd" clip-rule="evenodd" fill="#FFFFFF" d="M-575.795,331.389c-2.697,0.596-4.922,1.088-7.906,1.747
		c-1.123-6.718-2.194-13.129-3.354-20.069c3.002-0.225,5.387-0.403,8.011-0.6C-577.949,318.843-576.921,324.829-575.795,331.389z"/>
	<path fill-rule="evenodd" clip-rule="evenodd" fill="#FFFFFF" d="M-575.4,333.266c1.768,6.472,3.402,12.454,5.106,18.689
		c-2.603,0.826-4.769,1.514-7.626,2.421c-1.81-6.471-3.561-12.732-5.431-19.42C-580.298,334.308-577.958,333.81-575.4,333.266z"/>
	<path fill-rule="evenodd" clip-rule="evenodd" fill="#FFFFFF" d="M-356.577,79.207c6.918,1.017,13.094,1.924,19.941,2.931
		c-0.5,2.718-0.927,5.037-1.446,7.859c-6.409-0.902-12.538-1.765-19.151-2.695C-357.016,84.613-356.814,82.128-356.577,79.207z"/>
	<path fill-rule="evenodd" clip-rule="evenodd" fill="#FFFFFF" d="M-439.736,481.485c-0.934,2.673-1.682,4.813-2.608,7.465
		c-6.32-2.36-12.308-4.598-18.812-7.028c1.116-2.627,2.053-4.832,3.105-7.312C-451.92,476.912-446.084,479.104-439.736,481.485z"/>
	<path fill-rule="evenodd" clip-rule="evenodd" fill="#FFFFFF" d="M-579.31,268.247c-2.657-0.274-4.897-0.506-7.954-0.822
		c0.936-6.693,1.834-13.116,2.796-19.998c2.775,0.547,4.987,0.983,7.826,1.543C-577.507,255.225-578.353,261.328-579.31,268.247z"/>
	<path fill-rule="evenodd" clip-rule="evenodd" fill="#FFFFFF" d="M-527.944,424.621c-1.885,1.751-3.56,3.307-5.783,5.372
		c-4.318-5.163-8.505-10.17-13.003-15.548c2.376-1.779,4.315-3.231,6.399-4.793C-536.255,414.577-532.346,419.301-527.944,424.621z"
		/>
	<path fill-rule="evenodd" clip-rule="evenodd" fill="#FFFFFF" d="M-192.85,206.002c2.56-1.169,4.631-2.116,7.318-3.344
		c2.455,6.158,4.82,12.092,7.418,18.609c-2.619,1.007-4.834,1.859-7.496,2.883C-188.056,218.02-190.361,212.24-192.85,206.002z"/>
	<path fill-rule="evenodd" clip-rule="evenodd" fill="#FFFFFF" d="M-534.891,148.485c4.956-4.979,9.484-9.527,14.336-14.4
		c1.872,2.059,3.497,3.847,5.08,5.588c-4.771,4.492-9.313,8.768-14.176,13.347C-530.798,152.027-532.63,150.442-534.891,148.485z"/>
	<path fill-rule="evenodd" clip-rule="evenodd" fill="#FFFFFF" d="M-294.87,473.396c1.12,2.445,2.068,4.514,3.292,7.185
		c-6.262,2.488-12.325,4.897-18.742,7.446c-0.978-2.665-1.758-4.792-2.714-7.396C-307.044,478.245-301.276,475.947-294.87,473.396z"
		/>
	<path fill-rule="evenodd" clip-rule="evenodd" fill="#FFFFFF" d="M-176.139,309.441c2.867,0.229,4.955,0.397,7.792,0.625
		c-0.971,6.787-1.87,13.073-2.855,19.96c-2.799-0.497-5.121-0.909-7.791-1.383C-178.012,322.053-177.103,315.93-176.139,309.441z"/>
	<path fill-rule="evenodd" clip-rule="evenodd" fill="#FFFFFF" d="M-179.436,330.3c2.84,0.615,5.071,1.098,7.786,1.685
		c-1.724,6.579-3.347,12.774-5.096,19.447c-2.652-0.793-4.793-1.433-7.483-2.236C-182.637,342.922-181.109,336.896-179.436,330.3z"
		/>
	<path fill-rule="evenodd" clip-rule="evenodd" fill="#FFFFFF" d="M-501.066,459.37c-5.711-4.602-10.584-8.53-15.789-12.724
		c2.01-2.216,3.638-4.011,5.319-5.863c5.179,4.133,10.074,8.04,15.189,12.123C-497.959,455.115-499.379,457.06-501.066,459.37z"/>
	<path fill-rule="evenodd" clip-rule="evenodd" fill="#FFFFFF" d="M-168.475,264.389c-3.175,0.404-5.419,0.689-7.938,1.009
		c-1.117-6.587-2.157-12.722-3.244-19.127c2.483-0.591,4.705-1.12,7.735-1.84C-170.783,251.028-169.679,257.42-168.475,264.389z"/>
	<path fill-rule="evenodd" clip-rule="evenodd" fill="#FFFFFF" d="M-184.395,372.237c-2.83-1.243-4.91-2.156-7.291-3.203
		c2.244-6.014,4.414-11.833,6.782-18.181c2.41,0.746,4.679,1.448,7.569,2.343C-179.694,359.562-181.913,365.545-184.395,372.237z"/>
	<path fill-rule="evenodd" clip-rule="evenodd" fill="#FFFFFF" d="M-333.31,486.218c6.604-1.81,12.464-3.415,18.761-5.141
		c0.783,2.474,1.466,4.631,2.359,7.447c-6.414,1.816-12.561,3.557-19.396,5.491C-332.188,491.291-332.699,488.978-333.31,486.218z"
		/>
	<path fill-rule="evenodd" clip-rule="evenodd" fill="#FFFFFF" d="M-333.338,494.347c-6.95,1.153-13.129,2.178-19.966,3.313
		c-0.3-2.711-0.561-5.063-0.866-7.815c6.323-1.079,12.319-2.102,18.993-3.24C-334.616,488.963-334.065,491.281-333.338,494.347z"/>
	<path fill-rule="evenodd" clip-rule="evenodd" fill="#FFFFFF" d="M-513.981,440.851c-0.698,0.784-2.212,2.487-4.06,4.565
		c-4.676-5.043-9.108-9.824-13.749-14.829c1.298-1.206,2.963-2.754,4.802-4.463C-522.693,430.987-518.568,435.657-513.981,440.851z"
		/>
	<path fill-rule="evenodd" clip-rule="evenodd" fill="#FFFFFF" d="M-225.651,422.508c4.183-5.245,7.987-10.017,12.105-15.182
		c2.041,1.445,3.981,2.818,6.435,4.556c-4.227,5.32-8.196,10.315-12.574,15.826C-221.757,425.901-223.545,424.345-225.651,422.508z"
		/>
	<path fill-rule="evenodd" clip-rule="evenodd" fill="#FFFFFF" d="M-236.528,444.728c-5.341,4.369-10.293,8.422-15.565,12.734
		c-1.743-2.337-3.178-4.264-4.687-6.288c4.993-4.104,9.707-7.979,15.181-12.478C-240.083,440.5-238.543,442.33-236.528,444.728z"/>
	<path fill-rule="evenodd" clip-rule="evenodd" fill="#FFFFFF" d="M-223.651,147.169c-1.222,1.101-2.926,2.636-4.581,4.127
		c-4.278-4.711-8.461-9.316-13.151-14.479c0.583-0.672,2.145-2.468,3.917-4.507C-232.839,137.286-228.403,142.058-223.651,147.169z"
		/>
	<path fill-rule="evenodd" clip-rule="evenodd" fill="#FFFFFF" d="M-225.871,424.585c1.249,1.131,2.929,2.654,4.96,4.494
		c-4.912,4.77-9.504,9.229-14.47,14.053c-1.625-1.751-3.237-3.484-4.916-5.293C-235.444,433.38-230.874,429.182-225.871,424.585z"/>
	<path fill-rule="evenodd" clip-rule="evenodd" fill="#FFFFFF" d="M-399.042,497.97c-6.915-1.03-13.219-1.969-20.011-2.979
		c0.504-2.706,0.914-4.907,1.419-7.622c6.37,0.896,12.489,1.759,19.108,2.692C-398.687,492.535-398.832,494.764-399.042,497.97z"/>
	<path fill-rule="evenodd" clip-rule="evenodd" fill="#FFFFFF" d="M-419.356,486.925c-0.579,2.695-1.057,4.92-1.647,7.666
		c-6.552-1.686-12.719-3.271-19.357-4.979c0.746-2.713,1.338-4.868,2.093-7.617C-431.878,483.66-425.755,485.257-419.356,486.925z"
		/>
	<path fill-rule="evenodd" clip-rule="evenodd" fill="#FFFFFF" d="M-562.683,187.652c2.801,1.553,4.81,2.667,7.14,3.959
		c-2.525,5.129-4.916,9.983-7.554,15.34c-2.393-0.994-4.601-1.912-7.517-3.123C-567.925,198.343-565.411,193.215-562.683,187.652z"
		/>
	<path fill-rule="evenodd" clip-rule="evenodd" fill="#FFFFFF" d="M-292.829,95.968c5.663,2.801,10.649,5.267,16.08,7.953
		c-1.358,2.484-2.507,4.587-3.88,7.098c-5.176-2.532-10.125-4.953-15.467-7.566C-295.027,101.003-294.074,98.819-292.829,95.968z"/>
	<path fill-rule="evenodd" clip-rule="evenodd" fill="#FFFFFF" d="M-502.35,118.853c5.153-3.441,9.82-6.556,14.923-9.962
		c1.507,2.432,2.771,4.473,4.246,6.853c-4.808,3.243-9.312,6.281-14.252,9.613C-498.973,123.318-500.434,121.387-502.35,118.853z"/>
	<path fill-rule="evenodd" clip-rule="evenodd" fill="#FFFFFF" d="M-168.262,266.228c0.319,6.095,0.608,11.614,0.894,17.055
		c-7.369,2.173-8.03,1.727-8.319-5.194c-0.137-3.297-0.312-6.593-0.51-10.742C-173.933,267.028-171.521,266.688-168.262,266.228z"/>
	<path fill-rule="evenodd" clip-rule="evenodd" fill="#FFFFFF" d="M-465.896,97.389c1.227,2.585,2.256,4.756,3.49,7.357
		c-5.022,2.574-9.784,5.014-14.833,7.601c-1.352-2.328-2.561-4.409-4.071-7.01C-476.075,102.637-471.186,100.117-465.896,97.389z"/>
	<path fill-rule="evenodd" clip-rule="evenodd" fill="#FFFFFF" d="M-274.375,114.581c1.529-2.551,2.716-4.531,4.158-6.937
		c4.889,3.2,9.554,6.252,14.508,9.494c-1.754,2.439-3.174,4.414-4.712,6.554C-265.151,120.602-269.559,117.725-274.375,114.581z"/>
	<path fill-rule="evenodd" clip-rule="evenodd" fill="#FFFFFF" d="M-399.556,87.5c-0.411-2.79-0.725-4.916-1.178-7.994
		c5.871-0.423,11.545-0.832,17.674-1.274c0,2.87,0,5.249,0,8.021C-388.399,86.657-393.787,87.064-399.556,87.5z"/>
	<path fill-rule="evenodd" clip-rule="evenodd" fill="#FFFFFF" d="M-197.618,179.505c-2.624,1.595-4.579,2.785-6.857,4.17
		c-3.184-4.734-6.273-9.33-9.599-14.274c2.102-1.569,4.022-3.002,6.417-4.789C-204.281,169.621-201.101,174.338-197.618,179.505z"/>
	<path fill-rule="evenodd" clip-rule="evenodd" fill="#FFFFFF" d="M-579.185,310.398c-2.671,0.382-4.911,0.702-8.033,1.148
		c-0.354-6.089-0.682-11.753-1.031-17.772c2.863,0,5.111,0,7.97,0C-579.929,299.091-579.576,304.46-579.185,310.398z"/>
	<path fill-rule="evenodd" clip-rule="evenodd" fill="#FFFFFF" d="M-192.447,370.588c2.324,1.013,4.39,1.913,7.21,3.142
		c-2.669,5.456-5.215,10.66-7.898,16.146c-2.527-1.423-4.518-2.545-6.93-3.902C-197.532,380.858-195.077,375.9-192.447,370.588z"/>
	<path fill-rule="evenodd" clip-rule="evenodd" fill="#FFFFFF" d="M-543.052,171.706c-3.228,4.958-6.096,9.364-9.102,13.979
		c-2.34-1.348-4.439-2.558-7.015-4.042c3.106-4.857,6.005-9.391,9.356-14.633C-547.526,168.598-545.483,170.017-543.052,171.706z"/>
	<path fill-rule="evenodd" clip-rule="evenodd" fill="#FFFFFF" d="M-478.896,473.242c1.41-2.518,2.583-4.612,3.892-6.95
		c5.235,2.584,10.08,4.975,15.371,7.585c-1.001,2.337-1.934,4.516-3.115,7.275C-468.285,478.441-473.408,475.932-478.896,473.242z"
		/>
	<path fill-rule="evenodd" clip-rule="evenodd" fill="#FFFFFF" d="M-541.331,408.141c-2.105,1.606-4.023,3.07-6.349,4.845
		c-3.42-5.08-6.609-9.817-9.986-14.834c2.405-1.512,4.337-2.727,6.703-4.213C-547.744,398.685-544.631,403.275-541.331,408.141z"/>
	<path fill-rule="evenodd" clip-rule="evenodd" fill="#FFFFFF" d="M-253.543,458.477c-4.987,3.339-9.74,6.52-14.839,9.934
		c-1.462-2.362-2.718-4.389-4.132-6.673c4.85-3.247,9.334-6.247,14.282-9.56C-256.717,454.212-255.293,456.126-253.543,458.477z"/>
	<path fill-rule="evenodd" clip-rule="evenodd" fill="#FFFFFF" d="M-168.093,308.586c-3.108-0.437-5.333-0.749-7.901-1.11
		c0.279-5.57,0.541-10.792,0.815-16.276c2.704,0,4.933,0,7.914,0C-167.536,296.896-167.798,302.401-168.093,308.586z"/>
	<path fill-rule="evenodd" clip-rule="evenodd" fill="#FFFFFF" d="M-561.908,373.138c2.631,5.174,5.002,9.836,7.57,14.887
		c-2.304,1.327-4.385,2.526-6.917,3.985c-2.673-5.183-5.15-9.986-7.885-15.29C-566.774,375.548-564.625,374.483-561.908,373.138z"/>
	<path fill-rule="evenodd" clip-rule="evenodd" fill="#FFFFFF" d="M-194.158,185.542c2.714,5.3,5.185,10.125,7.918,15.461
		c-2.554,1.201-4.737,2.228-7.245,3.407c-2.508-4.854-4.925-9.534-7.612-14.737C-198.993,188.422-196.927,187.191-194.158,185.542z"
		/>
	<path fill-rule="evenodd" clip-rule="evenodd" fill="#FFFFFF" d="M-372.654,491.049c5.411-0.348,10.682-0.687,16.51-1.062
		c0.312,2.321,0.629,4.688,1.045,7.789c-5.963,0.386-11.527,0.745-17.555,1.136C-372.654,496.209-372.654,493.995-372.654,491.049z"
		/>
	<path fill-rule="evenodd" clip-rule="evenodd" fill="#FFFFFF" d="M-358.495,79.058c-0.194,2.906-0.344,5.157-0.506,7.589
		c-5.725,0-10.813,0-16.319,0c0-2.792,0-5.147,0-7.589"/>
	<path fill-rule="evenodd" clip-rule="evenodd" fill="#FFFFFF" d="M-212.518,405.856c3.156-4.869,5.923-9.139,8.984-13.863
		c2.168,1.208,4.245,2.364,6.907,3.847c-3.134,4.867-6.11,9.486-9.396,14.587C-208.298,408.825-210.237,407.461-212.518,405.856z"/>
	<path fill-rule="evenodd" clip-rule="evenodd" fill="#FFFFFF" d="M-499.516,460.309c1.681-2.374,3.071-4.335,4.591-6.481
		c4.796,3.115,9.193,5.971,13.924,9.044c-1.284,2.245-2.47,4.322-3.949,6.909C-489.93,466.542-494.559,463.532-499.516,460.309z"/>
	<path fill-rule="evenodd" clip-rule="evenodd" fill="#FFFFFF" d="M-580.174,286.336c-2.786,0-5.053,0-8.128,0
		c0.243-5.513,0.484-10.991,0.745-16.925c2.768,0.158,5.008,0.286,7.383,0.422C-580.174,275.466-580.174,280.791-580.174,286.336z"
		/>
	<path fill-rule="evenodd" clip-rule="evenodd" fill="#FFFFFF" d="M-397.244,498.086c0.221-2.764,0.39-4.872,0.57-7.113
		c5.489,0,10.847,0,16.486,0c0,2.745,0,4.962,0,7.113C-385.922,498.086-391.424,498.086-397.244,498.086z"/>
	<path fill-rule="evenodd" clip-rule="evenodd" fill="#FFFFFF" d="M-293.27,472.743c5.024-2.571,9.695-4.962,14.842-7.597
		c1.287,2.273,2.464,4.353,3.873,6.841c-5.202,2.672-10.029,5.151-15.364,7.893C-291.083,477.4-292.093,475.25-293.27,472.743z"/>
	<path fill-rule="evenodd" clip-rule="evenodd" d="M-521.848,384.053c0,1.504,0.046,2.483-0.008,3.456
		c-0.349,6.391-5.155,9.417-10.663,6.166c-8.152-4.811-12.338-12.508-12.985-21.786c-0.389-5.564,4.17-8.039,9.13-5.503
		c1.304,0.666,2.504,1.537,4.188,2.586c-0.167-2.47-0.536-4.539-0.403-6.576c0.392-6.043,4.968-8.741,10.536-6.361
		c7.848,3.355,16.124,17.328,15.287,25.812c-0.5,5.065-4.523,7.605-9.259,5.659C-517.829,386.764-519.422,385.515-521.848,384.053z
		 M-510.729,376.566c-1.079-5.679-3.806-11.425-9.57-15.201c-2.595-1.701-5.24-1.283-6.445,1.994
		c-1.886,5.127,3.597,17.086,8.659,19.206C-514.066,384.25-510.811,382.019-510.729,376.566z M-526.962,385.924
		c-1.523-5.772-1.6-11.698-7.353-14.465c-1.565-0.751-4.185-0.994-5.47-0.16c-1.242,0.807-2.4,3.791-1.833,4.969
		c2.091,4.336,4.736,8.449,7.593,12.338c0.668,0.909,3.218,1.199,4.473,0.697C-528.342,388.818-527.688,386.944-526.962,385.924z"/>
	<path fill-rule="evenodd" clip-rule="evenodd" d="M-385.067,474.335c8.304,4.209,19.45-1.247,18.437-11.155
		c-4.23,0.864-8.46,1.791-12.718,2.555c-1.113,0.199-2.326-0.037-3.476-0.196c-6.603-0.91-11.5-5.253-11.735-10.36
		c-0.238-5.179,3.511-9.128,10.407-10.964c11.537-3.072,21.623,1.146,24.476,10.236c3.712,11.832-3.833,22.879-16.968,23.612
		c-4.671,0.26-9.568-1.766-14.154-3.349c-0.794-0.274-0.55-3.556-0.785-5.448c2.271,0.019,4.543,0.038,6.814,0.058
		C-384.865,470.925-384.96,472.526-385.067,474.335z M-376.692,446.384c-6.62-0.064-10.454,2.806-10.558,7.904
		c-0.103,5.081,3.549,8.237,9.644,8.334c6.741,0.107,10.905-3.044,10.844-8.204C-366.822,449.368-370.436,446.445-376.692,446.384z"
		/>
	<path fill-rule="evenodd" clip-rule="evenodd" d="M-548.723,279.845c3.766,6.281,4.982,12.511,2.743,19.055
		c-1.579,4.615-4.161,8.426-9.693,8.694c-4.728,0.228-8.968-2.696-10.188-8.502c-1.061-5.049-1.436-10.569-0.574-15.619
		c1.278-7.497,8.395-11.932,16.426-11.565c8.813,0.403,16.256,6.506,16.911,15.317c0.388,5.231-1.063,10.69-2.353,15.882
		c-0.271,1.091-3.452,1.459-5.293,2.16c-0.584-1.909-2.106-4.251-1.483-5.603c0.594-1.286,3.428-1.539,6.147-2.58
		C-532.807,287.51-537.709,279.699-548.723,279.845z M-564.639,289.908c-0.061,6.219,3.289,10.529,8.211,10.564
		c4.954,0.035,8.33-3.881,8.444-9.796c0.12-6.192-3.158-10.678-7.948-10.874C-560.935,279.596-564.58,283.827-564.639,289.908z"/>
	<path fill-rule="evenodd" clip-rule="evenodd" d="M-503.98,192.851c-0.181,10.689-9.505,20.697-19.195,20.602
		c-9.5-0.094-17.473-8.206-17.33-17.631c0.162-10.662,9.559-20.46,19.427-20.259C-511.675,175.754-503.826,183.691-503.98,192.851z
		 M-519.146,207.546c6.092-0.041,11.374-5.502,11.301-11.687c-0.081-6.953-9.003-14.365-17.292-14.366
		c-6.333-0.001-11.489,5.043-11.563,11.312C-536.784,199.825-527.523,207.602-519.146,207.546z"/>
	<path fill-rule="evenodd" clip-rule="evenodd" d="M-276.202,442.116c-0.879-2.014-1.725-3.95-2.654-6.078
		c-2.987,2.371-5.394,5.094-8.413,6.479c-4.116,1.891-8.658,3.653-13.092,3.861c-6.396,0.3-10.811-6.324-9.28-12.515
		c2.028-8.197,16.483-17.624,24.795-16.039c1.395,0.266,3.396,0.946,3.807,1.965c0.681,1.688,1.076,4.436,0.154,5.571
		c-1.036,1.276-3.664,1.261-5.6,1.807c-0.291-1.813-0.582-3.626-0.927-5.78c-5.545-1.188-14.556,4.34-15.997,10.587
		c-1.208,5.235,2.787,10.035,8.369,9.771c5.731-0.27,9.912-3.389,13.295-7.813c1.143-1.493,2.478-2.842,4.203-4.801
		c2.645,5.809,4.892,10.744,6.946,15.255c-8.322,4.865-16.287,9.521-24.65,14.409C-292.6,449.04-283.298,446.896-276.202,442.116z"
		/>
	<path fill-rule="evenodd" clip-rule="evenodd" d="M-251.685,195.155c4.609-3.627,9.361-2.735,13.754,0.163
		c4.013,2.648,7.635,5.892,11.408,8.901c2.772,2.21,5.716,3.769,9.047,1.339c3.243-2.365,3.047-5.665,1.813-9.019
		c-1.719-4.671-4.329-8.522-9.263-10.117c-0.477,0.479-0.79,0.656-0.89,0.916c-0.637,1.655-1.227,3.329-1.832,4.996
		c-1.596-1.186-4.115-2.122-4.526-3.63c-0.4-1.475,0.892-4.327,2.277-5.126c1.559-0.9,4.246-0.726,6.106-0.069
		c7.662,2.706,14.387,14.759,13.044,22.808c-1.032,6.182-7.548,9.07-12.997,5.369c-3.408-2.316-6.187-5.541-9.377-8.201
		c-2.975-2.479-6.12-4.753-10.067-7.793c2.363,6.456,4.121,11.548,6.093,16.558c1.541,3.913,3.438,7.484,8.826,5.418
		c0.591-0.227,1.573,0.564,2.374,0.883c-0.54,0.703-0.932,1.667-1.642,2.064c-5.261,2.951-11.513,0.624-13.861-5.479
		c-1.177-3.06-1.5-6.457-2.137-9.716c-0.778-3.987-1.275-8.145-6.849-8.096c-0.333,0.003-0.719-0.626-0.99-1.023
		C-251.544,196.047-251.55,195.681-251.685,195.155z"/>
	<path fill-rule="evenodd" clip-rule="evenodd" d="M-375.644,104.793c1.239,2.729,2.041,4.496,2.843,6.261
		c-1.93,0.533-4.372,2.03-5.655,1.348c-1.513-0.804-3.179-3.896-2.702-5.278c0.773-2.24,2.895-4.569,5.054-5.674
		c6.879-3.517,14.152-3.456,21.229-0.45c3.532,1.5,6.108,4.143,5.98,8.396c-0.125,4.163-2.505,6.831-6.242,8.17
		c-4.062,1.456-8.282,2.468-12.348,3.913c-2.922,1.038-5.706,2.467-9.854,4.296c7.563,1.213,13.599,2.331,19.679,3.096
		c3.269,0.412,5.852-0.782,6.703-4.479c0.213-0.927,1.191-1.678,2.318-3.174c1.219,7.625-1.98,12.446-8.1,12.465
		c-3.691,0.011-7.489-1.176-11.054-2.374c-4.481-1.505-8.757-3.536-12.324,1.563c-0.158,0.226-0.921,0.029-1.909,0.029
		c-0.845-5.354,1.711-9.021,5.974-11.309c4.367-2.345,9.099-4.032,13.733-5.847c3.414-1.336,6.738-2.834,6.383-7.171
		c-0.369-4.495-3.979-5.859-7.737-6.473C-368.422,101.328-372.913,101.896-375.644,104.793z"/>
	<path fill-rule="evenodd" clip-rule="evenodd" d="M-217.695,276.233c-3.217,5.328-3.14,11.417-0.884,17.273
		c0.771,2,3.888,4.464,5.747,4.319c2.146-0.167,4.626-2.643,5.95-4.75c1.124-1.791,0.745-4.497,1.161-6.773
		c0.188-1.026,0.691-1.995,1.051-2.99c0.436,0.067,0.872,0.135,1.308,0.202c0.464,3,0.488,6.166,1.546,8.938
		c0.706,1.848,2.926,4.402,4.394,4.354c1.917-0.063,5.13-2.175,5.376-3.775c0.724-4.714,0.258-9.612,0.258-14.52
		c-2.707,0.605-4.406,1.269-6.079,1.208c-0.597-0.022-1.696-1.883-1.568-2.761c0.242-1.667,0.794-3.944,1.985-4.623
		c1.079-0.615,4.102,0.042,4.66,1.039c1.905,3.397,4.038,7.118,4.331,10.854c0.378,4.817-0.326,9.958-1.781,14.577
		c-0.697,2.212-4.11,4.733-6.45,4.898c-1.926,0.136-4.133-2.939-6.107-4.713c-0.55-0.495-0.712-1.419-1.085-2.217
		c-0.408,0.266-0.766,0.365-0.822,0.555c-1.252,4.186-3.025,8.125-8.139,8.074c-5.272-0.053-7.33-4.249-8.581-8.455
		c-2.286-7.676-2.749-15.493,1.402-22.723c1.093-1.904,3.52-3.463,5.663-4.138c0.854-0.269,3.355,2.103,3.722,3.61
		c0.36,1.479-1.038,3.385-1.665,5.104C-213.871,278.052-215.438,277.307-217.695,276.233z"/>
	<path fill-rule="evenodd" clip-rule="evenodd" d="M-224.773,353.758c4.344,4.426,9.009,32.877,6.233,36.868
		c-5.86-3.295-11.75-6.607-17.673-9.938c-1.892,2.609-3.615,4.987-5.337,7.365c-0.537-0.299-1.073-0.598-1.61-0.896
		c1.132-2.664,2.264-5.328,3.39-7.981c-6.155-6.983-7.563,1.814-11.113,3.873c-0.389-4.644,9.073-20.68,12.581-21.453
		c-0.26,4.022-7.437,9.298,2.31,11.607C-232.428,367.023-228.734,360.623-224.773,353.758z M-233.521,375.163
		c4.397,2.454,8.304,4.634,13.151,7.339c-1.612-7.797-2.973-14.384-4.587-22.195C-228.082,365.726-230.604,370.103-233.521,375.163z
		"/>
	<path fill-rule="evenodd" clip-rule="evenodd" d="M-449.198,450.223c-2.06,3.576-4.12,7.151-6.783,11.774
		c-1.267-2.052-2.084-3.376-3.313-5.367c-5.757,1.143-10.563-2.469-14.978-7.035c-2.634-2.724-5.133-5.798-9.724-4.511
		c-0.508,0.143-1.309-0.755-2.788-1.679c10.434-7.183,25.658-6.177,30.242-20.394c1.225,0.452,1.869,0.606,2.428,0.913
		c1.159,0.636,2.273,1.354,3.82,2.287c-2.2,5.354-5.584,9.544-10.939,11.545c-4.926,1.841-10.119,2.967-15.423,4.472
		c4.261,3.189,8.183,6.326,12.311,9.161c4.517,3.103,6.922,2.603,10.916-1.354c0.865-0.857,2.36-1.079,3.564-1.594
		C-449.643,449.036-449.42,449.629-449.198,450.223z"/>
	<path fill-rule="evenodd" clip-rule="evenodd" d="M-399.694,107.74c-3.682-0.185-6.814-0.342-9.946-0.5
		c-0.001-0.308-0.002-0.616-0.003-0.924c5.054-2.263,10.107-4.526,16.223-7.264c0,5.883-0.012,11.261,0.005,16.639
		c0.007,2.16,0.091,4.318,0.117,6.478c0.095,7.792,0.092,7.784,7.705,8.387c0.585,0.047,1.15,0.343,1.853,0.563
		c-2.635,2.739-22.7,3.082-26.819-0.043c2.809-0.21,4.934,0.013,6.761-0.622c1.547-0.538,3.852-2.002,3.921-3.171
		C-399.493,120.873-399.694,114.427-399.694,107.74z"/>
	<path fill-rule="evenodd" clip-rule="evenodd" d="M-545.163,216.41c-1.651,2.539-3.168,4.899-4.734,7.226
		c-0.117,0.174-0.587,0.11-1.076,0.186c0.523-5.719,1.04-11.362,1.614-17.644c7.283,4.109,14.062,7.923,20.83,11.757
		c6.399,3.625,6.387,3.63,10.296-2.477c0.412-0.644,0.955-1.203,1.541-1.929c1.57,3.306-8.522,21.567-12.735,23.146
		c0.059-0.737-0.06-1.389,0.174-1.869c3.867-7.955,3.876-7.949-3.659-12.153c-3.632-2.026-7.258-4.062-10.9-6.068
		C-544.077,216.438-544.453,216.494-545.163,216.41z"/>
	<path fill-rule="evenodd" clip-rule="evenodd" d="M-483.017,129.765c4.759,8.073,8.699,14.782,12.666,21.476
		c3.575,6.031,3.579,6.001,9.785,3.168c0.872-0.397,1.895-0.465,2.847-0.684c0.238,0.531,0.475,1.063,0.712,1.596
		c-7.443,4.372-14.886,8.745-22.33,13.117c-0.425-0.653-0.85-1.306-1.275-1.959c1.612-1.109,3.162-2.324,4.849-3.304
		c2.646-1.538,3.349-3.344,1.639-6.114c-3.134-5.078-6.092-10.264-9.438-15.938c-2.948,1.652-5.72,3.207-8.492,4.76
		c-0.372-0.413-0.744-0.826-1.116-1.239c1.981-2.009,4.268-3.805,5.856-6.086C-485.692,136.229-484.757,133.423-483.017,129.765z"/>
	<path fill-rule="evenodd" clip-rule="evenodd" d="M-290.786,130.31c-2.969-1.904-5.647-3.623-8.325-5.341
		c0.153-0.257,0.306-0.515,0.458-0.773c5.642,0.535,11.284,1.07,17.563,1.666c-4.135,7.295-7.979,14.07-11.816,20.85
		c-3.485,6.159-3.472,6.148,2.214,9.973c0.746,0.503,1.353,1.213,2.211,1.997c-3.399,0.859-19.777-7.883-22.888-12.98
		c1.723,0.703,3.534,1.246,5.149,2.143c2.873,1.595,4.885,1.251,6.53-1.818C-296.875,140.774-293.826,135.647-290.786,130.31z"/>
	<path fill-rule="evenodd" clip-rule="evenodd" d="M-459.69,127.239c-3.202,1.707-5.974,3.185-8.745,4.662
		c-0.151-0.303-0.301-0.606-0.452-0.909c3.263-4.6,6.526-9.201,10.199-14.378c4.271,7.257,8.231,13.935,12.14,20.641
		c3.614,6.202,3.585,6.206,10.185,2.967c0.68-0.334,1.466-0.452,2.367-0.718c-0.939,4.014-18.942,14.489-22.404,13.319
		c0.064-0.301,0.032-0.733,0.221-0.88c7.626-5.929,7.627-5.924,2.621-14.343C-455.507,134.324-457.442,131.04-459.69,127.239z"/>
	<path fill-rule="evenodd" clip-rule="evenodd" fill="#FFFFFF" d="M-510.729,376.566c-0.082,5.452-3.336,7.684-7.356,5.999
		c-5.062-2.12-10.545-14.079-8.659-19.206c1.206-3.277,3.85-3.695,6.445-1.994C-514.535,365.142-511.808,370.888-510.729,376.566z"
		/>
	<path fill-rule="evenodd" clip-rule="evenodd" fill="#FFFFFF" d="M-526.962,385.924c-0.726,1.021-1.38,2.895-2.59,3.379
		c-1.254,0.502-3.805,0.212-4.473-0.697c-2.857-3.889-5.502-8.002-7.593-12.338c-0.568-1.178,0.591-4.162,1.833-4.969
		c1.285-0.834,3.905-0.591,5.47,0.16C-528.562,374.226-528.485,380.151-526.962,385.924z"/>
	<path fill-rule="evenodd" clip-rule="evenodd" fill="#FFFFFF" d="M-376.692,446.384c6.257,0.062,9.871,2.984,9.931,8.034
		c0.061,5.16-4.104,8.312-10.844,8.204c-6.095-0.097-9.747-3.253-9.644-8.334C-387.146,449.189-383.312,446.319-376.692,446.384z"/>
	<path fill-rule="evenodd" clip-rule="evenodd" fill="#FFFFFF" d="M-564.639,289.908c0.059-6.082,3.704-10.312,8.707-10.106
		c4.79,0.196,8.068,4.682,7.948,10.874c-0.114,5.916-3.49,9.832-8.444,9.796C-561.35,300.438-564.699,296.127-564.639,289.908z"/>
	<path fill-rule="evenodd" clip-rule="evenodd" fill="#FFFFFF" d="M-519.146,207.546c-8.377,0.055-17.638-7.722-17.555-14.741
		c0.075-6.269,5.23-11.313,11.563-11.312c8.29,0.001,17.211,7.413,17.292,14.366C-507.773,202.044-513.055,207.506-519.146,207.546z
		"/>
	<path fill-rule="evenodd" clip-rule="evenodd" fill="#FFFFFF" d="M-233.521,375.163c2.917-5.061,5.44-9.438,8.564-14.856
		c1.614,7.812,2.976,14.398,4.587,22.195C-225.218,379.797-229.124,377.617-233.521,375.163z"/>
</g>
<g opacity="0.4">
	<path fill-rule="evenodd" clip-rule="evenodd" fill="#040404" d="M236.239,452.338c-0.096,3.6-3.145,6.547-6.771,6.547
		c-3.691,0.002-7.029-3.457-6.824-7.066c0.189-3.311,3.751-6.51,7.08-6.357C233.175,445.617,236.329,448.947,236.239,452.338z"/>
	<path fill-rule="evenodd" clip-rule="evenodd" fill="#060606" d="M445.509,229.051c0.241-3.469,3.627-6.559,7.021-6.407
		c3.761,0.168,6.718,3.624,6.337,7.405c-0.369,3.658-3.607,6.444-7.127,6.132C448.198,235.866,445.267,232.513,445.509,229.051z"/>
	<path fill-rule="evenodd" clip-rule="evenodd" fill="#040404" d="M13.412,229.301c0.099,3.394-3.061,6.773-6.473,6.924
		c-3.505,0.154-6.695-2.793-6.928-6.4c-0.225-3.482,2.729-6.936,6.139-7.18C9.712,222.39,13.306,225.684,13.412,229.301z"/>
	<path fill-rule="evenodd" clip-rule="evenodd" fill="#040404" d="M124.642,422.404c-0.024,3.756-2.781,6.611-6.492,6.721
		c-3.517,0.104-6.659-2.922-6.752-6.504c-0.098-3.75,3.139-7.086,6.814-7.029C121.729,415.648,124.665,418.758,124.642,422.404z"/>
	<path fill-rule="evenodd" clip-rule="evenodd" fill="#050505" d="M36.672,111.378c3.541,0.063,6.614,3.168,6.612,6.681
		c-0.002,3.549-3.017,6.482-6.716,6.535c-3.908,0.056-7.034-3.088-6.84-6.877C29.91,114.176,33.047,111.313,36.672,111.378z"/>
	<path fill-rule="evenodd" clip-rule="evenodd" fill="#050505" d="M422.308,111.388c3.673-0.044,6.805,2.847,6.91,6.379
		c0.113,3.816-2.998,6.883-6.919,6.819c-3.667-0.06-6.71-3.049-6.688-6.57C415.632,114.505,418.738,111.431,422.308,111.388z"/>
	<path fill-rule="evenodd" clip-rule="evenodd" fill="#040404" d="M347.493,422.404c-0.027,3.676-2.904,6.627-6.549,6.715
		c-3.824,0.094-6.773-3.033-6.633-7.029c0.127-3.617,3.248-6.641,6.728-6.514C344.614,415.705,347.521,418.781,347.493,422.404z"/>
	<path fill-rule="evenodd" clip-rule="evenodd" fill="#050505" d="M124.632,36.414c0.018,3.702-2.875,6.789-6.413,6.844
		c-3.778,0.059-6.907-3.156-6.81-6.999c0.09-3.537,3.264-6.657,6.721-6.606C121.728,29.706,124.614,32.707,124.632,36.414z"/>
	<path fill-rule="evenodd" clip-rule="evenodd" fill="#050505" d="M341.021,43.239c-3.581,0.094-6.597-2.828-6.704-6.496
		c-0.113-3.835,2.492-6.803,6.148-7.003c3.799-0.208,7.022,2.861,7.039,6.699C347.521,40.01,344.528,43.148,341.021,43.239z"/>
	<path fill-rule="evenodd" clip-rule="evenodd" fill="#040404" d="M229.276,13.369c-3.44-0.124-6.607-3.39-6.6-6.807
		c0.007-3.685,3.443-6.794,7.235-6.548c3.655,0.238,6.532,3.399,6.323,6.946C236.03,10.46,232.737,13.493,229.276,13.369z"/>
	<path fill-rule="evenodd" clip-rule="evenodd" fill="#040404" d="M422.204,334.283c3.834-0.102,6.762,2.516,6.943,6.205
		c0.186,3.785-2.928,6.988-6.779,6.977c-3.596-0.01-6.695-3.008-6.75-6.527C415.564,337.421,418.573,334.38,422.204,334.283z"/>
	<path fill-rule="evenodd" clip-rule="evenodd" fill="#050505" d="M36.56,334.285c3.716,0.041,6.685,2.908,6.728,6.498
		c0.045,3.66-3.332,6.838-7.098,6.68c-3.609-0.15-6.553-3.254-6.455-6.803C29.834,337.042,32.828,334.246,36.56,334.285z"/>
	<path fill-rule="evenodd" clip-rule="evenodd" fill="#1B1B1B" d="M412.513,98.573c-0.305,1.726-1.227,2.848-3.021,2.669
		c-1.773-0.177-2.633-1.475-2.49-3.157c0.128-1.51,1.247-2.414,2.738-2.381C411.488,95.741,412.411,96.834,412.513,98.573z"/>
	<path fill-rule="evenodd" clip-rule="evenodd" fill="#242424" d="M441.306,163.392c-1.719-0.255-2.742-1.222-2.742-2.924
		c0.001-1.803,1.264-2.677,2.881-2.663c1.699,0.014,2.795,1.167,2.716,2.849C444.084,162.276,443.033,163.304,441.306,163.392z"/>
	<path fill-rule="evenodd" clip-rule="evenodd" fill="#2B2B2B" d="M163.466,441.416c-0.268,1.693-1.28,2.771-2.945,2.717
		c-1.658-0.053-2.796-1.115-2.66-2.889c0.127-1.65,1.075-2.807,2.875-2.727C162.487,438.594,163.325,439.713,163.466,441.416z"/>
	<path fill-rule="evenodd" clip-rule="evenodd" fill="#292929" d="M17.686,163.394c-1.809-0.079-2.814-1.064-2.938-2.75
		c-0.133-1.826,1.086-2.783,2.715-2.851c1.68-0.071,2.848,1.004,2.908,2.698C20.434,162.193,19.353,163.167,17.686,163.394z"/>
	<path fill-rule="evenodd" clip-rule="evenodd" fill="#1F1F1F" d="M441.442,295.441c1.752,0.225,2.727,1.332,2.697,2.936
		c-0.029,1.66-1.188,2.789-2.873,2.646c-1.545-0.131-2.811-1.049-2.71-2.857C438.653,296.425,439.829,295.65,441.442,295.441z"/>
	<path fill-rule="evenodd" clip-rule="evenodd" fill="#1E1E1E" d="M17.689,295.431c1.699,0.184,2.67,1.262,2.646,2.883
		c-0.025,1.693-1.221,2.693-2.887,2.648c-1.67-0.047-2.82-1.084-2.713-2.811C14.839,296.511,15.953,295.572,17.689,295.431z"/>
	<path fill-rule="evenodd" clip-rule="evenodd" fill="#252525" d="M163.437,17.629c-0.185,1.736-1.252,2.7-2.897,2.692
		c-1.736-0.008-2.732-1.254-2.688-2.877c0.045-1.613,1.037-2.819,2.834-2.693C162.349,14.867,163.346,15.861,163.437,17.629z"/>
	<path fill-rule="evenodd" clip-rule="evenodd" fill="#151515" d="M450.297,182.703c-0.235,1.828-0.989,3.008-2.804,3.04
		c-1.793,0.032-2.837-1.054-2.867-2.731c-0.027-1.467,1-2.442,2.485-2.614C448.907,180.189,449.768,181.34,450.297,182.703z"/>
	<path fill-rule="evenodd" clip-rule="evenodd" fill="#242424" d="M381.394,394.778c-0.144,1.699-0.982,2.814-2.749,2.898
		c-1.821,0.086-2.858-1.074-2.868-2.725c-0.009-1.361,0.799-2.527,2.432-2.632C379.972,392.205,380.996,393.078,381.394,394.778z"/>
	<path fill-rule="evenodd" clip-rule="evenodd" fill="#191919" d="M185.8,11.617c-0.242,1.646-1.078,2.832-2.885,2.608
		c-1.646-0.203-2.684-1.25-2.483-3.065c0.171-1.541,1.219-2.428,2.651-2.423C184.79,8.742,185.767,9.795,185.8,11.617z"/>
	<path fill-rule="evenodd" clip-rule="evenodd" fill="#242424" d="M278.548,11.433c-0.097,1.79-1.07,2.786-2.813,2.797
		c-1.53,0.009-2.495-0.928-2.604-2.448c-0.125-1.723,0.718-2.955,2.506-3.048C277.38,8.643,278.351,9.694,278.548,11.433z"/>
	<path fill-rule="evenodd" clip-rule="evenodd" fill="#171717" d="M301.017,17.106c-0.098,1.839-0.828,3.15-2.613,3.167
		c-1.642,0.016-2.856-0.914-2.855-2.746c0.002-1.522,0.918-2.596,2.363-2.746C299.565,14.61,300.739,15.475,301.017,17.106z"/>
	<path fill-rule="evenodd" clip-rule="evenodd" fill="#181818" d="M83.159,394.735c-0.134,1.703-0.884,2.85-2.692,2.918
		c-1.801,0.066-2.853-1.002-2.868-2.68c-0.013-1.384,0.788-2.498,2.4-2.621C81.753,392.22,82.78,393.052,83.159,394.735z"/>
	<path fill-rule="evenodd" clip-rule="evenodd" fill="#1E1E1E" d="M392.366,378.361c0.121-1.814,1.254-2.68,2.92-2.59
		c1.475,0.078,2.385,1.09,2.416,2.627c0.036,1.797-1.075,2.852-2.711,2.902C393.224,381.357,392.411,380.105,392.366,378.361z"/>
	<path fill-rule="evenodd" clip-rule="evenodd" fill="#111111" d="M98.519,46.405c1.763,0.111,2.747,1.177,2.787,2.844
		c0.037,1.534-1.094,2.474-2.529,2.558c-1.643,0.095-3.068-0.704-3.061-2.519C95.724,47.687,96.655,46.496,98.519,46.405z"/>
	<path fill-rule="evenodd" clip-rule="evenodd" fill="#151515" d="M360.356,51.826c-1.698-0.25-2.875-1.113-2.678-2.899
		c0.15-1.362,0.945-2.496,2.578-2.501c1.782-0.005,2.867,1.024,2.948,2.688C363.292,50.899,362.034,51.686,360.356,51.826z"/>
	<path fill-rule="evenodd" clip-rule="evenodd" fill="#151515" d="M83.168,64.048c-0.371,1.797-1.425,2.671-3.177,2.456
		c-1.804-0.222-2.582-1.493-2.373-3.144c0.191-1.504,1.354-2.211,2.857-2.133C82.264,61.321,83.086,62.388,83.168,64.048z"/>
	<path fill-rule="evenodd" clip-rule="evenodd" fill="#191919" d="M394.819,77.557c1.737,0.045,2.712,0.915,2.828,2.682
		c0.102,1.553-0.678,2.559-2.152,2.792c-1.727,0.273-2.857-0.608-3.078-2.344C392.195,78.951,393.091,77.912,394.819,77.557z"/>
	<path fill-rule="evenodd" clip-rule="evenodd" fill="#1C1C1C" d="M8.643,275.816c0.445-1.99,1.516-2.859,3.244-2.686
		c1.518,0.152,2.457,1.154,2.4,2.641c-0.063,1.695-1.114,2.756-2.887,2.688C9.611,278.39,8.934,277.132,8.643,275.816z"/>
	<path fill-rule="evenodd" clip-rule="evenodd" fill="#151515" d="M409.955,357.544c1.569,0.518,2.764,1.441,2.472,3.203
		c-0.27,1.619-1.397,2.713-3.146,2.43c-1.466-0.238-2.231-1.363-2.188-2.875C407.144,358.476,408.296,357.728,409.955,357.544z"/>
	<path fill-rule="evenodd" clip-rule="evenodd" fill="#181818" d="M51.83,360.523c-0.258,1.652-1.043,2.873-2.881,2.648
		c-1.697-0.207-2.623-1.361-2.482-3.111c0.127-1.572,1.287-2.393,2.671-2.43C50.902,357.585,51.732,358.794,51.83,360.523z"/>
	<path fill-rule="evenodd" clip-rule="evenodd" fill="#191919" d="M101.36,409.813c-0.311,1.693-1.306,2.746-3.06,2.588
		c-1.717-0.152-2.791-1.328-2.584-3.043c0.167-1.387,1.141-2.443,2.745-2.361C100.187,407.085,101.231,407.985,101.36,409.813z"/>
	<path fill-rule="evenodd" clip-rule="evenodd" fill="#151515" d="M363.298,409.687c-0.267,1.52-1.098,2.715-2.844,2.715
		c-1.729-0.002-2.783-1.113-2.807-2.814c-0.021-1.529,1.011-2.422,2.517-2.531C361.917,406.927,362.944,407.851,363.298,409.687z"/>
	<path fill-rule="evenodd" clip-rule="evenodd" fill="#1E1E1E" d="M301.135,441.225c-0.21,1.646-1.034,2.863-2.747,2.852
		c-1.605-0.012-2.834-0.938-2.869-2.697c-0.032-1.709,0.952-2.76,2.68-2.852C300.018,438.43,300.696,439.721,301.135,441.225z"/>
	<path fill-rule="evenodd" clip-rule="evenodd" fill="#141414" d="M185.821,447.279c-0.027,1.811-1.095,2.844-2.732,2.877
		c-1.389,0.029-2.508-0.869-2.66-2.41c-0.174-1.764,0.785-2.926,2.459-3.09C184.606,444.486,185.599,445.559,185.821,447.279z"/>
	<path fill-rule="evenodd" clip-rule="evenodd" fill="#1B1B1B" d="M49.371,101.379c-1.801-0.466-3.031-1.234-2.924-3.076
		c0.107-1.836,1.4-2.65,3.031-2.606c1.547,0.042,2.334,1.224,2.398,2.695C51.954,100.198,50.761,100.979,49.371,101.379z"/>
	<path fill-rule="evenodd" clip-rule="evenodd" fill="#111111" d="M381.392,63.858c-0.396,1.622-1.166,2.753-3.01,2.654
		c-1.865-0.101-2.624-1.377-2.541-2.94c0.076-1.414,1.082-2.365,2.656-2.332C380.219,61.277,381.229,62.136,381.392,63.858z"/>
	<path fill-rule="evenodd" clip-rule="evenodd" fill="#171717" d="M66.575,80.29c0.079,1.885-1.132,2.788-2.719,2.809
		c-1.375,0.018-2.498-0.876-2.574-2.47c-0.081-1.702,0.638-2.986,2.447-3.05C65.427,77.519,66.505,78.457,66.575,80.29z"/>
	<path fill-rule="evenodd" clip-rule="evenodd" fill="#181818" d="M66.574,378.64c-0.107,1.775-1.237,2.686-2.874,2.656
		c-1.822-0.033-2.502-1.389-2.432-3.051c0.065-1.555,1.097-2.465,2.551-2.436C65.468,375.841,66.566,376.773,66.574,378.64z"/>
	<path fill-rule="evenodd" clip-rule="evenodd" fill="#141414" d="M450.274,275.902c-0.438,1.725-1.346,2.758-3.172,2.549
		c-1.832-0.211-2.623-1.445-2.406-3.102c0.192-1.461,1.304-2.307,2.83-2.221C449.263,273.226,450.204,274.214,450.274,275.902z"/>
	<path fill-rule="evenodd" clip-rule="evenodd" fill="#191919" d="M14.387,183.232c-0.356,1.684-1.365,2.61-3.109,2.487
		c-1.504-0.107-2.546-1.033-2.533-2.514c0.015-1.65,0.986-2.805,2.787-2.803C13.34,180.404,14.088,181.607,14.387,183.232z"/>
	<path fill-rule="evenodd" clip-rule="evenodd" fill="#141414" d="M275.595,444.533c1.613,0.201,2.797,0.84,2.905,2.715
		c0.111,1.92-1.105,2.791-2.678,2.932c-1.492,0.133-2.484-0.934-2.653-2.412C272.974,446.043,273.868,444.957,275.595,444.533z"/>
	<path fill-rule="evenodd" clip-rule="evenodd" fill="#111111" d="M25.836,322.681c-1.498-0.174-2.499-0.896-2.513-2.498
		c-0.015-1.748,0.823-2.875,2.669-2.799c1.812,0.076,2.629,1.223,2.521,2.973C28.412,321.988,27.283,322.544,25.836,322.681z"/>
	<path fill-rule="evenodd" clip-rule="evenodd" fill="#0B0B0B" d="M7.827,208.894c-1.747-0.306-2.676-1.265-2.528-3.019
		c0.125-1.495,0.98-2.424,2.51-2.415c1.707,0.011,2.727,0.894,2.721,2.702C10.523,207.988,9.383,208.688,7.827,208.894z"/>
	<path fill-rule="evenodd" clip-rule="evenodd" fill="#0C0C0C" d="M206.308,5.254c1.68,0.002,2.5,1.023,2.508,2.508
		c0.008,1.732-0.943,2.814-2.819,2.728c-1.589-0.073-2.476-0.992-2.509-2.538C203.447,6.109,204.515,5.255,206.308,5.254z"/>
	<path fill-rule="evenodd" clip-rule="evenodd" fill="#0C0C0C" d="M433.104,322.628c-1.654-0.041-2.71-0.805-2.687-2.672
		c0.02-1.58,0.898-2.447,2.414-2.553c1.848-0.127,2.715,0.938,2.749,2.686C435.61,321.656,434.776,322.517,433.104,322.628z"/>
	<path fill-rule="evenodd" clip-rule="evenodd" fill="#0C0C0C" d="M432.869,136.209c1.512-0.008,2.584,0.585,2.698,2.21
		c0.119,1.686-0.49,2.962-2.396,3.021c-1.807,0.056-2.721-0.988-2.768-2.741C430.36,137.064,431.385,136.386,432.869,136.209z"/>
	<path fill-rule="evenodd" clip-rule="evenodd" fill="#0C0C0C" d="M453.634,206.476c-0.25,1.733-1.334,2.339-2.809,2.206
		c-1.793-0.162-2.645-1.24-2.33-3.045c0.262-1.505,1.217-2.325,2.773-2.167C453.112,203.658,453.731,204.865,453.634,206.476z"/>
	<path fill-rule="evenodd" clip-rule="evenodd" fill="#0C0C0C" d="M23.295,139.171c0.089-2.241,1.133-2.969,2.607-2.95
		c1.754,0.022,2.751,0.998,2.615,2.843c-0.115,1.575-1.074,2.406-2.594,2.399C24.097,141.454,23.304,140.345,23.295,139.171z"/>
	<path fill-rule="evenodd" clip-rule="evenodd" fill="#0C0C0C" d="M141.469,433.514c-0.387,1.834-1.731,2.244-3.337,1.973
		c-1.64-0.279-2.02-1.541-1.801-2.98c0.232-1.529,1.184-2.297,2.761-2.127C140.944,430.578,141.557,431.762,141.469,433.514z"/>
	<path fill-rule="evenodd" clip-rule="evenodd" fill="#0C0C0C" d="M322.659,433.119c-0.109,1.557-0.926,2.414-2.497,2.424
		c-1.784,0.01-2.788-0.898-2.696-2.709c0.075-1.5,0.914-2.432,2.493-2.465C321.806,430.328,322.591,431.385,322.659,433.119z"/>
	<path fill-rule="evenodd" clip-rule="evenodd" fill="#0A0A0A" d="M10.523,252.578c-0.076,1.74-0.929,2.807-2.716,2.816
		c-1.577,0.008-2.417-1.021-2.502-2.488c-0.103-1.773,0.835-2.809,2.668-2.723C9.436,250.251,10.482,250.916,10.523,252.578z"/>
	<path fill-rule="evenodd" clip-rule="evenodd" fill="#0E0E0E" d="M451.376,255.427c-1.938,0.037-2.873-0.99-2.945-2.691
		c-0.065-1.525,0.797-2.488,2.377-2.564c1.482-0.072,2.613,0.537,2.824,2.119C453.866,254.039,452.995,255.082,451.376,255.427z"/>
	<path fill-rule="evenodd" clip-rule="evenodd" fill="#0B0B0B" d="M138.702,23.298c1.766,0.024,2.818,0.861,2.799,2.689
		c-0.016,1.565-0.918,2.428-2.477,2.495c-1.84,0.079-2.777-0.903-2.754-2.694C136.29,24.264,137.038,23.3,138.702,23.298z"/>
	<path fill-rule="evenodd" clip-rule="evenodd" fill="#0D0D0D" d="M255.485,7.837c-0.208,1.901-1.232,2.744-2.998,2.645
		c-1.652-0.092-2.277-1.208-2.272-2.666c0.006-1.516,0.808-2.477,2.409-2.543C254.463,5.197,255.274,6.26,255.485,7.837z"/>
	<path fill-rule="evenodd" clip-rule="evenodd" fill="#0D0D0D" d="M206.306,453.637c-1.775-0.018-2.821-0.885-2.814-2.688
		c0.006-1.547,0.928-2.441,2.465-2.541c1.84-0.117,2.795,0.895,2.785,2.664C208.733,452.582,207.908,453.525,206.306,453.637z"/>
	<path fill-rule="evenodd" clip-rule="evenodd" fill="#0E0E0E" d="M250.175,450.947c0.186-1.734,1.055-2.611,2.604-2.563
		c1.771,0.057,2.704,1.096,2.652,2.865c-0.048,1.625-1.157,2.361-2.603,2.379C251.021,453.65,250.229,452.5,250.175,450.947z"/>
	<path fill-rule="evenodd" clip-rule="evenodd" fill="#090909" d="M320.121,28.538c-1.95-0.315-2.853-1.278-2.646-3.063
		c0.185-1.594,1.25-2.207,2.734-2.163c1.565,0.047,2.439,0.957,2.444,2.473C322.659,27.531,321.632,28.42,320.121,28.538z"/>
</g>
</svg>
