<?xml version="1.0"?><svg width="500" height="500" xmlns="http://www.w3.org/2000/svg">
 <switch>
  <g id="svg_1">
   <g id="Ebene_1">
    <g id="svg_2">
     <g id="svg_3">
      <g id="svg_4">
       <path id="svg_5" fill="none" d="m2.5,225.658997c0,-123.385994 99.842003,-223.227997 223.227997,-223.227997c123.386993,0 223.229004,99.842003 223.229004,223.229004c0,123.386993 -99.84201,223.229004 -223.229004,223.229004c-123.385994,-0.001007 -223.227997,-99.843018 -223.227997,-223.230011z"/>
       <path id="svg_6" d="m5,225.658997c0.141,-45.718002 14.247,-90.240997 40.554001,-127.639c25.639999,-36.448006 62.659996,-64.453007 104.436996,-79.788006c43.469009,-15.956001 91.664001,-17.415001 136.179993,-4.941001c42.903015,12.021001 81.290985,37.569999 109.764008,71.722003c59.516998,71.386009 66.411987,175.808998 18.612,255.111c-22.891998,37.979004 -57.434998,68.234985 -97.679993,86.678986c-42.185028,19.333008 -90.444016,24.276001 -135.82402,15.075012c-89.423981,-18.131989 -159.242985,-92.485992 -173.470984,-182.272003c-1.778,-11.218994 -2.537,-22.593994 -2.572,-33.946991c-0.01,-3.223999 -5.01,-3.224991 -5,0c0.138,44.756989 13.36,88.625 38.255001,125.843994c24.129997,36.074005 58.828999,64.639008 98.666996,81.756012c41.473007,17.819 87.878006,22.388 132.152008,13.972992c43.054993,-8.182983 83.06897,-29.606995 114.444977,-60.080994c64.96701,-63.101013 85.268005,-162.151016 51.589996,-246.018997c-33.269989,-82.853004 -114.749969,-138.657004 -203.745972,-141.132004c-89.624008,-2.491 -173.830006,50.681 -211.096006,131.996994c-13.442,29.332001 -20.167,61.432007 -20.267,93.662003c-0.01,3.225006 4.99,3.223999 5,0z"/>
      </g>
     </g>
    </g>
    <g id="svg_7">
     <g id="svg_8">
      <g id="svg_9">
       <path id="svg_10" fill="none" d="m225.727997,409.727997l0,28.529999"/>
       <path id="svg_11" d="m220.727997,409.727997c0,9.51001 0,19.020996 0,28.529999c0,6.447998 10,6.447998 10,0c0,-9.51001 0,-19.020996 0,-28.529999c0,-6.449005 -10,-6.449005 -10,0z"/>
      </g>
     </g>
     <g id="svg_12">
      <g id="svg_13">
       <path id="svg_14" fill="none" d="m134.537994,385.345001l-15.109001,24.470001"/>
       <path id="svg_15" d="m130.220993,382.821014c-5.036003,8.156006 -10.073006,16.312988 -15.109001,24.470001c-3.398003,5.502991 5.253998,10.520996 8.634995,5.046997c5.036003,-8.156006 10.073006,-16.312988 15.109001,-24.470001c3.397018,-5.503021 -5.25499,-10.521027 -8.634995,-5.046997z"/>
      </g>
     </g>
     <g id="svg_16">
      <g id="svg_17">
       <path id="svg_18" fill="none" d="m66.322998,317.209991l-24.749996,14.747986"/>
       <path id="svg_19" d="m63.799,312.893005c-8.25,4.916016 -16.5,9.832001 -24.75,14.748016c-5.533001,3.296997 -0.506001,11.944 5.047001,8.634979c8.25,-4.915985 16.5,-9.832001 24.75,-14.747986c5.532997,-3.298004 0.506996,-11.945007 -5.047001,-8.63501z"/>
      </g>
     </g>
     <g id="svg_20">
      <g id="svg_21">
       <path id="svg_22" fill="none" d="m41.224998,225.658997l-28.094998,0"/>
       <path id="svg_23" d="m41.224998,220.658997c-9.364998,0 -18.729998,0 -28.094998,0c-6.449,0 -6.449,10 0,10c9.365001,0 18.73,0 28.094998,0c6.448002,0 6.448002,-10 0,-10z"/>
      </g>
     </g>
     <g id="svg_24">
      <g id="svg_25">
       <path id="svg_26" fill="none" d="m66.682999,133.311996l-25.109997,-13.951996"/>
       <path id="svg_27" d="m69.207001,128.994995c-8.369999,-4.650993 -16.740002,-9.300995 -25.110001,-13.951996c-5.641998,-3.135002 -10.684002,5.502998 -5.047001,8.635002c8.369999,4.650993 16.740002,9.301003 25.110004,13.952003c5.640999,3.134003 10.682999,-5.503998 5.046997,-8.63501z"/>
      </g>
     </g>
     <g id="svg_28">
      <g id="svg_29">
       <path id="svg_30" fill="none" d="m133.100998,65.714996l-13.670998,-24.210995"/>
       <path id="svg_31" d="m137.417999,63.192001c-4.557007,-8.071003 -9.113998,-16.141003 -13.670998,-24.211002c-3.169998,-5.613998 -11.810005,-0.576 -8.635002,5.047001c4.556999,8.070999 9.113998,16.140999 13.671005,24.210999c3.169998,5.613998 11.809998,0.575005 8.634995,-5.046997z"/>
      </g>
     </g>
     <g id="svg_32">
      <g id="svg_33">
       <path id="svg_34" fill="none" d="m225.727997,41.223999l0,-28.162999"/>
       <path id="svg_35" d="m230.727997,41.223999c0,-9.387999 0,-18.775 0,-28.162999c0,-6.449 -10,-6.449 -10,0c0,9.388 0,18.775001 0,28.162999c0,6.448002 10,6.448002 10,0z"/>
      </g>
     </g>
     <g id="svg_36">
      <g id="svg_37">
       <path id="svg_38" fill="none" d="m318.533997,66.512001l13.494019,-25.007999"/>
       <path id="svg_39" d="m322.851013,69.035004c4.497986,-8.336002 8.996002,-16.672005 13.493988,-25.008003c3.062012,-5.674 -5.571991,-10.723 -8.634979,-5.047001c-4.498016,8.336002 -8.996002,16.672012 -13.494019,25.007999c-3.061005,5.675003 5.572998,10.723 8.63501,5.047005z"/>
      </g>
     </g>
     <g id="svg_40">
      <g id="svg_41">
       <path id="svg_42" fill="none" d="m385.132996,134.108994l24.75,-14.749001"/>
       <path id="svg_43" d="m387.657013,138.425995c8.25,-4.916992 16.5,-9.833008 24.75,-14.748993c5.531982,-3.297005 0.506989,-11.944 -5.046997,-8.635002c-8.25,4.916992 -16.5,9.833 -24.75,14.748985c-5.532013,3.297012 -0.507019,11.945007 5.046997,8.63501z"/>
      </g>
     </g>
     <g id="svg_44">
      <g id="svg_45">
       <path id="svg_46" fill="none" d="m409.729004,225.658997l28.597992,0"/>
       <path id="svg_47" d="m409.729004,230.658997c9.531982,0 19.065002,0 28.597992,0c6.447998,0 6.447998,-10 0,-10c-9.531982,0 -19.065002,0 -28.597992,0c-6.447998,0 -6.447998,10 0,10z"/>
      </g>
     </g>
     <g id="svg_48">
      <g id="svg_49">
       <path id="svg_50" fill="none" d="m385.493988,318.028015l24.390015,13.929993"/>
       <path id="svg_51" d="m382.970001,322.346008c8.130005,4.644012 16.26001,9.286011 24.389984,13.929993c5.608002,3.203003 10.64502,-5.437988 5.047028,-8.634979c-8.130005,-4.644012 -16.26001,-9.286011 -24.390015,-13.930023c-5.608002,-3.203003 -10.644012,5.437012 -5.046997,8.63501z"/>
      </g>
     </g>
     <g id="svg_52">
      <g id="svg_53">
       <path id="svg_54" fill="none" d="m317.816986,384.526001l14.210999,25.287994"/>
       <path id="svg_55" d="m313.5,387.049988c4.737,8.429993 9.473999,16.859009 14.210999,25.287994c3.158997,5.621002 11.798004,0.580994 8.63501,-5.046997c-4.737,-8.429993 -9.473999,-16.858002 -14.210999,-25.287994c-3.160004,-5.621002 -11.799011,-0.580994 -8.63501,5.046997z"/>
      </g>
     </g>
    </g>
    <g id="svg_56">
     <g id="svg_57">
      <g id="svg_58">
       <path id="svg_59" fill="none" d="m226.878998,225.401001l-0.701004,0"/>
       <path id="svg_60" d="m226.878998,212.901001c-0.233002,0 -0.466995,0 -0.701004,0c-6.813995,0 -12.5,5.686005 -12.5,12.5s5.686005,12.5 12.5,12.5c0.233002,0 0.46701,0 0.701004,0c6.813995,0 12.5,-5.686005 12.5,-12.5s-5.684998,-12.5 -12.5,-12.5z"/>
      </g>
     </g>
     <g id="svg_61">
      <g id="svg_62">
       <path id="svg_63" fill="none" d="m226.087997,226.147995l0,-112.314995"/>
       <path id="svg_64" d="m228.587997,226.147995c0,-37.437988 0,-74.875992 0,-112.315002c0,-3.223999 -5,-3.223999 -5,0c0,37.438004 0,74.875992 0,112.315002c0,3.225006 5,3.225006 5,0z"/>
      </g>
     </g>
     <g id="svg_65">
      <g id="svg_66">
       <path id="svg_67" fill="none" d="m225.294006,225.401001l-79.985001,-138.402"/>
       <path id="svg_68" d="m227.453003,224.139008c-24.686996,-42.716995 -49.374008,-85.43399 -74.060989,-128.149994c-1.975006,-3.417007 -3.949997,-6.834007 -5.925003,-10.252007c-1.612,-2.790001 -5.934006,-0.272995 -4.317001,2.523003c24.686996,42.716995 49.374008,85.434006 74.060989,128.149994c1.975006,3.417007 3.949997,6.834 5.925003,10.251999c1.612,2.791 5.932999,0.274002 4.317001,-2.522995z"/>
      </g>
     </g>
    </g>
   </g>
  </g>
 </switch>

 <g>
  <title>Layer 1</title>
  <rect id="svg_69" height="159" width="159" y="78.794006" x="132.845001" stroke-width="5" stroke="#ffffff" fill="#ffffff"/>
 </g>
</svg>
