<?xml version="1.0" encoding="UTF-8" standalone="no"?>
<!-- Created with Inkscape (http://www.inkscape.org/) -->
<svg xmlns:rdf="http://www.w3.org/1999/02/22-rdf-syntax-ns#" xmlns="http://www.w3.org/2000/svg" xmlns:cc="http://web.resource.org/cc/" xmlns:dc="http://purl.org/dc/elements/1.1/" xmlns:svg="http://www.w3.org/2000/svg" xmlns:inkscape="http://www.inkscape.org/namespaces/inkscape" xmlns:sodipodi="http://sodipodi.sourceforge.net/DTD/sodipodi-0.dtd" xmlns:ns1="http://sozi.baierouge.fr" xmlns:xlink="http://www.w3.org/1999/xlink" id="svg2" viewBox="0 0 720 720" version="1.1" inkscape:version="0.91 r13725">
  <g id="layer1" transform="translate(0 -332.36)">
    <rect id="rect2865" style="fill:#ffffff" height="720" width="720" y="332.36" x="-1.1369e-13"/>
    <path id="path2855" style="fill:#000000" d="m353.42 5.9003a1.758 1.758 0 1 1 -3.516 0 1.758 1.758 0 1 1 3.516 0z" transform="matrix(1.7065 0 0 1.7065 -240.1 367.29)"/>
    <path id="path2857" style="fill:#000000" d="m353.42 5.9003a1.758 1.758 0 1 1 -3.516 0 1.758 1.758 0 1 1 3.516 0z" transform="matrix(1.7065 0 0 1.7065 -207.17 369.02)"/>
    <path id="path2859" style="fill:#000000" d="m353.42 5.9003a1.758 1.758 0 1 1 -3.516 0 1.758 1.758 0 1 1 3.516 0z" transform="matrix(1.7065 0 0 1.7065 -174.61 374.18)"/>
    <path id="path2861" style="fill:#000000" d="m353.42 5.9003a1.758 1.758 0 1 1 -3.516 0 1.758 1.758 0 1 1 3.516 0z" transform="matrix(1.7065 0 0 1.7065 -142.76 382.71)"/>
    <path id="path2863" style="fill:#000000" d="m353.42 5.9003a1.758 1.758 0 1 1 -3.516 0 1.758 1.758 0 1 1 3.516 0z" transform="matrix(1.7065 0 0 1.7065 -111.98 394.53)"/>
    <path id="path2865" style="fill:#000000" d="m353.42 5.9003a1.758 1.758 0 1 1 -3.516 0 1.758 1.758 0 1 1 3.516 0z" transform="matrix(1.7065 0 0 1.7065 -82.6 409.5)"/>
    <path id="path2867" style="fill:#000000" d="m353.42 5.9003a1.758 1.758 0 1 1 -3.516 0 1.758 1.758 0 1 1 3.516 0z" transform="matrix(1.7065 0 0 1.7065 -54.948 427.45)"/>
    <path id="path2869" style="fill:#000000" d="m353.42 5.9003a1.758 1.758 0 1 1 -3.516 0 1.758 1.758 0 1 1 3.516 0z" transform="matrix(1.7065 0 0 1.7065 -29.324 448.2)"/>
    <path id="path2871" style="fill:#000000" d="m353.42 5.9003a1.758 1.758 0 1 1 -3.516 0 1.758 1.758 0 1 1 3.516 0z" transform="matrix(1.7065 0 0 1.7065 -6.0094 471.52)"/>
    <path id="path2873" style="fill:#000000" d="m353.42 5.9003a1.758 1.758 0 1 1 -3.516 0 1.758 1.758 0 1 1 3.516 0z" transform="matrix(1.7065 0 0 1.7065 14.74 497.14)"/>
    <path id="path2875" style="fill:#000000" d="m353.42 5.9003a1.758 1.758 0 1 1 -3.516 0 1.758 1.758 0 1 1 3.516 0z" transform="matrix(1.7065 0 0 1.7065 32.698 524.79)"/>
    <path id="path2877" style="fill:#000000" d="m353.42 5.9003a1.758 1.758 0 1 1 -3.516 0 1.758 1.758 0 1 1 3.516 0z" transform="matrix(1.7065 0 0 1.7065 47.667 554.17)"/>
    <path id="path2879" style="fill:#000000" d="m353.42 5.9003a1.758 1.758 0 1 1 -3.516 0 1.758 1.758 0 1 1 3.516 0z" transform="matrix(1.7065 0 0 1.7065 59.483 584.95)"/>
    <path id="path2881" style="fill:#000000" d="m353.42 5.9003a1.758 1.758 0 1 1 -3.516 0 1.758 1.758 0 1 1 3.516 0z" transform="matrix(1.7065 0 0 1.7065 68.016 616.8)"/>
    <path id="path2883" style="fill:#000000" d="m353.42 5.9003a1.758 1.758 0 1 1 -3.516 0 1.758 1.758 0 1 1 3.516 0z" transform="matrix(1.7065 0 0 1.7065 73.174 649.37)"/>
    <path id="path2885" style="fill:#000000" d="m353.42 5.9003a1.758 1.758 0 1 1 -3.516 0 1.758 1.758 0 1 1 3.516 0z" transform="matrix(1.7065 0 0 1.7065 74.9 682.29)"/>
    <path id="path2887" style="fill:#000000" d="m353.42 5.9003a1.758 1.758 0 1 1 -3.516 0 1.758 1.758 0 1 1 3.516 0z" transform="matrix(1.7065 0 0 1.7065 73.174 715.22)"/>
    <path id="path2889" style="fill:#000000" d="m353.42 5.9003a1.758 1.758 0 1 1 -3.516 0 1.758 1.758 0 1 1 3.516 0z" transform="matrix(1.7065 0 0 1.7065 68.016 747.79)"/>
    <path id="path2891" style="fill:#000000" d="m353.42 5.9003a1.758 1.758 0 1 1 -3.516 0 1.758 1.758 0 1 1 3.516 0z" transform="matrix(1.7065 0 0 1.7065 59.483 779.63)"/>
    <path id="path2893" style="fill:#000000" d="m353.42 5.9003a1.758 1.758 0 1 1 -3.516 0 1.758 1.758 0 1 1 3.516 0z" transform="matrix(1.7065 0 0 1.7065 47.667 810.42)"/>
    <path id="path2895" style="fill:#000000" d="m353.42 5.9003a1.758 1.758 0 1 1 -3.516 0 1.758 1.758 0 1 1 3.516 0z" transform="matrix(1.7065 0 0 1.7065 32.698 839.79)"/>
    <path id="path2897" style="fill:#000000" d="m353.42 5.9003a1.758 1.758 0 1 1 -3.516 0 1.758 1.758 0 1 1 3.516 0z" transform="matrix(1.7065 0 0 1.7065 14.74 867.45)"/>
    <path id="path2899" style="fill:#000000" d="m353.42 5.9003a1.758 1.758 0 1 1 -3.516 0 1.758 1.758 0 1 1 3.516 0z" transform="matrix(1.7065 0 0 1.7065 -6.0094 893.07)"/>
    <path id="path2901" style="fill:#000000" d="m353.42 5.9003a1.758 1.758 0 1 1 -3.516 0 1.758 1.758 0 1 1 3.516 0z" transform="matrix(1.7065 0 0 1.7065 -29.324 916.38)"/>
    <path id="path2903" style="fill:#000000" d="m353.42 5.9003a1.758 1.758 0 1 1 -3.516 0 1.758 1.758 0 1 1 3.516 0z" transform="matrix(1.7065 0 0 1.7065 -54.948 937.13)"/>
    <path id="path2905" style="fill:#000000" d="m353.42 5.9003a1.758 1.758 0 1 1 -3.516 0 1.758 1.758 0 1 1 3.516 0z" transform="matrix(1.7065 0 0 1.7065 -82.6 955.09)"/>
    <path id="path2907" style="fill:#000000" d="m353.42 5.9003a1.758 1.758 0 1 1 -3.516 0 1.758 1.758 0 1 1 3.516 0z" transform="matrix(1.7065 0 0 1.7065 -111.98 970.06)"/>
    <path id="path2909" style="fill:#000000" d="m353.42 5.9003a1.758 1.758 0 1 1 -3.516 0 1.758 1.758 0 1 1 3.516 0z" transform="matrix(1.7065 0 0 1.7065 -142.76 981.88)"/>
    <path id="path2911" style="fill:#000000" d="m353.42 5.9003a1.758 1.758 0 1 1 -3.516 0 1.758 1.758 0 1 1 3.516 0z" transform="matrix(1.7065 0 0 1.7065 -174.61 990.41)"/>
    <path id="path2913" style="fill:#000000" d="m353.42 5.9003a1.758 1.758 0 1 1 -3.516 0 1.758 1.758 0 1 1 3.516 0z" transform="matrix(1.7065 0 0 1.7065 -207.17 995.57)"/>
    <path id="path2915" style="fill:#000000" d="m353.42 5.9003a1.758 1.758 0 1 1 -3.516 0 1.758 1.758 0 1 1 3.516 0z" transform="matrix(1.7065 0 0 1.7065 -240.1 997.29)"/>
    <path id="path2917" style="fill:#000000" d="m353.42 5.9003a1.758 1.758 0 1 1 -3.516 0 1.758 1.758 0 1 1 3.516 0z" transform="matrix(1.7065 0 0 1.7065 -273.03 995.57)"/>
    <path id="path2919" style="fill:#000000" d="m353.42 5.9003a1.758 1.758 0 1 1 -3.516 0 1.758 1.758 0 1 1 3.516 0z" transform="matrix(1.7065 0 0 1.7065 -305.59 990.41)"/>
    <path id="path2921" style="fill:#000000" d="m353.42 5.9003a1.758 1.758 0 1 1 -3.516 0 1.758 1.758 0 1 1 3.516 0z" transform="matrix(1.7065 0 0 1.7065 -337.44 981.88)"/>
    <path id="path2923" style="fill:#000000" d="m353.42 5.9003a1.758 1.758 0 1 1 -3.516 0 1.758 1.758 0 1 1 3.516 0z" transform="matrix(1.7065 0 0 1.7065 -368.22 970.06)"/>
    <path id="path2925" style="fill:#000000" d="m353.42 5.9003a1.758 1.758 0 1 1 -3.516 0 1.758 1.758 0 1 1 3.516 0z" transform="matrix(1.7065 0 0 1.7065 -397.6 955.09)"/>
    <path id="path2927" style="fill:#000000" d="m353.42 5.9003a1.758 1.758 0 1 1 -3.516 0 1.758 1.758 0 1 1 3.516 0z" transform="matrix(1.7065 0 0 1.7065 -425.25 937.13)"/>
    <path id="path2929" style="fill:#000000" d="m353.42 5.9003a1.758 1.758 0 1 1 -3.516 0 1.758 1.758 0 1 1 3.516 0z" transform="matrix(1.7065 0 0 1.7065 -450.88 916.38)"/>
    <path id="path2931" style="fill:#000000" d="m353.42 5.9003a1.758 1.758 0 1 1 -3.516 0 1.758 1.758 0 1 1 3.516 0z" transform="matrix(1.7065 0 0 1.7065 -474.19 893.07)"/>
    <path id="path2933" style="fill:#000000" d="m353.42 5.9003a1.758 1.758 0 1 1 -3.516 0 1.758 1.758 0 1 1 3.516 0z" transform="matrix(1.7065 0 0 1.7065 -494.94 867.45)"/>
    <path id="path2935" style="fill:#000000" d="m353.42 5.9003a1.758 1.758 0 1 1 -3.516 0 1.758 1.758 0 1 1 3.516 0z" transform="matrix(1.7065 0 0 1.7065 -512.9 839.79)"/>
    <path id="path2937" style="fill:#000000" d="m353.42 5.9003a1.758 1.758 0 1 1 -3.516 0 1.758 1.758 0 1 1 3.516 0z" transform="matrix(1.7065 0 0 1.7065 -527.87 810.42)"/>
    <path id="path2939" style="fill:#000000" d="m353.42 5.9003a1.758 1.758 0 1 1 -3.516 0 1.758 1.758 0 1 1 3.516 0z" transform="matrix(1.7065 0 0 1.7065 -539.68 779.63)"/>
    <path id="path2941" style="fill:#000000" d="m353.42 5.9003a1.758 1.758 0 1 1 -3.516 0 1.758 1.758 0 1 1 3.516 0z" transform="matrix(1.7065 0 0 1.7065 -548.22 747.79)"/>
    <path id="path2943" style="fill:#000000" d="m353.42 5.9003a1.758 1.758 0 1 1 -3.516 0 1.758 1.758 0 1 1 3.516 0z" transform="matrix(1.7065 0 0 1.7065 -553.37 715.22)"/>
    <path id="path2945" style="fill:#000000" d="m353.42 5.9003a1.758 1.758 0 1 1 -3.516 0 1.758 1.758 0 1 1 3.516 0z" transform="matrix(1.7065 0 0 1.7065 -555.1 682.29)"/>
    <path id="path2947" style="fill:#000000" d="m353.42 5.9003a1.758 1.758 0 1 1 -3.516 0 1.758 1.758 0 1 1 3.516 0z" transform="matrix(1.7065 0 0 1.7065 -553.37 649.37)"/>
    <path id="path2949" style="fill:#000000" d="m353.42 5.9003a1.758 1.758 0 1 1 -3.516 0 1.758 1.758 0 1 1 3.516 0z" transform="matrix(1.7065 0 0 1.7065 -548.22 616.8)"/>
    <path id="path2951" style="fill:#000000" d="m353.42 5.9003a1.758 1.758 0 1 1 -3.516 0 1.758 1.758 0 1 1 3.516 0z" transform="matrix(1.7065 0 0 1.7065 -539.68 584.95)"/>
    <path id="path2953" style="fill:#000000" d="m353.42 5.9003a1.758 1.758 0 1 1 -3.516 0 1.758 1.758 0 1 1 3.516 0z" transform="matrix(1.7065 0 0 1.7065 -527.87 554.17)"/>
    <path id="path2955" style="fill:#000000" d="m353.42 5.9003a1.758 1.758 0 1 1 -3.516 0 1.758 1.758 0 1 1 3.516 0z" transform="matrix(1.7065 0 0 1.7065 -512.9 524.79)"/>
    <path id="path2957" style="fill:#000000" d="m353.42 5.9003a1.758 1.758 0 1 1 -3.516 0 1.758 1.758 0 1 1 3.516 0z" transform="matrix(1.7065 0 0 1.7065 -494.94 497.14)"/>
    <path id="path2959" style="fill:#000000" d="m353.42 5.9003a1.758 1.758 0 1 1 -3.516 0 1.758 1.758 0 1 1 3.516 0z" transform="matrix(1.7065 0 0 1.7065 -474.19 471.52)"/>
    <path id="path2961" style="fill:#000000" d="m353.42 5.9003a1.758 1.758 0 1 1 -3.516 0 1.758 1.758 0 1 1 3.516 0z" transform="matrix(1.7065 0 0 1.7065 -450.88 448.2)"/>
    <path id="path2963" style="fill:#000000" d="m353.42 5.9003a1.758 1.758 0 1 1 -3.516 0 1.758 1.758 0 1 1 3.516 0z" transform="matrix(1.7065 0 0 1.7065 -425.25 427.45)"/>
    <path id="path2965" style="fill:#000000" d="m353.42 5.9003a1.758 1.758 0 1 1 -3.516 0 1.758 1.758 0 1 1 3.516 0z" transform="matrix(1.7065 0 0 1.7065 -397.6 409.5)"/>
    <path id="path2967" style="fill:#000000" d="m353.42 5.9003a1.758 1.758 0 1 1 -3.516 0 1.758 1.758 0 1 1 3.516 0z" transform="matrix(1.7065 0 0 1.7065 -368.22 394.53)"/>
    <path id="path2969" style="fill:#000000" d="m353.42 5.9003a1.758 1.758 0 1 1 -3.516 0 1.758 1.758 0 1 1 3.516 0z" transform="matrix(1.7065 0 0 1.7065 -337.44 382.71)"/>
    <path id="path2971" style="fill:#000000" d="m353.42 5.9003a1.758 1.758 0 1 1 -3.516 0 1.758 1.758 0 1 1 3.516 0z" transform="matrix(1.7065 0 0 1.7065 -305.59 374.18)"/>
    <path id="path2973" style="fill:#000000" d="m353.42 5.9003a1.758 1.758 0 1 1 -3.516 0 1.758 1.758 0 1 1 3.516 0z" transform="matrix(1.7065 0 0 1.7065 -273.03 369.02)"/>
  </g>
  <metadata>
    <rdf:RDF>
      <cc:Work>
        <dc:format>image/svg+xml</dc:format>
        <dc:type rdf:resource="http://purl.org/dc/dcmitype/StillImage"/>
        <cc:license rdf:resource="http://creativecommons.org/licenses/publicdomain/"/>
        <dc:publisher>
          <cc:Agent rdf:about="http://openclipart.org/">
            <dc:title>Openclipart</dc:title>
          </cc:Agent>
        </dc:publisher>
        <dc:title>connect the 60 dots</dc:title>
        <dc:date>2011-06-17T16:06:06</dc:date>
        <dc:description>I made this for my own use of printing it on paper and connecting the dots.</dc:description>
        <dc:source>https://openclipart.org/detail/145777/connect-the-60-dots-by-10binary</dc:source>
        <dc:creator>
          <cc:Agent>
            <dc:title>10binary</dc:title>
          </cc:Agent>
        </dc:creator>
        <dc:subject>
          <rdf:Bag>
            <rdf:li>60</rdf:li>
            <rdf:li>circles</rdf:li>
            <rdf:li>connect</rdf:li>
            <rdf:li>dots</rdf:li>
            <rdf:li>paper</rdf:li>
            <rdf:li>print</rdf:li>
          </rdf:Bag>
        </dc:subject>
      </cc:Work>
      <cc:License rdf:about="http://creativecommons.org/licenses/publicdomain/">
        <cc:permits rdf:resource="http://creativecommons.org/ns#Reproduction"/>
        <cc:permits rdf:resource="http://creativecommons.org/ns#Distribution"/>
        <cc:permits rdf:resource="http://creativecommons.org/ns#DerivativeWorks"/>
      </cc:License>
    </rdf:RDF>
  </metadata>
</svg>
