<?xml version="1.0" encoding="UTF-8" standalone="no"?>
<!-- Created with Inkscape (http://www.inkscape.org/) -->

<svg
   xmlns:dc="http://purl.org/dc/elements/1.1/"
   xmlns:cc="http://creativecommons.org/ns#"
   xmlns:rdf="http://www.w3.org/1999/02/22-rdf-syntax-ns#"
   xmlns:svg="http://www.w3.org/2000/svg"
   xmlns="http://www.w3.org/2000/svg"
   xmlns:sodipodi="http://sodipodi.sourceforge.net/DTD/sodipodi-0.dtd"
   xmlns:inkscape="http://www.inkscape.org/namespaces/inkscape"
   id="svg3110"
   version="1.1"
   inkscape:version="0.48.0 r9654"
   width="201.99126"
   height="201.98875"
   xml:space="preserve"
   sodipodi:docname="HorloÄo_001.svg"><metadata
     id="metadata3116"><rdf:RDF><cc:Work
         rdf:about=""><dc:format>image/svg+xml</dc:format><dc:type
           rdf:resource="http://purl.org/dc/dcmitype/StillImage" /><dc:title></dc:title></cc:Work></rdf:RDF></metadata><defs
     id="defs3114"><clipPath
       clipPathUnits="userSpaceOnUse"
       id="clipPath3126"><path
         d="m 0,0 1620,0 0,1620 L 0,1620 0,0 z"
         id="path3128"
         inkscape:connector-curvature="0" /></clipPath></defs><sodipodi:namedview
     pagecolor="#ffffff"
     bordercolor="#666666"
     borderopacity="1"
     objecttolerance="10"
     gridtolerance="10"
     guidetolerance="10"
     inkscape:pageopacity="0"
     inkscape:pageshadow="2"
     inkscape:window-width="1280"
     inkscape:window-height="723"
     id="namedview3112"
     showgrid="false"
     inkscape:zoom="0.97672209"
     inkscape:cx="331.93749"
     inkscape:cy="163.20464"
     inkscape:window-x="0"
     inkscape:window-y="24"
     inkscape:window-maximized="1"
     inkscape:current-layer="g3118"
     fit-margin-top="0"
     fit-margin-left="0"
     fit-margin-right="0"
     fit-margin-bottom="0"
     units="px" /><g
     id="g3118"
     inkscape:groupmode="layer"
     inkscape:label="ink_ext_XXXXXX"
     transform="matrix(1.25,0,0,-1.25,-923.77173,233.84292)"><g
       id="g3090"><path
         d="m 820.61501,106.27885 c 0,-0.44102 -0.36011,-0.79694 -0.80113,-0.79694 -0.44102,0 -0.79694,0.35592 -0.79694,0.79694 0,0.44182 0.35592,0.80124 0.79694,0.80124 0.44102,0 0.80113,-0.35942 0.80113,-0.80124 z"
         style="fill:#000000;fill-opacity:1;fill-rule:nonzero;stroke:none"
         id="path3130"
         inkscape:connector-curvature="0" /><path
         d="m 887.3678,104.20883 c 0,-0.53132 -0.086,-1.03525 -0.25001,-1.50008 -0.168,-0.46912 -0.41802,-0.88325 -0.75003,-1.23527 -0.33601,-0.34292 -0.74603,-0.62113 -1.23505,-0.82814 -0.49202,-0.19491 -1.05405,-0.29692 -1.68708,-0.29692 -0.25001,0 -0.50802,0.0243 -0.76603,0.0629 -0.25001,0.0434 -0.51102,0.11721 -0.78103,0.21922 -0.26201,0.1129 -0.52703,0.25821 -0.79704,0.43712 -0.27301,0.18401 -0.55102,0.40972 -0.82803,0.67194 l 0.31201,0.64103 c 0.27801,-0.21921 0.53602,-0.39892 0.76603,-0.53213 0.23801,-0.1359 0.46102,-0.24611 0.67203,-0.32811 0.20701,-0.0859 0.41402,-0.14371 0.62503,-0.17191 0.20701,-0.0308 0.43002,-0.0461 0.67203,-0.0461 0.37101,0 0.71903,0.0543 1.03104,0.17111 0.30902,0.12191 0.58203,0.29692 0.81304,0.51613 0.22601,0.22691 0.40602,0.50003 0.53102,0.81285 0.12101,0.32041 0.18701,0.68723 0.18701,1.09306 0,0.46522 -0.082,0.86415 -0.23401,1.18836 -0.14801,0.33202 -0.33602,0.59804 -0.56303,0.79695 -0.23001,0.20701 -0.49202,0.35902 -0.78103,0.45312 -0.28101,0.0898 -0.55802,0.13981 -0.82804,0.13981 -0.086,0 -0.152,0 -0.203,0 -0.031,0 -0.07,-0.007 -0.10901,-0.0148 -0.032,0 -0.075,-0.008 -0.125,-0.016 -0.043,-0.011 -0.11401,-0.0231 -0.20401,-0.0313 l -0.12401,0.56213 c 0.57003,0.15321 1.03105,0.33322 1.37406,0.53213 0.34002,0.20701 0.60203,0.42182 0.78204,0.63983 0.183,0.22742 0.31201,0.45313 0.37501,0.67234 0.058,0.21481 0.093,0.42582 0.093,0.62504 0,0.20701 -0.039,0.42582 -0.10901,0.65583 -0.062,0.22701 -0.16801,0.43013 -0.31201,0.61024 -0.13701,0.18281 -0.31702,0.33591 -0.53203,0.45272 -0.21101,0.11331 -0.46102,0.17231 -0.75003,0.17231 -0.25001,0 -0.47602,-0.043 -0.67103,-0.12501 -0.20001,-0.0859 -0.36801,-0.19921 -0.50002,-0.34412 -0.126,-0.1481 -0.22301,-0.32001 -0.28201,-0.51612 -0.054,-0.18711 -0.058,-0.38593 -0.015,-0.59294 -0.21101,-0.1059 -0.41402,-0.19181 -0.61003,-0.25001 -0.19901,-0.0629 -0.42902,-0.10591 -0.68703,-0.12501 l -0.26601,0.29682 c 0,0.25711 0.098,0.53523 0.29701,0.82825 0.19501,0.30111 0.45702,0.57813 0.78104,0.82814 0.32101,0.24611 0.69603,0.45703 1.12505,0.62504 0.42601,0.1641 0.87903,0.25001 1.36005,0.25001 0.46402,0 0.86704,-0.082 1.20306,-0.23521 0.33201,-0.14801 0.60102,-0.34682 0.81203,-0.59294 0.21501,-0.24181 0.37902,-0.52003 0.48502,-0.82824 0.10101,-0.31282 0.15601,-0.62894 0.15601,-0.93785 0,-0.24182 -0.051,-0.47583 -0.14101,-0.70324 -0.094,-0.22972 -0.23001,-0.45663 -0.40601,-0.67184 -0.16801,-0.21101 -0.37902,-0.40982 -0.62503,-0.59423 -0.24201,-0.17891 -0.51202,-0.33592 -0.81304,-0.46803 0.35202,-0.0429 0.68803,-0.15271 1.00005,-0.32892 0.30901,-0.16681 0.57902,-0.38592 0.79703,-0.65583 0.22701,-0.26102 0.40702,-0.56604 0.53202,-0.90636 0.13201,-0.34371 0.20301,-0.70663 0.20301,-1.07776 z"
         style="fill:#000000;fill-opacity:1;fill-rule:nonzero;stroke:none"
         id="path3132"
         inkscape:connector-curvature="0" /><path
         d="m 755.78021,105.89563 c 0.42581,0 0.81993,0.11841 1.18675,0.36022 0.36331,0.23791 0.67623,0.55113 0.93834,0.93715 -0.0121,0.77774 -0.0902,1.43018 -0.23511,1.95281 -0.14811,0.52813 -0.33212,0.95315 -0.54693,1.26607 -0.21801,0.32032 -0.46412,0.54733 -0.73403,0.67234 -0.26211,0.1328 -0.51912,0.20271 -0.76603,0.20271 -0.32422,0 -0.61293,-0.066 -0.85904,-0.18791 -0.25001,-0.12501 -0.46522,-0.30392 -0.64103,-0.53083 -0.1789,-0.23011 -0.31601,-0.50823 -0.40631,-0.82815 -0.0859,-0.31221 -0.12501,-0.65203 -0.12501,-1.01615 0,-0.58474 0.0672,-1.05786 0.20321,-1.42118 0.14491,-0.36792 0.32101,-0.65274 0.53202,-0.85975 0.21401,-0.21101 0.45312,-0.35512 0.70313,-0.43713 0.25781,-0.0739 0.50783,-0.1102 0.75004,-0.1102 z m 3.64005,1.65709 c 0,-0.96095 -0.1321,-1.8477 -0.38991,-2.65715 -0.25001,-0.81174 -0.64493,-1.53878 -1.17235,-2.17202 -0.52383,-0.62503 -1.18396,-1.15196 -1.98479,-1.57819 -0.80393,-0.41802 -1.74618,-0.70273 -2.82822,-0.85904 l -0.17191,0.56213 c 0.83284,0.19611 1.54697,0.46102 2.14109,0.79694 0.60193,0.34022 1.10195,0.73914 1.50007,1.18837 0.40191,0.44492 0.71093,0.94105 0.92194,1.48408 0.21481,0.55083 0.35901,1.14496 0.42182,1.7809 -0.33592,-0.37502 -0.72694,-0.67894 -1.17185,-0.90585 -0.44892,-0.23011 -0.88714,-0.34422 -1.31296,-0.34422 -0.50002,0 -0.94924,0.0832 -1.34306,0.25001 -0.38712,0.17621 -0.71523,0.41103 -0.98514,0.70394 -0.27311,0.28912 -0.48012,0.63214 -0.62503,1.03136 -0.14811,0.40192 -0.21801,0.84375 -0.21801,1.31177 0,0.30942 0.039,0.62934 0.12501,0.95316 0.082,0.33322 0.20311,0.64933 0.35901,0.95395 0.16401,0.30822 0.36292,0.60123 0.59413,0.87505 0.22581,0.26921 0.48402,0.50433 0.76493,0.70324 0.27811,0.19491 0.58203,0.35112 0.90704,0.46792 0.33201,0.11411 0.68713,0.17191 1.06215,0.17191 0.43401,0 0.85903,-0.0969 1.26605,-0.28081 0.40202,-0.18011 0.76493,-0.46103 1.07775,-0.84425 0.32041,-0.37502 0.57822,-0.86685 0.76533,-1.46808 0.19611,-0.59373 0.29691,-1.30467 0.29691,-2.12512 z"
         style="fill:#000000;fill-opacity:1;fill-rule:nonzero;stroke:none"
         id="path3134"
         inkscape:connector-curvature="0" /><path
         d="m 819.85288,42.736317 c -0.32421,0 -0.68003,-0.08991 -1.06215,-0.266115 -0.37501,-0.166809 -0.74293,-0.459725 -1.09374,-0.875048 0,-0.750042 0.0539,-1.398078 0.1718,-1.937208 0.12111,-0.54293 0.30002,-0.991855 0.53093,-1.343775 0.22621,-0.344219 0.50002,-0.605133 0.81213,-0.781343 0.32112,-0.167909 0.67623,-0.250014 1.06295,-0.250014 0.33201,0 0.60902,0.0782 0.82813,0.234013 0.22701,0.153109 0.41022,0.35242 0.54693,0.594233 0.1332,0.246014 0.22621,0.524229 0.28131,0.828146 0.0589,0.300817 0.0937,0.598033 0.0937,0.89105 0,0.582032 -0.0738,1.061759 -0.21871,1.43678 -0.1372,0.37112 -0.31611,0.672337 -0.53132,0.891049 -0.21091,0.215312 -0.44492,0.36722 -0.70273,0.453225 -0.25001,0.082 -0.49222,0.125007 -0.71923,0.125007 z m 3.57835,-2.312328 c 0,-0.292917 -0.0391,-0.601934 -0.109,-0.921852 -0.0633,-0.312917 -0.16411,-0.628935 -0.29731,-0.937952 -0.13671,-0.303917 -0.30512,-0.597333 -0.50002,-0.875048 -0.19881,-0.273116 -0.43012,-0.511029 -0.68793,-0.71924 -0.25001,-0.209712 -0.54303,-0.378121 -0.87504,-0.500028 -0.32382,-0.121107 -0.67503,-0.187111 -1.04615,-0.187111 -0.52382,0 -1.00784,0.117207 -1.45396,0.34422 -0.44882,0.226112 -0.83904,0.54683 -1.17115,0.953153 -0.33592,0.414123 -0.60193,0.90985 -0.79694,1.484082 -0.1878,0.582032 -0.28201,1.226968 -0.28201,1.938008 0,0.871148 0.12501,1.717995 0.37502,2.530941 0.24611,0.809044 0.63283,1.539185 1.15705,2.187221 0.51922,0.653236 1.17505,1.208267 1.96808,1.657192 0.80124,0.444925 1.75008,0.750042 2.84433,0.905851 l 0.1718,-0.562932 c -0.74223,-0.166809 -1.39806,-0.425023 -1.96918,-0.764842 -0.56173,-0.335919 -1.05395,-0.731341 -1.46806,-1.188366 -0.40702,-0.448825 -0.74294,-0.944953 -1.00005,-1.484083 -0.25001,-0.530829 -0.42582,-1.073859 -0.51602,-1.62509 0.21521,0.207111 0.44102,0.383221 0.67233,0.531329 0.22581,0.144908 0.45272,0.257815 0.67183,0.34372 0.21411,0.09031 0.42192,0.156308 0.60902,0.18711 0.19501,0.0403 0.36682,0.0629 0.51603,0.0629 0.49612,0 0.94504,-0.0816 1.34306,-0.234013 0.39491,-0.157008 0.72703,-0.382821 1.00004,-0.671837 0.26991,-0.293016 0.47702,-0.648936 0.62503,-1.062959 0.1449,-0.418023 0.2192,-0.883249 0.2192,-1.390377 z"
         style="fill:#000000;fill-opacity:1;fill-rule:nonzero;stroke:none"
         id="path3136"
         inkscape:connector-curvature="0" /><path
         d="m 812.33655,164.44608 0,0.50003 c 0.48913,0.051 0.89494,0.11401 1.21926,0.18801 0.31991,0.07 0.57772,0.14401 0.76603,0.21801 0.19491,0.071 0.33592,0.14501 0.42182,0.21902 0.0821,0.071 0.125,0.145 0.125,0.21901 l 0,7.46941 c 0,0.24602 -0.0121,0.44103 -0.032,0.57804 -0.023,0.144 -0.0699,0.25801 -0.1398,0.34402 -0.0313,0.039 -0.10631,0.07 -0.21921,0.093 -0.10501,0.02 -0.25821,0.024 -0.45312,0.016 -0.18791,0 -0.43012,-0.023 -0.71873,-0.063 -0.29302,-0.031 -0.64813,-0.089 -1.06225,-0.17101 l -0.20311,0.46802 c 0.26921,0.071 0.58213,0.17601 0.93714,0.31302 0.36292,0.13301 0.72703,0.27302 1.09425,0.42203 0.36292,0.152 0.71093,0.30401 1.04685,0.45302 0.33211,0.15201 0.60082,0.28902 0.81223,0.40602 l 0.34372,-0.32802 0,-10.00055 c 0,-0.063 0.0313,-0.13301 0.0941,-0.20301 0.07,-0.074 0.19501,-0.14901 0.37502,-0.21901 0.175,-0.074 0.41411,-0.15201 0.71803,-0.23402 0.30121,-0.074 0.68793,-0.13701 1.15705,-0.18801 l 0,-0.50003 -6.28228,0 z m 15.11086,0 -6.51628,0 -0.26531,0.68804 c 0.73793,0.86305 1.38216,1.62509 1.93718,2.28113 0.55082,0.66404 1.02314,1.25407 1.42196,1.7661 0.39412,0.50703 0.71913,0.95705 0.96914,1.34307 0.25711,0.38302 0.46102,0.72704 0.60903,1.03206 0.15201,0.30002 0.25781,0.57803 0.31291,0.82805 0.0582,0.24601 0.093,0.48802 0.093,0.71804 0,0.29001 -0.0391,0.56303 -0.10901,0.81304 -0.0629,0.24601 -0.17581,0.46103 -0.32771,0.64104 -0.14921,0.18301 -0.34032,0.33201 -0.57823,0.43702 -0.24291,0.10201 -0.53512,0.15601 -0.87504,0.15601 -0.25001,0 -0.48902,-0.066 -0.70313,-0.18701 -0.2109,-0.11701 -0.39491,-0.27002 -0.54692,-0.45303 -0.15701,-0.18801 -0.27811,-0.40302 -0.36011,-0.64103 -0.0859,-0.23002 -0.12501,-0.45703 -0.12501,-0.67204 -0.11681,-0.054 -0.21491,-0.10501 -0.29691,-0.15601 -0.0859,-0.055 -0.17501,-0.102 -0.26481,-0.14101 -0.0864,-0.031 -0.18011,-0.066 -0.28132,-0.093 -0.1058,-0.032 -0.23081,-0.055 -0.37501,-0.063 l -0.25001,0.28101 c 0,0.32102 0.109,0.66104 0.32811,1.01606 0.21491,0.35202 0.50712,0.67603 0.87504,0.96905 0.36291,0.30102 0.77313,0.54703 1.23405,0.73404 0.45712,0.18401 0.92584,0.28102 1.40596,0.28102 0.37112,0 0.72303,-0.054 1.04735,-0.15601 0.33201,-0.10501 0.61682,-0.26902 0.85974,-0.48403 0.23791,-0.21901 0.42501,-0.49603 0.56212,-0.82804 0.14501,-0.33602 0.21921,-0.73104 0.21921,-1.18807 0,-0.27302 -0.0434,-0.55503 -0.12501,-0.84405 -0.0742,-0.28101 -0.19921,-0.58903 -0.37501,-0.92205 -0.16841,-0.32402 -0.39532,-0.67904 -0.67233,-1.06206 -0.27381,-0.38702 -0.60193,-0.82404 -0.98404,-1.31307 -0.38712,-0.48003 -0.83594,-1.02306 -1.34376,-1.62509 -0.50002,-0.59303 -1.07115,-1.26907 -1.70328,-2.01511 l 3.90607,0 c 0.17621,0 0.31992,0.055 0.43712,0.17201 0.11411,0.113 0.20391,0.25001 0.26601,0.40602 0.07,0.15201 0.12501,0.31602 0.15591,0.48403 0.0391,0.17601 0.0672,0.31701 0.0781,0.42202 0.0199,0.11401 0.032,0.17201 0.032,0.17201 l 0.46802,-0.10901 -0.1398,-2.68815 z"
         style="fill:#000000;fill-opacity:1;fill-rule:nonzero;stroke:none"
         id="path3138"
         inkscape:connector-curvature="0" /><path
         d="m 780.31607,155.87161 0,0.50002 c 0.48832,0.051 0.89414,0.11301 1.21915,0.18802 0.31991,0.07 0.57813,0.144 0.76493,0.21801 0.19611,0.071 0.33632,0.14501 0.42222,0.21901 0.0821,0.07 0.12501,0.14501 0.12501,0.21901 l 0,7.46942 c 0,0.24601 -0.0121,0.44102 -0.0312,0.57803 -0.0239,0.14401 -0.0699,0.25701 -0.14101,0.34302 -0.0309,0.039 -0.1047,0.071 -0.21801,0.094 -0.1059,0.02 -0.25781,0.024 -0.45392,0.016 -0.18711,0 -0.42892,-0.024 -0.71803,-0.063 -0.29301,-0.031 -0.64883,-0.09 -1.06295,-0.17201 l -0.2031,0.46903 c 0.26991,0.07 0.58202,0.17601 0.93794,0.31301 0.36331,0.13201 0.72623,0.27302 1.09304,0.42203 0.36402,0.15201 0.71133,0.30402 1.04725,0.45302 0.33211,0.15201 0.60202,0.28902 0.81293,0.40603 l 0.34302,-0.32802 0,-10.00056 c 0,-0.063 0.032,-0.13301 0.0941,-0.20301 0.0699,-0.075 0.19491,-0.14901 0.37502,-0.21901 0.17581,-0.074 0.41412,-0.15201 0.71883,-0.23401 0.30111,-0.075 0.68713,-0.13701 1.15625,-0.18802 l 0,-0.50002 -6.28147,0 z m 9.00039,0 0,0.50002 c 0.48832,0.051 0.89414,0.11301 1.21915,0.18802 0.31991,0.07 0.57813,0.144 0.76493,0.21801 0.19611,0.071 0.33632,0.14501 0.42222,0.21901 0.0821,0.07 0.12501,0.14501 0.12501,0.21901 l 0,7.46942 c 0,0.24601 -0.0121,0.44102 -0.0312,0.57803 -0.0239,0.14401 -0.0699,0.25701 -0.14101,0.34302 -0.0309,0.039 -0.1047,0.071 -0.21801,0.094 -0.1059,0.02 -0.25781,0.024 -0.45392,0.016 -0.18711,0 -0.42892,-0.024 -0.71803,-0.063 -0.29301,-0.031 -0.64883,-0.09 -1.06295,-0.17201 l -0.20311,0.46903 c 0.26992,0.07 0.58203,0.17601 0.93795,0.31301 0.36331,0.13201 0.72623,0.27302 1.09304,0.42203 0.36402,0.15201 0.71133,0.30402 1.04725,0.45302 0.33211,0.15201 0.60202,0.28902 0.81293,0.40603 l 0.34302,-0.32802 0,-10.00056 c 0,-0.063 0.032,-0.13301 0.0941,-0.20301 0.0699,-0.075 0.19491,-0.14901 0.37502,-0.21901 0.17581,-0.074 0.41412,-0.15201 0.71883,-0.23401 0.30111,-0.075 0.68713,-0.13701 1.15625,-0.18802 l 0,-0.50002 -6.28147,0 z"
         style="fill:#000000;fill-opacity:1;fill-rule:nonzero;stroke:none"
         id="path3140"
         inkscape:connector-curvature="0" /><path
         d="m 756.68224,132.58531 0,0.50003 c 0.48793,0.051 0.89494,0.11301 1.21876,0.18701 0.32031,0.071 0.57812,0.14501 0.76523,0.21901 0.19611,0.07 0.33602,0.14501 0.42192,0.21902 0.0821,0.07 0.125,0.144 0.125,0.21901 l 0,7.46841 c 0,0.24602 -0.0109,0.44203 -0.0308,0.57803 -0.0231,0.14501 -0.07,0.25802 -0.1411,0.34402 -0.0308,0.039 -0.10501,0.071 -0.21791,0.094 -0.10631,0.02 -0.25821,0.023 -0.45312,0.016 -0.18791,0 -0.43012,-0.024 -0.71923,-0.063 -0.29302,-0.031 -0.64883,-0.09 -1.06295,-0.17201 l -0.20271,0.46902 c 0.26991,0.07 0.58163,0.17601 0.93794,0.31202 0.36292,0.13301 0.72583,0.27402 1.09295,0.42202 0.36412,0.15301 0.71103,0.30502 1.04695,0.45303 0.33211,0.15301 0.60202,0.29001 0.81293,0.40702 l 0.34422,-0.32802 0,-10.00055 c 0,-0.063 0.0308,-0.13301 0.0929,-0.20401 0.0711,-0.074 0.19611,-0.14801 0.37502,-0.21802 0.1762,-0.074 0.41411,-0.153 0.71923,-0.23501 0.30071,-0.074 0.68793,-0.13601 1.15585,-0.18701 l 0,-0.50003 -6.28108,0 z m 14.17242,5.2973 c 0,0.85104 -0.0699,1.60109 -0.20311,2.25012 -0.13671,0.65204 -0.32071,1.20307 -0.54692,1.64009 -0.21871,0.43403 -0.48082,0.76605 -0.78084,0.98506 -0.29301,0.21501 -0.59812,0.32802 -0.90714,0.32802 -0.32421,0 -0.61712,-0.09 -0.87503,-0.26602 -0.25002,-0.16801 -0.46403,-0.43302 -0.64023,-0.79704 -0.17971,-0.35502 -0.32072,-0.81605 -0.42192,-1.37508 -0.0937,-0.56203 -0.14101,-1.23807 -0.14101,-2.01511 0,-0.85605 0.0629,-1.61409 0.18791,-2.26613 0.12111,-0.65603 0.28911,-1.21106 0.50002,-1.65609 0.21521,-0.43802 0.47232,-0.77404 0.76524,-1.00005 0.30081,-0.21902 0.62902,-0.32802 0.98484,-0.32802 0.32031,0 0.60942,0.082 0.85944,0.25001 0.25781,0.17601 0.47692,0.44503 0.65582,0.81205 0.18401,0.36402 0.32902,0.82804 0.42192,1.39107 0.0903,0.57003 0.14101,1.25407 0.14101,2.04712 z m 1.53136,0.34302 c 0,-0.80405 -0.1012,-1.56609 -0.29731,-2.28113 -0.18711,-0.71904 -0.45702,-1.35108 -0.79693,-1.89011 -0.34292,-0.53203 -0.76094,-0.96105 -1.25006,-1.28207 -0.49212,-0.30801 -1.03514,-0.46802 -1.62507,-0.46802 -0.59292,0 -1.12105,0.16001 -1.57817,0.46802 -0.44881,0.32102 -0.82383,0.75004 -1.12504,1.28207 -0.30392,0.53903 -0.53473,1.17107 -0.68713,1.89011 -0.14881,0.71504 -0.21871,1.47708 -0.21871,2.28113 0,0.80904 0.0937,1.57908 0.28081,2.29712 0.19611,0.71504 0.46922,1.34808 0.81293,1.89111 0.34022,0.53903 0.75824,0.96905 1.25006,1.28107 0.48832,0.30902 1.03134,0.46903 1.62507,0.46903 0.59022,0 1.11335,-0.16001 1.56217,-0.46903 0.44612,-0.31202 0.82113,-0.74204 1.12504,-1.28107 0.30902,-0.53103 0.53913,-1.16407 0.68793,-1.89111 0.15241,-0.71804 0.23441,-1.48808 0.23441,-2.29712 z"
         style="fill:#000000;fill-opacity:1;fill-rule:nonzero;stroke:none"
         id="path3142"
         inkscape:connector-curvature="0" /><path
         d="m 762.45939,77.535052 c 0,-0.272615 0.0668,-0.511729 0.20391,-0.71874 0.13211,-0.199211 0.31212,-0.383221 0.53133,-0.54733 0.22581,-0.16801 0.48792,-0.319918 0.78083,-0.452726 0.28911,-0.125007 0.59423,-0.261014 0.90594,-0.406322 0.46522,0.332118 0.79733,0.664137 0.98514,1.000055 0.19501,0.332119 0.29692,0.672338 0.29692,1.016057 0,0.320418 -0.0551,0.601233 -0.15701,0.843047 -0.093,0.239113 -0.23011,0.438324 -0.40592,0.594233 -0.18001,0.151908 -0.39412,0.269915 -0.64103,0.344119 -0.25001,0.082 -0.52692,0.125007 -0.82813,0.125007 -0.28091,0 -0.52703,-0.059 -0.73403,-0.17231 -0.21091,-0.104706 -0.38282,-0.245713 -0.51603,-0.421823 -0.1359,-0.16801 -0.24181,-0.36292 -0.31171,-0.578232 -0.0742,-0.210912 -0.11021,-0.417924 -0.11021,-0.625035 z m 4.06308,-6.016335 c 0,0.414123 -0.0738,0.770343 -0.21871,1.06336 -0.1481,0.289116 -0.34031,0.53913 -0.57822,0.750041 -0.24221,0.214812 -0.51213,0.405923 -0.81214,0.561731 -0.30511,0.153109 -0.62193,0.305117 -0.95394,0.453126 -0.29301,-0.217912 -0.55002,-0.432824 -0.76483,-0.639836 -0.21141,-0.210912 -0.38322,-0.426224 -0.51603,-0.641036 -0.1372,-0.219212 -0.24221,-0.457125 -0.31221,-0.703139 -0.0628,-0.241813 -0.0941,-0.504028 -0.0941,-0.780943 0,-0.324218 0.0512,-0.628935 0.1563,-0.90635 0.11281,-0.282016 0.26992,-0.52773 0.46872,-0.734741 0.19491,-0.211012 0.43712,-0.371121 0.71914,-0.484027 0.28911,-0.117207 0.61292,-0.17231 0.96804,-0.17231 0.33991,0 0.63282,0.0621 0.87503,0.187111 0.24692,0.133207 0.45392,0.305117 0.61023,0.516128 0.15191,0.215212 0.26871,0.457026 0.34372,0.71914 0.0699,0.268715 0.109,0.53913 0.109,0.811745 z m 1.46916,0.407023 c 0,-0.492927 -0.1058,-0.950053 -0.31281,-1.375076 -0.19931,-0.429624 -0.47622,-0.808945 -0.82823,-1.141064 -0.34412,-0.323818 -0.75394,-0.585932 -1.21916,-0.780843 -0.46802,-0.18401 -0.97194,-0.282116 -1.50006,-0.282116 -0.54303,0 -1.02315,0.08601 -1.43676,0.250014 -0.40632,0.153208 -0.75824,0.36802 -1.04735,0.641136 -0.28091,0.276915 -0.50392,0.598033 -0.65593,0.953153 -0.14921,0.351919 -0.21911,0.72304 -0.21911,1.109761 0,0.332119 0.0551,0.656337 0.17231,0.968054 0.1207,0.321118 0.28861,0.625035 0.50002,0.907051 0.21481,0.289116 0.47582,0.562231 0.78083,0.812245 0.30082,0.246013 0.64103,0.473026 1.01605,0.671837 -0.27421,0.121107 -0.52812,0.258214 -0.76603,0.406323 -0.24221,0.152708 -0.45702,0.332018 -0.64103,0.530829 -0.17891,0.208212 -0.31992,0.437925 -0.42112,0.687938 -0.1058,0.258215 -0.15701,0.566032 -0.15701,0.922352 0,0.425823 0.082,0.819945 0.25001,1.186766 0.17621,0.37112 0.41412,0.692238 0.71913,0.953153 0.30082,0.270015 0.65593,0.477026 1.06295,0.625034 0.40202,0.153209 0.84304,0.235213 1.31216,0.235213 0.46492,0 0.88284,-0.0672 1.25005,-0.18831 0.36292,-0.125007 0.67193,-0.300017 0.92194,-0.514829 0.24611,-0.219212 0.43712,-0.489127 0.56213,-0.796944 0.1328,-0.305117 0.2039,-0.637135 0.2039,-1.000056 0,-0.262114 -0.0508,-0.512128 -0.141,-0.750041 -0.0937,-0.231313 -0.22691,-0.457026 -0.39102,-0.672338 -0.16801,-0.210911 -0.37071,-0.417923 -0.60902,-0.625034 -0.23091,-0.198811 -0.48793,-0.394922 -0.76604,-0.577732 0.30902,-0.156309 0.61013,-0.332019 0.89104,-0.516029 0.28911,-0.17891 0.53912,-0.394222 0.75003,-0.640336 0.21521,-0.250014 0.39102,-0.53863 0.51603,-0.859748 0.1321,-0.324218 0.2031,-0.707139 0.2031,-1.140363 z"
         style="fill:#000000;fill-opacity:1;fill-rule:nonzero;stroke:none"
         id="path3144"
         inkscape:connector-curvature="0" /><path
         d="m 791.47275,56.288171 c -0.29291,-0.667937 -0.58592,-1.351976 -0.87504,-2.047314 -0.29291,-0.686838 -0.58202,-1.366876 -0.85903,-2.031013 -0.27422,-0.668037 -0.53903,-1.321174 -0.79724,-1.953209 -0.26171,-0.625034 -0.50392,-1.223168 -0.71883,-1.782199 -0.21091,-0.553931 -0.40192,-1.066059 -0.57812,-1.530885 -0.18011,-0.461026 -0.31992,-0.855147 -0.42192,-1.187166 -0.21911,-0.157109 -0.44922,-0.293016 -0.68713,-0.407123 -0.24301,-0.100705 -0.51993,-0.19491 -0.82814,-0.280815 l -0.39102,0.312917 c 0.55113,0.957053 1.03905,1.867304 1.46917,2.734152 0.42502,0.863248 0.81993,1.703195 1.18715,2.51614 0.37072,0.820346 0.72703,1.625091 1.06295,2.406334 0.33201,0.789144 0.67192,1.586088 1.01494,2.391133 l -4.26509,0 c -0.0941,0 -0.184,-0.0082 -0.26601,-0.016 -0.0859,0 -0.1762,-0.0429 -0.26601,-0.125007 -0.093,-0.0742 -0.19881,-0.207011 -0.31211,-0.391022 -0.10591,-0.18711 -0.22701,-0.465226 -0.35982,-0.828146 l -0.43712,0.17191 c 0.0199,0.145308 0.0469,0.320318 0.0781,0.531229 0.027,0.214912 0.0629,0.441825 0.0938,0.671938 0.039,0.237913 0.082,0.460925 0.12501,0.671937 0.039,0.207012 0.0781,0.383221 0.109,0.53123 l 6.61039,0 0.31211,-0.35902 z"
         style="fill:#000000;fill-opacity:1;fill-rule:nonzero;stroke:none"
         id="path3146"
         inkscape:connector-curvature="0" /><path
         d="m 855.37742,49.103771 c 0,-0.54293 -0.085,-1.066059 -0.25001,-1.562187 -0.16701,-0.500027 -0.41402,-0.946152 -0.73403,-1.328173 -0.31202,-0.375021 -0.70704,-0.680138 -1.17206,-0.907051 -0.46102,-0.214112 -0.98004,-0.327818 -1.56206,-0.327818 -0.58603,0 -1.16405,0.105906 -1.73508,0.312917 -0.56202,0.214912 -1.11705,0.578232 -1.65607,1.07826 l 0.32801,0.641036 c 0.33202,-0.243414 0.63303,-0.434024 0.90604,-0.579332 0.27002,-0.136008 0.52003,-0.241814 0.75004,-0.311718 0.22701,-0.0743 0.43802,-0.129307 0.62502,-0.156308 0.19601,-0.0238 0.39102,-0.032 0.57903,-0.032 0.40202,0 0.75703,0.0793 1.06204,0.235113 0.30102,0.152008 0.55103,0.35902 0.75004,0.609034 0.19501,0.257814 0.34801,0.555131 0.45302,0.891049 0.102,0.332119 0.156,0.675838 0.156,1.030958 0,0.426223 -0.054,0.813345 -0.156,1.156264 -0.10501,0.352019 -0.26101,0.657136 -0.46902,0.90715 -0.21001,0.245714 -0.47602,0.441025 -0.79604,0.577732 -0.32501,0.132008 -0.70703,0.203112 -1.14105,0.203112 -0.137,0 -0.28901,-0.0199 -0.45302,-0.0468 -0.168,-0.0313 -0.34801,-0.0821 -0.53102,-0.141108 -0.18801,-0.0621 -0.37902,-0.144108 -0.56302,-0.233913 -0.18001,-0.0942 -0.35102,-0.207111 -0.51603,-0.328218 l -0.43702,0.312117 c 0.039,0.214912 0.082,0.473127 0.12501,0.766143 0.051,0.300717 0.102,0.616834 0.15601,0.952753 0.059,0.332018 0.117,0.672337 0.172,1.016056 0.051,0.340219 0.098,0.675038 0.14101,1.000056 0.039,0.332019 0.078,0.644136 0.109,0.937152 0.027,0.301217 0.051,0.562931 0.063,0.780944 l 4.09317,0 c 0.35202,0 0.62903,0.0242 0.82804,0.0793 0.20801,0.0578 0.31301,0.0929 0.31301,0.0929 l 0.26602,-0.265215 c -0.075,-0.105905 -0.16101,-0.214812 -0.25002,-0.327718 -0.086,-0.106306 -0.176,-0.211412 -0.26601,-0.313317 -0.094,-0.0938 -0.19101,-0.18401 -0.28101,-0.266015 -0.086,-0.08601 -0.16801,-0.159809 -0.25001,-0.218012 l -3.62516,0 c -0.012,-0.18011 -0.035,-0.414123 -0.063,-0.702739 -0.031,-0.282116 -0.07,-0.575032 -0.109,-0.875049 -0.043,-0.293416 -0.086,-0.571132 -0.12501,-0.829346 -0.043,-0.261014 -0.082,-0.464126 -0.11,-0.609034 0.24701,0.08201 0.54002,0.144908 0.87503,0.188311 0.34002,0.0386 0.67603,0.0617 1.00005,0.0617 0.55902,0 1.06304,-0.102006 1.50006,-0.296916 0.43402,-0.187111 0.80104,-0.444925 1.09405,-0.764843 0.28901,-0.313317 0.51602,-0.680138 0.67203,-1.094261 0.152,-0.417923 0.23401,-0.855847 0.23401,-1.312973 z"
         style="fill:#000000;fill-opacity:1;fill-rule:nonzero;stroke:none"
         id="path3148"
         inkscape:connector-curvature="0" /><path
         d="m 876.39033,78.191388 -3.50015,-5.422601 3.50015,0 0,5.422601 z m 2.68811,-5.719518 c -0.125,-0.198811 -0.24601,-0.350719 -0.36001,-0.453125 -0.10501,-0.093 -0.23001,-0.194911 -0.37502,-0.296916 l -0.65603,0 0,-2.312229 c 0,-0.0429 0.016,-0.0859 0.047,-0.125007 0.039,-0.0429 0.109,-0.0898 0.203,-0.141008 0.10201,-0.043 0.23802,-0.08871 0.40602,-0.139807 0.17601,-0.0551 0.39102,-0.105906 0.64103,-0.157109 l 0,-0.405823 -4.5782,0 0,0.405823 c 0.40202,0.059 0.73403,0.125007 0.98404,0.18791 0.25802,0.059 0.46102,0.117207 0.61003,0.17231 0.14401,0.0508 0.24201,0.100805 0.29601,0.155909 0.059,0.0511 0.094,0.101905 0.094,0.155808 l 0,2.203223 -4.6722,0 -0.31202,0.312917 4.6562,7.422713 c 0.25801,0.100805 0.48802,0.210912 0.68803,0.327718 0.20701,0.121107 0.40602,0.234013 0.59303,0.328218 l 0.34401,-0.328218 0,-7.01639 1.15605,0 0.23501,-0.296917 z"
         style="fill:#000000;fill-opacity:1;fill-rule:nonzero;stroke:none"
         id="path3150"
         inkscape:connector-curvature="0" /><path
         d="m 878.57042,132.49131 -6.51628,0 -0.26501,0.68804 c 0.73803,0.86304 1.38206,1.62509 1.93708,2.28112 0.55103,0.66404 1.02405,1.25407 1.42206,1.7651 0.39502,0.50803 0.71904,0.95805 0.96905,1.34408 0.25801,0.38302 0.46102,0.72704 0.60902,1.03105 0.15201,0.30102 0.25801,0.57903 0.31302,0.82905 0.058,0.24601 0.093,0.48803 0.093,0.71804 0,0.28901 -0.039,0.56303 -0.109,0.81304 -0.062,0.24602 -0.17601,0.46103 -0.32802,0.64004 -0.14901,0.18401 -0.34001,0.33302 -0.57802,0.43802 -0.24201,0.10201 -0.53503,0.15601 -0.87504,0.15601 -0.25001,0 -0.48902,-0.066 -0.70303,-0.18701 -0.21101,-0.117 -0.39502,-0.27001 -0.54703,-0.45302 -0.157,-0.18801 -0.27801,-0.40303 -0.36001,-0.64104 -0.086,-0.23001 -0.12501,-0.45702 -0.12501,-0.67204 -0.117,-0.055 -0.21401,-0.105 -0.29601,-0.156 -0.086,-0.055 -0.17601,-0.10201 -0.26601,-0.14101 -0.086,-0.031 -0.18001,-0.066 -0.28101,-0.094 -0.10601,-0.031 -0.23101,-0.054 -0.37502,-0.062 l -0.25001,0.28101 c 0,0.32102 0.109,0.66004 0.32801,1.01606 0.21501,0.35102 0.50803,0.67604 0.87504,0.96905 0.36302,0.30002 0.77304,0.54603 1.23406,0.73405 0.45701,0.18401 0.92604,0.28101 1.40606,0.28101 0.37101,0 0.72303,-0.054 1.04704,-0.15601 0.33202,-0.105 0.61703,-0.27001 0.86004,-0.48402 0.23801,-0.21902 0.42502,-0.49603 0.56202,-0.82905 0.14501,-0.33502 0.21901,-0.73004 0.21901,-1.18707 0,-0.27301 -0.043,-0.55503 -0.125,-0.84404 -0.074,-0.28102 -0.19901,-0.59004 -0.37502,-0.92205 -0.16801,-0.32402 -0.39502,-0.67904 -0.67203,-1.06206 -0.27301,-0.38703 -0.60202,-0.82405 -0.98404,-1.31308 -0.38702,-0.48002 -0.83604,-1.02305 -1.34406,-1.62509 -0.50002,-0.59303 -1.07005,-1.26907 -1.70307,-2.01511 l 3.90617,0 c 0.176,0 0.32001,0.054 0.43802,0.17201 0.113,0.11301 0.203,0.25001 0.26501,0.40602 0.07,0.15201 0.125,0.31602 0.156,0.48403 0.039,0.17601 0.067,0.31702 0.079,0.42202 0.019,0.11301 0.031,0.17201 0.031,0.17201 l 0.46902,-0.109 -0.14101,-2.68815 z"
         style="fill:#000000;fill-opacity:1;fill-rule:nonzero;stroke:none"
         id="path3152"
         inkscape:connector-curvature="0" /><path
         d="m 848.82313,155.87161 0,0.50002 c 0.48803,0.051 0.89404,0.11301 1.21906,0.18802 0.32001,0.07 0.57802,0.144 0.76503,0.21801 0.19501,0.071 0.33601,0.14501 0.42202,0.21901 0.082,0.07 0.125,0.14501 0.125,0.21901 l 0,7.46942 c 0,0.24601 -0.012,0.44102 -0.031,0.57803 -0.024,0.14401 -0.071,0.25701 -0.141,0.34302 -0.031,0.039 -0.10501,0.071 -0.21901,0.094 -0.10501,0.02 -0.25701,0.024 -0.45302,0.016 -0.18701,0 -0.42902,-0.024 -0.71803,-0.063 -0.29302,-0.031 -0.64903,-0.09 -1.06305,-0.17201 l -0.20301,0.46903 c 0.26901,0.07 0.58203,0.17601 0.93704,0.31301 0.36402,0.13201 0.72703,0.27302 1.09405,0.42203 0.36302,0.15201 0.71103,0.30402 1.04704,0.45302 0.33202,0.15201 0.60203,0.28902 0.81304,0.40603 l 0.34301,-0.32802 0,-10.00056 c 0,-0.063 0.032,-0.13301 0.094,-0.20301 0.07,-0.075 0.19501,-0.14901 0.37502,-0.21901 0.176,-0.074 0.41401,-0.15201 0.71903,-0.23401 0.30101,-0.075 0.68703,-0.13701 1.15605,-0.18802 l 0,-0.50002 -6.28128,0 z"
         style="fill:#000000;fill-opacity:1;fill-rule:nonzero;stroke:none"
         id="path3154"
         inkscape:connector-curvature="0" /><path
         d="m 899.81034,106.27377 c 0,-44.178793 -35.81599,-79.999783 -79.99998,-79.999783 -44.18009,0 -80.00002,35.82099 -80.00002,79.999783 0,44.1843 35.81993,80.00022 80.00002,80.00022 44.18399,0 79.99998,-35.81592 79.99998,-80.00022 z"
         style="fill:none;stroke:#000000;stroke-width:1.59999812;stroke-linecap:butt;stroke-linejoin:miter;stroke-miterlimit:4;stroke-opacity:1;stroke-dasharray:none"
         id="path3156"
         inkscape:connector-curvature="0" /></g></g></svg>